<?xml version="1.0" encoding="UTF-8"?>
<svg version="1.1" xmlns="http://www.w3.org/2000/svg" width="1080" height="1080">
<path d="M0 0 C356.4 0 712.8 0 1080 0 C1080 356.4 1080 712.8 1080 1080 C723.6 1080 367.2 1080 0 1080 C0 723.6 0 367.2 0 0 Z " fill="#FEFEFE" transform="translate(0,0)"/>
<path d="M0 0 C2.68342842 -0.00964395 5.3660688 -0.04071541 8.04931641 -0.07226562 C24.238751 -0.17392481 39.26677515 1.99100071 54.71728516 6.92773438 C55.82104492 7.27513672 56.92480469 7.62253906 58.06201172 7.98046875 C85.15884935 16.72646752 107.73922503 31.19111662 128.71728516 50.24023438 C129.48814453 50.93761719 130.25900391 51.635 131.05322266 52.35351562 C162.92675212 82.73094065 182.42277408 128.92476498 183.99853516 172.59960938 C184.28877707 186.38457259 183.25802578 199.69547872 180.71728516 213.24023438 C180.58918457 213.92569336 180.46108398 214.61115234 180.32910156 215.31738281 C179.56125258 219.31822731 178.67157158 223.28020088 177.71728516 227.24023438 C177.52779297 228.09617187 177.33830078 228.95210937 177.14306641 229.83398438 C169.86881218 259.85765785 152.49523456 285.93395944 131.71728516 308.24023438 C131.03279297 308.97886719 130.34830078 309.7175 129.64306641 310.47851562 C111.94104635 328.90039602 88.66215011 342.68849689 64.71728516 351.24023438 C63.91967773 351.52785645 63.12207031 351.81547852 62.30029297 352.11181641 C16.92844317 368.20789737 -31.98192611 365.45404709 -75.60522461 345.07592773 C-88.0680407 339.04993822 -99.47469112 331.92575215 -110.28271484 323.24023438 C-110.83282227 322.7984082 -111.38292969 322.35658203 -111.94970703 321.90136719 C-141.37908374 298.04913124 -161.39705438 266.39584662 -172.28271484 230.24023438 C-172.58822266 229.27085937 -172.89373047 228.30148437 -173.20849609 227.30273438 C-177.37968879 213.27041432 -178.77081157 199.04152129 -178.61889648 184.47094727 C-178.59511752 182.04279612 -178.59839591 179.61574003 -178.60498047 177.1875 C-178.55378512 148.15991994 -171.23740844 119.70095502 -157.28271484 94.24023438 C-156.63808822 93.02674337 -155.99355593 91.81320225 -155.34912109 90.59960938 C-150.76993695 82.13674012 -145.36788778 74.65007081 -139.28271484 67.24023438 C-138.81849121 66.66772949 -138.35426758 66.09522461 -137.87597656 65.50537109 C-121.9351657 45.93452807 -102.74248124 30.78167583 -80.28271484 19.24023438 C-79.62513184 18.89653809 -78.96754883 18.5528418 -78.29003906 18.19873047 C-53.51967951 5.38357237 -27.68619677 0.05989442 0 0 Z " fill="#C9E0F6" transform="translate(414.28271484375,100.759765625)"/>
<path d="M0 0 C0.70914551 0.3393457 1.41829102 0.67869141 2.14892578 1.02832031 C19.10044721 9.28390467 32.76369844 20.68408159 46 34 C46.54438721 34.52295654 47.08877441 35.04591309 47.6496582 35.5847168 C69.64274634 56.92943451 82.53676403 87.25919593 88 117 C88.17660156 117.8976709 88.35320312 118.7953418 88.53515625 119.72021484 C95.75098728 158.71791594 85.30537938 202.37927345 63 235 C53.37559898 248.53155464 42.27203597 260.98268675 29 271 C28.01257813 271.77601563 27.02515625 272.55203125 26.0078125 273.3515625 C9.59479288 285.93244524 -9.20972359 294.34185818 -29 300 C-30.13824219 300.33515625 -31.27648437 300.6703125 -32.44921875 301.015625 C-35.28868422 301.78899076 -38.11312625 302.43064434 -41 303 C-41.99 303.20367188 -42.98 303.40734375 -44 303.6171875 C-65.02758141 307.17045936 -87.36359263 306.20465245 -108 301 C-109.27858887 300.67854004 -109.27858887 300.67854004 -110.58300781 300.35058594 C-144.1485599 291.62582836 -174.73600681 272.62794814 -196 245 C-197.10988281 243.61361328 -197.10988281 243.61361328 -198.2421875 242.19921875 C-223.62723787 209.74324605 -234.7403165 167.62819338 -230.5390625 126.8046875 C-225.52780178 86.90123349 -206.92019761 47.49568874 -175 22 C-174.4548877 21.56429687 -173.90977539 21.12859375 -173.34814453 20.6796875 C-154.75776998 5.95307891 -134.09061664 -5.22029742 -111 -11 C-109.61748047 -11.41185547 -109.61748047 -11.41185547 -108.20703125 -11.83203125 C-72.61006452 -22.02411058 -32.79325428 -15.73157967 0 0 Z " fill="#C9E0F6" transform="translate(592,631)"/>
<path d="M0 0 C0.72445312 0.62261719 1.44890625 1.24523437 2.1953125 1.88671875 C2.87851562 2.43714844 3.56171875 2.98757813 4.265625 3.5546875 C24.78248806 20.49115681 39.4944378 49.47816608 42.1953125 75.88671875 C42.84665068 90.74966035 42.85073207 105.41243643 39.1953125 119.88671875 C39.02902344 120.54639648 38.86273437 121.20607422 38.69140625 121.88574219 C31.05589944 151.19760446 11.99336427 176.46298474 -13.9296875 192.07421875 C-43.37536876 209.16509186 -76.14371952 213.00878183 -108.88574219 204.33544922 C-139.16179632 195.95373112 -163.49153174 174.3516873 -178.82421875 147.3984375 C-192.40444712 121.74689503 -196.54005786 93.14394695 -189.8046875 64.88671875 C-189.59972656 63.86835938 -189.39476562 62.85 -189.18359375 61.80078125 C-183.23904425 34.25647116 -164.56581057 9.06339081 -141.3828125 -6.46484375 C-140.53203125 -7.00882812 -139.68125 -7.5528125 -138.8046875 -8.11328125 C-137.89203125 -8.69851563 -136.979375 -9.28375 -136.0390625 -9.88671875 C-93.99699287 -35.6290555 -37.72111056 -31.68324303 0 0 Z " fill="#C9E0F6" transform="translate(912.8046875,367.11328125)"/>
<path d="M0 0 C2.68342842 -0.00964395 5.3660688 -0.04071541 8.04931641 -0.07226562 C24.238751 -0.17392481 39.26677515 1.99100071 54.71728516 6.92773438 C55.82104492 7.27513672 56.92480469 7.62253906 58.06201172 7.98046875 C85.15884935 16.72646752 107.73922503 31.19111662 128.71728516 50.24023438 C129.48814453 50.93761719 130.25900391 51.635 131.05322266 52.35351562 C162.92675212 82.73094065 182.42277408 128.92476498 183.99853516 172.59960938 C184.28877707 186.38457259 183.25802578 199.69547872 180.71728516 213.24023438 C180.58918457 213.92569336 180.46108398 214.61115234 180.32910156 215.31738281 C179.56125258 219.31822731 178.67157158 223.28020088 177.71728516 227.24023438 C177.52779297 228.09617187 177.33830078 228.95210937 177.14306641 229.83398438 C169.86881218 259.85765785 152.49523456 285.93395944 131.71728516 308.24023438 C131.03279297 308.97886719 130.34830078 309.7175 129.64306641 310.47851562 C111.94104635 328.90039602 88.66215011 342.68849689 64.71728516 351.24023438 C63.91967773 351.52785645 63.12207031 351.81547852 62.30029297 352.11181641 C16.92844317 368.20789737 -31.98192611 365.45404709 -75.60522461 345.07592773 C-88.0680407 339.04993822 -99.47469112 331.92575215 -110.28271484 323.24023438 C-110.83282227 322.7984082 -111.38292969 322.35658203 -111.94970703 321.90136719 C-141.37908374 298.04913124 -161.39705438 266.39584662 -172.28271484 230.24023438 C-172.58822266 229.27085937 -172.89373047 228.30148437 -173.20849609 227.30273438 C-177.37968879 213.27041432 -178.77081157 199.04152129 -178.61889648 184.47094727 C-178.59511752 182.04279612 -178.59839591 179.61574003 -178.60498047 177.1875 C-178.55378512 148.15991994 -171.23740844 119.70095502 -157.28271484 94.24023438 C-156.63808822 93.02674337 -155.99355593 91.81320225 -155.34912109 90.59960938 C-150.76993695 82.13674012 -145.36788778 74.65007081 -139.28271484 67.24023438 C-138.81849121 66.66772949 -138.35426758 66.09522461 -137.87597656 65.50537109 C-121.9351657 45.93452807 -102.74248124 30.78167583 -80.28271484 19.24023438 C-79.62513184 18.89653809 -78.96754883 18.5528418 -78.29003906 18.19873047 C-53.51967951 5.38357237 -27.68619677 0.05989442 0 0 Z M-99.28271484 80.24023438 C-100.00716797 80.9028125 -100.73162109 81.56539062 -101.47802734 82.24804688 C-119.77686095 99.36153093 -131.70943308 124.05171505 -136.86083984 148.30029297 C-137.26744168 150.17000255 -137.72723647 152.02790109 -138.18896484 153.88476562 C-146.25902338 189.56488556 -136.98907441 227.48640556 -118.28271484 258.24023438 C-115.56292147 262.47451978 -112.54218756 266.40625028 -109.28271484 270.24023438 C-108.20763672 271.50480469 -108.20763672 271.50480469 -107.11083984 272.79492188 C-104.88504526 275.32853912 -102.59902303 277.78925711 -100.28271484 280.24023438 C-99.48607422 281.11292969 -98.68943359 281.985625 -97.86865234 282.88476562 C-74.83779498 307.20284613 -41.2320026 321.97690793 -7.90844727 323.38256836 C8.02167777 323.81199007 23.28621901 323.61770003 38.71728516 319.24023438 C39.48427734 319.02592773 40.25126953 318.81162109 41.04150391 318.59082031 C52.23050758 315.37187327 62.51859353 310.82236717 72.71728516 305.24023438 C74.08433594 304.50160156 74.08433594 304.50160156 75.47900391 303.74804688 C107.92444501 285.25257803 130.38985967 253.74576308 140.71728516 218.24023438 C150.67210888 181.85567128 145.06633083 142.85520475 126.71728516 110.24023438 C115.17425439 90.34736578 99.34379712 72.42488563 79.71728516 60.24023438 C79.00008301 59.79196289 78.28288086 59.34369141 77.54394531 58.88183594 C20.37980254 23.8211617 -51.87253551 33.88069613 -99.28271484 80.24023438 Z " fill="#A5CBF0" transform="translate(414.28271484375,100.759765625)"/>
<path d="M0 0 C1.67514225 1.55340995 3.34158972 3.11623956 5 4.6875 C5.88558594 5.50863281 6.77117187 6.32976562 7.68359375 7.17578125 C30.88742945 29.39221969 47.42840702 62.32966697 49.16113281 94.69750977 C49.74519591 138.94708091 39.28317912 176.3775341 8.4921875 209.234375 C4.2580462 213.40215045 -0.28315577 217.08324473 -5 220.6875 C-5.85078125 221.35394531 -6.7015625 222.02039063 -7.578125 222.70703125 C-20.01217554 232.14425225 -33.2915829 238.66661626 -48 243.6875 C-49.01449219 244.06648438 -50.02898437 244.44546875 -51.07421875 244.8359375 C-79.12118213 255.01396241 -112.0456497 253.08021765 -140 243.6875 C-141.10988281 243.31753906 -142.21976562 242.94757813 -143.36328125 242.56640625 C-162.05873094 235.83790692 -177.62267687 225.29863349 -192 211.6875 C-192.88429688 210.86765625 -193.76859375 210.0478125 -194.6796875 209.203125 C-220.82566631 184.16816512 -235.01345869 149.06031475 -236.27734375 113.15234375 C-236.53560179 100.94105727 -235.9586075 89.54721726 -233 77.6875 C-232.69285342 76.32086285 -232.38823463 74.95365552 -232.0859375 73.5859375 C-230.19058282 65.24911671 -227.64341971 57.43988749 -224 49.6875 C-223.4740625 48.55570312 -222.948125 47.42390625 -222.40625 46.2578125 C-205.93308529 12.03855672 -176.15388681 -14.50918116 -140.33789062 -27.26025391 C-92.07288278 -43.08355753 -38.39215444 -33.8330861 0 0 Z M7 21.6875 C6.78085937 22.45191406 6.56171875 23.21632812 6.3359375 24.00390625 C-4.0227403 58.99602515 -24.77073637 88.09921969 -57.3046875 105.77734375 C-77.30695159 116.29162848 -97.54254431 122.13858345 -120.25 122.125 C-120.94565063 122.12540283 -121.64130127 122.12580566 -122.35803223 122.1262207 C-142.58369988 122.05927505 -160.60913117 117.6824545 -179.09912109 109.52197266 C-181.37800984 108.5215563 -183.68203958 107.5933162 -186 106.6875 C-184.48441619 104.03522833 -182.97144305 101.65358862 -181 99.3125 C-175.79671482 92.4831882 -175.01080239 86.1294023 -176 77.6875 C-178.01989174 70.48562409 -183.05750553 65.9699968 -189.375 62.3125 C-196.78130491 60.54909407 -202.11406984 61.59575675 -208.7734375 65.265625 C-213.83329629 68.49683307 -216.87052362 72.7035191 -220 77.6875 C-221.32 77.3575 -222.64 77.0275 -224 76.6875 C-231.50661098 110.78002488 -225.97515792 146.60856834 -208 176.625 C-202.15108461 185.740776 -195.3584112 193.76007282 -188 201.6875 C-187.13181641 202.67169922 -187.13181641 202.67169922 -186.24609375 203.67578125 C-166.22811852 225.3059424 -132.50550005 239.32356027 -103.27197266 240.82788086 C-68.23808938 241.97022817 -34.9836157 232.82639137 -8 209.6875 C-7.48356934 209.24792969 -6.96713867 208.80835938 -6.43505859 208.35546875 C18.99613199 186.53259856 35.10948542 155.98720039 39 122.6875 C39.31036749 117.6839475 39.38183655 112.69993637 39.375 107.6875 C39.37445618 107.01007751 39.37391235 106.33265503 39.37335205 105.63470459 C39.33044424 93.95588594 38.25832098 82.9382611 35 71.6875 C34.69449219 70.61169678 34.69449219 70.61169678 34.3828125 69.51416016 C29.3401132 52.37442989 20.58343871 35.34259217 9 21.6875 C8.34 21.6875 7.68 21.6875 7 21.6875 Z " fill="#FEFEFE" transform="translate(510,173.3125)"/>
<path d="M0 0 C0.70914551 0.3393457 1.41829102 0.67869141 2.14892578 1.02832031 C19.10044721 9.28390467 32.76369844 20.68408159 46 34 C46.54438721 34.52295654 47.08877441 35.04591309 47.6496582 35.5847168 C69.64274634 56.92943451 82.53676403 87.25919593 88 117 C88.17660156 117.8976709 88.35320312 118.7953418 88.53515625 119.72021484 C95.75098728 158.71791594 85.30537938 202.37927345 63 235 C53.37559898 248.53155464 42.27203597 260.98268675 29 271 C28.01257813 271.77601563 27.02515625 272.55203125 26.0078125 273.3515625 C9.59479288 285.93244524 -9.20972359 294.34185818 -29 300 C-30.13824219 300.33515625 -31.27648437 300.6703125 -32.44921875 301.015625 C-35.28868422 301.78899076 -38.11312625 302.43064434 -41 303 C-41.99 303.20367188 -42.98 303.40734375 -44 303.6171875 C-65.02758141 307.17045936 -87.36359263 306.20465245 -108 301 C-109.27858887 300.67854004 -109.27858887 300.67854004 -110.58300781 300.35058594 C-144.1485599 291.62582836 -174.73600681 272.62794814 -196 245 C-197.10988281 243.61361328 -197.10988281 243.61361328 -198.2421875 242.19921875 C-223.62723787 209.74324605 -234.7403165 167.62819338 -230.5390625 126.8046875 C-225.52780178 86.90123349 -206.92019761 47.49568874 -175 22 C-174.4548877 21.56429687 -173.90977539 21.12859375 -173.34814453 20.6796875 C-154.75776998 5.95307891 -134.09061664 -5.22029742 -111 -11 C-109.61748047 -11.41185547 -109.61748047 -11.41185547 -108.20703125 -11.83203125 C-72.61006452 -22.02411058 -32.79325428 -15.73157967 0 0 Z M-168.78515625 64.23046875 C-186.86449609 86.83761504 -197.46249368 114.69252938 -197.3125 143.75 C-197.30758545 144.88816162 -197.3026709 146.02632324 -197.29760742 147.19897461 C-197.17382843 156.13708747 -196.26072329 164.32321586 -194 173 C-193.75854248 173.99290039 -193.75854248 173.99290039 -193.51220703 175.00585938 C-185.90705928 206.01089977 -166.72649582 233.99603969 -139.6875 251.1875 C-129.30133524 257.29848798 -118.75588704 263.10033098 -107 266 C-105.79214844 266.33773437 -104.58429688 266.67546875 -103.33984375 267.0234375 C-71.55622851 275.87070569 -36.88286137 271.09335296 -8.11279297 254.94042969 C21.13301219 237.63621538 42.94485586 210.96650291 52 178 C60.18159078 144.0208069 56.18412376 109.08095206 38.15722656 78.85449219 C32.7230931 70.14612135 26.02312376 62.45414579 19 55 C18.08347656 53.98679687 18.08347656 53.98679687 17.1484375 52.953125 C-3.03340609 31.48307863 -34.57108485 19.04802673 -63.65234375 17.6875 C-104.64266759 16.49634521 -141.92584702 33.3884048 -168.78515625 64.23046875 Z " fill="#A5CBF0" transform="translate(592,631)"/>
<path d="M0 0 C27.14306803 21.97994249 45.23759696 51.84063448 49.31640625 86.8515625 C52.55703576 120.26516985 43.89311209 153.42966457 22.75 179.75 C19.86051605 183.19983918 16.85841722 186.4972634 13.75 189.75 C12.76 190.85214844 12.76 190.85214844 11.75 191.9765625 C-8.04252555 213.19355011 -40.33901998 226.59110073 -69.02294922 227.87402344 C-82.04685151 228.23474701 -94.58058928 227.94169881 -107.25 224.75 C-107.91402832 224.58371094 -108.57805664 224.41742187 -109.26220703 224.24609375 C-140.67747131 216.05674173 -168.34466845 195.15339993 -185.125 167.4609375 C-201.77331256 138.9057274 -208.46599011 104.94569151 -200.57421875 72.4921875 C-191.41422788 38.40096861 -170.8339083 9.87184883 -140.25 -8.25 C-96.47996027 -33.18936774 -40.32085697 -31.34690472 0 0 Z M12.75 24.75 C12.358125 25.801875 11.96625 26.85375 11.5625 27.9375 C11.28535156 28.6696875 11.00820313 29.401875 10.72265625 30.15625 C10.02925109 32.00533042 9.35120421 33.86020073 8.68359375 35.71875 C-2.17195427 65.2401083 -23.50426394 89.36865341 -52.125 102.625 C-53.8280965 103.34583369 -55.53624967 104.05487506 -57.25 104.75 C-58.06597656 105.10578125 -58.88195312 105.4615625 -59.72265625 105.828125 C-86.94575832 117.39039339 -118.07418059 116.06557743 -145.35693359 105.52734375 C-148.8456515 104.09478277 -152.19987919 102.4547542 -155.5 100.6328125 C-157.22093143 99.59986686 -157.22093143 99.59986686 -159.25 99.75 C-158.68410156 99.00234375 -158.11820312 98.2546875 -157.53515625 97.484375 C-156.80167969 96.49953125 -156.06820312 95.5146875 -155.3125 94.5 C-154.58160156 93.52546875 -153.85070312 92.5509375 -153.09765625 91.546875 C-149.33852892 85.85652581 -149.50824168 79.40024698 -150.25 72.75 C-152.05061658 67.74380144 -155.23084483 63.75045656 -160.1015625 61.37890625 C-165.50189838 59.79808066 -171.29316469 59.63439936 -176.58984375 61.6328125 C-181.29796044 64.36189358 -185.23538913 68.21666471 -188.25 72.75 C-188.25 73.41 -188.25 74.07 -188.25 74.75 C-189.57 74.09 -190.89 73.43 -192.25 72.75 C-199.69708337 102.89295648 -194.25958826 133.83261863 -179.0859375 160.734375 C-162.55789132 187.88257001 -136.23008288 208.07909431 -105.25 215.75 C-104.08984375 216.04777344 -102.9296875 216.34554687 -101.734375 216.65234375 C-70.70067131 223.58065003 -38.96320616 216.35881357 -12.25 199.75 C14.56229103 181.67406972 32.74503473 154.36030822 39.37231445 122.7800293 C45.36160244 90.5880903 37.10373594 58.99227216 19.359375 31.96875 C17.3703536 29.22660399 15.29098332 26.98298535 12.75 24.75 Z " fill="#FDFEFE" transform="translate(598.25,674.25)"/>
<path d="M0 0 C0.72445312 0.62261719 1.44890625 1.24523437 2.1953125 1.88671875 C2.87851562 2.43714844 3.56171875 2.98757813 4.265625 3.5546875 C24.78248806 20.49115681 39.4944378 49.47816608 42.1953125 75.88671875 C42.84665068 90.74966035 42.85073207 105.41243643 39.1953125 119.88671875 C39.02902344 120.54639648 38.86273437 121.20607422 38.69140625 121.88574219 C31.05589944 151.19760446 11.99336427 176.46298474 -13.9296875 192.07421875 C-43.37536876 209.16509186 -76.14371952 213.00878183 -108.88574219 204.33544922 C-139.16179632 195.95373112 -163.49153174 174.3516873 -178.82421875 147.3984375 C-192.40444712 121.74689503 -196.54005786 93.14394695 -189.8046875 64.88671875 C-189.59972656 63.86835938 -189.39476562 62.85 -189.18359375 61.80078125 C-183.23904425 34.25647116 -164.56581057 9.06339081 -141.3828125 -6.46484375 C-140.53203125 -7.00882812 -139.68125 -7.5528125 -138.8046875 -8.11328125 C-137.89203125 -8.69851563 -136.979375 -9.28375 -136.0390625 -9.88671875 C-93.99699287 -35.6290555 -37.72111056 -31.68324303 0 0 Z M-141.8046875 25.88671875 C-159.11398721 44.32574973 -168.39119145 67.99603178 -168.01953125 93.2421875 C-167.23261495 116.60040491 -158.31406279 137.55939471 -142.8046875 154.88671875 C-142.26585937 155.50804687 -141.72703125 156.129375 -141.171875 156.76953125 C-126.14028939 173.00968656 -103.5371909 182.75559851 -81.63256836 184.01123047 C-55.99471532 184.91178558 -33.4825564 177.60163521 -13.8046875 160.88671875 C-12.82886719 160.11199219 -11.85304688 159.33726562 -10.84765625 158.5390625 C-7.61919519 155.84192561 -5.01272691 152.8213555 -2.4296875 149.51171875 C-1.95853516 148.90956543 -1.48738281 148.30741211 -1.00195312 147.68701172 C3.93538463 141.19042652 7.6899997 134.23489299 11.1953125 126.88671875 C11.54207031 126.17386719 11.88882813 125.46101563 12.24609375 124.7265625 C13.074419 122.79380359 13.6580457 120.92116905 14.1953125 118.88671875 C14.47117187 117.84515625 14.74703125 116.80359375 15.03125 115.73046875 C20.56811238 91.1447679 18.08536592 65.65076428 5.34765625 43.703125 C0.93358894 36.81437184 -4.16541236 30.79453081 -9.8046875 24.88671875 C-10.34351563 24.273125 -10.88234375 23.65953125 -11.4375 23.02734375 C-24.07724776 9.1807859 -44.53883665 0.94691542 -62.8046875 -1.11328125 C-92.99068005 -2.44029974 -119.95519038 3.93274524 -141.8046875 25.88671875 Z " fill="#A5CBF0" transform="translate(912.8046875,367.11328125)"/>
<path d="M0 0 C1.71509766 0.51046875 1.71509766 0.51046875 3.46484375 1.03125 C18.11698934 5.82355397 29.27225255 13.14999901 40 24 C40.80179688 24.79148437 41.60359375 25.58296875 42.4296875 26.3984375 C52.05746821 36.42598765 58.87902619 48.76440176 63 62 C63.31839844 63.00417969 63.63679687 64.00835937 63.96484375 65.04296875 C70.31658283 89.07420277 66.05518481 114.48492412 54.375 135.9921875 C40.01932647 159.80328061 18.72104913 173.49034428 -7.71875 180.74609375 C-29.50354295 185.62077736 -54.08355604 180.76723333 -73.2109375 169.79296875 C-95.10111752 155.72071016 -110.90490783 135.60551284 -117 110 C-122.01597671 85.57935911 -118.47657259 60.39675525 -104.85644531 39.22216797 C-102.41787909 35.6627637 -99.74957843 32.32132441 -97 29 C-96.53464844 28.37222656 -96.06929687 27.74445313 -95.58984375 27.09765625 C-82.9104358 10.61830341 -61.27266114 0.62031569 -41.19140625 -2.61328125 C-27.51920941 -4.10943357 -13.20688284 -4.01878153 0 0 Z M39 33 C38.57589844 34.24394531 38.15179687 35.48789062 37.71484375 36.76953125 C33.1860801 49.74650714 28.09045138 60.16315064 18.50390625 70.22265625 C16.78468592 71.86642269 16.78468592 71.86642269 17 74 C16.443125 74.24234375 15.88625 74.4846875 15.3125 74.734375 C12.52586945 76.25949037 10.39057673 78.15824536 8 80.25 C-9.36473814 94.60178358 -31.91152895 99.7014563 -54 98 C-65.74287071 96.583666 -75.76728933 92.85666398 -86 87 C-85.36578125 86.22140625 -84.7315625 85.4428125 -84.078125 84.640625 C-80.42360175 79.99690749 -79.53825516 76.03807657 -79.68359375 70.21484375 C-80.33355263 65.66513162 -82.83145421 62.97378816 -86.25 60.125 C-89.93886881 58.6159173 -93.12131246 58.23569141 -97 59 C-102.22753169 61.30542686 -105.60164912 64.42529689 -109 69 C-109.66 69 -110.32 69 -111 69 C-116.9414949 90.59096807 -111.72621281 112.94244553 -101.3125 132.1875 C-89.26584957 152.77605589 -70.5916394 166.56788711 -47.6875 173 C-25.86577346 178.59999056 -2.17920787 174.59321904 17.375 163.6875 C37.53231683 151.1133051 51.69946367 132.82309788 57.75 109.75 C63.01107218 86.71423199 59.84483506 63.09436084 47.4375 42.875 C44.99942151 39.12141153 42.22688577 36.10001675 39 33 Z " fill="#FDFEFE" transform="translate(864,369)"/>
<path d="M0 0 C6.80032403 5.47625338 12.66505183 14.02056082 14 22.7890625 C14.25757458 32.72841108 11.26719985 41.62716545 4.94140625 49.3515625 C-0.6686486 55.15359642 -8.52400994 59.37000926 -16.68359375 59.7265625 C-29.13219603 59.47687707 -40.29467533 52.52835825 -50.9362793 46.71777344 C-67.59801262 37.70426156 -83.93776234 33.73489629 -102.6796875 38.19921875 C-115.83730662 42.30662366 -126.8811972 50.10733787 -137.83740234 58.26342773 C-141.09188922 60.57244524 -143.39941478 60.81881885 -147.37109375 60.3515625 C-150.39645166 58.378503 -151.97358675 56.83241605 -152.92578125 53.28515625 C-153.93414794 41.04358463 -144.76010574 29.65373596 -137.3203125 20.73828125 C-129.01242981 11.08481384 -120.30675529 3.03281046 -109.37109375 -3.6484375 C-108.75169922 -4.03660645 -108.13230469 -4.42477539 -107.49414062 -4.82470703 C-74.80582707 -24.97268408 -31.22402962 -21.70764497 0 0 Z " fill="#A6CBF0" transform="translate(478.37109375,172.6484375)"/>
<path d="M0 0 C1.04671875 -0.00773438 2.0934375 -0.01546875 3.171875 -0.0234375 C22.86766431 0.02519408 43.01763793 5.47032144 57.6796875 19.16015625 C63.62524372 25.54745059 66.02059935 31.52369943 65.89453125 40.2109375 C65.05474449 49.67983752 60.77987104 57.09170028 53.625 63.25 C46.9554457 67.9237407 39.5315057 68.28414462 31.625 67.25 C27.38553738 66.08091742 23.54596139 64.20713108 19.625 62.25 C-8.74934262 48.04320418 -8.74934262 48.04320418 -39.75 49.875 C-46.98460086 52.70593077 -53.6971902 56.21084571 -59.9296875 60.859375 C-60.54279785 61.31489746 -61.1559082 61.77041992 -61.78759766 62.23974609 C-62.98503804 63.14252004 -64.17046354 64.06152601 -65.34130859 64.99853516 C-69.45767325 68.13292656 -72.25092361 68.85720615 -77.375 68.25 C-79.8125 66.75 -79.8125 66.75 -81.375 64.25 C-83.03992766 56.07671874 -78.38902875 49.09191593 -74.375 42.25 C-72.22029977 39.07240912 -69.88297528 36.15337679 -67.375 33.25 C-66.84390625 32.58742188 -66.3128125 31.92484375 -65.765625 31.2421875 C-49.49269377 11.48219958 -25.38662563 -0.18620997 0 0 Z " fill="#A6CBF0" transform="translate(522.375,663.75)"/>
<path d="M0 0 C1.12619751 0.01619385 1.12619751 0.01619385 2.27514648 0.03271484 C4.37147868 0.07141356 6.46666028 0.12865236 8.5625 0.1875 C9.40039062 0.19394531 10.23828125 0.20039063 11.1015625 0.20703125 C23.22810217 0.83910957 36.83706815 7.40078858 45.27734375 15.91796875 C49.16889602 20.97375272 49.41224348 26.48025225 49.171875 32.703125 C48.04141202 39.16705434 44.77622519 43.73407958 39.59765625 47.6875 C35.13703938 50.23137655 30.65079393 51.09713914 25.5625 50.1875 C20.61752214 48.73576338 16.03360286 46.41583147 11.390625 44.2109375 C10.6473999 43.85837891 9.9041748 43.50582031 9.13842773 43.14257812 C7.66060108 42.43737856 6.18597338 41.72542447 4.71508789 41.00585938 C-6.15285576 35.76440252 -18.43109033 33.8644035 -30.125 37.625 C-35.84148168 40.02279475 -40.80621329 43.61703742 -45.78515625 47.26171875 C-49.61222105 50.04042707 -51.68382966 50.5836392 -56.4375 50.1875 C-58.34821512 47.32142732 -59.05866557 45.80137839 -58.9296875 42.390625 C-55.79811527 28.37311119 -42.17231501 16.64219204 -30.64453125 9.09375 C-20.86295964 3.27961243 -11.41472515 -0.2153477 0 0 Z " fill="#A7CCF0" transform="translate(837.4375,375.8125)"/>
<path d="M0 0 C1.09417236 0.00942627 2.18834473 0.01885254 3.31567383 0.02856445 C11.45467416 0.18017032 18.81832892 0.94149904 26.625 3.375 C27.82382812 3.73851562 29.02265625 4.10203125 30.2578125 4.4765625 C37.50399633 6.86118775 43.57082551 9.74381524 49.625 14.375 C50.553125 15.014375 51.48125 15.65375 52.4375 16.3125 C56.29618863 19.95069214 58.34510209 23.48568913 59.125 28.75 C58.28179112 34.86326435 56.32683821 40.26412464 51.5625 44.375 C47.36549067 47.23253827 43.62508543 48.19136385 38.625 47.375 C34.8412199 45.95880016 31.28436221 44.14540772 27.6875 42.3125 C25.6403448 41.30001455 23.59216114 40.28960596 21.54296875 39.28125 C20.54056152 38.78496094 19.5381543 38.28867188 18.50537109 37.77734375 C14.54777067 35.85053778 10.54047766 34.05750391 6.5 32.3125 C5.55265991 31.90149048 5.55265991 31.90149048 4.58618164 31.48217773 C2.9360334 30.77141771 1.28072056 30.07268078 -0.375 29.375 C-1.51582031 28.85099609 -1.51582031 28.85099609 -2.6796875 28.31640625 C-10.73254471 25.50374163 -18.77947864 25.01537048 -27.25 25.0625 C-28.84098511 25.07095947 -28.84098511 25.07095947 -30.46411133 25.07958984 C-42.33147208 25.26406132 -51.16342939 27.93032415 -61.7578125 33.265625 C-62.62148438 33.63171875 -63.48515625 33.9978125 -64.375 34.375 C-65.035 34.045 -65.695 33.715 -66.375 33.375 C-49.98630898 13.29885351 -26.2325032 -0.35264768 0 0 Z " fill="#FDFEFE" transform="translate(418.375,169.625)"/>
<path d="M0 0 C1.74047607 0.00737183 1.74047607 0.00737183 3.51611328 0.01489258 C11.53146766 0.12479232 18.70770569 0.60809235 26.3125 3.3125 C27.35277344 3.67601562 28.39304687 4.03953125 29.46484375 4.4140625 C35.82738154 6.85211777 41.25049065 9.73419377 46.3125 14.3125 C46.91320312 14.84746094 47.51390625 15.38242187 48.1328125 15.93359375 C51.13273091 18.95444182 52.73321372 21.38432705 53.0625 25.6875 C52.69020338 31.11372324 49.94144739 35.37559147 46.3125 39.3125 C42.444637 41.72035938 38.7587061 41.91668829 34.3125 41.3125 C27.31291102 39.33053753 20.88228529 35.60431227 14.42578125 32.31982422 C2.36261253 26.24556356 -9.29367514 21.91453612 -22.875 22 C-23.79901611 22.00491455 -24.72303223 22.0098291 -25.67504883 22.01489258 C-36.36591387 22.19707546 -45.41463917 24.0981701 -54.76171875 29.421875 C-55.71498047 29.86273437 -55.71498047 29.86273437 -56.6875 30.3125 C-57.3475 29.9825 -58.0075 29.6525 -58.6875 29.3125 C-42.43916413 11.84958753 -24.57703309 -0.12180831 0 0 Z " fill="#FDFEFE" transform="translate(522.6875,676.6875)"/>
<path d="M0 0 C5.82955265 3.28130509 9.73479518 8.10097037 11.8125 14.4375 C12.94454401 22.86229067 11.61063711 29.42857566 6.8125 36.4375 C1.98506481 42.67842737 -3.86048488 46.56069316 -11.703125 47.8515625 C-18.09970844 48.22436951 -22.33607268 46.56499496 -27.1875 42.4375 C-32.17379848 37.59076712 -34.46730523 32.69784588 -34.625 25.75 C-34.4916522 18.01582774 -31.72578327 12.52460127 -26.875 6.625 C-18.86995863 0.10926866 -10.22920269 -4.60314121 0 0 Z " fill="#A6CBF0" transform="translate(322.1875,236.5625)"/>
<path d="M0 0 C4.58038922 2.5855655 8.10111291 5.95812653 9.58984375 11.1171875 C10.53541093 19.1055999 9.87920738 25.56137637 5.078125 32.2109375 C1.43903085 36.7250498 -1.66409278 39.61002331 -7.41015625 41.1171875 C-12.9760579 41.7097835 -17.69598317 41.89635708 -22.84765625 39.5546875 C-28.25548094 34.41065913 -31.16392886 30.32062748 -31.53515625 22.6640625 C-31.12862858 14.38106125 -27.39904795 8.6559746 -21.41015625 3.1171875 C-15.49150375 -2.04527353 -7.29045309 -2.67040907 0 0 Z " fill="#A6CBF0" transform="translate(438.41015625,735.8828125)"/>
<path d="M0 0 C4.08476771 2.56624205 7.82834078 5.31305448 10.21875 9.57421875 C10.85436884 13.9440983 10.53448154 15.99719215 8.40625 19.88671875 C5.85645095 23.01932902 4.28769459 24.40900538 0.26171875 25.03125 C-5.44540244 24.85912334 -10.46030185 21.74248039 -15.46875 19.26171875 C-31.42990757 11.38781861 -45.58527688 7.65807782 -62.90625 13.50390625 C-65.54893478 14.48773183 -68.17048435 15.508796 -70.78125 16.57421875 C-53.40719606 -4.70899733 -25.42152761 -13.03210334 0 0 Z " fill="#FDFDFE" transform="translate(866.78125,391.42578125)"/>
<path d="M0 0 C4.35944153 2.22084757 7.16830464 4.42076159 9 9 C10.00088812 15.45016789 8.75176863 20.6679044 5 26 C-0.05936557 30.69798232 -3.46206396 31.40975171 -10.23046875 31.34765625 C-14.62066745 30.79655937 -16.12122472 29.32166378 -19 26 C-21.29447301 22.03681935 -21.45985624 18.52191971 -21 14 C-19.16649879 8.70762353 -16.76384824 5.09650135 -12 2 C-11.401875 1.5875 -10.80375 1.175 -10.1875 0.75 C-6.77492901 -0.42002434 -3.52870563 -0.55072284 0 0 Z " fill="#A6CCF0" transform="translate(775,428)"/>
<path d="M0 0 C1.875 1 1.875 1 3 3 C3.41303987 7.26807869 3.47454353 9.87608111 1.8125 13.8125 C-0.31462336 16.37971784 -1.91581994 17.70894788 -5 19 C-8.70028236 18.78233633 -10.35491041 18.64508959 -13 16 C-13.43720772 10.66606577 -13.46004646 7.32505808 -10 3 C-6.83419149 -0.16580851 -4.41501238 -0.5636186 0 0 Z " fill="#FCFDFE" transform="translate(316,250)"/>
<path d="M0 0 C2 2 2 2 2.375 5.8125 C2.28397523 9.98446858 1.03050306 12.05862938 -2 15 C-4.76250036 16.38125018 -6.94731099 16.19079306 -10 16 C-12 14 -12 14 -12.375 10.1875 C-12.28397523 6.01553142 -11.03050306 3.94137062 -8 1 C-5.23749964 -0.38125018 -3.05268901 -0.19079306 0 0 Z " fill="#FCFDFE" transform="translate(433,748)"/>
<path d="M0 0 C0.66 0.66 1.32 1.32 2 2 C1.8457495 5.54776157 1.33036165 7.53985342 -0.75 10.4375 C-3 12 -3 12 -5.6875 11.8125 C-8 11 -8 11 -9 10 C-9.40030877 6.39722105 -9.44262507 4.6229538 -7.3125 1.625 C-4.57772115 -0.29673649 -3.27359086 -0.51688277 0 0 Z " fill="#FAFCFE" transform="translate(773,438)"/>
</svg>
