<?xml version="1.0" encoding="UTF-8"?>
<svg version="1.1" xmlns="http://www.w3.org/2000/svg" width="1080" height="1080">
<path d="M0 0 C356.4 0 712.8 0 1080 0 C1080 356.4 1080 712.8 1080 1080 C723.6 1080 367.2 1080 0 1080 C0 723.6 0 367.2 0 0 Z " fill="" transform="translate(0,0)"/>
<path d="M0 0 C35.41410471 30.93850922 58.33351372 71.7189046 64.1484375 118.67578125 C64.30140013 121.50156004 64.33492738 124.32279663 64.3515625 127.15234375 C64.35871277 127.95125534 64.36586304 128.75016693 64.37322998 129.57328796 C64.6031069 162.84595552 60.39759868 192.53898477 45.1484375 222.67578125 C44.80731934 223.35253906 44.46620117 224.02929688 44.11474609 224.7265625 C36.06180029 240.41986723 25.37797524 254.03285068 13.1484375 266.67578125 C12.67438477 267.17561523 12.20033203 267.67544922 11.71191406 268.19042969 C-3.70090413 284.42691218 -21.68601067 296.14021671 -41.8515625 305.67578125 C-42.86476563 306.16046875 -43.87796875 306.64515625 -44.921875 307.14453125 C-55.62747114 312.14657617 -66.2853027 315.45884819 -77.8515625 317.86328125 C-79.04523438 318.12302734 -80.23890625 318.38277344 -81.46875 318.65039062 C-93.78849639 321.2585645 -105.71171206 321.91486646 -118.2890625 321.92578125 C-118.99332367 321.92645599 -119.69758484 321.92713074 -120.42318726 321.92782593 C-132.12102602 321.9101062 -143.40239316 321.18979812 -154.8515625 318.67578125 C-155.62677246 318.50949219 -156.40198242 318.34320312 -157.20068359 318.171875 C-203.20474644 307.98438518 -244.55885391 279.25603283 -270.42431641 239.91699219 C-280.80688391 223.61319991 -288.74482987 206.312677 -293.8515625 187.67578125 C-294.03847656 186.99402832 -294.22539062 186.31227539 -294.41796875 185.60986328 C-305.76007679 143.24550344 -300.55139101 99.03649971 -281.8515625 59.67578125 C-281.52430176 58.98403809 -281.19704102 58.29229492 -280.85986328 57.57958984 C-268.41819707 31.76103627 -248.6422505 9.74469833 -225.8515625 -7.32421875 C-225.00851562 -7.96230469 -224.16546875 -8.60039062 -223.296875 -9.2578125 C-199.89560845 -26.31631152 -172.29942263 -36.74602844 -143.8515625 -41.32421875 C-142.66304687 -41.51757812 -141.47453125 -41.7109375 -140.25 -41.91015625 C-90.13749177 -47.77076112 -38.48404229 -32.65227307 0 0 Z " fill="" transform="translate(659.8515625,478.32421875)"/>
<path d="M0 0 C35.41410471 30.93850922 58.33351372 71.7189046 64.1484375 118.67578125 C64.30140013 121.50156004 64.33492738 124.32279663 64.3515625 127.15234375 C64.35871277 127.95125534 64.36586304 128.75016693 64.37322998 129.57328796 C64.6031069 162.84595552 60.39759868 192.53898477 45.1484375 222.67578125 C44.80731934 223.35253906 44.46620117 224.02929688 44.11474609 224.7265625 C36.06180029 240.41986723 25.37797524 254.03285068 13.1484375 266.67578125 C12.67438477 267.17561523 12.20033203 267.67544922 11.71191406 268.19042969 C-3.70090413 284.42691218 -21.68601067 296.14021671 -41.8515625 305.67578125 C-42.86476563 306.16046875 -43.87796875 306.64515625 -44.921875 307.14453125 C-55.62747114 312.14657617 -66.2853027 315.45884819 -77.8515625 317.86328125 C-79.04523438 318.12302734 -80.23890625 318.38277344 -81.46875 318.65039062 C-93.78849639 321.2585645 -105.71171206 321.91486646 -118.2890625 321.92578125 C-118.99332367 321.92645599 -119.69758484 321.92713074 -120.42318726 321.92782593 C-132.12102602 321.9101062 -143.40239316 321.18979812 -154.8515625 318.67578125 C-155.62677246 318.50949219 -156.40198242 318.34320312 -157.20068359 318.171875 C-203.20474644 307.98438518 -244.55885391 279.25603283 -270.42431641 239.91699219 C-280.80688391 223.61319991 -288.74482987 206.312677 -293.8515625 187.67578125 C-294.03847656 186.99402832 -294.22539062 186.31227539 -294.41796875 185.60986328 C-305.76007679 143.24550344 -300.55139101 99.03649971 -281.8515625 59.67578125 C-281.52430176 58.98403809 -281.19704102 58.29229492 -280.85986328 57.57958984 C-268.41819707 31.76103627 -248.6422505 9.74469833 -225.8515625 -7.32421875 C-225.00851562 -7.96230469 -224.16546875 -8.60039062 -223.296875 -9.2578125 C-199.89560845 -26.31631152 -172.29942263 -36.74602844 -143.8515625 -41.32421875 C-142.66304687 -41.51757812 -141.47453125 -41.7109375 -140.25 -41.91015625 C-90.13749177 -47.77076112 -38.48404229 -32.65227307 0 0 Z M-157.8515625 -23.32421875 C-158.60888672 -23.14761719 -159.36621094 -22.97101563 -160.14648438 -22.7890625 C-203.24861377 -12.40763972 -238.15777997 17.38704598 -261.890625 53.8046875 C-283.02154132 88.49219626 -291.37336952 134.00993779 -281.8515625 173.67578125 C-270.21649341 220.53925397 -244.20778371 258.79525564 -202.87890625 284.1484375 C-187.5943783 293.22201252 -171.16505592 299.7219142 -153.8515625 303.67578125 C-152.82699951 303.92134766 -152.82699951 303.92134766 -151.78173828 304.171875 C-127.14915633 309.84774725 -99.03655009 308.44548488 -74.8515625 301.67578125 C-73.34311768 301.2576416 -73.34311768 301.2576416 -71.80419922 300.83105469 C-44.10656041 292.90490421 -20.37356208 278.77667276 0.1484375 258.67578125 C0.95667969 257.9178125 1.76492188 257.15984375 2.59765625 256.37890625 C30.89317785 229.31791875 48.52962147 188.34249348 49.421875 149.36328125 C49.74435896 130.58486799 49.23856132 112.90485493 44.1484375 94.67578125 C43.95620605 93.96067383 43.76397461 93.24556641 43.56591797 92.50878906 C42.35624654 88.12197345 40.85793893 83.88810293 39.1484375 79.67578125 C38.84454102 78.92022949 38.54064453 78.16467773 38.22753906 77.38623047 C31.51130628 60.97924747 22.78411709 46.10335549 11.1484375 32.67578125 C10.08882812 31.45181641 10.08882812 31.45181641 9.0078125 30.203125 C6.75753596 27.65779472 4.467914 25.15816413 2.1484375 22.67578125 C1.37757813 21.85078125 0.60671875 21.02578125 -0.1875 20.17578125 C-28.46004323 -9.10322792 -70.00659401 -26.4572266 -110.5078125 -27.66015625 C-113.12225807 -27.6899876 -115.73694892 -27.70259452 -118.3515625 -27.69921875 C-119.04033478 -27.69900726 -119.72910706 -27.69879578 -120.43875122 -27.69857788 C-133.21225475 -27.6597817 -145.41813544 -26.30666114 -157.8515625 -23.32421875 Z " fill="" transform="translate(659.8515625,478.32421875)"/>
<path d="M0 0 C5.8991555 4.1490727 9.2936503 9.0496785 12.46875 15.4609375 C12.8090625 16.10804688 13.149375 16.75515625 13.5 17.421875 C17.24346216 25.63669475 16.41565917 35.76504001 13.50390625 44.12109375 C10.20124391 51.58635693 5.25078113 57.84805803 -1.53125 62.4609375 C-3.7734375 63.1484375 -3.7734375 63.1484375 -5.53125 63.4609375 C-5.6859375 65.28625 -5.6859375 65.28625 -5.84375 67.1484375 C-6.3028758 70.93456186 -7.48838044 73.22639403 -9.53125 76.4609375 C-10.24526232 79.65488776 -10.24526232 79.65488776 -10.53125 82.4609375 C-9.93916748 82.44353516 -9.34708496 82.42613281 -8.73706055 82.40820312 C20.33936613 81.9324225 50.76709954 92.11258497 72.0703125 112.09814453 C79.40558325 119.24644783 84.84032399 127.89096389 88.46875 137.4609375 C88.46875 139.4409375 88.46875 141.4209375 88.46875 143.4609375 C56.12875 143.4609375 23.78875 143.4609375 -9.53125 143.4609375 C-9.53125 146.4309375 -9.53125 149.4009375 -9.53125 152.4609375 C-19.10125 152.4609375 -28.67125 152.4609375 -38.53125 152.4609375 C-39.53125 150.4609375 -39.53125 150.4609375 -39.53125 144.4609375 C-73.85125 144.1309375 -108.17125 143.8009375 -143.53125 143.4609375 C-144.63855273 137.92442387 -143.73068563 135.65131968 -141.28125 130.8984375 C-140.92353516 130.19533447 -140.56582031 129.49223145 -140.19726562 128.76782227 C-136.35828024 121.59090753 -131.36285827 116.06858445 -125.53125 110.4609375 C-124.54705078 109.46513672 -124.54705078 109.46513672 -123.54296875 108.44921875 C-99.78674723 85.812134 -63.49868885 82.44542832 -32.53125 81.4609375 C-32.73476074 80.85983154 -32.93827148 80.25872559 -33.14794922 79.6394043 C-33.41623535 78.84187744 -33.68452148 78.04435059 -33.9609375 77.22265625 C-34.22632324 76.43592529 -34.49170898 75.64919434 -34.76513672 74.83862305 C-35.46605093 72.66328731 -36.06895226 70.48141872 -36.65625 68.2734375 C-38.29763251 63.884899 -41.29621837 62.41687116 -45.18359375 60.078125 C-52.4261645 55.08906628 -57.31579053 46.3863024 -59.0625 37.87109375 C-60.49793656 26.50178374 -58.49078658 16.63206014 -51.53125 7.4609375 C-38.06379149 -8.98323394 -17.71721445 -10.77250385 0 0 Z " fill="" transform="translate(565.53125,283.5390625)"/>
<path d="M0 0 C5.8991555 4.1490727 9.2936503 9.0496785 12.46875 15.4609375 C12.8090625 16.10804688 13.149375 16.75515625 13.5 17.421875 C17.24346216 25.63669475 16.41565917 35.76504001 13.50390625 44.12109375 C10.20124391 51.58635693 5.25078113 57.84805803 -1.53125 62.4609375 C-3.7734375 63.1484375 -3.7734375 63.1484375 -5.53125 63.4609375 C-5.6859375 65.28625 -5.6859375 65.28625 -5.84375 67.1484375 C-6.3028758 70.93456186 -7.48838044 73.22639403 -9.53125 76.4609375 C-10.24526232 79.65488776 -10.24526232 79.65488776 -10.53125 82.4609375 C-9.93916748 82.44353516 -9.34708496 82.42613281 -8.73706055 82.40820312 C20.33936613 81.9324225 50.76709954 92.11258497 72.0703125 112.09814453 C79.40558325 119.24644783 84.84032399 127.89096389 88.46875 137.4609375 C88.46875 139.4409375 88.46875 141.4209375 88.46875 143.4609375 C56.12875 143.4609375 23.78875 143.4609375 -9.53125 143.4609375 C-9.53125 146.4309375 -9.53125 149.4009375 -9.53125 152.4609375 C-19.10125 152.4609375 -28.67125 152.4609375 -38.53125 152.4609375 C-39.53125 150.4609375 -39.53125 150.4609375 -39.53125 144.4609375 C-73.85125 144.1309375 -108.17125 143.8009375 -143.53125 143.4609375 C-144.63855273 137.92442387 -143.73068563 135.65131968 -141.28125 130.8984375 C-140.92353516 130.19533447 -140.56582031 129.49223145 -140.19726562 128.76782227 C-136.35828024 121.59090753 -131.36285827 116.06858445 -125.53125 110.4609375 C-124.54705078 109.46513672 -124.54705078 109.46513672 -123.54296875 108.44921875 C-99.78674723 85.812134 -63.49868885 82.44542832 -32.53125 81.4609375 C-32.73476074 80.85983154 -32.93827148 80.25872559 -33.14794922 79.6394043 C-33.41623535 78.84187744 -33.68452148 78.04435059 -33.9609375 77.22265625 C-34.22632324 76.43592529 -34.49170898 75.64919434 -34.76513672 74.83862305 C-35.46605093 72.66328731 -36.06895226 70.48141872 -36.65625 68.2734375 C-38.29763251 63.884899 -41.29621837 62.41687116 -45.18359375 60.078125 C-52.4261645 55.08906628 -57.31579053 46.3863024 -59.0625 37.87109375 C-60.49793656 26.50178374 -58.49078658 16.63206014 -51.53125 7.4609375 C-38.06379149 -8.98323394 -17.71721445 -10.77250385 0 0 Z M-128.96875 117.8984375 C-134.13901922 124.08270349 -139.36190335 131.34952021 -140.53125 139.4609375 C-137.25548641 139.99453731 -137.25548641 139.99453731 -133.53125 139.4609375 C-131.37879811 137.32997943 -129.89082923 135.54565654 -128.21875 133.0859375 C-127.27071767 131.79182671 -126.31751944 130.5014856 -125.359375 129.21484375 C-124.88693359 128.57562988 -124.41449219 127.93641602 -123.92773438 127.27783203 C-113.72613283 114.00504904 -98.8597745 104.25826878 -82.53125 100.4609375 C-82.53125 101.4509375 -82.53125 102.4409375 -82.53125 103.4609375 C-83.748125 103.6465625 -84.965 103.8321875 -86.21875 104.0234375 C-104.77308928 108.2851373 -119.02901166 123.43630673 -129.53125 138.4609375 C-129.53125 138.7909375 -129.53125 139.1209375 -129.53125 139.4609375 C-124.29630862 140.14375594 -119.71533345 140.3812813 -114.53125 139.4609375 C-111.59234086 137.10190281 -109.8238061 134.64793871 -107.6953125 131.546875 C-101.76447357 123.08954151 -90.99871699 113.27091911 -80.7109375 110.77734375 C-79.99164063 110.67292969 -79.27234375 110.56851563 -78.53125 110.4609375 C-79.91269013 113.22381776 -81.57186437 113.56206345 -84.34375 114.8984375 C-91.48106305 118.68520437 -96.81049444 123.85410879 -102.53125 129.4609375 C-103.28277344 130.17378906 -104.03429687 130.88664062 -104.80859375 131.62109375 C-108.43434215 135.0252678 -108.43434215 135.0252678 -110.53125 139.4609375 C-102.00043706 140.4534225 -102.00043706 140.4534225 -93.53125 139.4609375 C-89.79337584 136.3697923 -87.87960283 132.64958605 -85.53125 128.4609375 C-81.12467872 123.23763102 -75.54281039 117.5396391 -68.53125 116.4609375 C-71.12159757 119.15629916 -73.74544551 121.41282565 -76.78125 123.5859375 C-81.88837919 127.49039282 -85.95108099 132.12482728 -89.53125 137.4609375 C-89.53125 138.1209375 -89.53125 138.7809375 -89.53125 139.4609375 C-80.18374891 141.05981521 -80.18374891 141.05981521 -71.52978516 138.10302734 C-67.82723865 134.71693781 -64.68783806 130.88001742 -61.69775391 126.85961914 C-60.53125 125.4609375 -60.53125 125.4609375 -58.53125 124.4609375 C-60.60641567 128.45164071 -62.52646621 131.6497706 -65.78125 134.7734375 C-66.68875 135.6603125 -67.59625 136.5471875 -68.53125 137.4609375 C-68.53125 138.1209375 -68.53125 138.7809375 -68.53125 139.4609375 C-66.59565687 139.59597888 -64.657378 139.69294879 -62.71875 139.7734375 C-61.10033203 139.86044922 -61.10033203 139.86044922 -59.44921875 139.94921875 C-56.33530208 139.76439098 -56.33530208 139.76439098 -54.64453125 137.06640625 C-53.40027643 134.6266381 -53.40027643 134.6266381 -53.53125 132.4609375 C-52.54125 132.4609375 -51.55125 132.4609375 -50.53125 132.4609375 C-51.19125 134.7709375 -51.85125 137.0809375 -52.53125 139.4609375 C-48.24125 139.4609375 -43.95125 139.4609375 -39.53125 139.4609375 C-39.20125 137.8109375 -38.87125 136.1609375 -38.53125 134.4609375 C-38.20125 134.4609375 -37.87125 134.4609375 -37.53125 134.4609375 C-37.03625 136.9359375 -37.03625 136.9359375 -36.53125 139.4609375 C-31.25125 139.4609375 -25.97125 139.4609375 -20.53125 139.4609375 C-20.53125 137.8109375 -20.53125 136.1609375 -20.53125 134.4609375 C-19.54125 134.4609375 -18.55125 134.4609375 -17.53125 134.4609375 C-17.03625 137.4309375 -17.03625 137.4309375 -16.53125 140.4609375 C-12.57125 140.4609375 -8.61125 140.4609375 -4.53125 140.4609375 C-4.86125 138.1509375 -5.19125 135.8409375 -5.53125 133.4609375 C-3.00754223 135.75521729 -2.14862724 137.22618302 -0.53125 140.4609375 C2.76875 140.4609375 6.06875 140.4609375 9.46875 140.4609375 C8.89798685 136.46559542 7.56833585 133.8727645 5.46875 130.4609375 C4.78125 128.1484375 4.78125 128.1484375 4.46875 126.4609375 C7.2068652 128.87079912 8.49075843 131.40027036 10.09375 134.6484375 C12.14974694 138.40976122 12.14974694 138.40976122 15.859375 140.11328125 C18.13960456 140.08818438 20.23471392 139.90774472 22.46875 139.4609375 C20.71171353 133.16131894 18.40254374 128.67055623 14.46875 123.4609375 C14.46875 122.8009375 14.46875 122.1409375 14.46875 121.4609375 C15.12875 121.4609375 15.78875 121.4609375 16.46875 121.4609375 C17.8359375 123.3671875 17.8359375 123.3671875 19.34375 125.9609375 C19.83617187 126.79625 20.32859375 127.6315625 20.8359375 128.4921875 C22.81670924 132.09359067 24.63062261 135.78468272 26.46875 139.4609375 C35.37875 139.4609375 44.28875 139.4609375 53.46875 139.4609375 C46.37937858 125.28219467 35.64302619 118.2579288 21.65625 111.5859375 C21.03411621 111.2873584 20.41198242 110.9887793 19.77099609 110.68115234 C16.01867153 108.95635024 12.56676251 107.95043976 8.46875 107.4609375 C8.46875 106.4709375 8.46875 105.4809375 8.46875 104.4609375 C25.70679808 109.54395168 43.60106472 117.71112228 53.46875 133.4609375 C54.45875 135.4409375 55.44875 137.4209375 56.46875 139.4609375 C62.07875 139.4609375 67.68875 139.4609375 73.46875 139.4609375 C71.78252776 134.40227078 70.15919714 131.19353406 66.96875 127.1484375 C66.30770264 126.30357788 66.30770264 126.30357788 65.63330078 125.44165039 C59.44462559 117.7250293 52.70555603 111.25462569 43.46875 107.4609375 C42.80875 107.4609375 42.14875 107.4609375 41.46875 107.4609375 C41.79875 106.8009375 42.12875 106.1409375 42.46875 105.4609375 C57.26965266 109.25604074 67.15653635 122.13403323 74.75390625 134.5546875 C75.70374926 136.16444421 76.63286503 137.78916756 77.46875 139.4609375 C79.77875 139.4609375 82.08875 139.4609375 84.46875 139.4609375 C83.97041636 134.4700506 82.31431118 130.89911097 79.59375 126.7734375 C79.1922876 126.1640332 78.7908252 125.55462891 78.37719727 124.92675781 C66.11664769 106.91605991 48.70978892 97.94367769 28.46875 91.4609375 C27.48519531 91.13480469 26.50164062 90.80867188 25.48828125 90.47265625 C9.31060748 85.58173162 -7.3169674 84.97519131 -24.08276367 85.06982422 C-27.46118635 85.08590151 -30.83841025 85.06988617 -34.21679688 85.05078125 C-68.90750459 85.01690747 -104.16380345 91.72069811 -128.96875 117.8984375 Z " fill="#6BE3E8" transform="translate(565.53125,283.5390625)"/>
<path d="M0 0 C4.98130426 2.68562742 9.23286275 5.60791346 13.5 9.3125 C14.34473877 10.03336792 14.34473877 10.03336792 15.20654297 10.76879883 C18.89133595 13.94367601 22.36793301 17.24380154 25.6328125 20.85546875 C27.0862217 22.32095335 27.0862217 22.32095335 30 22 C30.66 21.34 31.32 20.68 32 20 C49.22644106 37.31344329 61.23647405 60.02383285 69 83 C69.2475 83.68344482 69.495 84.36688965 69.75 85.07104492 C71.83986311 90.98160312 73.064714 96.89163549 74.125 103.0625 C74.29386719 104.00416016 74.46273438 104.94582031 74.63671875 105.91601562 C76.55079513 116.74486504 77.23987881 127.20481699 77.25 138.1875 C77.25100708 138.94333374 77.25201416 139.69916748 77.25305176 140.47790527 C77.23734504 157.93361191 75.46646021 174.34928785 70 191 C69.71511719 191.95261719 69.43023438 192.90523437 69.13671875 193.88671875 C55.88213147 236.68677372 24.56834728 275.05586167 -15.01171875 296.19140625 C-18.96035434 298.23104197 -22.97094358 300.12575346 -27 302 C-28.08152344 302.52207031 -29.16304687 303.04414062 -30.27734375 303.58203125 C-63.03780687 318.63198946 -101.80889607 322.48279142 -137 315 C-138.39837273 314.7301329 -139.79681 314.46060003 -141.1953125 314.19140625 C-162.51488527 309.85526417 -182.69820282 300.44896179 -201.046875 288.9140625 C-201.78260742 288.45209473 -202.51833984 287.99012695 -203.27636719 287.51416016 C-205.31937568 285.71943796 -205.51033444 284.61544117 -206 282 C-207.72596043 280.35875605 -207.72596043 280.35875605 -210 278.8125 C-225.12569954 267.09601662 -237.12197184 252.63205669 -248 237 C-248.50128418 236.27989746 -249.00256836 235.55979492 -249.51904297 234.81787109 C-257 223.94375647 -257 223.94375647 -257 219 C-253.62838643 220.12387119 -253.27964829 220.70399403 -251.4375 223.5625 C-250.25007983 225.46890121 -250.25007983 225.46890121 -249 227 C-248.34 227 -247.68 227 -247 227 C-245.5546875 229.0546875 -245.5546875 229.0546875 -243.875 231.875 C-237.94367211 241.44600637 -230.65555934 249.77392237 -223 258 C-222.34902344 258.71671875 -221.69804687 259.4334375 -221.02734375 260.171875 C-191.7243326 291.1122413 -148.69326767 307.25213953 -106.75195312 308.92993164 C-96.72247836 309.1826704 -86.93227349 308.31357728 -77 307 C-75.93918213 306.8769751 -75.93918213 306.8769751 -74.85693359 306.75146484 C-48.62104117 303.65710424 -20.34800575 291.9152126 0 275 C0.66 275.33 1.32 275.66 2 276 C0.54634731 277.17249353 -0.91307419 278.33783816 -2.375 279.5 C-3.18710937 280.1496875 -3.99921875 280.799375 -4.8359375 281.46875 C-7 283 -7 283 -9 283 C-8.67 283.66 -8.34 284.32 -8 285 C-2.73186445 283.41955933 0.97751269 280.01873942 5.125 276.5625 C5.84042969 275.97662109 6.55585937 275.39074219 7.29296875 274.78710938 C13.29306131 270.25039216 13.29306131 270.25039216 17 264 C14.36 266.31 11.72 268.62 9 271 C8.34 270.67 7.68 270.34 7 270 C10.49520098 266.40649649 14.01448298 262.95159344 17.875 259.75 C22.92379942 255.38215619 26.91516383 250.25591548 31 245 C31.75539063 244.04867187 32.51078125 243.09734375 33.2890625 242.1171875 C38.54992167 235.33772981 43.01421566 228.28827821 47.06347656 220.74267578 C47.95174023 219.08980142 48.86198996 217.44879781 49.7734375 215.80859375 C67.77895744 181.9565868 71.57465697 143.3609808 65 106 C64.8767334 105.27039063 64.7534668 104.54078125 64.62646484 103.7890625 C58.19251791 67.26973854 34.89741742 28.33201609 4.6953125 6.3203125 C3.73238281 5.66675781 3.73238281 5.66675781 2.75 5 C1.8425 4.34 0.935 3.68 0 3 C0 2.01 0 1.02 0 0 Z " fill="" transform="translate(644,479)"/>
<path d="M0 0 C35.41410471 30.93850922 58.33351372 71.7189046 64.1484375 118.67578125 C64.30140013 121.50156004 64.33492738 124.32279663 64.3515625 127.15234375 C64.35871277 127.95125534 64.36586304 128.75016693 64.37322998 129.57328796 C64.6031069 162.84595552 60.39759868 192.53898477 45.1484375 222.67578125 C44.80731934 223.35253906 44.46620117 224.02929688 44.11474609 224.7265625 C36.06180029 240.41986723 25.37797524 254.03285068 13.1484375 266.67578125 C12.67438477 267.17561523 12.20033203 267.67544922 11.71191406 268.19042969 C-3.70090413 284.42691218 -21.68601067 296.14021671 -41.8515625 305.67578125 C-42.86476563 306.16046875 -43.87796875 306.64515625 -44.921875 307.14453125 C-55.62747114 312.14657617 -66.2853027 315.45884819 -77.8515625 317.86328125 C-79.04523438 318.12302734 -80.23890625 318.38277344 -81.46875 318.65039062 C-93.78849639 321.2585645 -105.71171206 321.91486646 -118.2890625 321.92578125 C-118.99332367 321.92645599 -119.69758484 321.92713074 -120.42318726 321.92782593 C-132.12102602 321.9101062 -143.40239316 321.18979812 -154.8515625 318.67578125 C-155.62677246 318.50949219 -156.40198242 318.34320312 -157.20068359 318.171875 C-203.20474644 307.98438518 -244.55885391 279.25603283 -270.42431641 239.91699219 C-280.80688391 223.61319991 -288.74482987 206.312677 -293.8515625 187.67578125 C-294.03847656 186.99402832 -294.22539062 186.31227539 -294.41796875 185.60986328 C-305.76007679 143.24550344 -300.55139101 99.03649971 -281.8515625 59.67578125 C-281.52430176 58.98403809 -281.19704102 58.29229492 -280.85986328 57.57958984 C-268.41819707 31.76103627 -248.6422505 9.74469833 -225.8515625 -7.32421875 C-225.00851562 -7.96230469 -224.16546875 -8.60039062 -223.296875 -9.2578125 C-199.89560845 -26.31631152 -172.29942263 -36.74602844 -143.8515625 -41.32421875 C-142.66304687 -41.51757812 -141.47453125 -41.7109375 -140.25 -41.91015625 C-90.13749177 -47.77076112 -38.48404229 -32.65227307 0 0 Z M-240.8515625 9.67578125 C-241.5115625 10.66578125 -242.1715625 11.65578125 -242.8515625 12.67578125 C-239.25810319 11.13217055 -236.76968046 8.94959791 -233.9140625 6.30078125 C-224.99454419 -1.94322485 -224.99454419 -1.94322485 -220.8515625 -3.32421875 C-222.10610386 0.43940534 -223.69716284 1.41317843 -226.7890625 3.86328125 C-227.77777344 4.65089844 -228.76648438 5.43851562 -229.78515625 6.25 C-230.79707031 7.05050781 -231.80898438 7.85101563 -232.8515625 8.67578125 C-233.79128906 9.44535156 -234.73101562 10.21492188 -235.69921875 11.0078125 C-237.01212891 12.08095703 -237.01212891 12.08095703 -238.3515625 13.17578125 C-239.145625 13.82546875 -239.9396875 14.47515625 -240.7578125 15.14453125 C-242.8515625 16.67578125 -242.8515625 16.67578125 -245.8515625 17.67578125 C-246.1815625 17.01578125 -246.5115625 16.35578125 -246.8515625 15.67578125 C-267.89841103 34.49413994 -284.19200914 64.48260503 -290.8515625 91.67578125 C-291.10196289 92.67955811 -291.10196289 92.67955811 -291.35742188 93.70361328 C-303.0581147 141.17167667 -296.42743043 190.63930508 -271.30078125 232.828125 C-264.61983379 243.57669599 -256.6227519 253.5704513 -247.8515625 262.67578125 C-247.34399414 263.20913086 -246.83642578 263.74248047 -246.31347656 264.29199219 C-218.21782539 293.69975784 -181.95978098 311.51471081 -141.8515625 317.67578125 C-139.98951172 317.96582031 -139.98951172 317.96582031 -138.08984375 318.26171875 C-93.00295392 323.57001966 -45.5881297 310.90454176 -9.75 283.01953125 C22.8829505 256.63170066 44.44909959 225.03849703 56.1484375 184.67578125 C56.48101563 183.58007812 56.81359375 182.484375 57.15625 181.35546875 C63.82730627 156.61477974 63.33079042 127.64816559 58.1484375 102.67578125 C57.95507812 101.58136719 57.76171875 100.48695313 57.5625 99.359375 C48.69659916 54.28145061 18.13402517 14.89230384 -19.2265625 -10.51171875 C-39.737241 -24.12854514 -63.55820095 -33.58768809 -87.8515625 -37.32421875 C-89.09550781 -37.53046875 -90.33945312 -37.73671875 -91.62109375 -37.94921875 C-145.06372069 -45.62193887 -202.43493025 -29.15304663 -240.8515625 9.67578125 Z " fill="#DDA553" transform="translate(659.8515625,478.32421875)"/>
<path d="M0 0 C0.82632935 0.00403839 1.65265869 0.00807678 2.50402832 0.01223755 C48.55747617 0.32646504 91.06048116 18.99348478 123.53125 51.625 C145.15070801 74.01486186 161.30237548 102.81143992 167.3125 133.4375 C167.59893466 134.83073403 167.88539363 136.22396307 168.171875 137.6171875 C177.17448278 182.77016331 166.88919082 228.23415853 141.94921875 266.6171875 C137.89068004 272.64207837 133.16281332 278.04612978 128.3125 283.4375 C127.44238281 284.42878906 126.57226562 285.42007812 125.67578125 286.44140625 C120.86699028 291.85405764 115.91768582 296.85001551 110.3125 301.4375 C111.4321986 300.43156757 112.5584412 299.4329151 113.6875 298.4375 C114.31398438 297.880625 114.94046875 297.32375 115.5859375 296.75 C117.3125 295.4375 117.3125 295.4375 119.3125 295.4375 C118.48806273 302.62659301 109.56257083 307.63114543 104.2421875 311.90234375 C98.76364698 316.05872982 98.76364698 316.05872982 96.3125 317.4375 C95.3225 317.1075 94.3325 316.7775 93.3125 316.4375 C93.3125 315.7775 93.3125 315.1175 93.3125 314.4375 C95.5 312.7109375 95.5 312.7109375 98.3125 310.8125 C99.240625 310.18085937 100.16875 309.54921875 101.125 308.8984375 C102.2078125 308.17527344 102.2078125 308.17527344 103.3125 307.4375 C102.7040625 307.83839844 102.095625 308.23929688 101.46875 308.65234375 C88.34410923 317.16405931 74.88681629 324.70334277 60.3125 330.4375 C59.29712158 330.84162109 59.29712158 330.84162109 58.26123047 331.25390625 C17.63939393 347.06348588 -29.24148169 343.90556315 -68.75 326.625 C-88.06183119 317.91418352 -104.47481231 306.11562765 -119.6875 291.4375 C-120.47511719 290.70144531 -121.26273437 289.96539063 -122.07421875 289.20703125 C-151.40050559 261.10907056 -168.95704195 217.99523481 -169.8671875 177.7578125 C-170.45802067 135.42904003 -159.2000961 93.76830462 -130.6875 61.4375 C-129.95660156 60.59703125 -129.22570312 59.7565625 -128.47265625 58.890625 C-126.24645286 56.37098531 -123.97919373 53.89764301 -121.6875 51.4375 C-120.96433594 50.64859375 -120.24117188 49.8596875 -119.49609375 49.046875 C-100.0849386 28.68322662 -73.96020786 13.90057416 -47.0625 6.0625 C-46.28938477 5.83594727 -45.51626953 5.60939453 -44.71972656 5.37597656 C-29.95943944 1.3548414 -15.25307058 -0.12561853 0 0 Z M-39.6875 7.4375 C-40.44482422 7.61410156 -41.20214844 7.79070312 -41.98242188 7.97265625 C-85.08455127 18.35407903 -119.99371747 48.14876473 -143.7265625 84.56640625 C-164.85747882 119.25391501 -173.20930702 164.77165654 -163.6875 204.4375 C-152.05243091 251.30097272 -126.04372121 289.55697439 -84.71484375 314.91015625 C-69.4303158 323.98373127 -53.00099342 330.48363295 -35.6875 334.4375 C-34.66293701 334.68306641 -34.66293701 334.68306641 -33.61767578 334.93359375 C-8.98509383 340.609466 19.12751241 339.20720363 43.3125 332.4375 C44.82094482 332.01936035 44.82094482 332.01936035 46.35986328 331.59277344 C74.05750209 323.66662296 97.79050042 309.53839151 118.3125 289.4375 C119.12074219 288.67953125 119.92898438 287.9215625 120.76171875 287.140625 C149.05724035 260.0796375 166.69368397 219.10421223 167.5859375 180.125 C167.90842146 161.34658674 167.40262382 143.66657368 162.3125 125.4375 C162.12026855 124.72239258 161.92803711 124.00728516 161.72998047 123.27050781 C160.52030904 118.8836922 159.02200143 114.64982168 157.3125 110.4375 C157.00860352 109.68194824 156.70470703 108.92639648 156.39160156 108.14794922 C149.67536878 91.74096622 140.94817959 76.86507424 129.3125 63.4375 C128.25289062 62.21353516 128.25289062 62.21353516 127.171875 60.96484375 C124.92159846 58.41951347 122.6319765 55.91988288 120.3125 53.4375 C119.54164063 52.6125 118.77078125 51.7875 117.9765625 50.9375 C89.70401927 21.65849083 48.15746849 4.30449215 7.65625 3.1015625 C5.04180443 3.07173115 2.42711358 3.05912423 -0.1875 3.0625 C-0.87627228 3.06271149 -1.56504456 3.06292297 -2.27468872 3.06314087 C-15.04819225 3.10193705 -27.25407294 4.45505761 -39.6875 7.4375 Z " fill="#DDA553" transform="translate(541.6875,447.5625)"/>
<path d="M0 0 C2.16567372 0.03692328 4.32964696 0.04101528 6.49560547 0.04052734 C17.96297365 0.1214285 17.96297365 0.1214285 22.77294922 2.41162109 C19.26573011 6.99544419 15.86841491 10.03900919 10.96044922 13.03662109 C10.03232422 13.61682007 10.03232422 13.61682007 9.08544922 14.20874023 C4.75821706 16.88434408 0.42395322 19.33528002 -4.22705078 21.41162109 C-5.13455078 21.82412109 -6.04205078 22.23662109 -6.97705078 22.66162109 C-12.05105483 23.83254511 -17.05449082 24.0481313 -22.22705078 23.41162109 C-23.93455058 22.13099625 -25.60968819 20.80434999 -27.22705078 19.41162109 C-35.24413525 19.76749661 -43.04489343 22.24742874 -50.78955078 24.22412109 C-52.16770198 24.57153917 -53.54595668 24.91854692 -54.92431641 25.26513672 C-64.04725348 27.56625384 -73.14089002 29.96962195 -82.22705078 32.41162109 C-85.66365093 33.33170325 -89.10118292 34.24816998 -92.53955078 35.16162109 C-93.36132812 35.38205078 -94.18310547 35.60248047 -95.02978516 35.82958984 C-100.9992509 37.41162109 -100.9992509 37.41162109 -103.22705078 37.41162109 C-103.12392578 38.56662109 -103.02080078 39.72162109 -102.91455078 40.91162109 C-102.92371646 46.0719 -104.87944042 49.56937702 -108.22705078 53.41162109 C-112.1220065 56.18136738 -115.58099678 56.9351305 -120.27001953 56.78271484 C-123.44718186 56.18025891 -125.67484969 54.31093353 -128.22705078 52.41162109 C-132.43074103 52.41162109 -134.10887278 54.76829562 -136.97705078 57.53662109 C-137.54488281 58.07287109 -138.11271484 58.60912109 -138.69775391 59.16162109 C-139.91655648 60.31278609 -141.13261342 61.46686362 -142.34619141 62.62353516 C-145.4516996 65.57586407 -148.59167539 68.49109202 -151.72705078 71.41162109 C-152.98229782 72.58475676 -154.23750623 73.75793377 -155.49267578 74.93115234 C-159.67843047 78.83807541 -163.88680207 82.72032126 -168.10400391 86.59326172 C-169.48253852 87.86151356 -170.85512503 89.13622305 -172.22705078 90.41162109 C-172.84451172 90.91951172 -173.46197266 91.42740234 -174.09814453 91.95068359 C-175.73142716 94.06434347 -175.32223644 95.48939986 -175.03955078 98.09912109 C-174.95478827 102.98002879 -175.75969307 105.61027784 -178.91845703 109.32958984 C-185.41434176 115.18797657 -196.21174205 124.01931835 -205.10205078 124.59912109 C-206.15392578 124.50630859 -206.15392578 124.50630859 -207.22705078 124.41162109 C-204.50498849 112.3608245 -198.8045085 99.41360015 -188.22705078 92.41162109 C-186.22705078 91.41162109 -186.22705078 91.41162109 -183.11376953 91.80615234 C-177.38808027 91.22495173 -174.95180323 88.09356747 -171.03955078 84.09912109 C-169.52845629 82.61541213 -168.01673537 81.13234089 -166.50439453 79.64990234 C-165.7720459 78.92109863 -165.03969727 78.19229492 -164.28515625 77.44140625 C-161.62069118 74.81360523 -158.87676985 72.29779833 -156.10205078 69.78662109 C-152.80436629 66.78581956 -149.53351888 63.76388003 -146.29736328 60.69677734 C-145.62205566 60.05885254 -144.94674805 59.42092773 -144.25097656 58.76367188 C-142.93056704 57.51461862 -141.6136587 56.26185065 -140.30078125 55.00488281 C-139.6989502 54.43656738 -139.09711914 53.86825195 -138.47705078 53.28271484 C-137.94595703 52.77667725 -137.41486328 52.27063965 -136.86767578 51.74926758 C-135.09064865 50.3004087 -133.30736174 49.36161092 -131.22705078 48.41162109 C-131.55705078 47.42162109 -131.88705078 46.43162109 -132.22705078 45.41162109 C-132.83639557 41.43159689 -133.08964637 37.90360239 -131.02783203 34.33740234 C-127.92509175 30.60942473 -125.01891219 27.8481667 -120.07861328 27.07568359 C-114.59557482 26.97948994 -111.5933162 27.79081563 -107.22705078 31.41162109 C-106.23705078 32.40162109 -106.23705078 32.40162109 -105.22705078 33.41162109 C-97.23290453 33.29163391 -89.1933637 30.32692791 -81.57666016 28.08862305 C-73.18241219 25.63981325 -64.73973915 23.39884785 -56.27468872 21.20999146 C-54.71288317 20.80575207 -53.15157346 20.39959168 -51.59078979 19.99142456 C-49.37060805 19.41137976 -47.14874282 18.83828359 -44.92626953 18.26708984 C-44.26858582 18.09441589 -43.6109021 17.92174194 -42.93328857 17.74383545 C-38.36873417 16.58334567 -33.89834336 15.92143468 -29.22705078 15.41162109 C-29.30955078 14.52474609 -29.39205078 13.63787109 -29.47705078 12.72412109 C-29.15251829 8.42406558 -28.46786017 7.27559218 -25.22705078 4.41162109 C-17.09682759 0.16300335 -8.94501867 -0.15793773 0 0 Z " fill="#DDA554" transform="translate(661.22705078125,573.58837890625)"/>
<path d="M0 0 C5.96629328 4.09389273 10.74305077 8.93496016 12.52734375 16.125 C13.90457587 25.03832249 11.65504729 31.71854348 6.6328125 39.0546875 C4.17849432 41.97873164 2.18084288 43.75525547 -1.62207031 44.54345703 C-4.83071274 44.77612866 -8.03660898 44.97004888 -11.25 45.125 C-12.35730469 45.2178125 -13.46460938 45.310625 -14.60546875 45.40625 C-20.43163467 45.69721191 -24.11122493 45.59055413 -28.64453125 41.69140625 C-34.50733835 35.70719639 -37.11997906 30.62802583 -37.25 22.1875 C-37.14114943 14.02370737 -34.49686981 8.73111965 -29.015625 2.80078125 C-20.68377934 -4.64298008 -9.73005537 -4.88227955 0 0 Z " fill="" transform="translate(556,292)"/>
<path d="M0 0 C6.41807061 5.6887444 10.22135322 13.64426431 11.44921875 22.08984375 C11.79791637 31.43253512 8.86333802 39.71044462 3 47 C-5.16058394 55 -5.16058394 55 -8 55 C-8.66 53.35 -9.32 51.7 -10 50 C-9.40832031 49.55011719 -8.81664062 49.10023438 -8.20703125 48.63671875 C-1.26787362 42.98804068 3.03091505 37.19522166 4.4375 28.203125 C4.80824296 20.00043705 2.25092139 13.50878923 -2.125 6.6875 C-9.11880564 0.14981212 -17.3784928 -2.42740684 -26.7890625 -2.34765625 C-34.17615752 -1.54783696 -40.29716437 2.3289335 -45 8 C-50.77132086 15.85540895 -50.84007254 23.50814586 -50 33 C-47.9067145 40.1997757 -43.89155766 44.60730209 -38 49 C-37.34 49.66 -36.68 50.32 -36 51 C-36.66 52.32 -37.32 53.64 -38 55 C-44.11862563 53.89864739 -48.34384369 49.3542351 -51.81640625 44.41796875 C-57.46259214 35.12557125 -58.31268407 25.89835332 -56.5390625 15.2265625 C-53.45113981 4.87293937 -45.93022157 -1.56047149 -36.875 -6.8125 C-24.0314908 -12.11742771 -10.46042331 -8.48903584 0 0 Z " fill="" transform="translate(567,289)"/>
<path d="M0 0 C4.98130426 2.68562742 9.23286275 5.60791346 13.5 9.3125 C14.34473877 10.03336792 14.34473877 10.03336792 15.20654297 10.76879883 C18.89133595 13.94367601 22.36793301 17.24380154 25.6328125 20.85546875 C27.0862217 22.32095335 27.0862217 22.32095335 30 22 C30.66 21.34 31.32 20.68 32 20 C49.26027091 37.34744399 61.15539164 60.01347318 69 83 C69.31582031 83.84820313 69.63164063 84.69640625 69.95703125 85.5703125 C72.13845031 91.56652843 73.0937209 97.6986947 74 104 C72.515 103.505 72.515 103.505 71 103 C70.01 97.06 70.01 97.06 69 91 C68.01 91 67.02 91 66 91 C66.19335938 91.84820313 66.38671875 92.69640625 66.5859375 93.5703125 C71.20770359 114.39113992 71.20770359 114.39113992 71 125 C70.34 125 69.68 125 69 125 C68.505 126.485 68.505 126.485 68 128 C67.93006836 127.42258057 67.86013672 126.84516113 67.78808594 126.25024414 C62.07698781 79.89577649 43.3531923 38.41797723 7 8 C5.59863551 6.97866656 4.18479233 5.97381488 2.75 5 C1.8425 4.34 0.935 3.68 0 3 C0 2.01 0 1.02 0 0 Z " fill="" transform="translate(644,479)"/>
<path d="M0 0 C0.66 0.33 1.32 0.66 2 1 C1.38511719 1.59167969 0.77023437 2.18335938 0.13671875 2.79296875 C-0.67152344 3.58316406 -1.47976563 4.37335937 -2.3125 5.1875 C-3.51326172 6.35345703 -3.51326172 6.35345703 -4.73828125 7.54296875 C-7.03605505 9.85993058 -7.03605505 9.85993058 -8.39501953 12.41308594 C-10.0219092 15.03531334 -11.66131926 16.78464364 -13.94140625 18.84765625 C-14.68970703 19.53537109 -15.43800781 20.22308594 -16.20898438 20.93164062 C-16.98564453 21.63482422 -17.76230469 22.33800781 -18.5625 23.0625 C-20.11037119 24.46465912 -21.65354664 25.87202382 -23.19140625 27.28515625 C-23.87404541 27.90269775 -24.55668457 28.52023926 -25.26000977 29.15649414 C-27.05489513 31.05816096 -28.08849038 32.5546973 -29 35 C-28.9175 36.2375 -28.835 37.475 -28.75 38.75 C-28.70986187 43.10097346 -29.94244786 45.51858194 -32.69140625 48.84765625 C-39.06070001 54.78586413 -50.03452925 63.61094756 -58.875 64.1875 C-59.926875 64.0946875 -59.926875 64.0946875 -61 64 C-58.27793771 51.94920341 -52.57745772 39.00197906 -42 32 C-40 31 -40 31 -36.88671875 31.39453125 C-31.16126524 30.81335456 -28.72446688 27.6822054 -24.8125 23.6875 C-23.3157954 22.21674416 -21.81839553 20.74669553 -20.3203125 19.27734375 C-19.58973633 18.55015137 -18.85916016 17.82295898 -18.10644531 17.07373047 C-15.20550778 14.21784691 -12.20924498 11.47682343 -9.1875 8.75 C-6.04929062 5.8994967 -2.97366321 3.02218452 0 0 Z " fill="#DEA654" transform="translate(515,634)"/>
<path d="M0 0 C2.84439805 1.22091725 4.03135944 2.94143553 5.90307617 5.39453125 C6.60754883 6.31621094 7.31202148 7.23789062 8.0378418 8.1875 C8.76293945 9.15816406 9.48803711 10.12882813 10.23510742 11.12890625 C10.97180664 12.08410156 11.70850586 13.03929687 12.4675293 14.0234375 C18.6004826 22.13676487 18.6004826 22.13676487 19.04760742 26.87890625 C17.97338867 28.71484375 17.97338867 28.71484375 16.36010742 30.25390625 C15.84061523 30.77726563 15.32112305 31.300625 14.78588867 31.83984375 C13.04760742 32.87890625 13.04760742 32.87890625 11.15576172 32.59423828 C8.90853237 31.83171576 7.45566667 30.91456932 5.57885742 29.47265625 C4.93045898 28.97991211 4.28206055 28.48716797 3.61401367 27.97949219 C2.93209961 27.45129883 2.25018555 26.92310547 1.54760742 26.37890625 C0.12057248 25.29030115 -1.30651138 24.20176017 -2.73364258 23.11328125 C-3.44133789 22.56994141 -4.1490332 22.02660156 -4.87817383 21.46679688 C-7.88571304 19.16441516 -10.91829817 16.89610072 -13.95239258 14.62890625 C-15.61905924 13.37890625 -17.28572591 12.12890625 -18.95239258 10.87890625 C-15.57761836 8.26511054 -12.05353831 5.91534798 -8.45239258 3.62890625 C-7.88391602 3.2525 -7.31543945 2.87609375 -6.72973633 2.48828125 C-2.53752193 -0.15738538 -2.53752193 -0.15738538 0 0 Z " fill="" transform="translate(643.952392578125,770.12109375)"/>
<path d="M0 0 C2.22955653 1.27015331 4.45865426 2.54110048 6.6875 3.8125 C7.31333984 4.16892578 7.93917969 4.52535156 8.58398438 4.89257812 C9.81592095 5.59562046 11.04626458 6.30146234 12.27490234 7.01025391 C13.82707618 7.90078783 15.39136681 8.77012245 16.95703125 9.63671875 C17.63121094 10.08660156 18.30539062 10.53648437 19 11 C19 11.66 19 12.32 19 13 C17.39868164 14.40112305 17.39868164 14.40112305 15.16015625 16.01171875 C13.93522461 16.90213867 13.93522461 16.90213867 12.68554688 17.81054688 C11.81994141 18.42994141 10.95433594 19.04933594 10.0625 19.6875 C8.38582552 20.89850383 6.71004153 22.11074155 5.03515625 23.32421875 C4.20129395 23.92282715 3.36743164 24.52143555 2.50830078 25.13818359 C-0.76798709 27.57004765 -3.89013696 30.17636722 -6.99438477 32.82348633 C-9 34 -9 34 -11.15112305 33.76074219 C-14.31651686 32.45830364 -16.45109151 30.2592598 -19 28 C-17.38819442 22.71453364 -13.99282407 18.831625 -10.625 14.5625 C-6.90388489 9.80728035 -3.26863549 5.08007141 0 0 Z " fill="" transform="translate(440,769)"/>
<path d="M0 0 C1.92875977 0.00966797 1.92875977 0.00966797 3.89648438 0.01953125 C5.23437779 0.03623649 6.57226842 0.05316631 7.91015625 0.0703125 C9.27538408 0.08035928 10.64061905 0.08948214 12.00585938 0.09765625 C15.32830824 0.12113645 18.65038946 0.15397891 21.97265625 0.1953125 C20.10294037 4.43112901 17.84373108 5.82177385 13.84765625 8.1953125 C13.2637915 8.54343994 12.67992676 8.89156738 12.07836914 9.25024414 C2.83193303 14.71015408 -5.02953864 18.68060029 -16.02734375 17.1953125 C-18.9795863 14.79232438 -19.7430416 13.33252109 -20.65234375 9.6953125 C-19.89192428 6.6536346 -18.40343506 5.28870012 -16.0234375 3.30859375 C-10.95222134 0.48022466 -5.7084254 -0.05074156 0 0 Z " fill="#" transform="translate(655.02734375,576.8046875)"/>
<path d="M0 0 C20.14467841 -1.54168457 41.48236072 3.20184718 60 11 C60.65291016 11.26538574 61.30582031 11.53077148 61.97851562 11.80419922 C83.78612305 20.68543759 103.17625824 32.57612665 121 48 C121.75531006 48.64678711 121.75531006 48.64678711 122.52587891 49.30664062 C124.08982329 50.65170014 125.64063444 52.01035291 127.1875 53.375 C128.10917969 54.18710937 129.03085937 54.99921875 129.98046875 55.8359375 C132 58 132 58 132 61 C127.94404741 60.47576123 126.27873561 58.49859954 123.5625 55.5625 C117.84913731 49.69043279 111.63602287 44.77733507 105 40 C104.44779785 39.59813477 103.8955957 39.19626953 103.32666016 38.78222656 C72.61144572 16.65300676 37.45381203 5.59466003 0 3 C0 2.01 0 1.02 0 0 Z " fill="#DDA553" transform="translate(542,441)"/>
<path d="M0 0 C1.60416413 -0.01588281 3.20892002 0.00076567 4.8125 0.046875 C5.61945312 0.02367187 6.42640625 0.00046875 7.2578125 -0.0234375 C9.60705428 -0.00017768 11.5588392 0.12912365 13.8125 0.796875 C16.72993752 4.05648112 17.69493224 5.97390069 18.3125 10.296875 C17.72274719 14.42514465 16.12069274 16.3695585 13.8125 19.796875 C13.20017072 22.49602248 13.00385842 25.02217794 12.8125 27.796875 C11.8225 27.796875 10.8325 27.796875 9.8125 27.796875 C9.3175 22.846875 9.3175 22.846875 8.8125 17.796875 C8.1525 17.796875 7.4925 17.796875 6.8125 17.796875 C6.8125 21.096875 6.8125 24.396875 6.8125 27.796875 C5.1625 27.796875 3.5125 27.796875 1.8125 27.796875 C1.76351562 27.12140625 1.71453125 26.4459375 1.6640625 25.75 C1.58929687 24.85796875 1.51453125 23.9659375 1.4375 23.046875 C1.36789062 22.16515625 1.29828125 21.2834375 1.2265625 20.375 C0.80942811 17.77774814 0.02281605 16.10403997 -1.1875 13.796875 C-1.57499213 11.47192223 -1.91732839 9.13836232 -2.1875 6.796875 C-2.8475 6.796875 -3.5075 6.796875 -4.1875 6.796875 C-4.38696219 11.08531201 -3.78384007 13.85923617 -2.1875 17.796875 C-2.5175 18.786875 -2.8475 19.776875 -3.1875 20.796875 C-6.8430682 16.0800128 -8.1875 12.8310575 -8.1875 6.796875 C-6.23050533 2.43618035 -4.74740114 0.46893036 0 0 Z " fill="" transform="translate(539.1875,338.203125)"/>
<path d="M0 0 C3.0447068 2.37848261 4.82725592 4.1611422 6.22265625 7.8046875 C6.05749566 11.85112187 5.11531694 14.35255275 3.09765625 17.8671875 C0.02930208 20.52642778 -1.94280398 21.73011039 -5.96484375 22.3046875 C-9.41277203 21.79116627 -11.19150828 21.0651622 -13.90234375 18.8671875 C-16.51759704 14.80903584 -17.60359123 11.67574163 -16.90234375 6.8671875 C-15.14704945 3.4866207 -13.84323183 1.41191218 -10.52734375 -0.5078125 C-3.61612674 -2.15334036 -3.61612674 -2.15334036 0 0 Z " fill="" transform="translate(548.90234375,605.1328125)"/>
<path d="M0 0 C3.63 0 7.26 0 11 0 C11.12117187 1.05316406 11.24234375 2.10632813 11.3671875 3.19140625 C11.8090542 7.00963344 12.26057782 10.8266454 12.71777344 14.64306641 C12.89951195 16.16080307 13.07995307 17.67869594 13.25878906 19.19677734 C13.4985968 21.21539426 13.74908629 23.23273345 14 25.25 C14.144375 26.43078125 14.28875 27.6115625 14.4375 28.828125 C14.96472927 31.80111226 15.76238121 34.25661167 17 37 C14.36 37 11.72 37 9 37 C8.86722656 35.865625 8.73445312 34.73125 8.59765625 33.5625 C8.41928669 32.04166481 8.24090038 30.52083158 8.0625 29 C7.97548828 28.25621094 7.88847656 27.51242187 7.79882812 26.74609375 C7.22146169 21.82778708 6.61972716 16.91315228 6 12 C2.39461763 19.21076475 2.67843803 29.0860026 3 37 C0.36 37 -2.28 37 -5 37 C-4.77280273 35.6385083 -4.77280273 35.6385083 -4.54101562 34.24951172 C-3.97808087 30.86194357 -3.41948926 27.47371716 -2.86376953 24.08496094 C-2.62297791 22.62211144 -2.38048933 21.15954017 -2.13623047 19.69726562 C-1.78420056 17.58795986 -1.43840913 15.47770861 -1.09375 13.3671875 C-0.88427734 12.09987793 -0.67480469 10.83256836 -0.45898438 9.52685547 C-0.03887019 6.2986802 0.08747564 3.2497202 0 0 Z " fill="#68E3E7" transform="translate(529,740)"/>
<path d="M0 0 C0.7734375 0.34933594 1.546875 0.69867187 2.34375 1.05859375 C14.44741301 6.34645643 20.4512885 6.6974674 33 2 C34.34627073 1.35986147 35.68634664 0.70465387 37 0 C37 2.64 37 5.28 37 8 C34.03 8.66 31.06 9.32 28 10 C32.455 10.99 32.455 10.99 37 12 C37 14.64 37 17.28 37 20 C35.6875 19.5625 34.375 19.125 33.0625 18.6875 C31.82693359 18.2853125 31.82693359 18.2853125 30.56640625 17.875 C28.93240785 17.31789857 27.31201622 16.71775024 25.71484375 16.0625 C16.35032736 12.36293797 8.82159198 16.20616295 0 20 C0 17.36 0 14.72 0 12 C2.64 11.34 5.28 10.68 8 10 C5.36 9.34 2.72 8.68 0 8 C0 5.36 0 2.72 0 0 Z " fill="#68E3E7" transform="translate(384,604)"/>
<path d="M0 0 C0.66 0 1.32 0 2 0 C1.446721 5.16393734 -1.12695205 9.06622734 -3.625 13.5 C-16.35999274 36.88744768 -21.4283985 62.99903675 -21.20581055 89.4465332 C-21.18742326 91.69689239 -21.18530298 93.94683855 -21.18554688 96.19726562 C-21.16395044 104.83973541 -20.81732312 113.38942101 -20 122 C-21.32 121.67 -22.64 121.34 -24 121 C-25.08562652 112.41052299 -25.1861677 103.9050543 -25.18530273 95.26147461 C-25.18747986 92.83494258 -25.20566618 90.40887336 -25.22460938 87.98242188 C-25.26003072 78.13616484 -24.60557496 68.73451494 -23 59 C-22.79850342 57.76209717 -22.59700684 56.52419434 -22.3894043 55.2487793 C-19.36188774 37.54363695 -13.01547188 13.01547188 0 0 Z " fill="#DDA451" transform="translate(391,526)"/>
<path d="M0 0 C3 1 3 1 4.6875 3.9375 C6 7 6 7 6 9 C4.64952581 9.93644438 3.29078217 10.86224259 1.90283203 11.7421875 C-1.91662681 14.26693115 -5.46190144 17.1762328 -9.0625 20 C-10.24682617 20.92425781 -10.24682617 20.92425781 -11.45507812 21.8671875 C-15.32219434 24.88827075 -19.17699811 27.92313731 -23 31 C-26 26.25 -26 26.25 -26 24 C-25.16210938 23.62230469 -24.32421875 23.24460937 -23.4609375 22.85546875 C-19.46704918 20.7142758 -16.13669854 18.15338348 -12.625 15.3125 C-11.98433594 14.80138672 -11.34367187 14.29027344 -10.68359375 13.76367188 C-9.11852208 12.51395047 -7.55871144 11.25764526 -6 10 C-8.69613988 10.63049459 -11.2385458 11.41201689 -13.8203125 12.41015625 C-14.52027344 12.67763672 -15.22023438 12.94511719 -15.94140625 13.22070312 C-17.40524833 13.78502865 -18.86878709 14.35014156 -20.33203125 14.91601562 C-25.79176755 17 -25.79176755 17 -28 17 C-28 17.66 -28 18.32 -28 19 C-28.66 19 -29.32 19 -30 19 C-30.99 16.69 -31.98 14.38 -33 12 C-32.28199219 11.79246094 -31.56398438 11.58492187 -30.82421875 11.37109375 C-23.70506721 9.2521931 -16.72093891 6.8740982 -9.75 4.3125 C-8.90397217 4.00304443 -8.05794434 3.69358887 -7.1862793 3.37475586 C-6.39777588 3.08221924 -5.60927246 2.78968262 -4.796875 2.48828125 C-4.08885742 2.22571533 -3.38083984 1.96314941 -2.65136719 1.69262695 C-0.99368284 1.11987502 -0.99368284 1.11987502 0 0 Z " fill="#64E2E7" transform="translate(440,688)"/>
<path d="M0 0 C3.9815078 4.89811391 7.7288251 9.96203985 11.49023438 15.02929688 C16.42194208 22.45003079 16.42194208 22.45003079 23 28 C23 28.66 23 29.32 23 30 C20.69 30.99 18.38 31.98 16 33 C15.73268066 32.26177002 15.46536133 31.52354004 15.18994141 30.76293945 C14.02822921 28.06554576 12.75815931 26.10116539 10.9609375 23.79296875 C10.09082031 22.66665039 10.09082031 22.66665039 9.203125 21.51757812 C8.59984375 20.74865234 7.9965625 19.97972656 7.375 19.1875 C6.76398437 18.39923828 6.15296875 17.61097656 5.5234375 16.79882812 C4.0207657 14.86179026 2.51286614 12.92907921 1 11 C1.93254964 13.71012808 2.87084994 16.41803435 3.8125 19.125 C4.07353516 19.88554688 4.33457031 20.64609375 4.60351562 21.4296875 C5.80768137 24.87865605 7.04920385 28.0975028 8.69921875 31.3671875 C10 34 10 34 10 37 C8.02 37.99 6.04 38.98 4 40 C3.77570312 38.79472656 3.55140625 37.58945312 3.3203125 36.34765625 C1.86425743 29.79540842 -0.66404664 23.66571109 -3.125 17.4375 C-3.59292969 16.23802734 -4.06085937 15.03855469 -4.54296875 13.80273438 C-5.68951857 10.86616291 -6.84197752 7.93206187 -8 5 C-4.04 2.525 -4.04 2.525 0 0 Z " fill="#63E2E7" transform="translate(604,723)"/>
<path d="M0 0 C2.97 1.65 5.94 3.3 9 5 C7.56629198 8.64826371 6.0299201 12.23647569 4.43359375 15.81640625 C3.94826172 16.91017578 3.46292969 18.00394531 2.96289062 19.13085938 C1.94386886 21.42333216 0.92302746 23.71499694 -0.09960938 26.00585938 C-0.58365234 27.09833984 -1.06769531 28.19082031 -1.56640625 29.31640625 C-2.00927979 30.31099854 -2.45215332 31.30559082 -2.90844727 32.33032227 C-3.82137882 34.56313519 -4.50223821 36.64672197 -5 39 C-9.875 37.25 -9.875 37.25 -11 35 C-9.9609375 32.6015625 -9.9609375 32.6015625 -8.375 29.625 C-5.22486618 23.54553613 -2.54561849 17.35278242 0 11 C-1.9390417 13.24868712 -3.87627622 15.49888861 -5.8125 17.75 C-6.35970703 18.38421875 -6.90691406 19.0184375 -7.47070312 19.671875 C-12.58726644 25.31700422 -12.58726644 25.31700422 -16 32 C-20.75 30.125 -20.75 30.125 -23 29 C-23 28.34 -23 27.68 -23 27 C-21.56640625 25.66015625 -21.56640625 25.66015625 -19.5625 24.0625 C-14.31596363 19.6159674 -10.25426784 14.37253253 -6 9 C-5.00448628 7.82950287 -4.00547739 6.66194937 -3 5.5 C-0.83949394 3.09465742 -0.83949394 3.09465742 0 0 Z " fill="#62E2E7" transform="translate(481,724)"/>
<path d="M0 0 C0.16113281 1.25554687 0.32226562 2.51109375 0.48828125 3.8046875 C2.11423924 14.39561542 3.94585435 20.72480404 12.5390625 27.3828125 C14.87247274 28.98517836 14.87247274 28.98517836 17 30 C16.505 31.485 16.505 31.485 16 33 C13.4375 34.1875 13.4375 34.1875 11 35 C9.35 33.02 7.7 31.04 6 29 C6.2475 30.3921875 6.2475 30.3921875 6.5 31.8125 C7 35 7 35 7 38 C5.02 38.66 3.04 39.32 1 40 C0.81824219 38.90300781 0.63648438 37.80601562 0.44921875 36.67578125 C0.19585059 35.22126033 -0.05808573 33.7668383 -0.3125 32.3125 C-0.43044922 31.59126953 -0.54839844 30.87003906 -0.66992188 30.12695312 C-1.87646571 23.35174544 -4.22944652 19.35396025 -9.5 14.8125 C-10.66015625 13.80123047 -10.66015625 13.80123047 -11.84375 12.76953125 C-14.07770977 10.87666298 -14.07770977 10.87666298 -17 9 C-14.75 7.375 -14.75 7.375 -12 6 C-8.94805852 6.89762985 -7.11395484 8.67464968 -5 11 C-5 10.2575 -5 9.515 -5 8.75 C-5 6.5 -5 4.25 -5 2 C-2 0 -2 0 0 0 Z " fill="#63E2E7" transform="translate(467,480)"/>
<path d="M0 0 C4.63374678 4.35291364 4.63374678 4.35291364 6.22265625 7.16015625 C9.62861518 12.84307936 13.0552491 14.69095134 19.27685547 16.41015625 C23.17039788 17.36478511 27.06779726 18.21827338 31 19 C30.1875 21.4375 30.1875 21.4375 29 24 C25.06329512 25.31223496 22.87511856 24.24296256 19 23 C20.98 24.65 22.96 26.3 25 28 C23.125 32.75 23.125 32.75 22 35 C21.34 35 20.68 35 20 35 C18.93328614 33.3752233 17.94472021 31.69861164 17 30 C13.84841839 24.33413721 10.86876272 20.30999985 4.47265625 18.46484375 C0.01594427 17.40304965 -4.46630889 16.64905407 -9 16 C-8.34 14.35 -7.68 12.7 -7 11 C-3.49064814 11 -0.43515002 11.37542727 3 12 C1.02 10.35 -0.96 8.7 -3 7 C-1.125 2.25 -1.125 2.25 0 0 Z " fill="#63E2E7" transform="translate(412,528)"/>
<path d="M0 0 C2.64 0 5.28 0 8 0 C8.66 2.31 9.32 4.62 10 7 C10.66 4.69 11.32 2.38 12 0 C14.31 0 16.62 0 19 0 C18.62746094 0.99 18.25492188 1.98 17.87109375 3 C13.44384291 15.16145618 14.12738297 21.94027284 19 34 C19.33 34.66 19.66 35.32 20 36 C17.36 36 14.72 36 12 36 C11.34 33.36 10.68 30.72 10 28 C8.03177114 29.96822886 8.33751619 33.34808709 8 36 C5.36 36 2.72 36 0 36 C0.44472656 34.85402344 0.88945313 33.70804687 1.34765625 32.52734375 C1.92009773 30.99770503 2.49166627 29.46773943 3.0625 27.9375 C3.35705078 27.18533203 3.65160156 26.43316406 3.95507812 25.65820312 C6.52019965 18.68710816 5.90143837 13.54641498 3 6.6875 C2.649375 5.84574219 2.29875 5.00398438 1.9375 4.13671875 C1.32571995 2.74237005 0.68095274 1.36190547 0 0 Z " fill="#62E2E7" transform="translate(519,461)"/>
<path d="M0 0 C3.45859415 1.15286472 3.69179721 1.67667556 5.4609375 4.69140625 C5.9257251 5.46347412 6.3905127 6.23554199 6.86938477 7.03100586 C7.36623779 7.86639893 7.86309082 8.70179199 8.375 9.5625 C14.19394539 19.05101838 20.70218775 27.61002925 28 36 C28.48887695 36.56332031 28.97775391 37.12664063 29.48144531 37.70703125 C40.1556645 49.90198105 51.31501797 59.94127676 66 67 C65.505 68.485 65.505 68.485 65 70 C53.94154569 66.63087908 45.65479006 59.35305186 37.50292969 51.44726562 C36.05551512 50.053459 34.57899546 48.69007129 33.1015625 47.328125 C20.21975691 35.24547649 8.21220684 19.66773338 0 4 C0 2.68 0 1.36 0 0 Z " fill="#DDA451" transform="translate(387,698)"/>
<path d="M0 0 C2 2 2 2 2.0625 5.1875 C-0.80139521 15.46382986 -12.33956209 20.08461632 -21 25 C-21.33 24.34 -21.66 23.68 -22 23 C-20.85012167 20.32289309 -19.64133175 17.77377046 -18.3125 15.1875 C-17.95994141 14.47529297 -17.60738281 13.76308594 -17.24414062 13.02929688 C-13.17654317 4.99077247 -9.82963835 -0.71488279 0 0 Z " fill="" transform="translate(481,669)"/>
<path d="M0 0 C0.99 0.33 1.98 0.66 3 1 C2.47212891 1.82177734 2.47212891 1.82177734 1.93359375 2.66015625 C-8.04927586 18.69009048 -14.00069213 35.64145024 -18 54 C-18.21785156 54.97710938 -18.43570312 55.95421875 -18.66015625 56.9609375 C-20.99186518 67.91133349 -21.2487564 78.97365598 -21.5625 90.125 C-21.60580156 91.57292622 -21.64941906 93.02084302 -21.69335938 94.46875 C-21.79921106 97.97906578 -21.90080239 101.48948913 -22 105 C-22.99 105 -23.98 105 -25 105 C-25.86196637 66.44579145 -18.87829501 33.73621237 0 0 Z " fill="" transform="translate(388,526)"/>
<path d="M0 0 C0.99 0.99 1.98 1.98 3 3 C2.28082397 3.93066284 2.28082397 3.93066284 1.54711914 4.88012695 C-0.6186602 7.6876771 -2.77813928 10.50001063 -4.9375 13.3125 C-5.69224609 14.28896484 -6.44699219 15.26542969 -7.22460938 16.27148438 C-8.30258789 17.67817383 -8.30258789 17.67817383 -9.40234375 19.11328125 C-10.39995728 20.40939331 -10.39995728 20.40939331 -11.41772461 21.73168945 C-13.15576934 23.99498082 -13.15576934 23.99498082 -14 27 C-13.34 27.66 -12.68 28.32 -12 29 C-8.43251042 28.66886865 -6.16521716 26.85614803 -3.375 24.7265625 C-2.50359375 24.0665625 -1.6321875 23.4065625 -0.734375 22.7265625 C0.16796875 22.03304687 1.0703125 21.33953125 2 20.625 C2.90234375 19.93921875 3.8046875 19.2534375 4.734375 18.546875 C6.4162714 17.26803661 8.096181 15.98657795 9.7734375 14.70166016 C10.50820313 14.1401123 11.24296875 13.57856445 12 13 C12.69351562 12.41138184 13.38703125 11.82276367 14.1015625 11.21630859 C14.72804688 10.81492676 15.35453125 10.41354492 16 10 C16.99 10.33 17.98 10.66 19 11 C19 11.66 19 12.32 19 13 C17.39868164 14.40112305 17.39868164 14.40112305 15.16015625 16.01171875 C13.93522461 16.90213867 13.93522461 16.90213867 12.68554688 17.81054688 C11.81994141 18.42994141 10.95433594 19.04933594 10.0625 19.6875 C8.38582552 20.89850383 6.71004153 22.11074155 5.03515625 23.32421875 C4.20129395 23.92282715 3.36743164 24.52143555 2.50830078 25.13818359 C-0.76798709 27.57004765 -3.89013696 30.17636722 -6.99438477 32.82348633 C-9 34 -9 34 -11.15112305 33.76074219 C-14.31651686 32.45830364 -16.45109151 30.2592598 -19 28 C-17.38819442 22.71453364 -13.99282407 18.831625 -10.625 14.5625 C-6.90388489 9.80728035 -3.26863549 5.08007141 0 0 Z " fill="#68E3E7" transform="translate(440,769)"/>
<path d="M0 0 C2.82584006 0.34984724 3.89154385 0.88841972 5.90698242 2.96191406 C6.54998291 3.80463867 7.1929834 4.64736328 7.85546875 5.515625 C8.55994141 6.43730469 9.26441406 7.35898437 9.99023438 8.30859375 C10.71533203 9.27925781 11.44042969 10.24992188 12.1875 11.25 C12.92419922 12.20519531 13.66089844 13.16039062 14.41992188 14.14453125 C20.55287518 22.25785862 20.55287518 22.25785862 21 27 C19.92578125 28.8359375 19.92578125 28.8359375 18.3125 30.375 C17.79300781 30.89835938 17.27351562 31.42171875 16.73828125 31.9609375 C15 33 15 33 13.1081543 32.71533203 C10.86092495 31.95280951 9.40805925 31.03566307 7.53125 29.59375 C6.88285156 29.10100586 6.23445312 28.60826172 5.56640625 28.10058594 C4.88449219 27.57239258 4.20257812 27.04419922 3.5 26.5 C2.07296505 25.4113949 0.64588119 24.32285392 -0.78125 23.234375 C-1.48894531 22.69103516 -2.19664062 22.14769531 -2.92578125 21.58789062 C-5.93332046 19.28550891 -8.96590559 17.01719447 -12 14.75 C-13.66666667 13.5 -15.33333333 12.25 -17 11 C-15.68 10.34 -14.36 9.68 -13 9 C-12.49138428 9.39791748 -11.98276855 9.79583496 -11.45874023 10.20581055 C-9.11949944 12.03454597 -6.77851377 13.86103485 -4.4375 15.6875 C-3.63763672 16.31333984 -2.83777344 16.93917969 -2.01367188 17.58398438 C-0.42998689 18.81861226 1.1580238 20.04771321 2.75048828 21.27099609 C4.18078875 22.3703436 5.60219593 23.4814351 7.01123047 24.60791016 C9.00562737 26.19490092 9.00562737 26.19490092 12 28 C14.1596985 27.69165516 14.1596985 27.69165516 16 27 C16 23.46660313 15.31462796 22.69510084 13.26171875 19.91015625 C12.68873047 19.12576172 12.11574219 18.34136719 11.52539062 17.53320312 C10.91888672 16.71787109 10.31238281 15.90253906 9.6875 15.0625 C9.09259766 14.25103516 8.49769531 13.43957031 7.88476562 12.60351562 C4.64825642 8.19130909 4.64825642 8.19130909 1.30395508 3.86108398 C0 2 0 2 0 0 Z " fill="#67E2E7" transform="translate(642,770)"/>
<path d="M0 0 C11.88 0.33 23.76 0.66 36 1 C36 2.98 36 4.96 36 7 C24.12 7.33 12.24 7.66 0 8 C0 5.36 0 2.72 0 0 Z " fill="#6EE4E8" transform="translate(384,627)"/>
<path d="M0 0 C11.88 0 23.76 0 36 0 C36 2.31 36 4.62 36 7 C24.12 7.33 12.24 7.66 0 8 C0 5.36 0 2.72 0 0 Z " fill="#6DE4E8" transform="translate(664,616)"/>
<path d="M0 0 C11.88 0 23.76 0 36 0 C36 2.31 36 4.62 36 7 C24.12 7.33 12.24 7.66 0 8 C0 5.36 0 2.72 0 0 Z " fill="#72E5E9" transform="translate(664,604)"/>
<path d="M0 0 C2.31 0 4.62 0 7 0 C7.33 11.88 7.66 23.76 8 36 C5.36 36 2.72 36 0 36 C0 24.12 0 12.24 0 0 Z " fill="#6DE4E8" transform="translate(554,461)"/>
<path d="M0 0 C2.31 0 4.62 0 7 0 C7.33 11.88 7.66 23.76 8 36 C5.36 36 2.72 36 0 36 C0 24.12 0 12.24 0 0 Z " fill="#72E5E9" transform="translate(542,461)"/>
<path d="M0 0 C1.29442017 0.00616333 1.29442017 0.00616333 2.61499023 0.01245117 C4.01974609 0.01535156 4.01974609 0.01535156 5.45288086 0.01831055 C6.43321289 0.03055664 7.41354492 0.04280273 8.42358398 0.05541992 C9.4077832 0.05606445 10.39198242 0.05670898 11.40600586 0.05737305 C18.72090866 0.1027446 18.72090866 0.1027446 19.86108398 1.24291992 C19.86108398 3.88291992 19.86108398 6.52291992 19.86108398 9.24291992 C12.27108398 9.24291992 4.68108398 9.24291992 -3.13891602 9.24291992 C-3.46891602 6.93291992 -3.79891602 4.62291992 -4.13891602 2.24291992 C-2.13891602 0.24291992 -2.13891602 0.24291992 0 0 Z " fill="" transform="translate(533.138916015625,426.757080078125)"/>
<path d="M0 0 C1.65 0.66 3.3 1.32 5 2 C5 6.41160677 4.6049075 6.9745092 2.0625 10.3125 C-1.16048633 14.72845265 -4.06841384 19.25156905 -6.875 23.9375 C-7.2680835 24.58823486 -7.66116699 25.23896973 -8.06616211 25.90942383 C-9.66057795 28.5840293 -11.01209744 31.03629233 -12 34 C-14.91517292 32.92598892 -16.77810176 32.22189824 -19 30 C-17.95392578 28.81083984 -17.95392578 28.81083984 -16.88671875 27.59765625 C-13.4527095 23.47369801 -10.65470183 18.9801044 -7.8125 14.4375 C-7.27947266 13.60025391 -6.74644531 12.76300781 -6.19726562 11.90039062 C-3.74290495 8.00119877 -1.62501097 4.3275007 0 0 Z " fill="#65E2E7" transform="translate(458,710)"/>
<path d="M0 0 C3.17431731 1.50785819 6.07967259 3.27650169 9.02734375 5.1875 C9.98447266 5.80367187 10.94160156 6.41984375 11.92773438 7.0546875 C13.93149033 8.3497822 15.93409926 9.64665333 17.93554688 10.9453125 C19.37317383 11.86957031 19.37317383 11.86957031 20.83984375 12.8125 C22.14489868 13.65748047 22.14489868 13.65748047 23.47631836 14.51953125 C25.92770163 15.95758757 28.33647755 17.02047835 31 18 C30.34 19.98 29.68 21.96 29 24 C24.97499557 24 24.11690071 22.55552343 21 20 C17.87859735 17.88667116 14.69000817 15.88279994 11.5 13.875 C10.65824219 13.33746094 9.81648437 12.79992187 8.94921875 12.24609375 C8.13066406 11.72917969 7.31210937 11.21226562 6.46875 10.6796875 C5.73076172 10.21288574 4.99277344 9.74608398 4.23242188 9.26513672 C1.88594837 7.93536575 -0.47706825 6.94582204 -3 6 C-1.125 1.125 -1.125 1.125 0 0 Z " fill="#65E2E7" transform="translate(649,677)"/>
<path d="M0 0 C2.50037734 2.17424117 3.43628586 3.73045798 4 7 C3.07960938 7.36996094 2.15921875 7.73992188 1.2109375 8.12109375 C-4.16090619 10.42543879 -9.24846816 13.26468687 -14.375 16.0625 C-15.38433594 16.60455078 -16.39367187 17.14660156 -17.43359375 17.70507812 C-18.39136719 18.22650391 -19.34914063 18.74792969 -20.3359375 19.28515625 C-21.64377197 19.99490601 -21.64377197 19.99490601 -22.97802734 20.71899414 C-25.13640684 21.84263145 -25.13640684 21.84263145 -26 24 C-26.66 24 -27.32 24 -28 24 C-31 19.61538462 -31 19.61538462 -31 17 C-30.48695313 16.82726562 -29.97390625 16.65453125 -29.4453125 16.4765625 C-23.17455448 14.17517319 -17.39490939 11.16321992 -11.5625 7.9375 C-10.76924316 7.50195801 -9.97598633 7.06641602 -9.15869141 6.61767578 C-8.4063623 6.19599121 -7.6540332 5.77430664 -6.87890625 5.33984375 C-5.86679077 4.77317993 -5.86679077 4.77317993 -4.83422852 4.19506836 C-2.9579861 2.97262638 -1.52038519 1.63667945 0 0 Z " fill="#65E2E7" transform="translate(433,674)"/>
<path d="M0 0 C1.98 0.66 3.96 1.32 6 2 C4.45201268 5.28419146 2.59244699 8.25234071 0.59375 11.28125 C-0.06753906 12.28800781 -0.72882812 13.29476563 -1.41015625 14.33203125 C-2.80338542 16.44401042 -4.19661458 18.55598958 -5.58984375 20.66796875 C-6.25113281 21.67472656 -6.91242187 22.68148438 -7.59375 23.71875 C-8.19896484 24.63591797 -8.80417969 25.55308594 -9.42773438 26.49804688 C-10.76418845 28.62475205 -11.93032135 30.73058252 -13 33 C-14.65 32.34 -16.3 31.68 -18 31 C-18 27.4126973 -17.30415438 26.74813943 -15.1875 23.9375 C-11.54268938 18.90526147 -8.28500201 13.68647892 -5.0625 8.375 C-4.56580811 7.55636475 -4.06911621 6.73772949 -3.55737305 5.89428711 C-2.36904249 3.93103961 -1.18311469 1.96639382 0 0 Z " fill="#65E2E7" transform="translate(622,483)"/>
<path d="M0 0 C0.556875 1.07636719 1.11375 2.15273438 1.6875 3.26171875 C6.0200863 11.57260668 10.50167059 19.67024328 15.56640625 27.55859375 C17 30 17 30 17 32 C15.02 32.66 13.04 33.32 11 34 C10.59910156 33.16339844 10.19820313 32.32679688 9.78515625 31.46484375 C6.16200956 24.04601957 2.28079103 16.91001775 -2.06616211 9.88842773 C-3.68044007 7.26969442 -5.0228326 4.93150219 -6 2 C-3 0 -3 0 0 0 Z " fill="#65E2E7" transform="translate(477,475)"/>
<path d="M0 0 C3.465 1.98 3.465 1.98 7 4 C6.63938477 4.46438477 6.27876953 4.92876953 5.90722656 5.40722656 C1.87868605 10.67571708 -1.73709284 16.12758326 -5.25 21.75 C-5.77851563 22.58660156 -6.30703125 23.42320312 -6.8515625 24.28515625 C-9.05969281 27.79910981 -11.19391268 31.25927073 -13 35 C-14.98 33.68 -16.96 32.36 -19 31 C-18.64010986 30.53561523 -18.28021973 30.07123047 -17.90942383 29.59277344 C-13.87891871 24.31576722 -10.22705406 18.86568104 -6.6875 13.25 C-6.15060547 12.41339844 -5.61371094 11.57679688 -5.06054688 10.71484375 C-4.54943359 9.90660156 -4.03832031 9.09835937 -3.51171875 8.265625 C-3.05240967 7.54149414 -2.59310059 6.81736328 -2.11987305 6.07128906 C-1.02011392 4.0372022 -0.44705517 2.25914003 0 0 Z " fill="#64E2E7" transform="translate(468,716)"/>
<path d="M0 0 C3.16834359 1.50306147 6.05727254 3.27073133 8.9921875 5.1875 C10.42111328 6.11175781 10.42111328 6.11175781 11.87890625 7.0546875 C13.87080959 8.34799632 15.86041218 9.6448558 17.84765625 10.9453125 C18.80285156 11.56148437 19.75804687 12.17765625 20.7421875 12.8125 C21.6069873 13.37582031 22.47178711 13.93914063 23.36279297 14.51953125 C26.17207833 16.09660091 28.91995894 17.07671955 32 18 C30.70700306 20.88437779 29.34058637 22.87219421 27 25 C26.44965088 24.40977051 25.89930176 23.81954102 25.33227539 23.21142578 C22.91474556 20.91916312 20.53864882 19.32628528 17.68359375 17.6171875 C16.67232422 17.00746094 15.66105469 16.39773438 14.61914062 15.76953125 C13.56919922 15.14433594 12.51925781 14.51914062 11.4375 13.875 C9.3526227 12.62279847 7.26797677 11.37021162 5.18359375 10.1171875 C4.26118896 9.56659668 3.33878418 9.01600586 2.38842773 8.44873047 C0.56510422 7.34277098 -1.22563348 6.18291102 -3 5 C-2.01 3.35 -1.02 1.7 0 0 Z " fill="#64E2E7" transform="translate(636,697)"/>
<path d="M0 0 C0.46438477 0.36061523 0.92876953 0.72123047 1.40722656 1.09277344 C6.67571708 5.12131395 12.12758326 8.73709284 17.75 12.25 C18.58660156 12.77851562 19.42320312 13.30703125 20.28515625 13.8515625 C23.79910981 16.05969281 27.25927073 18.19391268 31 20 C29.02 22.97 29.02 22.97 27 26 C26.37996094 25.47664062 25.75992188 24.95328125 25.12109375 24.4140625 C20.91778555 21.16294302 16.51081477 18.27790607 12.0625 15.375 C11.18142578 14.78976562 10.30035156 14.20453125 9.39257812 13.6015625 C5.03719146 10.75669571 1.10452159 8.29505161 -4 7 C-2.68 4.69 -1.36 2.38 0 0 Z " fill="#63E2E7" transform="translate(656,666)"/>
<path d="M0 0 C0.99 0.33 1.98 0.66 3 1 C4.1875 3.5625 4.1875 3.5625 5 6 C3.56333984 6.58974609 3.56333984 6.58974609 2.09765625 7.19140625 C-2.58251137 9.19887438 -7.06270697 11.5585835 -11.5625 13.9375 C-12.7990332 14.58235352 -12.7990332 14.58235352 -14.06054688 15.24023438 C-18.55684633 17.60878861 -22.83324193 20.08934728 -27 23 C-30 19.25 -30 19.25 -30 17 C-29.16227051 16.5560791 -28.32454102 16.1121582 -27.46142578 15.65478516 C-24.35505111 14.00647831 -21.25044138 12.35493912 -18.14697266 10.70117188 C-16.80326566 9.98599916 -15.45886776 9.27212296 -14.11376953 8.55957031 C-12.18078559 7.53530281 -10.25033198 6.50640262 -8.3203125 5.4765625 C-7.15773926 4.85861816 -5.99516602 4.24067383 -4.79736328 3.60400391 C-1.97107694 2.14553403 -1.97107694 2.14553403 0 0 Z " fill="#63E2E7" transform="translate(421,654)"/>
<path d="M0 0 C1.37562854 1.28965176 2.70766393 2.62689293 4 4 C4 4.66 4 5.32 4 6 C2.99582031 6.4846875 1.99164062 6.969375 0.95703125 7.46875 C-7.12202618 11.41498247 -14.82050986 15.5769862 -22.328125 20.53125 C-25 22 -25 22 -29 22 C-29.66 20.35 -30.32 18.7 -31 17 C-29.51113281 16.27296875 -29.51113281 16.27296875 -27.9921875 15.53125 C-13.08965933 9.07854527 -13.08965933 9.07854527 0 0 Z " fill="#64E2E7" transform="translate(680,543)"/>
<path d="M0 0 C2.34058637 2.12780579 3.70700306 4.11562221 5 7 C3.67875122 7.41100952 3.67875122 7.41100952 2.33081055 7.83032227 C-2.81276085 9.63658559 -7.4209194 12.3157248 -12.1875 14.9375 C-13.18458984 15.47568359 -14.18167969 16.01386719 -15.20898438 16.56835938 C-16.16482422 17.09107422 -17.12066406 17.61378906 -18.10546875 18.15234375 C-18.97324951 18.62663818 -19.84103027 19.10093262 -20.73510742 19.58959961 C-22.82771875 20.89271653 -24.27425473 22.27042187 -26 24 C-26.66 24 -27.32 24 -28 24 C-28.66 22.02 -29.32 20.04 -30 18 C-29.29915283 17.62190186 -28.59830566 17.24380371 -27.8762207 16.85424805 C-24.68766688 15.13319413 -21.50007542 13.41036529 -18.3125 11.6875 C-17.20970703 11.09259766 -16.10691406 10.49769531 -14.97070312 9.88476562 C-13.90400391 9.30791016 -12.83730469 8.73105469 -11.73828125 8.13671875 C-10.75899658 7.60780029 -9.77971191 7.07888184 -8.77075195 6.53393555 C-3.60094297 4.08362415 -3.60094297 4.08362415 0 0 Z " fill="#64E2E7" transform="translate(674,532)"/>
<path d="M0 0 C0.91265625 0.58394531 0.91265625 0.58394531 1.84375 1.1796875 C4.28648425 2.73872671 6.73258486 4.29234952 9.18017578 5.84375 C10.46377488 6.6593021 11.74586182 7.47723657 13.02685547 8.296875 C15.16047301 9.66144914 17.29863979 11.01866154 19.4375 12.375 C20.12328125 12.81569824 20.8090625 13.25639648 21.515625 13.71044922 C22.16917969 14.12311035 22.82273437 14.53577148 23.49609375 14.9609375 C24.07544678 15.33009277 24.6547998 15.69924805 25.25170898 16.07958984 C27.14421028 17.07592135 28.91285798 17.56340251 31 18 C30.34 19.65 29.68 21.3 29 23 C24.59091984 23 23.57605668 22.39035748 20.0078125 20.04296875 C19.05519531 19.42486328 18.10257813 18.80675781 17.12109375 18.16992188 C16.13238281 17.51572266 15.14367187 16.86152344 14.125 16.1875 C5.81370406 10.6518451 5.81370406 10.6518451 -3 6 C-1.125 1.125 -1.125 1.125 0 0 Z " fill="#63E2E7" transform="translate(643,687)"/>
<path d="M0 0 C1.37562854 1.28965176 2.70766393 2.62689293 4 4 C4 4.66 4 5.32 4 6 C3.22305786 6.39940796 3.22305786 6.39940796 2.43041992 6.80688477 C-11.12255096 13.78849054 -11.12255096 13.78849054 -24.06640625 21.8203125 C-26 23 -26 23 -28 23 C-28.66 21.02 -29.32 19.04 -30 17 C-29.16339844 16.59910156 -28.32679688 16.19820312 -27.46484375 15.78515625 C-12.82615215 9.23676491 -12.82615215 9.23676491 0 0 Z " fill="#63E2E7" transform="translate(427,664)"/>
<path d="M0 0 C2.31 0 4.62 0 7 0 C7 11.88 7 23.76 7 36 C4.69 36 2.38 36 0 36 C0 24.12 0 12.24 0 0 Z " fill="#5EE1E6" transform="translate(549,740)"/>
<path d="M0 0 C11.88 0 23.76 0 36 0 C36 2.31 36 4.62 36 7 C34.9805127 6.99476318 33.96102539 6.98952637 32.91064453 6.98413086 C29.13493729 6.96605624 25.35923388 6.95455895 21.58349609 6.94506836 C19.94807289 6.94003379 18.3126542 6.93320573 16.67724609 6.92456055 C14.32909025 6.91245665 11.98099381 6.906763 9.6328125 6.90234375 C8.89942657 6.89718246 8.16604065 6.89202118 7.41043091 6.88670349 C3.57877344 6.816844 3.57877344 6.816844 0 8 C0 5.36 0 2.72 0 0 Z " fill="#62E2E7" transform="translate(664,628)"/>
<path d="M0 0 C0.99 0 1.98 0 3 0 C6.25171517 11.44603739 8.20060922 23.07146685 8 35 C6.515 35.495 6.515 35.495 5 36 C4.35140622 31.68791053 3.70662778 27.37525866 3.0625 23.0625 C2.88009766 21.85013672 2.69769531 20.63777344 2.50976562 19.38867188 C1.54769957 12.93408324 0.66531527 6.49207637 0 0 Z " fill="#DEA756" transform="translate(710,570)"/>
<path d="M0 0 C2.85859066 0.6647604 5.5553029 1.52392964 8.30078125 2.55859375 C9.51991211 3.01395508 9.51991211 3.01395508 10.76367188 3.47851562 C12.45133767 4.1134918 14.13884008 4.74890244 15.82617188 5.38476562 C20.51175565 7.13400092 25.16908259 8.70262812 30 10 C29.67 10.99 29.34 11.98 29 13 C22.64197887 12.40998973 17.07621521 10.43964257 11.125 8.1875 C10.16335938 7.84396484 9.20171875 7.50042969 8.2109375 7.14648438 C7.29828125 6.80294922 6.385625 6.45941406 5.4453125 6.10546875 C4.61531738 5.79762451 3.78532227 5.48978027 2.93017578 5.17260742 C1 4 1 4 0.22216797 1.8684082 C0.14885254 1.2518335 0.07553711 0.63525879 0 0 Z " fill="#DFA859" transform="translate(467,775)"/>
<path d="M0 0 C-0.32776054 2.9699118 -0.9645507 3.96577309 -3.15234375 6.078125 C-4.07144531 6.79484375 -4.99054688 7.5115625 -5.9375 8.25 C-6.92492187 9.02730469 -7.91234375 9.80460937 -8.9296875 10.60546875 C-10.44949219 11.79076172 -10.44949219 11.79076172 -12 13 C-14.66877734 15.18781882 -17.3364593 17.37696579 -20.00390625 19.56640625 C-22 21 -22 21 -24 21 C-23.43251829 17.72370379 -22.60113024 16.27315122 -20.05078125 14.16015625 C-19.44943359 13.65419922 -18.84808594 13.14824219 -18.22851562 12.62695312 C-17.59623047 12.11068359 -16.96394531 11.59441406 -16.3125 11.0625 C-15.69955078 10.55009766 -15.08660156 10.03769531 -14.45507812 9.50976562 C-13.23499481 8.49152006 -12.00993093 7.47921049 -10.77978516 6.47314453 C-9.60768884 5.50298964 -8.45042934 4.51458032 -7.31005859 3.50732422 C-3.31351268 0 -3.31351268 0 0 0 Z " fill="#DDA451" transform="translate(439,475)"/>
<path d="M0 0 C0.99 0.33 1.98 0.66 3 1 C1.44070798 5.83472791 -1.32010381 9.33191665 -4.4375 13.25 C-4.92798828 13.88679687 -5.41847656 14.52359375 -5.92382812 15.1796875 C-9.62518038 19.87506013 -9.62518038 19.87506013 -13 21 C-12.45499233 17.280958 -11.57039456 14.98061612 -9.27734375 12.01171875 C-8.73916016 11.30595703 -8.20097656 10.60019531 -7.64648438 9.87304688 C-7.08251953 9.15181641 -6.51855469 8.43058594 -5.9375 7.6875 C-5.36966797 6.94693359 -4.80183594 6.20636719 -4.21679688 5.44335938 C-2.8189781 3.62267106 -1.41331191 1.80867058 0 0 Z " fill="#69E3E7" transform="translate(444,772)"/>
<path d="M0 0 C4.28760645 1.40867501 6.91917898 3.48207035 10.1875 6.5625 C13.34188937 9.64185798 13.34188937 9.64185798 17 12 C17 13.32 17 14.64 17 16 C12.84646965 14.26250834 9.65665698 11.43382517 6.25 8.5625 C5.64800781 8.07201172 5.04601562 7.58152344 4.42578125 7.07617188 C2.89016877 5.78604847 1.4377908 4.39831388 0 3 C0 2.01 0 1.02 0 0 Z " fill="#69E3E7" transform="translate(632,776)"/>
<path d="M0 0 C0 0.99 0 1.98 0 3 C-2.39469729 3.50604924 -4.79051717 4.00499517 -7.1875 4.5 C-7.86103516 4.64308594 -8.53457031 4.78617187 -9.22851562 4.93359375 C-12.87509793 5.68069842 -16.27648957 6.17352282 -20 6 C-20 5.01 -20 4.02 -20 3 C-17.79344925 2.49219106 -15.58466395 1.99408635 -13.375 1.5 C-11.53035156 1.08234375 -11.53035156 1.08234375 -9.6484375 0.65625 C-6.32847772 0.05908379 -3.36091549 -0.12409534 0 0 Z " fill="#6BE3E8" transform="translate(512,376)"/>
<path d="M0 0 C7.1178153 2.03807293 14.06707281 4.40344742 21 7 C21 7.99 21 8.98 21 10 C13.39162534 7.92957946 6.2271408 5.14169523 -1 2 C-0.67 1.34 -0.34 0.68 0 0 Z " fill="" transform="translate(468,779)"/>
<path d="M0 0 C5.63281599 -0.2396943 10.54538831 0.61470179 16 2 C16.33 3.32 16.66 4.64 17 6 C10.95198929 5.45018084 5.69398894 4.09570426 0 2 C0 1.34 0 0.68 0 0 Z " fill="#6DE4E8" transform="translate(579,379)"/>
<path d="M0 0 C0.33 0.99 0.66 1.98 1 3 C-0.1081543 4.9453125 -0.1081543 4.9453125 -1.82421875 7.125 C-2.44103516 7.91390625 -3.05785156 8.7028125 -3.69335938 9.515625 C-4.35142578 10.33546875 -5.00949219 11.1553125 -5.6875 12 C-6.32623047 12.81984375 -6.96496094 13.6396875 -7.62304688 14.484375 C-10.52672292 18.15976226 -13.13363158 21.30482498 -17 24 C-15.55473884 20.89076649 -13.81730893 18.24083503 -11.77734375 15.48828125 C-10.84631836 14.22854492 -10.84631836 14.22854492 -9.89648438 12.94335938 C-9.25001953 12.07517578 -8.60355469 11.20699219 -7.9375 10.3125 C-6.96200195 8.99282227 -6.96200195 8.99282227 -5.96679688 7.64648438 C-1.16269066 1.16269066 -1.16269066 1.16269066 0 0 Z " fill="#E9FAFB" transform="translate(443,771)"/>
<path d="M0 0 C0.66 0 1.32 0 2 0 C1.45994624 4.16507217 0.16934899 6.54445439 -2.4375 9.8125 C-3.05496094 10.60269531 -3.67242188 11.39289063 -4.30859375 12.20703125 C-4.86675781 12.79871094 -5.42492187 13.39039063 -6 14 C-6.66 14 -7.32 14 -8 14 C-7.45994624 9.83492783 -6.16934899 7.45554561 -3.5625 4.1875 C-2.94503906 3.39730469 -2.32757812 2.60710937 -1.69140625 1.79296875 C-0.85416016 0.90544922 -0.85416016 0.90544922 0 0 Z " fill="#69E3E8" transform="translate(543,394)"/>
<path d="M0 0 C-0.33 1.32 -0.66 2.64 -1 4 C-7.435 4.495 -7.435 4.495 -14 5 C-14 4.01 -14 3.02 -14 2 C-4.58997722 -0.29612756 -4.58997722 -0.29612756 0 0 Z " fill="#73E5E9" transform="translate(519,383)"/>
<path d="M0 0 C0.33 0 0.66 0 1 0 C1 5.61 1 11.22 1 17 C0.01 17 -0.98 17 -2 17 C-2.05398987 14.72942623 -2.09278742 12.45848712 -2.125 10.1875 C-2.14820313 8.92292969 -2.17140625 7.65835938 -2.1953125 6.35546875 C-2 3 -2 3 0 0 Z " fill="" transform="translate(365,614)"/>
<path d="M0 0 C0 0.99 0 1.98 0 3 C-2.08203125 4.640625 -2.08203125 4.640625 -4.8125 6.25 C-6.15248047 7.06210937 -6.15248047 7.06210937 -7.51953125 7.890625 C-10 9 -10 9 -13 8 C-9.4918251 4.18228025 -5.53544278 0 0 0 Z " fill="#DCA14B" transform="translate(464,459)"/>
<path d="M0 0 C-0.6796875 1.921875 -0.6796875 1.921875 -2 4 C-4.3828125 4.828125 -4.3828125 4.828125 -7.125 5.25 C-8.03507813 5.39953125 -8.94515625 5.5490625 -9.8828125 5.703125 C-10.58148437 5.80109375 -11.28015625 5.8990625 -12 6 C-12 5.01 -12 4.02 -12 3 C-10.75336669 2.49166409 -9.50250613 1.99368855 -8.25 1.5 C-7.55390625 1.2215625 -6.8578125 0.943125 -6.140625 0.65625 C-4 0 -4 0 0 0 Z " fill="#70E4E9" transform="translate(527,389)"/>
<path d="M0 0 C0.99 0.33 1.98 0.66 3 1 C2.38253906 1.4846875 1.76507813 1.969375 1.12890625 2.46875 C-4.75818158 7.12824113 -10.44241949 11.95253558 -16 17 C-16.66 16.67 -17.32 16.34 -18 16 C-5.90693431 3.39233577 -5.90693431 3.39233577 0 0 Z " fill="" transform="translate(435,474)"/>
<path d="M0 0 C0.66 0 1.32 0 2 0 C3.2890625 1.4609375 3.2890625 1.4609375 4.625 3.375 C5.29402344 4.31472656 5.29402344 4.31472656 5.9765625 5.2734375 C7 7 7 7 7 9 C3.85972637 8.66354211 2.94901705 7.94763914 0.6875 5.625 C0.130625 4.75875 -0.42625 3.8925 -1 3 C-0.67 2.01 -0.34 1.02 0 0 Z " fill="#6AE3E7" transform="translate(639,772)"/>
<path d="M0 0 C4.25177923 0.47241991 6.29969203 2.84964071 9 6 C9 6.99 9 7.98 9 9 C5.18063472 7.44396229 2.73955562 5.04395069 0 2 C0 1.34 0 0.68 0 0 Z " fill="#61E2E6" transform="translate(567,395)"/>
<path d="M0 0 C0.66 0.33 1.32 0.66 2 1 C1.01 2.32 0.02 3.64 -1 5 C-0.34 5.33 0.32 5.66 1 6 C-1.39509338 8.89932357 -3.31245243 9.50168276 -7 10 C-5.33248852 6.05860922 -2.77289351 3.2107188 0 0 Z " fill="#E4B673" transform="translate(650,745)"/>
<path d="M0 0 C2.18742014 3.2811302 2.54442806 5.33084356 3.125 9.1875 C3.29257812 10.27417969 3.46015625 11.36085938 3.6328125 12.48046875 C3.75398437 13.31191406 3.87515625 14.14335938 4 15 C3.01 14.67 2.02 14.34 1 14 C0.63659714 12.23103898 0.28459117 10.45973374 -0.0625 8.6875 C-0.25972656 7.70136719 -0.45695313 6.71523438 -0.66015625 5.69921875 C-1 3 -1 3 0 0 Z " fill="#F9F0E3" transform="translate(714,568)"/>
<path d="M0 0 C2.64 0 5.28 0 8 0 C8.33 0.99 8.66 1.98 9 3 C5.7 3 2.4 3 -1 3 C-0.67 2.01 -0.34 1.02 0 0 Z " fill="#6DE4E8" transform="translate(521,373)"/>
<path d="M0 0 C0.33 0.66 0.66 1.32 1 2 C-1.16955017 7.48096886 -1.16955017 7.48096886 -4 9.25 C-4.66 9.4975 -5.32 9.745 -6 10 C-6.99 10.66 -7.98 11.32 -9 12 C-7.55575365 8.76138697 -5.74227753 6.38030837 -3.375 3.75 C-2.74335938 3.04359375 -2.11171875 2.3371875 -1.4609375 1.609375 C-0.97882813 1.07828125 -0.49671875 0.5471875 0 0 Z " fill="#E6FAFB" transform="translate(481,734)"/>
<path d="M0 0 C0.99 0 1.98 0 3 0 C3.33 2.64 3.66 5.28 4 8 C3.01 8 2.02 8 1 8 C0.67 5.36 0.34 2.72 0 0 Z " fill="#68E3E7" transform="translate(555,399)"/>
<path d="M0 0 C0.99 0 1.98 0 3 0 C3 2.31 3 4.62 3 7 C2.01 7 1.02 7 0 7 C0 4.69 0 2.38 0 0 Z " fill="#60E1E6" transform="translate(548,343)"/>
<path d="M0 0 C2.32472205 2.85306797 3.7508258 5.54074837 5 9 C4.01 9.495 4.01 9.495 3 10 C-1.06153846 4.58461538 -1.06153846 4.58461538 -0.75 1.625 C-0.5025 1.08875 -0.255 0.5525 0 0 Z " fill="" transform="translate(391,697)"/>
<path d="M0 0 C0.66 0.33 1.32 0.66 2 1 C2 1.99 2 2.98 2 4 C0.02 4.66 -1.96 5.32 -4 6 C-4 5.01 -4 4.02 -4 3 C-2 1.3125 -2 1.3125 0 0 Z " fill="#DFA859" transform="translate(456,462)"/>
<path d="M0 0 C1.65 0.33 3.3 0.66 5 1 C5 1.99 5 2.98 5 4 C2.69 3.67 0.38 3.34 -2 3 C-1.34 2.67 -0.68 2.34 0 2 C0 1.34 0 0.68 0 0 Z " fill="" transform="translate(577,442)"/>
</svg>
