<?xml version="1.0" encoding="UTF-8"?>
<svg version="1.1" xmlns="http://www.w3.org/2000/svg" width="1080" height="1080">
<path d="M0 0 C356.4 0 712.8 0 1080 0 C1080 356.4 1080 712.8 1080 1080 C723.6 1080 367.2 1080 0 1080 C0 723.6 0 367.2 0 0 Z " fill="#FEFEFE" transform="translate(0,0)"/>
<path d="M0 0 C0.97984863 0.24621094 1.95969727 0.49242187 2.96923828 0.74609375 C9.21204453 2.36618024 15.05810847 4.50731522 21 7 C22.80523717 7.7206377 24.61125389 8.43932506 26.41796875 9.15625 C42.50414737 15.6520841 58.15108838 22.99016056 73 32 C74.87436074 26.88810706 76.17323242 22.21745991 76.875 16.8125 C77.71218511 11.33591408 78.89470924 8.71431069 83 5 C86.47286118 2.45323514 89.79149443 2.6371978 94 3 C98.23196132 4.62767743 100.68911996 6.11095798 103 10 C103.79207328 12.81918025 104.28640515 15.68366625 104.8125 18.5625 C107.30478587 30.69008689 111.636618 39.7072497 122 47 C129.63275873 51.82530724 136.83722496 53.87066458 145.65234375 55.06640625 C150.82230386 56.50820376 153.10188988 59.65283482 156 64 C156.61043233 68.23338782 156.45876307 71.94484493 154.75 75.875 C150.90791932 80.54038368 147.73846973 81.46666568 141.75 82.1875 C140.48671875 82.34605469 139.2234375 82.50460937 137.921875 82.66796875 C136.47554687 82.83232422 136.47554687 82.83232422 135 83 C136.61188492 86.81237951 139.16526418 89.6268087 141.875 92.6875 C165.54992324 120.15826985 183.61039919 154.29508783 194 189 C194.2057666 189.680625 194.4115332 190.36125 194.62353516 191.0625 C198.16721021 202.89082128 200.97272949 214.81893804 203 227 C203.15243164 227.91587891 203.30486328 228.83175781 203.46191406 229.77539062 C207.77702767 257.11997664 208.12221747 286.49772262 203.37158203 313.79003906 C202.82959792 317.01345575 202.45993762 320.25604972 202.0625 323.5 C201.10154984 330.13856405 199.4231026 336.51781421 197.57592773 342.95483398 C197.14877534 344.47168673 196.73651877 345.99275105 196.33227539 347.51586914 C186.33187845 385.14850218 168.4037852 419.70967875 144 450 C143.25492188 450.95003906 142.50984375 451.90007812 141.7421875 452.87890625 C135.4640328 460.62061791 128.52203585 467.68927719 121.5 474.75 C120.77316513 475.48473541 120.77316513 475.48473541 120.03164673 476.23431396 C113.37352188 482.94828306 106.45249431 489.16443707 99 495 C98.24444824 495.59458008 97.48889648 496.18916016 96.71044922 496.80175781 C65.30317005 521.18325905 28.69367035 538.76476485 -10 548 C-11.35810791 548.32460205 -11.35810791 548.32460205 -12.74365234 548.65576172 C-60.78691395 559.8944676 -115.05931289 558.62734197 -162 543 C-162.98444092 542.68192383 -162.98444092 542.68192383 -163.98876953 542.35742188 C-212.99601744 526.44520666 -258.76387152 496.57890108 -292 457 C-293.26070312 455.515 -293.26070312 455.515 -294.546875 454 C-318.32368156 425.45548054 -335.14636977 393.04639846 -347 358 C-347.24733887 357.27280762 -347.49467773 356.54561523 -347.74951172 355.79638672 C-350.76946097 346.74516123 -352.83258775 337.54199669 -354.6875 328.1875 C-354.89012451 327.18106445 -355.09274902 326.17462891 -355.30151367 325.13769531 C-358.49155731 308.26786086 -359.35263937 291.38377862 -359.31567383 274.24682617 C-359.31251296 271.19999349 -359.33610009 268.15413587 -359.36132812 265.10742188 C-359.43086442 243.55257952 -356.39597293 222.84397569 -351 202 C-350.75266113 201.03980957 -350.50532227 200.07961914 -350.25048828 199.09033203 C-338.58804753 154.68813294 -315.85002633 114.33635862 -284.578125 80.82421875 C-282.78378835 78.85860451 -281.07549404 76.89974325 -279.39453125 74.84375 C-277.48463336 72.57555153 -275.6988715 70.69950575 -273.4375 68.8125 C-271.07091927 66.80462466 -268.76724517 64.77824146 -266.51953125 62.63671875 C-252.81378027 49.58822522 -237.32972089 38.52368972 -221 29 C-220.30229492 28.58943359 -219.60458984 28.17886719 -218.88574219 27.75585938 C-151.74560406 -11.49715357 -74.59733743 -19.20482269 0 0 Z " fill="#F4D8FB" transform="translate(584,238)"/>
<path d="M0 0 C0.97984863 0.24621094 1.95969727 0.49242187 2.96923828 0.74609375 C9.21204453 2.36618024 15.05810847 4.50731522 21 7 C22.80523717 7.7206377 24.61125389 8.43932506 26.41796875 9.15625 C42.50414737 15.6520841 58.15108838 22.99016056 73 32 C74.87436074 26.88810706 76.17323242 22.21745991 76.875 16.8125 C77.71218511 11.33591408 78.89470924 8.71431069 83 5 C86.47286118 2.45323514 89.79149443 2.6371978 94 3 C98.23196132 4.62767743 100.68911996 6.11095798 103 10 C103.79207328 12.81918025 104.28640515 15.68366625 104.8125 18.5625 C107.30478587 30.69008689 111.636618 39.7072497 122 47 C129.63275873 51.82530724 136.83722496 53.87066458 145.65234375 55.06640625 C150.82230386 56.50820376 153.10188988 59.65283482 156 64 C156.61043233 68.23338782 156.45876307 71.94484493 154.75 75.875 C150.90791932 80.54038368 147.73846973 81.46666568 141.75 82.1875 C140.48671875 82.34605469 139.2234375 82.50460937 137.921875 82.66796875 C136.47554687 82.83232422 136.47554687 82.83232422 135 83 C136.61188492 86.81237951 139.16526418 89.6268087 141.875 92.6875 C165.54992324 120.15826985 183.61039919 154.29508783 194 189 C194.2057666 189.680625 194.4115332 190.36125 194.62353516 191.0625 C198.16721021 202.89082128 200.97272949 214.81893804 203 227 C203.15243164 227.91587891 203.30486328 228.83175781 203.46191406 229.77539062 C207.77702767 257.11997664 208.12221747 286.49772262 203.37158203 313.79003906 C202.82959792 317.01345575 202.45993762 320.25604972 202.0625 323.5 C201.10154984 330.13856405 199.4231026 336.51781421 197.57592773 342.95483398 C197.14877534 344.47168673 196.73651877 345.99275105 196.33227539 347.51586914 C186.33187845 385.14850218 168.4037852 419.70967875 144 450 C143.25492188 450.95003906 142.50984375 451.90007812 141.7421875 452.87890625 C135.4640328 460.62061791 128.52203585 467.68927719 121.5 474.75 C120.77316513 475.48473541 120.77316513 475.48473541 120.03164673 476.23431396 C113.37352188 482.94828306 106.45249431 489.16443707 99 495 C98.24444824 495.59458008 97.48889648 496.18916016 96.71044922 496.80175781 C65.30317005 521.18325905 28.69367035 538.76476485 -10 548 C-11.35810791 548.32460205 -11.35810791 548.32460205 -12.74365234 548.65576172 C-60.78691395 559.8944676 -115.05931289 558.62734197 -162 543 C-162.98444092 542.68192383 -162.98444092 542.68192383 -163.98876953 542.35742188 C-212.99601744 526.44520666 -258.76387152 496.57890108 -292 457 C-293.26070312 455.515 -293.26070312 455.515 -294.546875 454 C-318.32368156 425.45548054 -335.14636977 393.04639846 -347 358 C-347.24733887 357.27280762 -347.49467773 356.54561523 -347.74951172 355.79638672 C-350.76946097 346.74516123 -352.83258775 337.54199669 -354.6875 328.1875 C-354.89012451 327.18106445 -355.09274902 326.17462891 -355.30151367 325.13769531 C-358.49155731 308.26786086 -359.35263937 291.38377862 -359.31567383 274.24682617 C-359.31251296 271.19999349 -359.33610009 268.15413587 -359.36132812 265.10742188 C-359.43086442 243.55257952 -356.39597293 222.84397569 -351 202 C-350.75266113 201.03980957 -350.50532227 200.07961914 -350.25048828 199.09033203 C-338.58804753 154.68813294 -315.85002633 114.33635862 -284.578125 80.82421875 C-282.78378835 78.85860451 -281.07549404 76.89974325 -279.39453125 74.84375 C-277.48463336 72.57555153 -275.6988715 70.69950575 -273.4375 68.8125 C-271.07091927 66.80462466 -268.76724517 64.77824146 -266.51953125 62.63671875 C-252.81378027 49.58822522 -237.32972089 38.52368972 -221 29 C-220.30229492 28.58943359 -219.60458984 28.17886719 -218.88574219 27.75585938 C-151.74560406 -11.49715357 -74.59733743 -19.20482269 0 0 Z M-243 78 C-243.50144531 78.41266113 -244.00289063 78.82532227 -244.51953125 79.25048828 C-258.25922453 90.55950193 -271.13984364 102.86945565 -282 117 C-282.78375 117.97839844 -283.5675 118.95679688 -284.375 119.96484375 C-325.42176833 171.52171749 -346.28466439 240.58385475 -339.24609375 306.27734375 C-336.38304684 331.4253105 -330.25054271 355.12195874 -322 379 C-321.01 379 -320.02 379 -319 379 C-317.22559327 376.98512656 -317.22559327 376.98512656 -315.5 374.3125 C-313.15311714 370.88446886 -310.8630822 367.76980372 -307.9609375 364.796875 C-302.32905038 359.28017897 -302.32905038 359.28017897 -299.640625 352.140625 C-300.18092707 348.98595807 -301.05768537 346.05895319 -302 343 C-302.6286361 340.09746924 -303.13586039 337.17894813 -303.625 334.25 C-303.75342285 333.48679443 -303.8818457 332.72358887 -304.01416016 331.93725586 C-307.21698167 311.78069106 -307.21698167 311.78069106 -302.8125 304.25 C-299.27061042 299.7203722 -295.43170384 296.88165959 -290 295 C-280.8535708 294.00637395 -271.10426293 295.39307545 -261.94702148 296.06201172 C-260.18582237 296.18768342 -258.42406902 296.30580823 -256.66186523 296.41650391 C-254.08172206 296.57873492 -251.50403627 296.76345868 -248.92578125 296.953125 C-248.14850174 296.9981012 -247.37122223 297.04307739 -246.57038879 297.0894165 C-239.5776622 297.65056327 -234.01358926 299.78795145 -229.203125 304.96484375 C-226.28468388 307.2929453 -226.28468388 307.2929453 -223.57617188 306.71142578 C-220.56074107 305.80817393 -217.67489326 304.72588038 -214.75 303.5625 C-212.58176672 302.77219716 -210.41116262 301.98836962 -208.23828125 301.2109375 C-207.17303223 300.82518555 -206.1077832 300.43943359 -205.01025391 300.04199219 C-198.14867499 297.66687306 -191.13660085 296.26261769 -184 295 C-183.22124512 294.85191895 -182.44249023 294.70383789 -181.64013672 294.55126953 C-167.94165797 292.02177504 -154.32289683 291.73412771 -140.4375 291.75 C-139.150784 291.75102722 -139.150784 291.75102722 -137.83807373 291.7520752 C-82.34719395 291.89809335 -27.91734441 309.07191711 17 342 C17.57830566 342.4213623 18.15661133 342.84272461 18.75244141 343.27685547 C26.028389 348.61449563 32.77357031 354.36471323 39.34765625 360.53515625 C41.45711064 362.49548868 43.58945942 364.36054683 45.8125 366.1875 C49.63720753 369.43437402 52.77240415 373.17236187 56 377 C56.81339844 377.92554688 57.62679688 378.85109375 58.46484375 379.8046875 C70.58714158 393.67328677 80.56795405 408.63426456 89 425 C89.35545898 425.68497559 89.71091797 426.36995117 90.07714844 427.07568359 C96.91904191 440.42861842 103.28505544 455.19720577 106 470 C113.59472376 466.5568389 118.53461324 459.27900287 123.62890625 452.921875 C125.1649805 451.02898614 126.73382483 449.1620431 128.33984375 447.328125 C138.75686955 435.37471452 147.02524246 421.80757873 154.75 408 C155.16830078 407.25282715 155.58660156 406.5056543 156.01757812 405.73583984 C157.79485289 402.48577267 159.20793779 399.64148093 160 396 C159.236875 395.62875 158.47375 395.2575 157.6875 394.875 C154.26834443 392.48954263 153.29966497 390.97119852 152 387 C151.72523244 380.33963441 153.10680634 375.36629397 157 370 C161.1500919 365.5603668 164.17945727 364.42002584 170.046875 364.140625 C172.07980737 364.11919066 172.07980737 364.11919066 174 363 C174.8789249 360.7721661 174.8789249 360.7721661 175.5859375 358.0234375 C175.8751709 356.97091797 176.1644043 355.91839844 176.46240234 354.83398438 C176.91413818 353.12178711 176.91413818 353.12178711 177.375 351.375 C177.840271 349.62799805 177.840271 349.62799805 178.31494141 347.84570312 C182.8280348 330.45320742 186.10315179 312.68816457 186.203125 294.6796875 C186.21009399 293.82622742 186.21706299 292.97276733 186.22424316 292.09344482 C186.24153199 289.35391235 186.24796327 286.61458476 186.25 283.875 C186.25100708 282.93758972 186.25201416 282.00017944 186.25305176 281.03436279 C186.24248357 266.48413813 185.57950526 252.34849802 183 238 C182.86078125 237.1656543 182.7215625 236.33130859 182.578125 235.47167969 C178.02633578 208.38221192 168.77748263 183.22277079 156 159 C155.62649414 158.28489258 155.25298828 157.56978516 154.86816406 156.83300781 C143.42938171 135.06979576 128.69622867 115.12538258 111 98 C106.12695399 105.37086519 104.2001791 111.72654807 103.421875 120.51953125 C103.00512479 123.95772047 102.34210875 126.81012885 101 130 C96.35719853 132.55354081 90.19317151 132.97114776 85 132 C81.30395631 129.8695294 80.18078513 128.53878726 78.8125 124.4609375 C78.52708698 123.10193884 78.25685371 121.73968462 78 120.375 C74.92678476 106.55254079 68.62817697 96.16712857 56.625 88.125 C48.88860303 83.53926958 40.9762314 80.87318928 32.09375 79.58984375 C29.58632157 78.88346 28.59965304 78.03370523 27 76 C25.32349842 70.97049525 25.16081527 65.97208411 27.25 61.0625 C31.35103135 56.22914162 37.40449802 56.09923129 43.33203125 55.14453125 C47.60327734 54.50133077 47.60327734 54.50133077 51 52 C26.39670524 38.41809068 0.69006105 28.9342989 -26.90405273 23.42285156 C-28.37765427 23.12555653 -29.84835276 22.81368246 -31.31665039 22.49121094 C-104.21590722 6.87252886 -186.55874916 30.53012082 -243 78 Z " fill="#E3BFEA" transform="translate(584,238)"/>
<path d="M0 0 C0.97984863 0.24621094 1.95969727 0.49242187 2.96923828 0.74609375 C9.21204453 2.36618024 15.05810847 4.50731522 21 7 C22.80523717 7.7206377 24.61125389 8.43932506 26.41796875 9.15625 C42.50414737 15.6520841 58.15108838 22.99016056 73 32 C74.87436074 26.88810706 76.17323242 22.21745991 76.875 16.8125 C77.71218511 11.33591408 78.89470924 8.71431069 83 5 C86.47286118 2.45323514 89.79149443 2.6371978 94 3 C98.23196132 4.62767743 100.68911996 6.11095798 103 10 C103.79207328 12.81918025 104.28640515 15.68366625 104.8125 18.5625 C107.30478587 30.69008689 111.636618 39.7072497 122 47 C129.63275873 51.82530724 136.83722496 53.87066458 145.65234375 55.06640625 C150.82230386 56.50820376 153.10188988 59.65283482 156 64 C156.61043233 68.23338782 156.45876307 71.94484493 154.75 75.875 C150.90791932 80.54038368 147.73846973 81.46666568 141.75 82.1875 C140.48671875 82.34605469 139.2234375 82.50460937 137.921875 82.66796875 C136.47554687 82.83232422 136.47554687 82.83232422 135 83 C136.61188492 86.81237951 139.16526418 89.6268087 141.875 92.6875 C165.54992324 120.15826985 183.61039919 154.29508783 194 189 C194.2057666 189.680625 194.4115332 190.36125 194.62353516 191.0625 C198.16721021 202.89082128 200.97272949 214.81893804 203 227 C203.15243164 227.91587891 203.30486328 228.83175781 203.46191406 229.77539062 C207.77702767 257.11997664 208.12221747 286.49772262 203.37158203 313.79003906 C202.82959792 317.01345575 202.45993762 320.25604972 202.0625 323.5 C201.10154984 330.13856405 199.4231026 336.51781421 197.57592773 342.95483398 C197.14877534 344.47168673 196.73651877 345.99275105 196.33227539 347.51586914 C186.33187845 385.14850218 168.4037852 419.70967875 144 450 C143.25492188 450.95003906 142.50984375 451.90007812 141.7421875 452.87890625 C135.4640328 460.62061791 128.52203585 467.68927719 121.5 474.75 C120.77316513 475.48473541 120.77316513 475.48473541 120.03164673 476.23431396 C113.37352188 482.94828306 106.45249431 489.16443707 99 495 C98.24444824 495.59458008 97.48889648 496.18916016 96.71044922 496.80175781 C65.30317005 521.18325905 28.69367035 538.76476485 -10 548 C-11.35810791 548.32460205 -11.35810791 548.32460205 -12.74365234 548.65576172 C-60.78691395 559.8944676 -115.05931289 558.62734197 -162 543 C-162.98444092 542.68192383 -162.98444092 542.68192383 -163.98876953 542.35742188 C-212.99601744 526.44520666 -258.76387152 496.57890108 -292 457 C-293.26070312 455.515 -293.26070312 455.515 -294.546875 454 C-318.32368156 425.45548054 -335.14636977 393.04639846 -347 358 C-347.24733887 357.27280762 -347.49467773 356.54561523 -347.74951172 355.79638672 C-350.76946097 346.74516123 -352.83258775 337.54199669 -354.6875 328.1875 C-354.89012451 327.18106445 -355.09274902 326.17462891 -355.30151367 325.13769531 C-358.49155731 308.26786086 -359.35263937 291.38377862 -359.31567383 274.24682617 C-359.31251296 271.19999349 -359.33610009 268.15413587 -359.36132812 265.10742188 C-359.43086442 243.55257952 -356.39597293 222.84397569 -351 202 C-350.75266113 201.03980957 -350.50532227 200.07961914 -350.25048828 199.09033203 C-338.58804753 154.68813294 -315.85002633 114.33635862 -284.578125 80.82421875 C-282.78378835 78.85860451 -281.07549404 76.89974325 -279.39453125 74.84375 C-277.48463336 72.57555153 -275.6988715 70.69950575 -273.4375 68.8125 C-271.07091927 66.80462466 -268.76724517 64.77824146 -266.51953125 62.63671875 C-252.81378027 49.58822522 -237.32972089 38.52368972 -221 29 C-220.30229492 28.58943359 -219.60458984 28.17886719 -218.88574219 27.75585938 C-151.74560406 -11.49715357 -74.59733743 -19.20482269 0 0 Z M-243 78 C-243.50144531 78.41266113 -244.00289063 78.82532227 -244.51953125 79.25048828 C-258.25922453 90.55950193 -271.13984364 102.86945565 -282 117 C-282.78375 117.97839844 -283.5675 118.95679688 -284.375 119.96484375 C-325.42176833 171.52171749 -346.28466439 240.58385475 -339.24609375 306.27734375 C-333.04333234 360.76015264 -312.69746215 411.13661257 -277 453 C-276.35289062 453.75925781 -275.70578125 454.51851562 -275.0390625 455.30078125 C-264.38763976 467.44177077 -252.91002733 479.262776 -240 489 C-239.47857422 489.4031543 -238.95714844 489.80630859 -238.41992188 490.22167969 C-198.74317588 520.86426509 -153.56820516 538.0240275 -104 544 C-102.71085693 544.1757959 -101.42171387 544.3515918 -100.09350586 544.53271484 C-93.32541724 545.37659542 -86.49793779 545.24383843 -79.6875 545.25 C-78.91566376 545.25100708 -78.14382751 545.25201416 -77.34860229 545.25305176 C-62.7505029 545.24025021 -48.44164172 544.22346603 -34 542 C-32.68684814 541.79914795 -32.68684814 541.79914795 -31.34716797 541.59423828 C16.32691246 533.93481932 62.22189318 511.78788145 97.734375 479.08203125 C99.80892036 477.1755956 101.92265931 475.3323439 104.0625 473.5 C111.29340107 467.16933159 117.70802056 460.3638421 123.69921875 452.8515625 C125.20692969 450.98292246 126.75055827 449.14257833 128.33203125 447.3359375 C138.75386254 435.38197915 147.02357482 421.81055955 154.75 408 C155.16830078 407.25282715 155.58660156 406.5056543 156.01757812 405.73583984 C157.79485289 402.48577267 159.20793779 399.64148093 160 396 C159.236875 395.62875 158.47375 395.2575 157.6875 394.875 C154.26834443 392.48954263 153.29966497 390.97119852 152 387 C151.72523244 380.33963441 153.10680634 375.36629397 157 370 C161.1500919 365.5603668 164.17945727 364.42002584 170.046875 364.140625 C172.07980737 364.11919066 172.07980737 364.11919066 174 363 C174.8789249 360.7721661 174.8789249 360.7721661 175.5859375 358.0234375 C175.8751709 356.97091797 176.1644043 355.91839844 176.46240234 354.83398438 C176.91413818 353.12178711 176.91413818 353.12178711 177.375 351.375 C177.840271 349.62799805 177.840271 349.62799805 178.31494141 347.84570312 C182.8280348 330.45320742 186.10315179 312.68816457 186.203125 294.6796875 C186.21009399 293.82622742 186.21706299 292.97276733 186.22424316 292.09344482 C186.24153199 289.35391235 186.24796327 286.61458476 186.25 283.875 C186.25100708 282.93758972 186.25201416 282.00017944 186.25305176 281.03436279 C186.24248357 266.48413813 185.57950526 252.34849802 183 238 C182.86078125 237.1656543 182.7215625 236.33130859 182.578125 235.47167969 C178.02633578 208.38221192 168.77748263 183.22277079 156 159 C155.62649414 158.28489258 155.25298828 157.56978516 154.86816406 156.83300781 C143.42938171 135.06979576 128.69622867 115.12538258 111 98 C106.12695399 105.37086519 104.2001791 111.72654807 103.421875 120.51953125 C103.00512479 123.95772047 102.34210875 126.81012885 101 130 C96.35719853 132.55354081 90.19317151 132.97114776 85 132 C81.30395631 129.8695294 80.18078513 128.53878726 78.8125 124.4609375 C78.52708698 123.10193884 78.25685371 121.73968462 78 120.375 C74.92678476 106.55254079 68.62817697 96.16712857 56.625 88.125 C48.88860303 83.53926958 40.9762314 80.87318928 32.09375 79.58984375 C29.58632157 78.88346 28.59965304 78.03370523 27 76 C25.32349842 70.97049525 25.16081527 65.97208411 27.25 61.0625 C31.35103135 56.22914162 37.40449802 56.09923129 43.33203125 55.14453125 C47.60327734 54.50133077 47.60327734 54.50133077 51 52 C26.39670524 38.41809068 0.69006105 28.9342989 -26.90405273 23.42285156 C-28.37765427 23.12555653 -29.84835276 22.81368246 -31.31665039 22.49121094 C-104.21590722 6.87252886 -186.55874916 30.53012082 -243 78 Z " fill="#D3A7DB" transform="translate(584,238)"/>
<path d="M0 0 C1.7195478 0.12528878 3.43962914 0.24345893 5.16015625 0.35449219 C26.01377978 1.70258112 26.01377978 1.70258112 32.73632812 7.93798828 C33.17976563 8.59798828 33.62320313 9.25798828 34.08007812 9.93798828 C34.77617187 10.92798828 34.77617187 10.92798828 35.48632812 11.93798828 C37.31561904 15.28297739 37.70610533 18.56556187 37.93945312 22.33251953 C40.19312651 54.13666752 49.57971214 83.87753558 64.58007812 111.93798828 C64.97485352 112.67823242 65.36962891 113.41847656 65.77636719 114.18115234 C70.92226633 123.76885966 76.35305528 133.0035642 82.58007812 141.93798828 C84.05740247 144.07969592 85.53204473 146.22323115 87.00610352 148.3671875 C87.99780449 149.80788505 88.99171054 151.24706775 89.98803711 152.68457031 C94.48115366 159.181125 95.32608066 163.05167575 94.58007812 170.93798828 C93.0116459 176.56922686 90.08836845 179.85793116 85.26367188 183.02783203 C80.81664761 185.43190779 76.49629385 185.57556001 71.58007812 184.93798828 C58.14175857 180.57520051 45.07489527 169.02035742 34.58007812 159.93798828 C33.78730469 159.25607422 32.99453125 158.57416016 32.17773438 157.87158203 C29.60104832 155.60393126 27.08330463 153.28656142 24.58007812 150.93798828 C24.05542969 150.44733887 23.53078125 149.95668945 22.99023438 149.45117188 C9.33420754 136.57177244 -1.70290684 121.95993674 -11.41992188 105.93798828 C-12.09539062 104.84486328 -12.77085937 103.75173828 -13.46679688 102.62548828 C-28.40068612 77.61990629 -43.04957153 41.6094932 -39.41992188 11.93798828 C-37.48794788 5.87140328 -33.47404331 2.82605767 -28.09179688 -0.24951172 C-19.54418571 -2.84878529 -8.80224283 -0.65630758 0 0 Z " fill="#FEFEFE" transform="translate(320.419921875,536.06201171875)"/>
<path d="M0 0 C0.97984863 0.24621094 1.95969727 0.49242187 2.96923828 0.74609375 C9.21204453 2.36618024 15.05810847 4.50731522 21 7 C22.80523717 7.7206377 24.61125389 8.43932506 26.41796875 9.15625 C60.25270235 22.81803102 60.25270235 22.81803102 72 32 C71.34 33.65 70.68 35.3 70 37 C66.63841604 37 65.56308952 36.37980885 62.703125 34.7265625 C61.83872803 34.23631592 60.97433105 33.74606934 60.08374023 33.2409668 C59.14860596 32.70769775 58.21347168 32.17442871 57.25 31.625 C15.28644783 8.2749564 -29.77412751 -2.19531466 -77.5625 -2.3125 C-79.03878372 -2.31828568 -79.03878372 -2.31828568 -80.54489136 -2.32418823 C-92.84682297 -2.34792846 -104.82792494 -1.8070062 -117 0 C-118.13107178 0.1662085 -119.26214355 0.33241699 -120.42749023 0.50366211 C-167.91395656 7.92735451 -212.68719393 27.70605597 -250 58 C-250.87350098 58.69996094 -250.87350098 58.69996094 -251.76464844 59.4140625 C-267.89702161 72.41655095 -282.75063602 87.28493945 -295 104 C-295.72574219 104.91910156 -296.45148438 105.83820313 -297.19921875 106.78515625 C-339.12927733 160.30808561 -359.09492589 233.73526072 -351.125 301.1875 C-350.78389706 303.7985476 -350.39818232 306.39650019 -350 309 C-349.80083984 310.54494141 -349.80083984 310.54494141 -349.59765625 312.12109375 C-349.14555908 315.4321673 -348.58569628 318.709765 -348 322 C-347.80229004 323.1763501 -347.80229004 323.1763501 -347.60058594 324.37646484 C-339.54299056 371.33849751 -317.54572478 417.06932751 -285.78149414 452.58691406 C-283.40941316 455.25096232 -281.36990097 457.68339764 -280 461 C-279.34 461 -278.68 461 -278 461 C-276.484375 462.57421875 -276.484375 462.57421875 -274.75 464.6875 C-272.49924272 467.35349133 -270.29950455 469.71010091 -267.5625 471.875 C-266.716875 472.57625 -265.87125 473.2775 -265 474 C-265 474.66 -265 475.32 -265 476 C-264.42378906 476.25265625 -263.84757812 476.5053125 -263.25390625 476.765625 C-260.72327346 478.15155214 -259.01355212 479.74553589 -256.9375 481.75 C-208.87783301 525.64590729 -141.6026242 548.5279555 -77.125 548.375 C-76.28815674 548.37478851 -75.45131348 548.37457703 -74.58911133 548.37435913 C-58.79637615 548.33493335 -43.54628011 546.9121274 -28 544 C-26.96472168 543.80744629 -25.92944336 543.61489258 -24.86279297 543.41650391 C22.01391973 534.44585241 66.52468901 514.08190532 102.42993164 482.38134766 C103.55785325 481.38900114 104.69339565 480.4052916 105.83374023 479.42724609 C117.87510609 469.0542891 129.40069372 457.68731842 139 445 C139.93681326 443.8028477 140.87436758 442.60627509 141.8125 441.41015625 C152.08776053 428.16692878 160.6059248 413.96986386 168.47705078 399.18798828 C170.47727461 395.48753123 172.58702479 392.16743815 175.203125 388.8671875 C177.76861325 385.53486572 178.83774322 382.97483538 179.4375 378.75 C180.5274303 372.69411506 182.24532351 367.20546733 184.375 361.4375 C193.06766988 337.42776202 198.03219734 310.90569346 198.23828125 285.3515625 C198.25297203 283.84835953 198.25297203 283.84835953 198.26795959 282.31478882 C198.43170716 261.22243133 198.51924764 240.70118076 194 220 C193.78569336 218.96697754 193.57138672 217.93395508 193.35058594 216.86962891 C183.74073152 171.12140641 163.47662531 128.59753438 132.62915039 93.36279297 C130.32999039 90.71071922 128.36702934 88.24962403 127 85 C130.20703125 84.22265625 130.20703125 84.22265625 134 84 C136.44921875 85.74609375 136.44921875 85.74609375 138.6875 88.4375 C139.31132568 89.17806641 139.31132568 89.17806641 139.94775391 89.93359375 C141.32948245 91.59963068 142.66662681 93.29506955 144 95 C144.47099121 95.59055176 144.94198242 96.18110352 145.42724609 96.78955078 C153.28078871 106.68727411 160.15030535 117.14307426 166.72802734 127.92138672 C167.78949298 129.65599679 168.87085152 131.37841369 169.95703125 133.09765625 C187.23892759 161.22626973 197.67126894 194.58800815 203 227 C203.15098145 227.91007813 203.30196289 228.82015625 203.45751953 229.7578125 C207.77537337 257.10887805 208.12345406 286.49061841 203.37158203 313.79003906 C202.82959792 317.01345575 202.45993762 320.25604972 202.0625 323.5 C201.10154984 330.13856405 199.4231026 336.51781421 197.57592773 342.95483398 C197.14877534 344.47168673 196.73651877 345.99275105 196.33227539 347.51586914 C186.33187845 385.14850218 168.4037852 419.70967875 144 450 C143.25492188 450.95003906 142.50984375 451.90007812 141.7421875 452.87890625 C135.4640328 460.62061791 128.52203585 467.68927719 121.5 474.75 C120.77316513 475.48473541 120.77316513 475.48473541 120.03164673 476.23431396 C113.37352188 482.94828306 106.45249431 489.16443707 99 495 C98.24444824 495.59458008 97.48889648 496.18916016 96.71044922 496.80175781 C65.30317005 521.18325905 28.69367035 538.76476485 -10 548 C-11.35810791 548.32460205 -11.35810791 548.32460205 -12.74365234 548.65576172 C-60.78691395 559.8944676 -115.05931289 558.62734197 -162 543 C-162.98444092 542.68192383 -162.98444092 542.68192383 -163.98876953 542.35742188 C-212.99601744 526.44520666 -258.76387152 496.57890108 -292 457 C-293.26070312 455.515 -293.26070312 455.515 -294.546875 454 C-318.32368156 425.45548054 -335.14636977 393.04639846 -347 358 C-347.24733887 357.27280762 -347.49467773 356.54561523 -347.74951172 355.79638672 C-350.76946097 346.74516123 -352.83258775 337.54199669 -354.6875 328.1875 C-354.89012451 327.18106445 -355.09274902 326.17462891 -355.30151367 325.13769531 C-358.49155731 308.26786086 -359.35263937 291.38377862 -359.31567383 274.24682617 C-359.31251296 271.19999349 -359.33610009 268.15413587 -359.36132812 265.10742188 C-359.43086442 243.55257952 -356.39597293 222.84397569 -351 202 C-350.75266113 201.03980957 -350.50532227 200.07961914 -350.25048828 199.09033203 C-338.58804753 154.68813294 -315.85002633 114.33635862 -284.578125 80.82421875 C-282.78378835 78.85860451 -281.07549404 76.89974325 -279.39453125 74.84375 C-277.48463336 72.57555153 -275.6988715 70.69950575 -273.4375 68.8125 C-271.07091927 66.80462466 -268.76724517 64.77824146 -266.51953125 62.63671875 C-252.81378027 49.58822522 -237.32972089 38.52368972 -221 29 C-220.30229492 28.58943359 -219.60458984 28.17886719 -218.88574219 27.75585938 C-151.74560406 -11.49715357 -74.59733743 -19.20482269 0 0 Z " fill="#B892D3" transform="translate(584,238)"/>
<path d="M0 0 C4.0586664 2.67861797 5.66098015 3.7981414 6.99609375 8.53125 C7.14175781 9.8409375 7.28742188 11.150625 7.4375 12.5 C9.25151636 24.94529494 15.07050543 35.14840286 25 43 C32.95789135 48.37216701 41.41117017 51.37901891 50.9375 52.4375 C54 53 54 53 56.375 54.5 C58.77457668 58.19165643 59.15567759 61.6410276 59 66 C58.1875 68.9375 58.1875 68.9375 56 71 C53.61638198 71.74288669 51.27846928 72.16009716 48.8125 72.55078125 C36.78827885 74.47131657 25.30187037 78.78760191 17 88 C11.53210085 95.58810494 8.0873102 102.84359663 7.5625 112.1875 C7.32230913 116.06976883 7.13436227 117.77158415 5.125 121.1875 C1.71534415 124.09573587 -1.5018769 124.19817906 -5.8671875 124.5234375 C-9.33020393 123.67353969 -10.7991299 121.72716512 -13 119 C-13.96875 115.80078125 -13.96875 115.80078125 -14.5 112.3125 C-17.0565437 98.84148128 -23.89105876 89.27088199 -34.9375 81.125 C-42.90546308 75.90291958 -50.87138952 73.59641394 -60.21484375 72.00390625 C-63 71 -63 71 -64.84765625 68.6171875 C-66.39985393 65.09185718 -66.53602961 62.81921097 -66 59 C-63.91602534 54.75189781 -63.91602534 54.75189781 -61 53 C-57.57598717 52.31519743 -54.17041322 51.97125398 -50.69921875 51.59765625 C-39.35339849 49.76459342 -29.68480228 42.28470645 -22.9296875 33.22265625 C-18.40886256 26.32792533 -15.23635808 20.09504486 -14.125 11.875 C-13.18417933 5.5045278 -13.18417933 5.5045278 -10.5 2.8125 C-6.74498214 0.09011205 -4.67118544 -0.53898294 0 0 Z " fill="#FEFEFE" transform="translate(678,244)"/>
<path d="M0 0 C2.76944895 0.27085738 5.54030371 0.52097083 8.31176758 0.77026367 C10.09248682 0.94154378 11.87309096 1.11402571 13.65356445 1.2878418 C14.88176659 1.39585869 14.88176659 1.39585869 16.13478088 1.50605774 C22.48972163 2.16343396 27.72317471 3.72141987 31.9309082 8.83081055 C35.49311589 13.32798088 36.90452897 16.40440344 36.5559082 22.20581055 C35.64131884 29.42568655 32.88060476 36.25611399 27.6809082 41.45581055 C22.96230108 44.34876611 18.97703163 44.92922039 13.5559082 44.83081055 C12.73131104 44.82210937 11.90671387 44.8134082 11.05712891 44.80444336 C2.4612431 44.61963447 -6.12124137 44.0315533 -14.69329834 43.38775635 C-16.30999575 43.26711816 -17.9270731 43.15146114 -19.54449463 43.04095459 C-21.85268336 42.87961967 -24.15778671 42.69446645 -26.46362305 42.50268555 C-27.15155441 42.45767914 -27.83948578 42.41267273 -28.54826355 42.36630249 C-34.91444138 41.78693298 -39.84628712 39.36594985 -44.1315918 34.58081055 C-47.79712864 29.34432935 -49.02604712 24.81840845 -48.3190918 18.45581055 C-45.76453382 9.5861221 -43.39687901 4.20309911 -35.53759766 -0.64257812 C-25.73235595 -4.62747497 -10.27798167 -1.01589531 0 0 Z " fill="#FEFEFE" transform="translate(334.319091796875,458.544189453125)"/>
<path d="M0 0 C1.76119912 0.1256717 3.52295247 0.24379651 5.28515625 0.35449219 C7.86529942 0.51672321 10.44298522 0.70144696 13.02124023 0.89111328 C13.79851974 0.93608948 14.57579926 0.98106567 15.37663269 1.02740479 C21.87814762 1.54913319 27.18116314 3.60098254 32.18920898 7.83251953 C32.72803711 8.46544922 33.26686523 9.09837891 33.82202148 9.75048828 C34.37631836 10.37568359 34.93061523 11.00087891 35.50170898 11.64501953 C39.04021563 17.2588125 39.29576162 23.47407225 39.88305664 29.93286133 C43.98937575 74.95868229 63.34225335 116.39118118 90.12841797 152.44897461 C95.06055865 159.16031695 98.22752592 165.41601046 96.94702148 173.93798828 C94.9924032 180.56402132 90.55123265 185.07661373 84.94702148 188.93798828 C78.81985785 191.86410168 72.62166341 192.1542793 66.16186523 190.01611328 C47.68049009 181.37282917 31.67360845 166.79581256 16.94702148 152.93798828 C16.28831055 152.32181641 15.62959961 151.70564453 14.95092773 151.07080078 C9.80251695 146.10074141 5.37246871 140.55002253 0.94702148 134.93798828 C0.21354492 134.00986328 -0.51993164 133.08173828 -1.27563477 132.12548828 C-7.46640964 124.08949126 -12.88887071 115.66207073 -18.05297852 106.93798828 C-18.4074707 106.34179688 -18.76196289 105.74560547 -19.12719727 105.13134766 C-23.81639806 97.127367 -27.46365229 88.81337996 -30.86547852 80.18798828 C-31.23874268 79.24173584 -31.61200684 78.2954834 -31.99658203 77.32055664 C-34.44052116 70.95034361 -36.3377378 64.53735104 -38.05297852 57.93798828 C-38.38297852 56.84486328 -38.71297852 55.75173828 -39.05297852 54.62548828 C-47.42353026 23.75907872 -47.42353026 23.75907872 -43.14672852 11.29736328 C-33.42448547 -5.03101928 -16.22460756 -1.1852072 0 0 Z M-37.72875977 8.52392578 C-42.58524381 14.78947421 -41.93565312 22.43901344 -41.05297852 29.93798828 C-38.78171892 45.78688766 -34.71008994 60.98070414 -29.05297852 75.93798828 C-28.75552734 76.73366211 -28.45807617 77.52933594 -28.15161133 78.34912109 C-18.50234076 103.75017389 -3.59403011 127.00868629 15.44067383 146.40087891 C17.00606485 147.9982374 18.5487725 149.61567959 20.09155273 151.23486328 C30.18512873 161.71051596 41.26911601 170.26536547 53.32202148 178.37548828 C54.0589624 178.87185791 54.79590332 179.36822754 55.55517578 179.87963867 C66.36031223 187.16227901 66.36031223 187.16227901 78.94702148 187.93798828 C84.2522229 186.18210746 87.91203156 183.72393393 90.94702148 178.93798828 C93.40280115 173.54966587 93.93676663 168.78367055 92.94702148 162.93798828 C91.08672808 158.9151038 88.57903942 155.49121249 85.94702148 151.93798828 C84.54364867 149.96416049 83.14820231 147.98468004 81.75952148 146.00048828 C81.38972168 145.47253662 81.01992188 144.94458496 80.63891602 144.40063477 C69.57445136 128.4050161 60.65634756 111.32812732 52.69702148 93.62548828 C52.37958984 92.92085449 52.0621582 92.2162207 51.73510742 91.49023438 C47.44248721 81.76977421 44.24218991 71.9704125 41.82202148 61.62548828 C41.56267822 60.5268042 41.30333496 59.42812012 41.03613281 58.29614258 C38.65868253 48.02825885 37.10464643 38.03640398 36.50952148 27.50048828 C36.02503314 20.03268512 34.47811808 14.3235297 28.94702148 8.93798828 C20.78722852 3.40497799 10.42049617 3.7993537 0.94702148 3.18798828 C-0.76662595 3.06312941 -2.48016964 2.93683807 -4.19360352 2.80908203 C-22.26055069 0.65147218 -22.26055069 0.65147218 -37.72875977 8.52392578 Z " fill="#D4AADC" transform="translate(322.052978515625,533.06201171875)"/>
<path d="M0 0 C2.00012865 0.20059149 4.00104127 0.39331534 6.00195312 0.5859375 C12.71477687 1.2466485 19.41607256 1.97364533 26.10742188 2.82421875 C27.90143433 3.05129517 27.90143433 3.05129517 29.73168945 3.28295898 C36.830791 4.50433919 41.32130958 7.46064017 45.71289062 13.1171875 C49.36748869 18.38269392 49.71315038 23.57156814 48.90039062 29.828125 C46.26313665 39.75314776 42.49301482 46.55696745 33.58789062 51.765625 C23.9725503 54.53614679 12.89796252 52.42291225 3.03271484 51.65625 C0.40706871 51.45364032 -2.21921579 51.26166876 -4.84570312 51.0703125 C-29.83467114 49.19373213 -29.83467114 49.19373213 -37.09960938 41.828125 C-42.2836456 34.87099812 -42.95418695 27.7350403 -41.74414062 19.37109375 C-39.87921256 11.42324597 -34.97706266 4.90324317 -28.04882812 0.53515625 C-19.47780247 -3.12341783 -8.94959811 -0.89928329 0 0 Z M-32.09960938 7.828125 C-36.59836322 13.17799444 -38.6790808 19.46389639 -39.53710938 26.328125 C-38.76285716 32.52214276 -36.55012552 37.8042274 -32.09960938 42.265625 C-19.62758328 51.57163531 7.06973064 48.92952616 22.08789062 49.265625 C22.86970703 49.29994629 23.65152344 49.33426758 24.45703125 49.36962891 C30.37471745 49.4148514 34.30885862 47.5234201 38.90039062 43.828125 C43.79812258 38.13616624 46.37017651 30.59349475 45.83789062 23.078125 C44.85374736 17.13138699 41.56607303 12.54744536 36.82104492 8.84619141 C29.01756331 4.70986011 17.83534226 5.20025046 9.1472168 4.39550781 C7.09985772 4.20424297 5.05393214 4.00092289 3.0078125 3.796875 C-15.78110114 1.00849919 -15.78110114 1.00849919 -32.09960938 7.828125 Z " fill="#D5ACDD" transform="translate(325.099609375,454.171875)"/>
<path d="M0 0 C3.62011046 2.33296007 5.89022378 4.96794755 7.8125 8.8125 C8.24118019 15.24270291 7.542352 19.33814291 3.4375 24.5625 C-0.80812424 27.8283648 -4.93119518 28.35625567 -10.1875 27.8125 C-15.68715138 25.57535368 -18.19951587 23.29668435 -20.5234375 17.8203125 C-21.77880538 14.02467078 -21.92834294 11.4612696 -20.26953125 7.76953125 C-15.70596591 -0.33855085 -9.0542142 -3.37313862 0 0 Z " fill="#FDFCFD" transform="translate(697.1875,576.1875)"/>
<path d="M0 0 C3.49029792 1.97277708 6.19844633 4.39689265 8 8 C8.54644038 12.98066973 8.54204675 16.8958307 6.3125 21.4375 C2.66616794 25.47803012 0.0055627 27.15438768 -5.4375 27.4375 C-9.95278304 27.2722151 -12.56215039 26.0285818 -16 23 C-19.33271032 19.2229283 -19.61993863 15.38537908 -19.49609375 10.51171875 C-18.66789838 6.31857211 -16.19763024 3.70887329 -13 1 C-9.00469193 -0.99765403 -4.33153639 -0.64943255 0 0 Z " fill="#FEFDFE" transform="translate(405,335)"/>
<path d="M0 0 C3.49780267 2.72999232 3.92490844 4.42742685 4.5 8.8125 C4.16019976 14.81563757 1.5654449 19.85298304 -2.8125 23.9375 C-6.4767724 26.30849979 -8.62998993 27.15890946 -13 27 C-15.9375 25.25 -15.9375 25.25 -18 22 C-19.08365111 16.35267999 -18.71369231 11.47937125 -15.75 6.5 C-11.36408093 0.55464304 -7.48500042 -1.42833036 0 0 Z " fill="#FDFCFD" transform="translate(757,605)"/>
<path d="M0 0 C4.28373796 2.38545408 6.56092641 5.33071069 9.0625 9.5 C10.29510852 14.5424894 9.98051998 19.66934308 7.7734375 24.41015625 C5.11452476 28.44998819 2.45120116 30.85940146 -2.25 32.3125 C-7.83154305 32.92670006 -12.57205752 33.06158147 -17.75 30.75 C-22.77481409 25.85080626 -24.49128324 22.25772718 -24.8125 15.3125 C-24.63297541 10.52517764 -23.96338236 7.35276934 -20.796875 3.71484375 C-14.49556724 -1.99770545 -7.92413001 -3.60187728 0 0 Z M-19.25 7.3125 C-22.09000604 11.57250905 -21.88091437 15.31191947 -21.25 20.3125 C-19.08696971 24.71867281 -16.83885076 27.4769597 -12.25 29.3125 C-7.51252043 30.02312194 -4.19178801 29.78339401 0.125 27.625 C4.39912668 23.85969793 5.92577136 21.10952011 6.3125 15.4375 C6.18734355 10.51222545 4.63838917 8.0602425 1.2578125 4.58984375 C-2.29938492 1.57636303 -5.99577431 1.92764269 -10.48046875 1.95703125 C-14.79945356 2.51137204 -16.35787357 4.12374521 -19.25 7.3125 Z " fill="#D5ABDD" transform="translate(407.25,332.6875)"/>
<path d="M0 0 C4.65939487 2.00680345 7.98402175 4.67614955 11.0625 8.6875 C12.878702 15.10474707 13.31051497 21.45396787 10 27.4375 C6.5717561 32.12726061 2.430453 34.43317816 -3.26953125 35.375 C-8.98019621 35.68631393 -12.39842986 34.33839402 -17 31 C-21.13477131 26.64172754 -22.83783505 23.04327843 -23.3125 17.0625 C-23.14920318 12.2270996 -21.81474139 8.79373744 -18.3125 5.33203125 C-12.35965982 0.11089434 -8.0068726 -1.10767012 0 0 Z M-17.36328125 8.5078125 C-20.16218071 12.64364332 -20.3852474 16.06458039 -19.53515625 20.92578125 C-18.3277667 25.60551738 -16.69236768 27.50735377 -12.75 30.3125 C-9.06207667 32.22245608 -6.1647421 32.53005809 -2 32 C2.68170268 30.25583626 5.21249191 28.12964161 8 24 C9.24199848 20.27400457 9.53508555 16.87020783 9 13 C6.30455136 7.89790078 3.4785689 4.82618963 -2 3 C-8.4502575 2.37978293 -13.00545757 3.68798459 -17.36328125 8.5078125 Z " fill="#D4AADC" transform="translate(696,572)"/>
</svg>
