<?xml version="1.0" encoding="UTF-8"?>
<svg version="1.1" xmlns="http://www.w3.org/2000/svg" width="1080" height="1080">
<!-- <path d="M0 0 C356.4 0 712.8 0 1080 0 C1080 356.4 1080 712.8 1080 1080 C723.6 1080 367.2 1080 0 1080 C0 723.6 0 367.2 0 0 Z " fill="" transform="translate(0,0)"/> -->
<path d="M0 0 C1.7173573 1.52467819 3.43335097 3.0508929 5.1484375 4.578125 C12.72133141 11.15537947 20.31274546 15.94556836 29.40234375 20.1328125 C30.06411621 20.43815918 30.72588867 20.74350586 31.40771484 21.05810547 C40.86793784 25.30421083 50.41002725 27.97298659 60.52734375 30.1953125 C83.59585679 35.26826473 101.55996431 45.01903019 120.40234375 59.1328125 C121.19769531 59.72578125 121.99304688 60.31875 122.8125 60.9296875 C127.32305446 64.36785968 131.68111724 67.99064375 136.02734375 71.6328125 C136.81733765 72.29108032 136.81733765 72.29108032 137.62329102 72.96264648 C145.13459887 79.31620955 150.96741517 85.92940349 156.33984375 94.1953125 C156.94884521 95.12561279 157.55784668 96.05591309 158.18530273 97.0144043 C159.93871192 99.71161578 161.67432069 102.41928444 163.40234375 105.1328125 C163.84352539 105.81923828 164.28470703 106.50566406 164.73925781 107.21289062 C171.30238112 117.53653579 174.82573696 128.25341189 177.546875 140.06640625 C180.60272428 152.57423517 185.42861467 159.89394369 194.82421875 168.63476562 C196.80841289 170.51827664 198.58148296 172.53876465 200.33984375 174.6328125 C202.97166924 177.6933815 205.77289803 180.52105385 208.6484375 183.3515625 C211.11698889 185.8585991 213.417039 188.49411638 215.70703125 191.1640625 C216.79758715 192.43051452 217.9058239 193.68206358 219.03515625 194.9140625 C229.86501158 206.88676689 231.81350966 223.26593665 233.41308594 238.76635742 C233.65198909 241.06689723 233.91255246 243.36423947 234.17578125 245.66210938 C236.18145574 263.82004247 238.39907207 284.87808943 226.40234375 300.1328125 C222.08448197 304.45067428 217.82983225 305.9653995 211.77734375 306.3828125 C208.44380413 306.13588364 207.12799467 305.92184978 204.40234375 304.1328125 C202.54296875 301.6640625 202.54296875 301.6640625 200.65234375 298.6328125 C192.3559002 285.24634768 192.3559002 285.24634768 179.40234375 277.1328125 C173.11442517 276.59993804 168.40213949 277.06608129 163.40234375 281.1328125 C157.32193573 289.46749243 153.04859716 298.76408901 148.96484375 308.1953125 C148.39798401 309.48376248 147.83009614 310.77176057 147.26123047 312.05932617 C146.13960388 314.60078104 145.02230144 317.14404837 143.90966797 319.68945312 C140.47541242 327.53473014 136.95999731 335.34280017 133.40234375 343.1328125 C133.13101624 343.72743286 132.85968872 344.32205322 132.58013916 344.93469238 C130.67358306 349.1091156 128.75463456 353.27761195 126.824646 357.44125366 C126.18063599 358.83354862 125.53928788 360.22707874 124.90093994 361.62197876 C117.71241189 377.31317199 110.59910232 392.75261158 93.5 399.5078125 C90.26345174 400.47214718 87.73814843 400.64601322 84.40234375 400.1328125 C81.64905354 398.33718845 79.87606914 397.08026328 78.40234375 394.1328125 C76.2984733 371.98206222 87.32792261 351.82234254 96.0625 332.1171875 C109.14266674 302.56090044 115.87482866 275.33498348 105.19921875 243.55078125 C101.44050185 233.90420084 96.97825609 226.75178198 87.40234375 222.1328125 C84.41765939 221.17976797 82.37534241 221.11137918 79.40234375 222.1328125 C70.6810386 227.61952614 64.00724586 237.21227408 61.40234375 247.1328125 C61.18307542 249.92223867 61.03881865 252.65366945 60.96484375 255.4453125 C59.71979533 284.21185976 59.71979533 284.21185976 50.88671875 293.7734375 C44.74804023 299.16803377 39.22832589 299.82239606 31.24609375 299.57421875 C24.7191309 298.82467932 20.11166214 296.11243411 15.71875 291.28125 C12.19408909 286.5883587 11.28384154 282.92701109 11.15625 277.19140625 C11.1248291 275.98081543 11.0934082 274.77022461 11.06103516 273.52294922 C11.02929199 272.2185791 10.99754883 270.91420898 10.96484375 269.5703125 C9.40876387 214.76355869 -0.82179283 169.62622448 -41.3359375 130.203125 C-45.59366978 126.30571894 -50.06679284 122.70568751 -54.59765625 119.1328125 C-55.60828125 118.31683594 -56.61890625 117.50085938 -57.66015625 116.66015625 C-65.5485516 110.3599383 -73.80673765 105.07977754 -82.59765625 100.1328125 C-83.31695313 99.71999023 -84.03625 99.30716797 -84.77734375 98.88183594 C-101.70260613 89.22594446 -119.28375106 82.90106793 -138.59765625 80.1328125 C-139.77457031 79.95105469 -140.95148438 79.76929688 -142.1640625 79.58203125 C-176.50103229 75.45052243 -213.05192635 82.04360947 -240.6328125 103.6640625 C-263.03699469 122.31945531 -285.36680605 148.01184875 -289.32080078 178.02294922 C-292.36941084 212.26738917 -289.49750436 246.51997643 -267.66015625 274.4453125 C-266.31997676 276.01982593 -264.96540217 277.5821853 -263.59765625 279.1328125 C-262.86160156 280.01195312 -262.12554687 280.89109375 -261.3671875 281.796875 C-244.3567107 301.49905857 -220.65805655 313.95311032 -195.59765625 320.1328125 C-194.77394531 320.35839844 -193.95023438 320.58398438 -193.1015625 320.81640625 C-181.30348522 323.70126495 -167.55268012 323.70586243 -156.59765625 318.1328125 C-141.16379452 308.53487974 -124.68208909 289.27018885 -118.59765625 272.1328125 C-118.35402344 271.45605469 -118.11039063 270.77929688 -117.859375 270.08203125 C-113.36761397 254.34558955 -116.61467881 235.43695877 -123.84765625 221.0703125 C-133.69518945 204.30232603 -150.70317021 198.05321593 -168.59765625 193.1328125 C-168.49453125 194.1846875 -168.39140625 195.2365625 -168.28515625 196.3203125 C-168.59765625 200.1328125 -168.59765625 200.1328125 -170.72265625 203.0703125 C-173.59765625 205.1328125 -173.59765625 205.1328125 -176.41015625 205.8203125 C-183.42828709 204.306598 -188.3043331 198.99631782 -192.27734375 193.25390625 C-196.97733651 185.70332617 -198.87829315 179.12340624 -197.59765625 170.1328125 C-195.97265625 166.8828125 -195.97265625 166.8828125 -193.59765625 165.1328125 C-189.6479354 164.23514867 -187.09118288 165.16566135 -183.66015625 167.0703125 C-179.5906774 169.78850567 -176.88983964 173.20525642 -174.04296875 177.14453125 C-172.61016685 179.22443082 -172.61016685 179.22443082 -170.59765625 181.1328125 C-170.12714844 180.57851563 -169.65664063 180.02421875 -169.171875 179.453125 C-168.54925781 178.72867188 -167.92664063 178.00421875 -167.28515625 177.2578125 C-166.67027344 176.53851563 -166.05539062 175.81921875 -165.421875 175.078125 C-163.59765625 173.1328125 -163.59765625 173.1328125 -160.59765625 171.1328125 C-145.51957105 171.67131554 -128.09993876 181.27329123 -117.73828125 192.0703125 C-115.11951304 195.02482023 -112.66468422 198.04404572 -110.28515625 201.1953125 C-103.73268761 208.35731311 -96.88461806 211.55580253 -87.6484375 214.1171875 C-80.31502143 216.5585296 -75.13271227 222.04422519 -70.59765625 228.1328125 C-69.35202407 230.62407686 -69.49448743 232.24536416 -69.52832031 235.03125 C-69.53873352 236.05412109 -69.54914673 237.07699219 -69.55987549 238.13085938 C-69.57749939 239.24525391 -69.59512329 240.35964844 -69.61328125 241.5078125 C-69.62977722 242.66087891 -69.64627319 243.81394531 -69.66326904 245.00195312 C-69.70086021 247.45675144 -69.74141749 249.91150581 -69.78466797 252.36621094 C-69.8464687 256.06179861 -69.88853417 259.75725812 -69.9296875 263.453125 C-70.16835322 279.64453319 -70.7755505 295.76830317 -76.22265625 311.1953125 C-76.60115723 312.29117676 -76.60115723 312.29117676 -76.98730469 313.40917969 C-89.20802593 347.25229474 -113.99229005 370.84628771 -145.95019531 386.26806641 C-150.75033686 388.45254298 -155.63361274 390.35639839 -160.59765625 392.1328125 C-161.25008301 392.37080566 -161.90250977 392.60879883 -162.57470703 392.85400391 C-187.34109783 401.73739986 -214.18886631 403.08622439 -239.59765625 396.1328125 C-240.30374023 395.93977539 -241.00982422 395.74673828 -241.73730469 395.54785156 C-267.1121115 388.26201594 -289.68054142 373.19005847 -308.59765625 355.1328125 C-310.02775245 353.89503958 -311.46443306 352.66479657 -312.91015625 351.4453125 C-316.88059228 347.97828554 -320.24623704 344.19455177 -323.59765625 340.1328125 C-324.02030762 339.63313965 -324.44295898 339.1334668 -324.87841797 338.61865234 C-347.47138243 311.85782461 -363.6375975 279.50175807 -370.59765625 245.1328125 C-370.77425781 244.28895996 -370.95085937 243.44510742 -371.1328125 242.57568359 C-371.69691688 239.86808117 -372.24420947 237.15763091 -372.78515625 234.4453125 C-372.95233154 233.62691895 -373.11950684 232.80852539 -373.29174805 231.96533203 C-384.34388489 174.37578434 -369.68823148 111.31923714 -337.53759766 62.84667969 C-332.07572194 54.81166224 -326.01397194 47.4167432 -319.59765625 40.1328125 C-318.67726563 39.04613281 -318.67726563 39.04613281 -317.73828125 37.9375 C-285.1876518 -0.34824035 -236.63346976 -23.88888494 -187.59765625 -31.8671875 C-186.60572266 -32.02944824 -185.61378906 -32.19170898 -184.59179688 -32.35888672 C-130.23756983 -40.81573418 -44.10596243 -37.42768858 0 0 Z " fill="#008FD6" transform="translate(680.59765625,305.8671875)"/>
<path d="M0 0 C1.7173573 1.52467819 3.43335097 3.0508929 5.1484375 4.578125 C12.72133141 11.15537947 20.31274546 15.94556836 29.40234375 20.1328125 C30.06411621 20.43815918 30.72588867 20.74350586 31.40771484 21.05810547 C40.86793784 25.30421083 50.41002725 27.97298659 60.52734375 30.1953125 C83.59585679 35.26826473 101.55996431 45.01903019 120.40234375 59.1328125 C121.19769531 59.72578125 121.99304688 60.31875 122.8125 60.9296875 C127.32305446 64.36785968 131.68111724 67.99064375 136.02734375 71.6328125 C136.81733765 72.29108032 136.81733765 72.29108032 137.62329102 72.96264648 C145.13459887 79.31620955 150.96741517 85.92940349 156.33984375 94.1953125 C157.25334595 95.59076294 157.25334595 95.59076294 158.18530273 97.0144043 C159.93871192 99.71161578 161.67432069 102.41928444 163.40234375 105.1328125 C163.84352539 105.81923828 164.28470703 106.50566406 164.73925781 107.21289062 C171.30238112 117.53653579 174.82573696 128.25341189 177.546875 140.06640625 C180.60272428 152.57423517 185.42861467 159.89394369 194.82421875 168.63476562 C196.80841289 170.51827664 198.58148296 172.53876465 200.33984375 174.6328125 C202.97166924 177.6933815 205.77289803 180.52105385 208.6484375 183.3515625 C211.11698889 185.8585991 213.417039 188.49411638 215.70703125 191.1640625 C216.79758715 192.43051452 217.9058239 193.68206358 219.03515625 194.9140625 C229.86501158 206.88676689 231.81350966 223.26593665 233.41308594 238.76635742 C233.65198909 241.06689723 233.91255246 243.36423947 234.17578125 245.66210938 C236.18145574 263.82004247 238.39907207 284.87808943 226.40234375 300.1328125 C222.08448197 304.45067428 217.82983225 305.9653995 211.77734375 306.3828125 C208.44380413 306.13588364 207.12799467 305.92184978 204.40234375 304.1328125 C202.54296875 301.6640625 202.54296875 301.6640625 200.65234375 298.6328125 C192.3559002 285.24634768 192.3559002 285.24634768 179.40234375 277.1328125 C173.11442517 276.59993804 168.40213949 277.06608129 163.40234375 281.1328125 C157.32193573 289.46749243 153.04859716 298.76408901 148.96484375 308.1953125 C148.39798401 309.48376248 147.83009614 310.77176057 147.26123047 312.05932617 C146.13960388 314.60078104 145.02230144 317.14404837 143.90966797 319.68945312 C140.47541242 327.53473014 136.95999731 335.34280017 133.40234375 343.1328125 C133.13101624 343.72743286 132.85968872 344.32205322 132.58013916 344.93469238 C130.67358306 349.1091156 128.75463456 353.27761195 126.824646 357.44125366 C126.18063599 358.83354862 125.53928788 360.22707874 124.90093994 361.62197876 C117.71241189 377.31317199 110.59910232 392.75261158 93.5 399.5078125 C90.26345174 400.47214718 87.73814843 400.64601322 84.40234375 400.1328125 C81.64905354 398.33718845 79.87606914 397.08026328 78.40234375 394.1328125 C76.2984733 371.98206222 87.32792261 351.82234254 96.0625 332.1171875 C107.87315461 305.42952329 113.59572771 282.72018506 108.72753906 253.31787109 C108.15821628 249.49246648 107.76486571 245.64686509 107.34204102 241.80297852 C106.72877157 236.24227197 106.07251633 230.68692253 105.40234375 225.1328125 C105.24644775 223.84020508 105.24644775 223.84020508 105.08740234 222.52148438 C98.74360072 172.06178569 75.36052418 122.34029265 43.40234375 83.1328125 C42.99467773 82.62363281 42.58701172 82.11445313 42.16699219 81.58984375 C35.40282598 73.18005921 27.94342028 65.46799888 20.33984375 57.8203125 C19.43008789 56.9012915 18.52033203 55.98227051 17.58300781 55.03540039 C11.49687883 48.97717437 5.13535578 43.45824033 -1.59765625 38.1328125 C-2.66950053 37.2633039 -3.74116377 36.393572 -4.8125 35.5234375 C-29.45517955 16.14870523 -57.20417246 1.84198631 -86.59765625 -8.8671875 C-87.39977539 -9.16560547 -88.20189453 -9.46402344 -89.02832031 -9.77148438 C-99.50135118 -13.61024084 -110.23120239 -15.97438485 -121.16015625 -18.1171875 C-122.41393066 -18.3637207 -123.66770508 -18.61025391 -124.95947266 -18.86425781 C-142.70875003 -22.19095322 -160.11272139 -23.27084236 -178.16015625 -23.2421875 C-179.21371307 -23.24297302 -180.2672699 -23.24375854 -181.35275269 -23.24456787 C-198.31416278 -23.2294262 -215.14275709 -22.79392392 -231.46875 -17.671875 C-234.59862121 -16.86693933 -235.63943972 -16.96503352 -238.59765625 -17.8671875 C-221.78964692 -23.85132397 -205.23466297 -28.99758331 -187.59765625 -31.8671875 C-186.60572266 -32.02944824 -185.61378906 -32.19170898 -184.59179688 -32.35888672 C-130.23756983 -40.81573418 -44.10596243 -37.42768858 0 0 Z " fill="#00FEFE" transform="translate(680.59765625,305.8671875)"/>
<path d="M0 0 C39.35921445 -0.73194193 77.05029197 10.08807304 110.29296875 31.11328125 C111.2675 31.72558594 112.24203125 32.33789062 113.24609375 32.96875 C134.69809184 47.51628763 158.49372254 75.36350134 164.29296875 101.11328125 C161.47920443 98.39268794 159.00552239 95.57765848 156.60546875 92.48828125 C140.39324477 72.11144928 120.98087766 55.82420824 98.29296875 43.11328125 C97.57802246 42.70335937 96.86307617 42.2934375 96.12646484 41.87109375 C79.1961762 32.21127918 61.61343802 25.88247751 42.29296875 23.11328125 C41.11605469 22.93152344 39.93914062 22.74976563 38.7265625 22.5625 C4.38959271 18.43099118 -32.16130135 25.02407822 -59.7421875 46.64453125 C-82.14636969 65.29992406 -104.47618105 90.9923175 -108.43017578 121.00341797 C-111.47878584 155.24785792 -108.60687936 189.50044518 -86.76953125 217.42578125 C-85.42935176 219.00029468 -84.07477717 220.56265405 -82.70703125 222.11328125 C-81.97097656 222.99242187 -81.23492187 223.8715625 -80.4765625 224.77734375 C-63.4660857 244.47952732 -39.76743155 256.93357907 -14.70703125 263.11328125 C-13.88332031 263.33886719 -13.05960937 263.56445312 -12.2109375 263.796875 C-0.41286022 266.6817337 13.33794488 266.68633118 24.29296875 261.11328125 C39.72683048 251.51534849 56.20853591 232.2506576 62.29296875 215.11328125 C62.53660156 214.43652344 62.78023437 213.75976562 63.03125 213.0625 C67.52301103 197.3260583 64.27594619 178.41742752 57.04296875 164.05078125 C47.19543555 147.28279478 30.18745479 141.03368468 12.29296875 136.11328125 C12.39609375 137.16515625 12.49921875 138.21703125 12.60546875 139.30078125 C12.29296875 143.11328125 12.29296875 143.11328125 10.16796875 146.05078125 C7.29296875 148.11328125 7.29296875 148.11328125 4.48046875 148.80078125 C-2.53766209 147.28706675 -7.4137081 141.97678657 -11.38671875 136.234375 C-16.08671151 128.68379492 -17.98766815 122.10387499 -16.70703125 113.11328125 C-15.08203125 109.86328125 -15.08203125 109.86328125 -12.70703125 108.11328125 C-8.7573104 107.21561742 -6.20055788 108.1461301 -2.76953125 110.05078125 C1.2999476 112.76897442 4.00078536 116.18572517 6.84765625 120.125 C8.28045815 122.20489957 8.28045815 122.20489957 10.29296875 124.11328125 C10.76347656 123.55898438 11.23398437 123.0046875 11.71875 122.43359375 C12.34136719 121.70914063 12.96398437 120.9846875 13.60546875 120.23828125 C14.22035156 119.51898438 14.83523438 118.7996875 15.46875 118.05859375 C17.29296875 116.11328125 17.29296875 116.11328125 20.29296875 114.11328125 C35.37105395 114.65178429 52.79068624 124.25375998 63.15234375 135.05078125 C65.77111196 138.00528898 68.22594078 141.02451447 70.60546875 144.17578125 C77.15793739 151.33778186 84.00600694 154.53627128 93.2421875 157.09765625 C100.57560357 159.53899835 105.75791273 165.02469394 110.29296875 171.11328125 C111.53860093 173.60454561 111.39613757 175.22583291 111.36230469 178.01171875 C111.35189148 179.03458984 111.34147827 180.05746094 111.33074951 181.11132812 C111.31312561 182.22572266 111.29550171 183.34011719 111.27734375 184.48828125 C111.25259979 186.21788086 111.25259979 186.21788086 111.22735596 187.98242188 C111.18976479 190.43722019 111.14920751 192.89197456 111.10595703 195.34667969 C111.0441563 199.04226736 111.00209083 202.73772687 110.9609375 206.43359375 C110.72227178 222.62500194 110.1150745 238.74877192 104.66796875 254.17578125 C104.41563477 254.90635742 104.16330078 255.63693359 103.90332031 256.38964844 C95.31564802 280.17168026 79.34223048 301.99897222 58.29296875 316.11328125 C57.48730469 316.66371094 56.68164062 317.21414063 55.8515625 317.78125 C35.94450109 328.14507892 2.15656369 321.64205326 -18.33203125 315.30078125 C-21.47144386 314.27790469 -24.59249339 313.20940226 -27.70703125 312.11328125 C-28.38008301 311.87738281 -29.05313477 311.64148438 -29.74658203 311.3984375 C-50.42882056 304.00110238 -68.43790359 291.87151654 -84.13232422 276.64111328 C-85.68994381 275.12986004 -87.26239549 273.63526801 -88.8359375 272.140625 C-110.16528866 251.62994204 -123.80524117 225.45142691 -131.70703125 197.11328125 C-132.02414062 195.99050781 -132.34125 194.86773438 -132.66796875 193.7109375 C-135.93206041 181.41403775 -137.05872272 169.35308562 -137.02270508 156.68554688 C-137.01955372 154.37972245 -137.04307364 152.07519763 -137.06835938 149.76953125 C-137.1133135 139.25173667 -135.89291029 129.39274801 -133.70703125 119.11328125 C-133.50827393 118.1711377 -133.3095166 117.22899414 -133.10473633 116.25830078 C-130.56939738 104.96023252 -126.81352191 94.49047543 -121.70703125 84.11328125 C-121.39894531 83.47938477 -121.09085937 82.84548828 -120.7734375 82.19238281 C-113.5996851 67.5993035 -104.39595144 55.20670362 -93.09716797 43.55029297 C-91.84089454 42.25165837 -90.60289182 40.93540964 -89.3671875 39.6171875 C-69.84509218 19.2478403 -37.44230255 0.96831866 -8.6328125 0.1328125 C-5.75159593 0.11847809 -2.87970231 0.07136881 0 0 Z " fill="#2D404F" transform="translate(499.70703125,362.88671875)"/>
<path d="M0 0 C7.41183562 1.425353 12.37576308 6.05826311 16.77734375 12.00390625 C18.96425387 15.89625821 19.87363372 19.86498673 20.7421875 24.21875 C21.0088449 26.56579709 21.0088449 26.56579709 22.25 27.625 C22.95103093 34.63530928 22.95103093 34.63530928 20.125 38.625 C17.25 40.625 17.25 40.625 14.4375 41.3125 C7.41936916 39.7987855 2.54332315 34.48850532 -1.4296875 28.74609375 C-6.12968026 21.19551367 -8.0306369 14.61559374 -6.75 5.625 C-4.88871026 1.90242053 -4.03414836 0.9168519 0 0 Z " fill="#0390D7" transform="translate(489.75,470.375)"/>
<path d="M0 0 C2.69238782 2.79883105 3.43130141 4.83817255 3.4375 8.6875 C3.20706041 16.12740668 0.18270812 22.65533225 -5 28 C-7.44668693 29.73635847 -8.55485935 30.02171418 -11.5625 29.875 C-14.60245198 28.78373519 -15.34177804 27.74171927 -17 25 C-18.21462948 17.95296047 -17.10124312 11.82808232 -13 6 C-9.31264126 1.03747397 -6.51226563 -1.22872936 0 0 Z " fill="#0691D8" transform="translate(860,609)"/>
<path d="M0 0 C2.375 0.625 2.375 0.625 4.6875 2.5625 C6.99751616 6.75475155 7.12944885 9.93827231 6.375 14.625 C4.59029163 20.41814428 1.86604156 25.54223495 -2.625 29.625 C-5.39393573 30.39844573 -7.71745915 30.52643929 -10.625 30.625 C-14.31385172 26.49466336 -14.18273574 23.08946868 -14.0390625 17.734375 C-13.21170305 11.52137386 -10.17759009 6.78485039 -5.625 2.5625 C-2.625 0.625 -2.625 0.625 0 0 Z " fill="#0692D8" transform="translate(712.625,614.375)"/>
<path d="M0 0 C2.14541591 1.77551661 2.86177445 3.17401806 3.3203125 5.9140625 C3.69046176 12.89754512 1.8604375 19.5162226 -2.61328125 24.96484375 C-5.46451469 27.65170453 -7.3608931 28.87709483 -11.25 29.625 C-14 29 -14 29 -15.6484375 27.2578125 C-18.2779032 22.86523685 -17.60011392 17.64236205 -16.49609375 12.78125 C-14.65340064 7.30581904 -11.7464742 2.97402833 -7 -0.4375 C-4.26075726 -1.20791202 -2.67311366 -0.95957926 0 0 Z " fill="#0591D7" transform="translate(763,715)"/>
<path d="M0 0 C2.99397767 4.4909665 2.58257393 8.73525782 2 14 C0.40085874 19.22098012 -2.17872915 23.24498809 -7 26 C-10.125 26.5 -10.125 26.5 -13 26 C-14.875 24.5 -14.875 24.5 -16 22 C-16.72636519 14.7363481 -15.1320043 9.16361928 -11.0625 3.125 C-7.45410855 -0.59273665 -5.05644857 -1.72983767 0 0 Z " fill="#0691D7" transform="translate(772,554)"/>
<path d="M0 0 C0.99 0 1.98 0 3 0 C3.33 4.62 3.66 9.24 4 14 C3.67 14 3.34 14 3 14 C2.01 9.38 1.02 4.76 0 0 Z " fill="#27A9E0" transform="translate(786,549)"/>
</svg>
