<?xml version="1.0" encoding="UTF-8"?>
<svg version="1.1" xmlns="http://www.w3.org/2000/svg" width="1080" height="1080">
<path d="M0 0 C356.4 0 712.8 0 1080 0 C1080 356.4 1080 712.8 1080 1080 C723.6 1080 367.2 1080 0 1080 C0 723.6 0 367.2 0 0 Z " fill="" transform="translate(0,0)"/>
<path d="M0 0 C1.19415527 0.00161133 2.38831055 0.00322266 3.61865234 0.00488281 C16.92837315 0.18703651 30.41326978 1.87975454 42.25 8.375 C43.27351562 8.890625 44.29703125 9.40625 45.3515625 9.9375 C52.24489469 13.48716991 58.37056419 17.32795743 64.25 22.375 C65.07242188 23.06464844 65.89484375 23.75429688 66.7421875 24.46484375 C84.03115421 39.4153332 95.70211178 60.53582181 98.25 83.375 C98.41221697 87.16763274 98.43504798 90.95427368 98.4375 94.75 C98.44974609 95.74 98.46199219 96.73 98.47460938 97.75 C98.48683069 103.92583591 97.85710742 109.42186522 96.25 115.375 C96.06332764 116.13876953 95.87665527 116.90253906 95.68432617 117.68945312 C88.95599857 144.76965052 72.5660795 164.46727029 49.14746094 179.24462891 C29.73804052 190.80736907 3.22812275 193.85998174 -18.8125 189.25 C-20.80824883 188.68016468 -22.78828064 188.05277788 -24.75 187.375 C-26.55791016 186.75431641 -26.55791016 186.75431641 -28.40234375 186.12109375 C-48.90269898 178.66903296 -65.91315754 165.1817469 -77.8125 146.9375 C-78.20711426 146.33397705 -78.60172852 145.7304541 -79.00830078 145.10864258 C-80.77222148 142.30779584 -81.75 140.7488564 -81.75 137.375 C-82.41 137.375 -83.07 137.375 -83.75 137.375 C-94.20988884 109.7189185 -96.52077213 84.21128544 -84.75 56.375 C-80.93641022 48.31901968 -76.54263354 41.1411854 -70.75 34.375 C-69.76773437 33.17617188 -69.76773437 33.17617188 -68.765625 31.953125 C-55.73830482 16.64364654 -39.01734565 7.50280477 -19.75 2.375 C-18.73550781 2.01921875 -17.72101563 1.6634375 -16.67578125 1.296875 C-11.24621018 -0.24636788 -5.59970313 -0.00781754 0 0 Z " fill="#A3D9D4" transform="translate(456.75,274.625)"/>
<path d="M0 0 C11.17970835 8.07423381 20.07337754 18.08237331 26.0625 30.5625 C26.413125 31.25214844 26.76375 31.94179688 27.125 32.65234375 C28.12061758 34.61454007 29.09253609 36.58751324 30.0625 38.5625 C30.578125 39.59375 31.09375 40.625 31.625 41.6875 C39.04552309 59.87185878 38.08500633 84.1515752 31.4453125 102.3984375 C26.56559626 113.56388991 20.27218471 123.53336432 12.0625 132.5625 C11.47855469 133.21605469 10.89460937 133.86960937 10.29296875 134.54296875 C5.76919094 139.34219908 0.58213279 142.98863704 -4.9375 146.5625 C-5.84371094 147.16320312 -6.74992188 147.76390625 -7.68359375 148.3828125 C-26.36940325 160.09630502 -50.68361422 162.81007293 -72.18359375 158.7265625 C-94.99918646 153.33312967 -115.71021669 138.07206562 -128.05761719 118.26904297 C-132.40699014 110.98408509 -135.85176726 103.82818159 -137.9375 95.5625 C-138.23269531 94.52480469 -138.52789062 93.48710938 -138.83203125 92.41796875 C-142.86902814 76.58335536 -141.86823226 61.00079274 -136.9375 45.5625 C-136.46957031 44.05429687 -136.46957031 44.05429687 -135.9921875 42.515625 C-132.46054478 32.00972986 -127.01457312 23.03615739 -119.9375 14.5625 C-119.42832031 13.90765625 -118.91914063 13.2528125 -118.39453125 12.578125 C-106.90532108 -1.60608509 -90.39497645 -10.18891 -72.9375 -14.4375 C-71.73738281 -14.79457031 -70.53726563 -15.15164063 -69.30078125 -15.51953125 C-44.82934812 -21.58540055 -20.16942615 -13.6874597 0 0 Z " fill="#F7D9E3" transform="translate(470.9375,684.4375)"/>
<path d="M0 0 C0.7159433 -0.00301117 1.4318866 -0.00602234 2.16952515 -0.00912476 C33.45569117 -0.00088025 63.51501335 11.36721421 87.4375 31.5 C87.99356934 31.94005371 88.54963867 32.38010742 89.12255859 32.83349609 C90.59720267 34.01157334 92.0218577 35.25164187 93.4375 36.5 C93.4375 37.16 93.4375 37.82 93.4375 38.5 C94.0975 38.5 94.7575 38.5 95.4375 38.5 C97.98504482 40.96286189 100.16424327 43.78508196 102.4375 46.5 C103.49904297 47.69689453 103.49904297 47.69689453 104.58203125 48.91796875 C114.92804394 60.89470148 123.46463263 76.13824618 127.4375 91.5 C128.42649744 94.6780336 129.4299532 97.85123937 130.4375 101.0234375 C130.7675 102.17070313 131.0975 103.31796875 131.4375 104.5 C131.62207764 105.10682617 131.80665527 105.71365234 131.99682617 106.33886719 C134.06589776 114.08239304 133.78822445 122.0481324 133.75 130 C133.74850952 130.75944916 133.74701904 131.51889832 133.7454834 132.30136108 C133.70653871 143.30425294 133.28808959 153.81337409 130.4375 164.5 C130.17066406 165.57507813 129.90382813 166.65015625 129.62890625 167.7578125 C120.21799893 201.80438389 96.93576622 231.23980732 66.33056641 248.70214844 C58.31855241 253.04378123 50.11915818 256.70605977 41.4375 259.5 C40.66792969 259.77457031 39.89835938 260.04914063 39.10546875 260.33203125 C26.33341228 264.63174512 12.4264266 264.91532908 -0.9375 264.875 C-1.65617249 264.87412384 -2.37484497 264.87324768 -3.11529541 264.87234497 C-14.37145295 264.82725294 -24.82525541 264.05272725 -35.5625 260.5 C-36.31563477 260.26394043 -37.06876953 260.02788086 -37.84472656 259.78466797 C-72.21527342 248.85627146 -97.67845562 226.54974513 -115.5625 195.5 C-116.08585938 194.5925 -116.60921875 193.685 -117.1484375 192.75 C-120.53441382 186.44384304 -122.99000981 179.87826325 -125.3125 173.125 C-125.75348022 171.86913086 -125.75348022 171.86913086 -126.20336914 170.58789062 C-130.32949214 158.11995312 -131.03571126 145.22308606 -131.0625 132.1875 C-131.0648465 131.45243225 -131.06719299 130.7173645 -131.0696106 129.96002197 C-131.0433631 109.91829717 -126.66090085 91.38592239 -117.5625 73.5 C-117.06878906 72.50097656 -116.57507813 71.50195312 -116.06640625 70.47265625 C-110.25327298 59.24023343 -102.21990816 48.72062244 -93.5625 39.5 C-92.9025 39.5 -92.2425 39.5 -91.5625 39.5 C-91.2325 38.51 -90.9025 37.52 -90.5625 36.5 C-66.2852183 13.42731625 -33.35052898 0.0785081 0 0 Z M-30.625 37.3125 C-31.40302979 37.57820801 -32.18105957 37.84391602 -32.98266602 38.11767578 C-57.76738224 46.768383 -78.39161021 66.15822041 -90.09765625 89.5703125 C-96.22026682 103.6129973 -98.82106589 117.11148145 -98.875 132.3125 C-98.87761841 133.01119202 -98.88023682 133.70988403 -98.88293457 134.42974854 C-98.88717437 144.95627012 -98.28170114 154.54338861 -94.5625 164.5 C-94.27375 165.29792969 -93.985 166.09585938 -93.6875 166.91796875 C-92.76062742 169.18963413 -91.69535285 171.32335506 -90.5625 173.5 C-90.00820313 174.62792969 -89.45390625 175.75585938 -88.8828125 176.91796875 C-79.06558669 196.49917611 -65.40200813 210.46000354 -46.5625 221.5 C-45.73363281 221.99242187 -44.90476562 222.48484375 -44.05078125 222.9921875 C-30.36624651 230.47337627 -15.04168678 232.75616457 0.3125 232.8125 C1.01313568 232.81545074 1.71377136 232.81840149 2.43563843 232.82144165 C12.70536088 232.83132021 21.69209562 232.10446463 31.4375 228.5 C33.08236716 228.10017075 34.72815321 227.70409549 36.375 227.3125 C51.90867904 222.51305764 67.47296536 211.168846 77.4375 198.5 C78.05753906 197.7884375 78.67757812 197.076875 79.31640625 196.34375 C94.91744773 178.02550168 101.86308957 156.071342 101.75 132.1875 C101.74653564 130.99850098 101.74307129 129.80950195 101.73950195 128.58447266 C101.63521413 120.17115374 100.95144759 112.56988654 98.4375 104.5 C98.06044922 103.18708984 98.06044922 103.18708984 97.67578125 101.84765625 C96.39437553 97.66444286 94.78083385 94.2102786 92.4375 90.5 C91.81875 88.953125 91.81875 88.953125 91.1875 87.375 C86.73323805 76.85294243 79.3598353 68.53252077 71.4375 60.5 C70.64472656 59.69433594 69.85195313 58.88867188 69.03515625 58.05859375 C48.8237291 38.72153782 22.8676216 31.78362531 -4.3984375 32.1640625 C-13.51227784 32.50619605 -22.0233114 34.35218479 -30.625 37.3125 Z " fill="#CEE8E5" transform="translate(763.5625,461.5)"/>
<path d="M0 0 C1.00925537 0.00644531 2.01851074 0.01289063 3.05834961 0.01953125 C11.53182786 0.22591995 18.10646778 1.67355609 25.75 5.5 C26.91660156 6.05816406 28.08320313 6.61632812 29.28515625 7.19140625 C44.31326187 14.80238167 55.7047547 27.31679684 61.125 43.34765625 C66.50356596 61.18336121 64.31456036 77.83877939 56 94.375 C52.65538319 100.09266112 48.41477371 104.82697005 43.75 109.5 C43.19699219 110.06460938 42.64398438 110.62921875 42.07421875 111.2109375 C28.94754866 123.52329803 12.10357926 127.15448436 -5.25390625 126.8359375 C-21.55408792 126.07866279 -36.08031491 117.72588445 -47.10546875 105.98828125 C-60.9026734 89.97950281 -63.21822035 72.92165911 -62.25 52.5 C-60.66385627 38.63215615 -52.993256 27.12402035 -43.25 17.5 C-42.63640625 16.86449219 -42.0228125 16.22898437 -41.390625 15.57421875 C-30.43058707 5.01230185 -14.96408729 -0.10064119 0 0 Z " fill="" transform="translate(459.25,306.5)"/>
<path d="M0 0 C12.43324926 9.03065885 19.4100856 21.19557423 23 36 C24.42423299 54.68149771 20.20689709 70.20860359 8.3125 84.875 C-0.64133209 94.33997605 -14.03673916 101.43389985 -27.10400391 102.10864258 C-44.52910908 102.5783897 -57.90521079 99.93011778 -71.6875 88.24609375 C-80.17128323 80.00593268 -88.35660136 66.91698978 -89.14526367 54.76098633 C-89.17003149 52.11136269 -89.18565862 49.46224805 -89.1875 46.8125 C-89.20586914 45.4502832 -89.20586914 45.4502832 -89.22460938 44.06054688 C-89.25770844 28.64741532 -83.63266411 16.59201305 -72.85546875 5.6953125 C-51.79140186 -14.18732246 -24.12522474 -14.40010424 0 0 Z " fill="" transform="translate(452,710)"/>
<path d="M0 0 C3.70390021 2.02666238 5.65363011 3.48044516 8 7 C8.5291588 10.96869102 8.15826216 12.71621958 6.1875 16.25 C4.00551299 18.99306938 2.44948968 20.74213199 -1.0859375 21.37109375 C-5.5852541 21.50162 -7.37507224 21.5077538 -11 18.5625 C-11.66 17.716875 -12.32 16.87125 -13 16 C-13.33 15.67 -13.66 15.34 -14 15 C-14.69087003 8.20644468 -14.69087003 8.20644468 -12.953125 5.171875 C-8.8771283 0.23272605 -6.32310369 -0.52692531 0 0 Z " fill="#C4F2EF" transform="translate(500,369)"/>
<path d="M0 0 C3.27365512 2.09849687 6.24483773 4.48967546 8 8 C8.41307941 12.64714337 7.89446841 15.30705755 5 19 C1.8650156 21.68712949 0.23520464 21.99253319 -3.9375 22.125 C-8.19173947 21.38232442 -10.3840929 19.37000978 -12.92578125 15.96484375 C-14.70120595 12.71743057 -14.71930584 10.59652921 -14 7 C-10.35599068 1.06013133 -6.94204533 -0.79662815 0 0 Z " fill="#E4F8F5" transform="translate(829,624)"/>
</svg>
