<?xml version="1.0" encoding="UTF-8"?>
<svg version="1.1" xmlns="http://www.w3.org/2000/svg" width="1080" height="1080">
<!-- <path d="M0 0 C356.4 0 712.8 0 1080 0 C1080 356.4 1080 712.8 1080 1080 C723.6 1080 367.2 1080 0 1080 C0 723.6 0 367.2 0 0 Z " fill="#FEFEFE" transform="translate(0,0)"/> -->
<path d="M0 0 C3.36855845 2.78611608 5.05581175 6.1322515 7 10 C7.49628906 10.82242187 7.99257813 11.64484375 8.50390625 12.4921875 C15.41504414 24.6543466 18.18990225 39.10116951 21.71875 52.515625 C29.05890264 80.41959323 29.05890264 80.41959323 48.2109375 101.15234375 C57.54914254 106.4744676 66.14587288 108.40666872 76.8125 108.4375 C77.73522705 108.44064209 78.6579541 108.44378418 79.60864258 108.44702148 C92.88052607 108.22930614 107.37534841 106.2082172 120 102 C129.46770698 101.13441864 140.84323205 100.11096626 149.12890625 105.3984375 C156.16557796 111.42147591 160.20536473 119.60720387 161.34765625 128.796875 C161.83244045 143.71979725 154.29605479 156.25746828 144.6953125 167.16015625 C140.48807363 171.59300068 135.80892553 175.24903809 131 179 C128.75318404 180.85433247 126.5311532 182.73711152 124.3125 184.625 C123.75876709 185.09615234 123.20503418 185.56730469 122.63452148 186.05273438 C121.08961622 187.36841354 119.54480534 188.68420352 118 190 C116.86884766 190.94166016 116.86884766 190.94166016 115.71484375 191.90234375 C105.02457977 200.93487296 93.753561 213.42494756 92 228 C91.33286488 238.18201302 91.1284906 247.43573799 97.47265625 255.984375 C107.96469369 267.59258663 123.789096 268.37247275 138.31835938 270.41210938 C151.68364685 272.37736254 162.72400912 275.15194844 171.5234375 285.98046875 C176.56643959 292.87790812 176.96112329 299.71603258 176 308 C170.95580548 328.46822041 157.17638992 343.26604024 139.6015625 354.09375 C117.42952299 366.88718754 94.35123086 370.46077691 69 369 C68.01 368.67 67.02 368.34 66 368 C32.69746632 363.40884151 -2.5618202 364.44766736 -30.9375 383.875 C-50.55701694 399.00082519 -57.51187797 420.67290025 -63.87158203 443.56201172 C-68.23579376 459.16516336 -74.33982404 478.05081628 -89 487 C-89.99 486.67 -90.98 486.34 -92 486 C-92.99 486.33 -93.98 486.66 -95 487 C-104.42146745 487.87474812 -111.95498042 486.74259612 -119.6328125 481.046875 C-130.87793904 471.44655801 -135.00176943 460.84555098 -139 447 C-139.32097656 445.90171875 -139.64195312 444.8034375 -139.97265625 443.671875 C-144.15468907 426.94374371 -143.85718356 409.01328133 -144.74707031 391.85913086 C-147.3332973 339.97935373 -147.3332973 339.97935373 -174.08154297 296.71606445 C-177.27306251 293.8612425 -180.76319715 291.50859061 -184.3125 289.125 C-207.32791305 273.2358334 -207.32791305 273.2358334 -211 260 C-212.83631394 246.86954279 -208.03388976 237.16154307 -200.33666992 226.95556641 C-198.25849444 224.2757195 -196.12992034 221.63895791 -194 219 C-184.93319913 207.45450536 -178.6380344 195.25902581 -175 181 C-174.82267334 180.31486328 -174.64534668 179.62972656 -174.46264648 178.92382812 C-173.16844613 173.60188276 -172.65022769 168.59529458 -172.6875 163.125 C-172.68878906 162.31345459 -172.69007813 161.50190918 -172.69140625 160.66577148 C-172.79610999 153.86591822 -173.75649462 147.34723268 -174.91699219 140.65942383 C-177.86023383 123.48031966 -177.86023383 123.48031966 -173.34375 115.75390625 C-170.27123924 111.74356516 -166.81083908 108.60361303 -162 107 C-151.18726997 106.14688552 -141.37948497 109.07808923 -131.1015625 112.09765625 C-125.28763911 113.78911255 -120.29984575 114.18309049 -114.25 114.1875 C-113.38117188 114.19974609 -112.51234375 114.21199219 -111.6171875 114.22460938 C-94.16739974 114.2639107 -77.62012683 105.9291343 -65.05859375 94.12890625 C-52.84978349 81.50309678 -50.04040628 64.55841884 -46.17724609 47.98925781 C-42.43508694 32.10646866 -37.40176815 14.43639593 -23.1796875 4.76171875 C-15.79972426 0.36888349 -8.57902224 -1.86638803 0 0 Z " fill="#5CE0E6" transform="translate(559,272)"/>
<path d="M0 0 C4.51188221 2.72525453 8.44145317 5.73572192 12.25 9.375 C12.25 9.705 12.25 10.035 12.25 10.375 C11.10724609 10.41367187 11.10724609 10.41367187 9.94140625 10.453125 C-0.54940749 11.02939941 -7.84586324 13.57911497 -15.55078125 20.8671875 C-26.17709781 32.98458577 -29.64841491 48.46360178 -33.1875 63.75 C-38.11988311 84.88603981 -43.8137403 102.09110287 -63.04296875 114.5 C-78.96696313 124.13167839 -96.65853015 128.53343714 -115.18359375 124.55078125 C-119.85802318 123.37501141 -124.4008463 121.83456574 -128.9609375 120.28125 C-136.1828331 117.93463966 -144.79566597 117.03201863 -152.0625 119.5 C-156.8956113 122.87193812 -159.8895878 126.81856889 -161.75 132.375 C-162.62676576 139.50299172 -161.47919166 146.43310393 -160.25 153.4375 C-156.21454654 177.13988236 -159.40966908 200.69998746 -173.30297852 220.80981445 C-176.2061673 224.84974318 -179.25331768 228.76558571 -182.3671875 232.64453125 C-190.72497128 243.0945201 -198.05155172 253.11872528 -197.234375 267.18359375 C-195.2703901 280.12372008 -185.77735835 287.94631933 -175.75 295.375 C-173.99200624 296.62090243 -172.22659901 297.85574656 -170.45996094 299.08935547 C-149.46290358 313.80070513 -138.20434946 335.2491695 -133.75 360.375 C-130.98300264 379.80115092 -130.24695646 399.51524334 -129.48364258 419.10205078 C-128.94724927 432.36387661 -127.93577382 445.39813603 -124.375 458.25 C-124.15440918 459.05880615 -123.93381836 459.8676123 -123.70654297 460.70092773 C-119.7086433 474.98265103 -113.10205292 486.94063802 -99.8203125 494.46875 C-92.66542036 497.67509171 -84.24214745 497.07340271 -76.75 495.375 C-81.26750762 500.49386415 -87.82966284 502.06121909 -94.421875 502.76953125 C-109.42387416 503.18285163 -119.1850988 497.98225083 -130.23046875 488.171875 C-140.10685158 478.70907604 -145.08809638 468.01884567 -149.75 455.375 C-150.05808594 454.54057373 -150.36617187 453.70614746 -150.68359375 452.84643555 C-152.84803525 446.6834902 -154.52731524 440.46654731 -156.046875 434.12109375 C-156.24666962 433.28843491 -156.44646423 432.45577606 -156.65231323 431.59788513 C-157.47624199 428.14721967 -158.29618823 424.69587987 -159.09375 421.23901367 C-164.41888321 398.26780786 -173.02777665 372.23248075 -193.1875 358 C-201.60126339 352.79849654 -209.86068869 350.251328 -219.73046875 350.2421875 C-220.38453201 350.24123077 -221.03859528 350.24027405 -221.71247864 350.23928833 C-223.08655901 350.23861111 -224.46064266 350.24043326 -225.8347168 350.24462891 C-227.94131583 350.25000975 -230.04770418 350.24465521 -232.15429688 350.23828125 C-233.49218797 350.23894161 -234.83007894 350.24022189 -236.16796875 350.2421875 C-237.98977661 350.24387939 -237.98977661 350.24387939 -239.84838867 350.24560547 C-242.68933144 350.17511444 -242.68933144 350.17511444 -244.75 351.375 C-247.56746407 351.61297142 -250.36489966 351.79943029 -253.1875 351.9375 C-254.41376099 351.99901245 -254.41376099 351.99901245 -255.66479492 352.06176758 C-258.0262505 352.17459605 -260.38787038 352.27740868 -262.75 352.375 C-263.79929687 352.41882813 -264.84859375 352.46265625 -265.9296875 352.5078125 C-280.70221548 352.81466026 -293.57827764 350.23481368 -304.75 340.375 C-305.69552734 339.55322266 -305.69552734 339.55322266 -306.66015625 338.71484375 C-317.23264066 328.88591868 -322.37069564 315.21205771 -322.98828125 300.9921875 C-323.49143529 279.58118606 -315.64078142 262.2917095 -301.10839844 246.79150391 C-288.52074176 233.66541045 -273.1165321 225.19374367 -257 217.1875 C-235.89906285 206.65502412 -215.63627795 196.27450384 -207.6953125 172.609375 C-202.56708162 155.06319662 -206.16848723 137.0036822 -214.56640625 121.12890625 C-217.58611346 115.81680373 -220.94028959 110.70635101 -224.25341797 105.57446289 C-233.44758503 91.20585691 -242.32482655 75.69521798 -239.359375 58.05078125 C-237.30529663 50.50599337 -232.65674115 44.76927422 -226.015625 40.69921875 C-215.27186854 35.65420083 -204.99896545 36.24907747 -193.94140625 40.0546875 C-182.09565252 44.95537876 -172.18281261 52.717519 -163.3125 61.875 C-147.63314404 77.83137638 -126.69025712 89.26641539 -104.0625 89.6875 C-92.23156702 89.71191885 -82.50858862 85.61890652 -73.80078125 77.57421875 C-66.49383262 69.46691469 -62.55624145 58.97499253 -58.04443359 49.171875 C-37.76310614 5.35013089 -37.76310614 5.35013089 -19.16015625 -1.95703125 C-12.12487737 -3.90684112 -6.47678301 -3.37147609 0 0 Z " fill="#FE66C4" transform="translate(545.75,261.625)"/>
<path d="M0 0 C5.85210374 -0.28257822 10.77885088 0.94650861 16.1328125 3.25390625 C16.761875 3.52074219 17.3909375 3.78757812 18.0390625 4.0625 C24.35061782 7.17675427 27.58114526 12.5643497 31.0078125 18.50390625 C33.94145759 28.2827232 32.24310951 37.81045606 27.87890625 46.8515625 C20.19920661 60.72524331 7.50495911 66.21778387 -7.1171875 70.44140625 C-14.68942738 72.55554127 -22.25247318 74.20360225 -29.99609375 75.53515625 C-36.69937327 76.77976113 -43.27247698 78.53556618 -49.8671875 80.25390625 C-51.20001996 80.58923671 -52.53306523 80.92374468 -53.8671875 81.25390625 C-53.279375 79.49046875 -53.279375 79.49046875 -52.6796875 77.69140625 C-52.26976562 76.45970703 -52.26976562 76.45970703 -51.8515625 75.203125 C-51.1358656 73.05887437 -50.41664616 70.91579848 -49.6953125 68.7734375 C-49.06882812 66.90751953 -49.06882812 66.90751953 -48.4296875 65.00390625 C-48.21280273 64.35800537 -47.99591797 63.71210449 -47.77246094 63.04663086 C-46.412766 58.97007902 -45.14789151 54.87549648 -43.9296875 50.75390625 C-40.06339055 38.18459027 -35.25625505 27.18495052 -27.8671875 16.25390625 C-27.13113649 15.05621931 -26.39546724 13.85829767 -25.66015625 12.66015625 C-21.55973021 6.32525754 -18.09860997 2.59980805 -10.3671875 0.94140625 C-6.91080263 0.52761369 -3.46543003 0.30688413 0 0 Z " fill="#5EE0E6" transform="translate(689.8671875,262.74609375)"/>
<path d="M0 0 C18.32904857 -1.94072279 38.35678135 7.95308906 52.5 19.0625 C54.00898013 20.36466559 55.50942014 21.67681146 57 23 C57.75410156 23.60070312 58.50820313 24.20140625 59.28515625 24.8203125 C70.02329154 33.62447831 77.39173272 45.66406913 80.5078125 59.20703125 C81.23578811 66.97737958 75.39616551 74.522024 70.8125 80.3125 C65.0700926 86.52811246 57.28993262 90.50644689 48.859375 91.16796875 C39.35972667 91.25592846 32.9594366 90.07642094 25.9453125 83.2578125 C18.77514 74.93580506 18.23565459 63.85965575 17.68359375 53.3203125 C16.78206365 37.31025059 14.13805701 26.40265744 3.48046875 13.8671875 C-0.23367154 9.1828628 -0.19361884 5.80856524 0 0 Z " fill="#5DE0E6" transform="translate(557,675)"/>
<path d="M0 0 C3.125 1.625 3.125 1.625 5 4 C5.93547438 8.11608725 4.86900691 10.61261677 2.8125 14.125 C-2.68965596 22.82364657 -12.40483332 25.34898923 -21.90234375 27.7265625 C-33.29382024 29.96805714 -44.87066446 30.13398942 -56.4375 29.95703125 C-58.98827337 29.93463045 -61.53905519 29.91317643 -64.08984375 29.89257812 C-68.03425886 29.85571671 -71.97822323 29.81282938 -75.92236328 29.75317383 C-95.90600907 29.4662613 -115.20641609 30.04146113 -133.9375 37.75 C-134.80318604 38.09434082 -135.66887207 38.43868164 -136.56079102 38.79345703 C-156.49060174 46.94024647 -175.4550632 60.16034885 -189 77 C-193.875 76.125 -193.875 76.125 -195 75 C-195.47059919 71.63432226 -195.11179446 70.18685269 -193.34765625 67.23828125 C-192.59355469 66.27277344 -191.83945312 65.30726563 -191.0625 64.3125 C-190.65717041 63.79139648 -190.25184082 63.27029297 -189.83422852 62.73339844 C-185.79491124 57.60564237 -181.47521649 52.75036543 -177 48 C-176.40058594 47.33613281 -175.80117188 46.67226563 -175.18359375 45.98828125 C-155.40726601 24.93054999 -125.36105205 11.97050262 -96.69726562 10.77856445 C-92.72496288 10.65705841 -88.75204555 10.59136193 -84.77832031 10.53668213 C-49.43218315 10.92863821 -49.43218315 10.92863821 -15.6875 2.3125 C-10.36582407 -0.0542831 -5.78891289 -1.13238332 0 0 Z " fill="#FCFEFE" transform="translate(675,581)"/>
<path d="M0 0 C1.1653125 0.31324219 2.330625 0.62648438 3.53125 0.94921875 C10.38777722 2.86813621 14.66261753 4.14946994 18.484375 10.4453125 C21.89933912 17.67576123 23.49414013 23.56836116 21.3359375 31.4140625 C19.18286951 37.01203927 16.07789786 40.80601307 11 44 C4.04786872 47.05893776 -4.63718553 47.25906726 -11.91015625 45.16015625 C-15.01147949 43.89317825 -17.99688611 42.48544966 -21 41 C-44.57950443 29.55158573 -65.64335372 23.65376908 -92 23 C-91.39583252 22.71334473 -90.79166504 22.42668945 -90.16918945 22.13134766 C-87.8049792 20.89828628 -85.85249454 19.35400072 -83.78979492 17.67456055 C-60.51233329 -1.20490438 -29.12408814 -9.00547462 0 0 Z " fill="#5EE0E6" transform="translate(784,483)"/>
<path d="M0 0 C1.41823316 0.08006155 2.83603027 0.17654137 4.25 0.3125 C2.97143242 3.78289773 1.4437448 6.63261778 -0.625 9.6875 C-8.20486719 22.16654964 -9.52267426 38.00017033 -10.03515625 52.3190918 C-10.63218345 68.47289565 -13.61158107 85.58635906 -25.12890625 97.8515625 C-30.73610979 102.90480135 -36.33724211 105.16283616 -43.75 106.3125 C-46.18105637 98.99671641 -48.4531349 92.04286721 -48.75 84.3125 C-48.81316406 83.15363281 -48.87632812 81.99476563 -48.94140625 80.80078125 C-49.5889705 59.47293941 -42.76007196 39.286281 -28.08886719 23.52832031 C-22.40520671 17.58956396 -16.58368922 11.88556593 -10.22265625 6.67285156 C-8.51231189 5.20420546 -8.51231189 5.20420546 -6.875 2.4375 C-4.30783476 -0.12966524 -3.51641513 0.00547728 0 0 Z " fill="#5FE0E6" transform="translate(325.75,641.6875)"/>
<path d="M0 0 C0.07476563 0.61746094 0.14953125 1.23492188 0.2265625 1.87109375 C1.31689496 8.89411756 3.80509993 13.3572148 8 19 C9.07354061 20.53399899 10.13624475 22.07564376 11.1875 23.625 C11.88939453 24.63433594 11.88939453 24.63433594 12.60546875 25.6640625 C15.90924092 31.19811224 17.3702194 35.8672698 17.84375 42.296875 C17.89897827 42.9711554 17.95420654 43.64543579 18.0111084 44.34014893 C18.1854655 46.47605432 18.34449436 48.61264527 18.5 50.75 C19.52768202 70.25584586 19.52768202 70.25584586 30 86 C35.88699754 90.56242309 43.79699105 90.654819 51 90 C60.01643509 88.1592745 67.43591223 83.58802481 72.8125 76.125 C75.56621251 71.89837149 77.88192681 67.5750381 80 63 C80.33 63 80.66 63 81 63 C81.66637597 77.14197898 78.83665617 88.38292994 69.1171875 99.0703125 C60.06108463 107.53978522 50.20281924 110.51457048 38.08203125 110.265625 C29.02045536 109.84193454 22.74186032 105.80955489 16.26953125 99.6328125 C8.07225738 90.12341045 6.97964155 80.27054106 6.71044922 68.19116211 C6.25286766 48.4249463 3.37290059 30.47398917 -5.6953125 12.671875 C-7.37628734 9.22939958 -7.42822973 6.78269591 -7 3 C-4.8671951 -0.30584759 -4.13306865 0 0 0 Z " fill="#FC69C4" transform="translate(557,675)"/>
<path d="M0 0 C-2.01014193 5.33692682 -4.70086173 10.28702631 -7.34375 15.33203125 C-10.44995426 21.80030647 -11.36898204 28.19085107 -11.3125 35.3125 C-11.30758545 36.0559668 -11.3026709 36.79943359 -11.29760742 37.56542969 C-11.16667307 43.75627458 -10.12140501 49.16828338 -8 55 C-7.67128906 55.98871094 -7.34257812 56.97742188 -7.00390625 57.99609375 C-2.25845166 71.41144461 4.92401507 83.21080594 13.8359375 94.23046875 C17.56008255 98.99656774 19.42932645 101.84632083 19 108 C11.13274923 109.00862189 5.15958193 104.01659619 -0.875 99.5625 C-17.61894486 85.67411163 -29.42556041 63.06991022 -34 42 C-34.66211009 29.86555926 -35.08116293 18.42329409 -26.9375 8.625 C-19.40458722 0.95778893 -10.67098437 -3.55699479 0 0 Z " fill="#FD67C4" transform="translate(428,206)"/>
<path d="M0 0 C0.99 0.495 0.99 0.495 2 1 C-6.28618338 10.53294708 -6.28618338 10.53294708 -11 14.5625 C-27.74932179 28.8906327 -37.97740982 45.82646738 -41 68 C-41.74211721 79.72313277 -41.45111784 92.0218228 -37 103 C-37 103.99 -37 104.98 -37 106 C-44.36686426 106.52620459 -49.05022292 105.08934846 -54.8828125 100.52734375 C-61.44581961 94.51835672 -65.54514165 86.53627597 -66.2734375 77.671875 C-66.54122054 67.33132989 -64.94584771 58.58960565 -61 49 C-60.34 48.34 -59.68 47.68 -59 47 C-58.566875 45.93394531 -58.13375 44.86789062 -57.6875 43.76953125 C-56.08159449 39.88825837 -53.75216247 36.83192806 -51 33.6875 C-50.5143457 33.12699951 -50.02869141 32.56649902 -49.52832031 31.98901367 C-36.41655007 17.11870872 -21.76851548 7.08405227 -3 1 C-1.515 0.505 -1.515 0.505 0 0 Z " fill="#FC68C4" transform="translate(319,642)"/>
<path d="M0 0 C4.21859086 0.31248821 7.30449711 2.93818518 10 6 C14.54019682 13.61150643 16.18105659 19.6937978 16.1875 28.4375 C16.19974609 29.27732422 16.21199219 30.11714844 16.22460938 30.98242188 C16.23536502 35.71132153 15.86953252 40.1324089 15.0078125 44.78515625 C13.79165983 51.54101727 13.66880191 58.14901833 13.6875 65 C13.67138672 66.18078125 13.65527344 67.3615625 13.63867188 68.578125 C13.63385461 77.32627043 14.62177039 85.57545948 18.1628418 93.65234375 C19 96 19 96 18 99 C17.50693359 98.25169922 17.50693359 98.25169922 17.00390625 97.48828125 C14.67295011 93.9697377 12.33500125 90.46826141 9.87890625 87.03515625 C1.9191824 75.87498885 -5.00407701 64.20757705 -9 51 C-9.22429687 50.31421875 -9.44859375 49.6284375 -9.6796875 48.921875 C-13.81306439 34.08701549 -10.91745173 19.06964445 -3.8125 5.75 C-1.23569024 1.23569024 -1.23569024 1.23569024 0 0 Z " fill="#60DFE5" transform="translate(427,208)"/>
<path d="M0 0 C4.04805792 3.42180335 6.67757952 5.82675044 8.38671875 10.9453125 C7.43152344 10.60757812 6.47632813 10.26984375 5.4921875 9.921875 C-19.01182767 1.39056422 -44.71597094 1.07807694 -68.61328125 11.9453125 C-76.59620515 15.83186999 -83.7656187 20.46505806 -90.33203125 26.4765625 C-93.29084193 28.3815502 -95.15479466 28.32234805 -98.61328125 27.9453125 C-101.55078125 26.3828125 -101.55078125 26.3828125 -103.61328125 23.9453125 C-104.06420739 20.65999351 -104.04934635 19.79491619 -102.61328125 16.9453125 C-78.90337132 -12.11147917 -29.95306265 -23.55053954 0 0 Z " fill="#FB69C5" transform="translate(788.61328125,477.0546875)"/>
<path d="M0 0 C4.94890311 4.21183243 6.79137924 8.76929824 8.875 14.8125 C12.65997124 25.67838645 18.63728125 33.6081479 29 39 C32.04313045 40.32360648 35.09389066 41.56676874 38.203125 42.7265625 C41.87020402 44.39621021 45.15878382 46.31756765 47 50 C47.58394161 57.24087591 47.58394161 57.24087591 45.125 60.4375 C39.70981856 64.41925106 33.4620395 63.76287966 27 63 C17.43697816 59.768428 9.95725616 54.18873604 3 47 C2.12408203 46.12021484 2.12408203 46.12021484 1.23046875 45.22265625 C-7.55644352 35.76838355 -11.37947385 23.38086568 -11.29296875 10.69921875 C-10.84746094 6.59460675 -9.44079243 4.30224859 -7 1 C-4.26760135 -0.36619933 -3.04371875 -0.55340341 0 0 Z " fill="#FCFEFE" transform="translate(564,365)"/>
<path d="M0 0 C0.99 0.33 1.98 0.66 3 1 C3 1.66 3 2.32 3 3 C3.72832031 3.21011719 4.45664062 3.42023438 5.20703125 3.63671875 C8.82134585 5.40090868 10.33361289 7.57140926 12.6875 10.8125 C13.45449219 11.85019531 14.22148437 12.88789063 15.01171875 13.95703125 C17.76974308 18.17805474 19.08806629 20.67900563 18.75 25.75 C18.37875 27.35875 18.37875 27.35875 18 29 C12.8890979 31.55545105 5.5433714 29.97057506 0.09765625 29.234375 C-7.03274406 28.43768223 -13.56259083 29.0126264 -20.5625 30.5 C-28.49840757 32.17315224 -41.52358579 34.7382071 -49 31 C-46.52314107 21.23409907 -41.506062 12.99881531 -33.11328125 7.24609375 C-21.91650301 0.64392691 -11.6583597 0.12468745 1 2 C0.505 1.01 0.505 1.01 0 0 Z " fill="#5FE0E5" transform="translate(286,394)"/>
<path d="M0 0 C0.66 0.33 1.32 0.66 2 1 C1.03900391 2.09054687 1.03900391 2.09054687 0.05859375 3.203125 C-14.10413746 19.53162997 -21.52304293 38.58217938 -27.32861328 59.24707031 C-31.01484809 72.28180156 -31.01484809 72.28180156 -34 77 C-38.43937822 79.39321529 -42.06540888 79.47754108 -47 79 C-50.10105549 76.0990126 -50.92086816 73.04687531 -51.23828125 68.84765625 C-51.60236308 50.27948296 -43.78213754 36.51825418 -31.23046875 23.296875 C-30.49441406 22.53890625 -29.75835938 21.7809375 -29 21 C-28.31550781 20.24203125 -27.63101563 19.4840625 -26.92578125 18.703125 C-19.51181201 10.75469218 -9.96532037 4.35532091 0 0 Z " fill="#FD67C4" transform="translate(670,267)"/>
<path d="M0 0 C0.99 1.485 0.99 1.485 2 3 C0.72125 2.835 -0.5575 2.67 -1.875 2.5 C-15.10732285 1.09186549 -26.16217879 2.66181096 -37 11 C-42.73866395 16.72749923 -45.98272099 23.5610863 -49 31 C-55.42722265 30.73766438 -58.60718115 28.61983792 -63 24 C-66.54283833 20.00002125 -66.50382621 15.92751708 -66.3515625 10.78515625 C-65.65926892 5.30065265 -63.19522318 1.5936309 -59.9375 -2.75 C-55.70276934 -5.99362349 -51.06870446 -7.45899298 -46 -9 C-45.36835938 -9.19464844 -44.73671875 -9.38929688 -44.0859375 -9.58984375 C-29.10529246 -12.5354762 -12.6627792 -8.08950971 0 0 Z " fill="#FC68C4" transform="translate(286,394)"/>
<path d="M0 0 C3.375 0.3125 3.375 0.3125 6.6875 1.8125 C11.75689257 3.94698108 16.99226182 3.46688545 22.3840332 3.20117188 C25.63106434 3.08681656 27.93643801 3.08422641 30.8515625 4.6015625 C32.375 6.3125 32.375 6.3125 33 9.6875 C32.375 13.3125 32.375 13.3125 29.625 16.1875 C23.87760012 19.94541531 18.10885823 19.93683123 11.375 19.3125 C5.08501966 17.81874215 0.3165318 15.30879177 -3.6328125 10.12109375 C-5.13284749 7.386778 -5.18830617 5.34027065 -4.625 2.3125 C-2.625 0.3125 -2.625 0.3125 0 0 Z " fill="#FAFEFE" transform="translate(759.625,501.6875)"/>
<path d="M0 0 C4.30727279 3.42623972 7.40963432 7.40740886 8.3203125 12.94921875 C8.61264142 18.06497488 7.33489562 20.97850822 4 25 C1.65897141 26.17051429 0.10647047 26.1992246 -2.5 26.25 C-3.2940625 26.27578125 -4.088125 26.3015625 -4.90625 26.328125 C-5.5971875 26.21984375 -6.288125 26.1115625 -7 26 C-11.21404175 19.67893738 -11.83423204 9.50808838 -11 2 C-7.94497236 -2.03263649 -4.5400415 -1.27439761 0 0 Z " fill="#FBFEFE" transform="translate(696,275)"/>
<path d="M0 0 C2.74514226 0.96079979 3.74569687 1.58742859 5.5 3.875 C7.30464885 13.75545246 3.89777922 20.93277568 -1.5625 28.875 C-3.5343653 30.91047385 -4.79097691 32.05408391 -7.5 32.875 C-10.32832267 32.66804956 -12.01589939 32.19773374 -14.375 30.625 C-15.5 28.875 -15.5 28.875 -15.5625 26.6875 C-14.24568633 23.20181675 -12.21268774 20.76812262 -9.9296875 17.8515625 C-7.26829294 14.17214816 -6.58975552 10.63151085 -6.0625 6.1875 C-5.5 2.875 -5.5 2.875 -4.25 0.875 C-2.5 -0.125 -2.5 -0.125 0 0 Z " fill="#FAFEFE" transform="translate(305.5,689.125)"/>
<path d="M0 0 C7.28299831 0.29131993 13.36025007 2.9973436 18.5 8.125 C21.52522056 11.89627766 21.54302296 15.25814543 21.30859375 19.9609375 C21 22 21 22 20 23 C14.86193888 22.84277659 12.09442202 21.79822067 8.47460938 18.09960938 C8.00861328 17.59236328 7.54261719 17.08511719 7.0625 16.5625 C6.56943359 16.05912109 6.07636719 15.55574219 5.56835938 15.03710938 C2 11.31037621 2 11.31037621 2 9 C1.01 8.67 0.02 8.34 -1 8 C-1.625 5.125 -1.625 5.125 -2 2 C-1.34 1.34 -0.68 0.68 0 0 Z " fill="#FBFEFE" transform="translate(592,701)"/>
<path d="M0 0 C2.375 1.875 2.375 1.875 4 4 C4 4.66 4 5.32 4 6 C3.34 6 2.68 6 2 6 C2.12375 7.3303125 2.12375 7.3303125 2.25 8.6875 C1.93974578 12.79836847 1.05661905 14.26513033 -2 17 C-5.18224791 17.51955068 -7.01815949 17.52364827 -9.875 16 C-11.67228993 12.8048179 -11.41421451 9.53510656 -11 6 C-9.12939183 0.53206842 -5.51722748 -0.67557887 0 0 Z " fill="#F8FDFD" transform="translate(706,566)"/>
<path d="M0 0 C2 1.625 2 1.625 3 4 C2.93439072 7.739729 2.76345433 10.0603639 0.375 13 C-3.04776185 14.44116288 -5.44605372 13.85557966 -9 13 C-11.40346379 10.59653621 -11.32083747 9.86099805 -11.375 6.5625 C-11.25977203 2.35328996 -11.25977203 2.35328996 -9.4375 -0.125 C-5.90953451 -1.39144915 -3.58621578 -0.97805885 0 0 Z " fill="#F6FDFD" transform="translate(644,409)"/>
<path d="M0 0 C2.375 -0.125 2.375 -0.125 5 0 C7.78463018 2.78463018 7.54265654 5.14524794 8 9 C8.2475 9.9075 8.495 10.815 8.75 11.75 C9 14 9 14 7.875 15.8125 C5.40774618 17.37509409 3.87012296 17.36796448 1 17 C-1 15 -1 15 -1.23046875 12.03125 C-1.21628906 10.8659375 -1.20210938 9.700625 -1.1875 8.5 C-1.17783203 6.75203125 -1.17783203 6.75203125 -1.16796875 4.96875 C-1 2 -1 2 0 0 Z " fill="#F8FDFE" transform="translate(428,224)"/>
<path d="M0 0 C0.66 0.66 1.32 1.32 2 2 C1.875 4.5 1.875 4.5 1 7 C-2.59318287 9.64668592 -5.96966052 9.02132773 -10.25 8.625 C-11.51328125 8.51414062 -12.7765625 8.40328125 -14.078125 8.2890625 C-15.04234375 8.19367188 -16.0065625 8.09828125 -17 8 C-17.33 6.68 -17.66 5.36 -18 4 C-12.12108508 0.88681574 -6.73542272 -1.22462231 0 0 Z " fill="#F9FDFE" transform="translate(281,406)"/>
<path d="M0 0 C2.5625 0.1875 2.5625 0.1875 4.5625 2.1875 C4.00694444 6.74305556 4.00694444 6.74305556 2.5625 8.1875 C0.125 8.375 0.125 8.375 -2.4375 8.1875 C-3.0975 7.5275 -3.7575 6.8675 -4.4375 6.1875 C-3.71780303 0.28598485 -3.71780303 0.28598485 0 0 Z " fill="#F7FDFD" transform="translate(615.4375,729.8125)"/>
<path d="M0 0 C0.66 0.33 1.32 0.66 2 1 C-0.31 2.65 -2.62 4.3 -5 6 C-5.66 5.67 -6.32 5.34 -7 5 C-4.88437775 2.67281553 -2.94982021 1.14186589 0 0 Z " fill="#9AB1E8" transform="translate(501,792)"/>

</svg>
