<?xml version="1.0" encoding="UTF-8"?>
<svg version="1.1" xmlns="http://www.w3.org/2000/svg"  width="1080" height="1080">
<!-- <path d="M0 0 C356.4 0 712.8 0 1080 0 C1080 356.4 1080 712.8 1080 1080 C723.6 1080 367.2 1080 0 1080 C0 723.6 0 367.2 0 0 Z " fill="#FEFEFE" transform="translate(0,0)"/> -->
<path d="M0 0 C14.53502831 6.46660443 23.36235764 21.54798233 28.94140625 35.640625 C31.73782123 43.55635559 33.66451151 51.55361831 35.5390625 59.7265625 C38.83259718 73.9715266 42.97979439 88.41634547 51.6640625 100.4140625 C52.21191406 101.19007813 52.75976562 101.96609375 53.32421875 102.765625 C59.58558982 110.71530632 69.98808405 116.58800072 80.0703125 118.1953125 C97.24243969 119.64356419 116.23782936 117.88947355 132.6640625 112.4140625 C154.56023021 110.49568915 154.56023021 110.49568915 162.82421875 115.80078125 C166.09237939 118.66649323 168.51690019 121.637041 170.6640625 125.4140625 C171.00308594 126.00832031 171.34210938 126.60257812 171.69140625 127.21484375 C176.037333 136.56759856 174.26092247 147.95740425 170.96484375 157.3359375 C164.69878079 172.16373813 152.34685628 182.85743588 139.78833008 192.43701172 C133.72613605 197.06924166 128.1357648 202.10165284 122.6640625 207.4140625 C121.91253906 208.13980469 121.16101563 208.86554688 120.38671875 209.61328125 C111.19942845 219.15325064 105.84960815 231.50222323 105.2265625 244.6640625 C105.3817259 252.53175951 107.40700861 259.41315816 112.42578125 265.578125 C121.97176625 274.67875979 135.35686322 276.36990228 147.9140625 277.7890625 C162.10998643 279.53311071 175.06834222 282.19811735 184.4375 293.765625 C189.72015264 300.86524096 189.41615387 308.81873259 188.6640625 317.4140625 C184.50926134 335.38993689 170.64143199 349.67791656 155.53662109 359.28222656 C127.54303375 376.20247049 99.40901745 377.17422187 67.48266602 374.13500977 C37.35532645 371.3755799 7.11231643 373.51094025 -17.7734375 392.2890625 C-34.86707948 406.83563862 -41.56867835 427.54207702 -47.3359375 448.4140625 C-52.3224586 466.27192867 -58.67759203 482.80098202 -75.09765625 493.16015625 C-75.83628906 493.57394531 -76.57492187 493.98773437 -77.3359375 494.4140625 C-78.23699219 494.95160156 -79.13804687 495.48914063 -80.06640625 496.04296875 C-84.16760789 497.7628275 -87.55734383 497.95042116 -91.9609375 497.9140625 C-92.75491943 497.90906738 -93.54890137 497.90407227 -94.36694336 497.89892578 C-101.48279238 497.68991168 -107.12329825 495.93611513 -113.3359375 492.4140625 C-114.12097656 491.97964844 -114.90601563 491.54523438 -115.71484375 491.09765625 C-141.17810489 475.55399597 -147.38181634 446.1827246 -154.125 419.32421875 C-160.03146201 395.82976963 -167.05651779 368.96823089 -188.64453125 354.9140625 C-198.4953726 349.42389838 -206.84649208 347.21935527 -217.9609375 347.2265625 C-218.99420166 347.22591797 -220.02746582 347.22527344 -221.09204102 347.22460938 C-227.22600698 347.26628871 -233.19604013 347.60435254 -239.2734375 348.4140625 C-257.17436129 350.72154747 -278.98672191 352.63224852 -294.28125 341.17578125 C-305.8876237 331.22430874 -313.73919402 319.98394659 -316.1484375 304.4765625 C-316.24071648 303.12409875 -316.29796688 301.76913882 -316.3359375 300.4140625 C-316.42875 298.76857422 -316.42875 298.76857422 -316.5234375 297.08984375 C-317.1876612 276.89329191 -308.660227 260.08300507 -295.3359375 245.4140625 C-294.80871094 244.805625 -294.28148437 244.1971875 -293.73828125 243.5703125 C-280.84785936 229.59195219 -263.02316591 221.77443354 -246.3359375 213.4140625 C-228.5506919 204.46167093 -210.01382166 194.55499022 -203.3359375 174.4140625 C-198.0227683 155.8551904 -200.78510519 137.16382234 -209.84521484 120.42431641 C-213.31881723 114.24114663 -217.19107983 108.31210753 -221.03076172 102.35253906 C-225.11896771 95.93663616 -228.45959121 89.47042282 -231.3359375 82.4140625 C-231.70203125 81.54136719 -232.068125 80.66867187 -232.4453125 79.76953125 C-235.78550442 70.93560263 -235.16779315 60.94434186 -231.3359375 52.4140625 C-226.49089655 45.12772185 -219.91704342 40.39431771 -211.3359375 38.4140625 C-204.41675344 37.89593327 -197.97531837 38.4106002 -191.3359375 40.4140625 C-190.58054687 40.63578125 -189.82515625 40.8575 -189.046875 41.0859375 C-178.75380839 44.63989535 -169.29568271 51.89038212 -161.88671875 59.77734375 C-145.86250316 76.68955114 -124.4023355 89.47781412 -100.84375 90.4453125 C-88.81180882 90.33812371 -79.56043464 85.72942168 -70.5390625 77.96484375 C-63.96672866 70.35538631 -60.15748069 60.93913316 -56.0859375 51.8515625 C-29.16216715 -7.31492487 -29.16216715 -7.31492487 0 0 Z " fill="#5CE0E6" transform="translate(570.3359375,308.5859375)"/>
<path d="M0 0 C5.68008308 2.57146618 10.16470161 7.12137775 14.62890625 11.37890625 C12.17909306 12.60381284 10.96452245 12.29009788 8.25390625 12.06640625 C0.53203977 12.02177118 -5.81122846 15.4133626 -11.6640625 20.2890625 C-23.02729486 32.04791997 -26.76639409 48.03703397 -30.17089844 63.49316406 C-33.25848957 77.46534137 -36.28255063 89.94905225 -45.37109375 101.37890625 C-46.45390625 102.89484375 -46.45390625 102.89484375 -47.55859375 104.44140625 C-54.34916954 112.27839864 -63.74550451 117.82644998 -73.37109375 121.37890625 C-74.39332031 121.77078125 -75.41554688 122.16265625 -76.46875 122.56640625 C-92.65632712 128.01906381 -107.84919115 125.99194162 -123.796875 120.7890625 C-132.78352836 117.88000765 -141.8640865 116.72465755 -150.546875 120.8203125 C-154.00745106 123.77699311 -156.04280228 127.21033952 -156.71899414 131.67700195 C-156.83635885 134.21466524 -156.81885953 136.71476334 -156.74609375 139.25390625 C-156.74480469 140.10082031 -156.74351562 140.94773437 -156.7421875 141.8203125 C-156.68500189 145.96944634 -156.36618379 149.79181602 -155.37109375 153.82421875 C-150.45009187 174.02739419 -155.60828806 196.43147407 -165.37109375 214.37890625 C-167.80604516 218.25154207 -170.50759462 221.81498287 -173.37109375 225.37890625 C-187.82533872 242.89172579 -187.82533872 242.89172579 -192.80859375 264.375 C-191.16135249 275.68507618 -183.5692087 283.49175796 -174.83984375 290.06640625 C-171.61866544 292.45261533 -168.36826895 294.79682759 -165.10986328 297.13183594 C-145.28856017 311.34795729 -134.13269129 331.72874003 -129.8046875 355.63330078 C-127.00156609 373.3832464 -126.19509976 391.24980342 -125.82626343 409.1836853 C-125.57112472 421.09706297 -124.57057187 432.6564426 -122.37109375 444.37890625 C-122.25507813 445.04744629 -122.1390625 445.71598633 -122.01953125 446.40478516 C-119.27794344 462.1649302 -113.5491271 476.65286252 -100.37109375 486.37890625 C-99.78972656 486.81460937 -99.20835937 487.2503125 -98.609375 487.69921875 C-92.19519179 491.67851679 -84.64288673 491.0673132 -77.37109375 490.37890625 C-74.41486053 489.64300182 -72.11919732 488.72491616 -69.37109375 487.37890625 C-70.81497709 491.71055626 -73.62771996 492.87071244 -77.53100586 495.01074219 C-86.05593672 499.17722405 -95.84628122 498.84643458 -104.87109375 496.44921875 C-107.8606773 495.28236599 -110.58093919 493.96069312 -113.37109375 492.37890625 C-114.15613281 491.94449219 -114.94117188 491.51007813 -115.75 491.0625 C-141.21326114 475.51883972 -147.41697259 446.14756835 -154.16015625 419.2890625 C-160.06661826 395.79461338 -167.09167404 368.93307464 -188.6796875 354.87890625 C-198.53052885 349.38874213 -206.88164833 347.18419902 -217.99609375 347.19140625 C-219.02935791 347.19076172 -220.06262207 347.19011719 -221.12719727 347.18945312 C-227.26116323 347.23113246 -233.23119638 347.56919629 -239.30859375 348.37890625 C-257.20951754 350.68639122 -279.02187816 352.59709227 -294.31640625 341.140625 C-305.92277995 331.18915249 -313.77435027 319.94879034 -316.18359375 304.44140625 C-316.27587273 303.0889425 -316.33312313 301.73398257 -316.37109375 300.37890625 C-316.46390625 298.73341797 -316.46390625 298.73341797 -316.55859375 297.0546875 C-317.22281745 276.85813566 -308.69538325 260.04784882 -295.37109375 245.37890625 C-294.84386719 244.77046875 -294.31664062 244.16203125 -293.7734375 243.53515625 C-280.88301561 229.55679594 -263.05832216 221.73927729 -246.37109375 213.37890625 C-228.58584815 204.42651468 -210.04897791 194.51983397 -203.37109375 174.37890625 C-198.05792455 155.82003415 -200.82026144 137.12866609 -209.88037109 120.38916016 C-213.35397348 114.20599038 -217.22623608 108.27695128 -221.06591797 102.31738281 C-225.15412396 95.90147991 -228.49474746 89.43526657 -231.37109375 82.37890625 C-231.7371875 81.50621094 -232.10328125 80.63351562 -232.48046875 79.734375 C-235.82066067 70.90044638 -235.2029494 60.90918561 -231.37109375 52.37890625 C-226.5260528 45.0925656 -219.95219967 40.35916146 -211.37109375 38.37890625 C-204.45190969 37.86077702 -198.01047462 38.37544395 -191.37109375 40.37890625 C-190.61570312 40.600625 -189.8603125 40.82234375 -189.08203125 41.05078125 C-178.78896464 44.6047391 -169.33083896 51.85522587 -161.921875 59.7421875 C-145.89765941 76.65439489 -124.43749175 89.44265787 -100.87890625 90.41015625 C-88.84696507 90.30296746 -79.59559089 85.69426543 -70.57421875 77.9296875 C-64.00188491 70.32023006 -60.19263694 60.90397691 -56.12109375 51.81640625 C-29.0761678 -7.61632731 -29.0761678 -7.61632731 0 0 Z " fill="#FC68C4" transform="translate(570.37109375,308.62109375)"/>
<path d="M0 0 C3.98965459 1.90460189 7.87735663 3.9737787 11.734375 6.1328125 C12.73210938 6.68839844 13.72984375 7.24398437 14.7578125 7.81640625 C30.48470954 17.21198801 42.84594487 31.00324049 48.875 48.4296875 C51.9663607 61.7506418 50.13397066 74.59940176 43.41796875 86.45703125 C38.64373279 93.59798247 30.75907639 99.33421228 22.48046875 101.6953125 C12.89540064 103.22237883 2.01236674 103.86502674 -6.265625 98.1328125 C-15.39773709 91.38807157 -20.69515854 83.94705136 -22.91503906 72.66308594 C-23.83732507 66.00669864 -23.84796565 59.2329809 -23.93847656 52.52270508 C-24.11740156 40.9047797 -25.37573246 30.175567 -29.640625 19.3203125 C-29.93195312 18.53978516 -30.22328125 17.75925781 -30.5234375 16.95507812 C-32.24494502 12.42857042 -34.19785722 8.13842951 -36.51196289 3.88330078 C-37.77502324 0.94966206 -37.41466408 -0.96079454 -36.265625 -3.8671875 C-27.4389786 -12.40910337 -9.48142843 -4.30216526 0 0 Z " fill="#5DE0E6" transform="translate(613.265625,723.8671875)"/>
<path d="M0 0 C5.28526195 4.32430523 10.62061518 9.7042775 11.9765625 16.6171875 C13.09651542 28.75467723 11.51590333 39.1976422 3.66015625 48.77734375 C-10.44656218 64.19327039 -31.30293465 66.98807536 -50.94213867 70.73339844 C-59.82893742 72.47216472 -68.86990436 74.54042093 -77.0234375 78.6171875 C-82.80895282 79.17707608 -82.80895282 79.17707608 -85.0234375 78.6171875 C-88.11398481 75.86280499 -89.26289063 73.62132953 -89.5546875 69.578125 C-89.57183456 68.04953985 -89.56020309 66.52042664 -89.5234375 64.9921875 C-89.50422241 63.78731689 -89.50422241 63.78731689 -89.48461914 62.55810547 C-89.26069847 55.95742913 -88.05202254 50.53013925 -85.0234375 44.6171875 C-84.5490625 43.6684375 -84.0746875 42.7196875 -83.5859375 41.7421875 C-72.76920946 21.77284342 -53.55599307 3.85930429 -31.4921875 -2.75390625 C-21.42153784 -4.57977854 -8.99241754 -5.62423288 0 0 Z " fill="#5DE0E6" transform="translate(734.0234375,315.3828125)"/>
<path d="M0 0 C8.63310495 6.47149289 16.5303735 15.59112051 20 26 C20.6550077 34.61587046 20.3401135 40.77573881 14.875 47.6875 C8.39897178 52.89647922 2.32663925 54.71537528 -5.98828125 54.37109375 C-13.43325547 53.45374933 -19.81402701 50.10447315 -26.4777832 46.85351562 C-42.92472664 38.85365802 -59.62668222 32.53389009 -78.05859375 31.77734375 C-78.95570068 31.7397998 -79.85280762 31.70225586 -80.77709961 31.66357422 C-82.55471215 31.59758914 -84.333016 31.54770398 -86.11157227 31.51611328 C-90.82918239 31.37412561 -94.22946928 31.16190174 -98 28 C-99.25 24.8125 -99.25 24.8125 -99 21 C-92.32179621 7.7535217 -69.59187004 -1.52395466 -56.28125 -6.34765625 C-53.1997005 -7.31584579 -50.13346948 -8.21773752 -47 -9 C-46.25234375 -9.19078125 -45.5046875 -9.3815625 -44.734375 -9.578125 C-28.4334415 -12.09312617 -13.53192101 -9.66565787 0 0 Z " fill="#5EE0E6" transform="translate(809,520)"/>
<path d="M0 0 C1.18529297 0.01353516 1.18529297 0.01353516 2.39453125 0.02734375 C3.28205078 0.04474609 3.28205078 0.04474609 4.1875 0.0625 C2.87442823 3.60590898 1.28930268 6.63679201 -0.75 9.8125 C-7.0777119 20.23551935 -8.71670288 31.39518043 -9.25 43.4375 C-10.1366271 61.77084858 -11.29747245 82.66407371 -25 96.51953125 C-31.99388096 102.47337388 -39.41704496 105.68193183 -48.7421875 105.37109375 C-56.36911766 104.23424944 -62.12222074 100.00118693 -66.8125 94.0625 C-73.29323094 84.57645601 -73.79320818 74.34628033 -72.8125 63.0625 C-67.31628251 41.34874392 -50.46005257 22.18634949 -31.57324219 10.70849609 C-22.00431216 5.15979041 -11.28000214 -0.16835824 0 0 Z " fill="#5EE0E6" transform="translate(355.8125,684.9375)"/>
<path d="M0 0 C6.04280809 5.08248176 10.53589274 10.57476612 12.16796875 18.37890625 C13.09908757 29.31399795 12.82098677 40.33203524 10.62890625 51.0859375 C8.46102994 66.57339285 9.37056372 82.7590187 15.82421875 97.1328125 C17.24262861 100.5592619 17.31887135 101.92619844 16.16796875 105.37890625 C8.47192477 106.19763433 3.55873497 103.10099652 -2.34765625 98.359375 C-4.92286211 96.10409502 -7.39190487 93.77942019 -9.83203125 91.37890625 C-10.52296875 90.70085937 -11.21390625 90.0228125 -11.92578125 89.32421875 C-26.76593219 73.71850447 -37.59285218 50.48901277 -37.37060547 28.93334961 C-36.97890461 19.76971466 -34.21412456 12.50068201 -27.83203125 5.81640625 C-20.37071793 -0.94365582 -9.60307431 -5.49693219 0 0 Z " fill="#FC67C4" transform="translate(458.83203125,256.62109375)"/>
<path d="M0 0 C2.125 1.5625 2.125 1.5625 3.125 2.5625 C3.85727764 7.56639719 2.4741323 10.62797931 -0.2578125 14.671875 C-6.69594792 22.19858405 -16.84275256 24.86507544 -26.25 26.1875 C-27.04921875 26.30867187 -27.8484375 26.42984375 -28.671875 26.5546875 C-31.07134368 26.91188996 -33.46882136 27.25315314 -35.875 27.5625 C-37.18009521 27.74103516 -38.48519043 27.91957031 -39.82983398 28.10351562 C-46.0102726 28.77783624 -52.17833696 28.62871954 -58.38671875 28.5546875 C-60.35232969 28.54164793 -62.31794096 28.52862768 -64.28355885 28.51667976 C-69.08199024 28.48644139 -73.88025835 28.44643719 -78.6784668 28.39111328 C-81.38174813 28.36043527 -84.08486252 28.33821068 -86.7882843 28.32473755 C-89.31620148 28.31177777 -91.84409782 28.28709688 -94.37174988 28.2482605 C-102.88726767 28.22314389 -110.62460236 29.50634529 -118.875 31.5625 C-119.64745056 31.73876923 -120.41990112 31.91503845 -121.21575928 32.09664917 C-145.08431196 37.63713542 -170.84766758 52.83947044 -186.078125 72.390625 C-187.875 74.5625 -187.875 74.5625 -190.5 75 C-192.875 74.5625 -192.875 74.5625 -194.875 72.5625 C-194.20016265 62.62551998 -183.34511776 53.42404837 -176.875 46.5625 C-176.27429688 45.89734375 -175.67359375 45.2321875 -175.0546875 44.546875 C-161.84286274 30.47713954 -144.3359461 20.8433806 -126.25 14.625 C-125.03546143 14.20105957 -125.03546143 14.20105957 -123.79638672 13.76855469 C-111.15705008 9.6800215 -98.08696761 9.28757659 -84.9296875 9.09918213 C-48.30305605 8.736391 -48.30305605 8.736391 -13.12890625 -0.44921875 C-8.37023008 -1.89453096 -4.4974241 -2.24871205 0 0 Z " fill="#FCFEFE" transform="translate(701.875,626.4375)"/>
<path d="M0 0 C0 0.66 0 1.32 0 2 C1.3303125 2.36931641 1.3303125 2.36931641 2.6875 2.74609375 C10.94482993 5.87180473 18.30080221 14.04194719 22 22 C22.78873323 25.01796726 23.31638565 27.88228304 23 31 C21 33 21 33 17.69921875 33.23046875 C16.36190842 33.22647678 15.02459698 33.21171815 13.6875 33.1875 C12.37136719 33.18105469 11.05523437 33.17460937 9.69921875 33.16796875 C6.63875669 33.02900374 3.97265981 32.66116054 1 32 C-5.91637399 31.56086514 -11.89916271 32.73215933 -18.640625 34.265625 C-29.70029979 36.68332135 -41.95512758 37.86777309 -52.1875 32.25 C-56.16309917 29.06952066 -59.35607425 25.93177725 -61 21 C-61.74874726 13.886901 -59.96046485 8.94069727 -56 3 C-41.50778576 -13.07624696 -17.40541357 -7.95849626 0 0 Z " fill="#5EE0E6" transform="translate(312,437)"/>
<path d="M0 0 C0.226875 1.134375 0.45375 2.26875 0.6875 3.4375 C2.66560105 11.24000969 7.01221748 17.37886294 12.25390625 23.37109375 C17.71528096 31.59370042 18.68326579 39.81416936 19.125 49.5 C19.47682103 67.50603036 19.47682103 67.50603036 27.828125 82.7578125 C33.60371244 87.32096747 39.03925373 89.49547453 46.43359375 89.3203125 C57.04459287 87.99595645 65.46557109 83.37804961 72.3203125 75.3046875 C75.10661037 71.48162764 77.08310073 67.31081495 79 63 C79.33 63 79.66 63 80 63 C80.83264412 75.34163623 78.84871574 86.44774347 70.7890625 96.22265625 C62.20584021 104.74965656 53.37057859 108.24290035 41.5 108.4375 C31.54060874 108.3600285 25.07601659 105.71762678 17.78125 98.828125 C6.74142129 87.49777448 6.53043343 73.46098564 6.32714844 58.38989258 C6.14822344 46.7719672 4.88989254 36.0427545 0.625 25.1875 C0.33367188 24.40697266 0.04234375 23.62644531 -0.2578125 22.82226562 C-1.9799404 18.2941267 -3.93378639 14.00806781 -6.25854492 9.7565918 C-7.46495676 6.89846431 -7.01731628 4.84848559 -6 2 C-3 0 -3 0 0 0 Z " fill="#FC66C4" transform="translate(583,718)"/>
<path d="M0 0 C-4.75469387 5.53513604 -9.6161316 10.65859214 -15.0625 15.5 C-29.15249729 28.21374441 -39.78770208 45.65021424 -41.21875 64.95019531 C-41.85344019 78.13191719 -41.61027356 90.5275635 -37 103 C-44.41515769 103.5392842 -49.9982846 102.09551532 -55.94921875 97.4921875 C-63.67269527 90.28807708 -66.46350326 82.88248674 -67.2734375 72.4921875 C-67.80219395 53.66032332 -58.01745966 38.01034639 -45.52099609 24.56835938 C-36.4403223 15.2049166 -13.55933542 -5.15773764 0 0 Z " fill="#FC64C4" transform="translate(350,687)"/>
<path d="M0 0 C5.9335467 1.57064471 9.13022392 5.84542349 12.14868164 10.93798828 C15.24809465 17.28045111 15.55105638 22.82801332 15.375 29.8125 C15.35566406 31.42112915 15.35566406 31.42112915 15.3359375 33.06225586 C15.21805962 39.10395748 14.67963321 44.77190181 13.45703125 50.69140625 C11.83596979 62.42678283 11.62678632 75.48473989 15.44140625 86.79296875 C16.06621095 89.2616027 15.82577092 90.62112351 15 93 C-2.08978987 73.9305418 -12.37833806 51.10759609 -11.1953125 25.34228516 C-10.47335056 16.68415657 -6.24011834 6.24011834 0 0 Z " fill="#5DDFE6" transform="translate(456,257)"/>
<path d="M0 0 C9.93904432 8.04922604 9.93904432 8.04922604 12 13 C7.9512973 12.42331254 4.38475597 11.49923451 0.5625 10.0625 C-22.07507429 2.33876187 -46.9628775 5.76773164 -68.20947266 16.05078125 C-74.46114303 19.36500192 -80.26291975 23.68276687 -85.6484375 28.2421875 C-88 30 -88 30 -91.5625 30.5 C-95 30 -95 30 -97.4375 28.3125 C-99.32002468 25.52636348 -99.32437648 24.30364965 -99 21 C-92.18783158 7.73275264 -69.66139248 -1.49876008 -56.28125 -6.34765625 C-53.1997005 -7.31584579 -50.13346948 -8.21773752 -47 -9 C-46.25234375 -9.19078125 -45.5046875 -9.3815625 -44.734375 -9.578125 C-28.48969604 -12.0844469 -13.45755338 -9.71934411 0 0 Z " fill="#FC63C4" transform="translate(809,520)"/>
<path d="M0 0 C4.03907714 1.09391673 5.77634734 3.43543695 8 6.8125 C9.43621148 9.82819551 10.58106666 12.93536409 11.75 16.0625 C16.37186553 27.60339189 22.12742222 35.04593375 33.42578125 40.71875 C36.15369595 41.95111633 36.15369595 41.95111633 39.8125 42.8125 C44.01777221 44.13180109 46.66734412 46.04054581 49 49.8125 C49.87856188 53.55719 49.55333702 56.70582595 47.8125 60.1875 C44.03748228 63.57199864 40.25548933 64.22420189 35.2265625 64.0546875 C21.60901449 62.57348052 10.58211128 54.04670425 2 43.8125 C-5.67636503 32.99908938 -9.86197522 21.18007685 -8 7.8125 C-6.39162056 3.62658941 -4.4834298 1.21426224 0 0 Z " fill="#FCFEFE" transform="translate(588,411.1875)"/>
<path d="M0 0 C0.66 0.33 1.32 0.66 2 1 C1.18208984 1.82177734 1.18208984 1.82177734 0.34765625 2.66015625 C-15.75498156 19.58857036 -22.45333541 41.02714697 -29.125 62.9375 C-29.74969556 64.95842747 -30.37466599 66.97927 -31 69 C-31.24363281 69.83015625 -31.48726562 70.6603125 -31.73828125 71.515625 C-32.7427362 74.63560798 -33.43534333 76.61280686 -36.1875 78.5 C-40.0775225 79.19155956 -43.02689812 79.44145576 -47 79 C-50.07789185 76.23695423 -51.24093833 74.00339938 -51.53125 69.9609375 C-51.54839706 68.43235235 -51.53676559 66.90323914 -51.5 65.375 C-51.48078491 64.17012939 -51.48078491 64.17012939 -51.46118164 62.94091797 C-51.23726097 56.34024163 -50.02858504 50.91295175 -47 45 C-46.525625 44.05125 -46.05125 43.1025 -45.5625 42.125 C-35.20375358 23.00116045 -19.22861283 9.61430641 0 0 Z " fill="#FC69C4" transform="translate(696,315)"/>
<path d="M0 0 C0 0.66 0 1.32 0 2 C0.928125 2.28875 1.85625 2.5775 2.8125 2.875 C6 4 6 4 9 6 C9 6.66 9 7.32 9 8 C8.17822266 7.7834375 8.17822266 7.7834375 7.33984375 7.5625 C-3.96153997 4.91632235 -15.63697832 4.18345497 -26 10 C-27.04220703 10.54914063 -27.04220703 10.54914063 -28.10546875 11.109375 C-36.17221304 16.1647428 -40.75364374 26.32665424 -44 35 C-49.89396243 34.30659265 -54.00083198 31.3533229 -57.8125 26.9375 C-60.66502691 23.10696387 -61.41897959 20.09093524 -61.33984375 15.31640625 C-60.30551623 8.26633476 -56.32804183 2.45404405 -50.76171875 -1.8203125 C-35.5986166 -11.97387536 -15.38759076 -7.03586174 0 0 Z " fill="#FC60C4" transform="translate(312,437)"/>
<path d="M0 0 C3.1875 0.75 3.1875 0.75 5.78125 1.76953125 C10.9559725 3.25904426 16.10572338 3.14360958 21.46289062 3.22851562 C22.28337891 3.25494141 23.10386719 3.28136719 23.94921875 3.30859375 C25.0623645 3.32877563 25.0623645 3.32877563 26.19799805 3.34936523 C28.75034284 3.86334214 29.66771285 4.65579559 31.1875 6.75 C31.06561422 10.16280196 30.90551736 12.70887483 28.9375 15.5625 C23.11139812 19.51592627 16.97674956 19.41793364 10.1875 18.75 C3.88739832 17.27850772 -0.87104228 14.75574458 -4.81640625 9.55859375 C-6.33873546 6.7945215 -6.45237047 4.80715892 -5.8125 1.75 C-2.8125 -0.25 -2.8125 -0.25 0 0 Z " fill="#FAFEFE" transform="translate(784.8125,547.25)"/>
<path d="M0 0 C3.51872036 0.09579094 4.40650735 0.53790094 7.5625 2.5625 C11.3363601 6.59965267 13.37460089 9.94948638 13.625 15.5 C13.24522713 19.48761514 12.71038072 21.3392428 10.25 24.4375 C7.03563471 26.58041019 5.07573391 26.73775791 1.28515625 26.8984375 C-1.91463963 26.17372365 -2.87639822 25.15239368 -4.75 22.4375 C-5.43250453 19.0707805 -5.53773297 15.74015514 -5.625 12.3125 C-5.69460938 10.93384766 -5.69460938 10.93384766 -5.765625 9.52734375 C-5.95685038 4.51870964 -5.95685038 4.51870964 -5.75 2.4375 C-3.75 0.4375 -3.75 0.4375 0 0 Z " fill="#FAFEFE" transform="translate(715.75,322.5625)"/>
<path d="M0 0 C2.7241562 2.7241562 2.3308802 4.3218734 2.375 8.125 C2.26968598 14.10157062 1.45023291 18.13346777 -2 23 C-2.68835938 23.99193359 -2.68835938 23.99193359 -3.390625 25.00390625 C-5.79978864 28.14215889 -7.34703679 29.76493324 -11.125 31.125 C-14.43553831 30.98106355 -15.64309203 30.26625767 -18 28 C-17.80567661 23.33623854 -17.18476182 20.93462389 -14.125 17.375 C-10.43950696 12.90479672 -9.6457799 8.2722711 -8.640625 2.66015625 C-8.42921875 1.78230469 -8.2178125 0.90445313 -8 0 C-5.09288879 -1.4535556 -3.10402897 -0.71133997 0 0 Z " fill="#FBFEFE" transform="translate(339,733)"/>
<path d="M0 0 C6.92210015 0.54648159 14.13898082 3.72421192 19.125 8.625 C21.78489655 13.41281379 21.42905284 17.64160681 21 23 C18.734375 23.6796875 18.734375 23.6796875 16 24 C14.078125 22.8828125 14.078125 22.8828125 12.25 21.125 C11.57324219 20.48046875 10.89648438 19.8359375 10.19921875 19.171875 C9.47347656 18.45515625 8.74773438 17.7384375 8 17 C7.18144531 16.24203125 6.36289062 15.4840625 5.51953125 14.703125 C-1.75889442 7.80655632 -1.75889442 7.80655632 -2 3 C-1.34 2.01 -0.68 1.02 0 0 Z " fill="#F8FDFE" transform="translate(618,743)"/>
<path d="M0 0 C3.4375 0.4375 3.4375 0.4375 6.4375 2.4375 C6.4375 3.4275 6.4375 4.4175 6.4375 5.4375 C5.7775 5.4375 5.1175 5.4375 4.4375 5.4375 C4.499375 6.51 4.56125 7.5825 4.625 8.6875 C4.4375 12.4375 4.4375 12.4375 3.3125 14.875 C1.4375 16.4375 1.4375 16.4375 -1.5 16.9375 C-4.5625 16.4375 -4.5625 16.4375 -7 14.875 C-8.5625 12.4375 -8.5625 12.4375 -8.5625 9 C-7.05344078 3.62397653 -5.8136425 0.7139561 0 0 Z " fill="#FAFEFE" transform="translate(727.5625,610.5625)"/>
<path d="M0 0 C1.9375 1.0625 1.9375 1.0625 3 3 C3.50030235 6.93094707 3.5996142 9.1005787 1.375 12.4375 C-1.71685231 14.47161336 -3.36367425 14.60605429 -7 14 C-9.375 12.375 -9.375 12.375 -11 10 C-11.60605429 6.36367425 -11.47161336 4.71685231 -9.4375 1.625 C-6.1005787 -0.5996142 -3.93094707 -0.50030235 0 0 Z " fill="#F8FDFE" transform="translate(669,455)"/>
<path d="M0 0 C0.78375 0.04125 1.5675 0.0825 2.375 0.125 C6.06599929 10.20933735 6.06599929 10.20933735 5.375 14.125 C4.1875 16 4.1875 16 2.375 17.125 C-0.96692692 16.88046876 -2.23043557 16.51956443 -4.625 14.125 C-4.890625 11.375 -4.890625 11.375 -4.875 8.125 C-4.88015625 7.0525 -4.8853125 5.98 -4.890625 4.875 C-4.53190019 1.16114314 -3.77149959 0.17959522 0 0 Z " fill="#F6FDFD" transform="translate(459.625,272.875)"/>
<path d="M0 0 C2 2 2 2 2.125 4.625 C2.08375 5.40875 2.0425 6.1925 2 7 C-1.70416126 9.37590142 -4.92984573 9.20500286 -9.25 9.125 C-10.51328125 9.10695313 -11.7765625 9.08890625 -13.078125 9.0703125 C-14.04234375 9.04710937 -15.0065625 9.02390625 -16 9 C-16.33 7.35 -16.66 5.7 -17 4 C-6.36085627 -0.79510703 -6.36085627 -0.79510703 0 0 Z " fill="#F4FCFD" transform="translate(311,452)"/>
<path d="M0 0 C2.5 0.125 2.5 0.125 3.5 1.125 C3.625 4.125 3.625 4.125 3.5 7.125 C2.5 8.125 2.5 8.125 0.0625 8.3125 C-2.5 8.125 -2.5 8.125 -4.5 6.125 C-3.77607362 0.18880368 -3.77607362 0.18880368 0 0 Z " fill="#FAFEFE" transform="translate(641.5,771.875)"/>
<path d="M0 0 C0.66 0.33 1.32 0.66 2 1 C-4.27 7.27 -10.54 13.54 -17 20 C-17 15.78773475 -14.62438852 14.02396665 -11.875 11.125 C-11.1634375 10.34962891 -11.1634375 10.34962891 -10.4375 9.55859375 C-7.17703371 6.06020154 -3.72611621 2.99637238 0 0 Z " fill="#867BF9" transform="translate(315,702)"/>
<path d="M0 0 C0 0.99 0 1.98 0 3 C-5.54334038 7.09725159 -5.54334038 7.09725159 -9.69140625 6.8203125 C-12.16514043 6.30656401 -14.57900991 5.7209387 -17 5 C-17 4.67 -17 4.34 -17 4 C-16.10796875 3.87882813 -15.2159375 3.75765625 -14.296875 3.6328125 C-12.54117187 3.38144531 -12.54117187 3.38144531 -10.75 3.125 C-9.58984375 2.96257813 -8.4296875 2.80015625 -7.234375 2.6328125 C-4.41806687 2.08179569 -2.44782443 1.44203518 0 0 Z " fill="#789CF2" transform="translate(500,796)"/>
</svg>
