<?xml version="1.0" encoding="UTF-8"?>
<svg version="1.1" xmlns="http://www.w3.org/2000/svg" width="1080" height="1080">
<!-- <path d="M0 0 C356.4 0 712.8 0 1080 0 C1080 356.4 1080 712.8 1080 1080 C723.6 1080 367.2 1080 0 1080 C0 723.6 0 367.2 0 0 Z " fill="#FEFEFE" transform="translate(0,0)"/> -->
<path d="M0 0 C3.91481339 2.98778558 5.82793436 6.63621203 8 11 C8.59039063 12.1653125 9.18078125 13.330625 9.7890625 14.53125 C14.42960682 24.42785616 16.83765777 34.87610463 19.37524414 45.46459961 C24.09620285 64.98747016 29.7335948 87.5221917 47.92578125 98.81640625 C56.42704131 103.29928163 64.72149962 105.4042872 74.3125 105.4375 C75.09431641 105.44064209 75.87613281 105.44378418 76.68164062 105.44702148 C89.54384748 105.20260025 103.77951403 103.07349532 116 99 C136.86209839 97.09269092 136.86209839 97.09269092 145.0546875 102.24609375 C151.36952229 107.93958938 155.44754214 114.92320303 156.37109375 123.41015625 C156.62238912 137.23140153 152.46843326 147.23271131 144 158 C143.57847656 158.56203125 143.15695312 159.1240625 142.72265625 159.703125 C137.29358564 166.64941063 129.93528171 171.87183773 123.125 177.375 C116.91143352 182.40257453 110.76769484 187.45785747 105 193 C104.37996094 193.58265625 103.75992187 194.1653125 103.12109375 194.765625 C93.97808839 204.17453432 88.6994248 217.17538767 88.68530273 230.14257812 C88.84502224 237.96788904 90.85545228 243.99481966 96.125 249.8125 C105.67006679 258.37084048 117.51906702 259.90650151 129.765625 261.70703125 C157.35870767 265.77467952 157.35870767 265.77467952 165.78515625 276.2109375 C170.85967166 283.43282468 171.97223569 290.23883068 171 299 C165.39271943 319.13303758 151.98566045 333.91003392 134.10400391 344.078125 C110.11522932 357.27703213 86.22309212 359.75083108 59.25 357 C29.11368036 354.05852245 -5.41351236 352.81552678 -30.5703125 372.67578125 C-33.59283753 375.25687064 -36.31721265 378.06648486 -39 381 C-39.74507812 381.80179688 -40.49015625 382.60359375 -41.2578125 383.4296875 C-51.83987756 395.70166409 -56.42424371 411.01027855 -60.81933594 426.29321289 C-70.81417728 460.96331224 -70.81417728 460.96331224 -82.83203125 469.265625 C-90.83092122 473.24140463 -99.91105886 473.66109613 -108.38671875 470.89453125 C-121.39307934 464.80748922 -128.27154877 454.69421546 -133.125 441.4375 C-139.62697505 422.07456783 -140.15513296 400.07129492 -140.64892578 379.83276367 C-141.49955057 347.36873559 -144.28390793 313.76539904 -167.859375 289.05078125 C-171.90168324 285.34533203 -176.40030577 282.27620152 -180.875 279.125 C-202.87899285 263.62225347 -202.87899285 263.62225347 -205 252 C-206.72105813 239.86387875 -202.48735221 230.48728659 -195.44189453 220.87402344 C-192.20620137 216.71044067 -188.8110612 212.68453237 -185.40039062 208.6640625 C-170.46708718 190.9190492 -166.3439574 167.57313453 -168 145 C-168.53617125 141.03403486 -169.41871153 137.16397586 -170.3203125 133.265625 C-171.88401285 125.7526739 -172.12472481 117.74676177 -168 111 C-164.71144289 107.38903533 -160.65837629 104.39968595 -155.765625 103.6640625 C-146.06341869 103.51340712 -137.03040974 106.2402101 -127.80078125 108.93359375 C-110.16550322 113.85451913 -92.82845086 110.64691195 -77 102 C-57.97042686 90.41952045 -51.38889056 73.66609755 -46 53 C-45.11498787 49.34026781 -44.27557863 45.67071841 -43.4375 42 C-40.02857338 27.25169501 -34.9441089 13.29113245 -22.0546875 4.21875 C-14.76027749 -0.10797228 -8.4747322 -1.91239661 0 0 Z " fill="#5CE0E6" transform="translate(585,324)"/>
<path d="M0 0 C4.82315664 2.66342036 9.05315654 5.96619898 12.875 9.9375 C12.875 10.2675 12.875 10.5975 12.875 10.9375 C12.04097656 10.95167969 11.20695312 10.96585937 10.34765625 10.98046875 C2.56810775 11.31018615 -2.76586372 12.42121545 -9.125 16.9375 C-10.6409375 17.9275 -10.6409375 17.9275 -12.1875 18.9375 C-23.29116397 28.7730575 -27.06234366 44.72798436 -30 58.5625 C-34.78733577 80.02102856 -40.59515957 98.94165471 -59.8125 111.5625 C-69.66555615 117.79462659 -79.43919585 121.83088976 -91.125 122.9375 C-92.65640625 123.09798828 -92.65640625 123.09798828 -94.21875 123.26171875 C-104.09637621 123.7908773 -112.8257033 121.14022901 -122.21875 118.34765625 C-129.77116307 116.1167459 -138.90259878 113.87422345 -146.5078125 116.87890625 C-151.14190855 119.60635393 -154.10667884 122.51420759 -155.67578125 127.7890625 C-157.09042984 134.55477313 -156.18478624 141.09883604 -154.625 147.75 C-151.32189667 163.26984438 -152.09200404 178.91715267 -157.125 193.9375 C-157.32867187 194.5670459 -157.53234375 195.1965918 -157.7421875 195.84521484 C-161.61237124 207.56625742 -168.08059997 216.66133245 -175.74609375 226.2109375 C-183.84044165 236.33575273 -191.44210801 246.40571231 -190.53515625 260.04296875 C-188.97462731 271.05584443 -182.33368092 277.84746333 -173.66015625 284.37109375 C-170.34169644 286.81044759 -167.00180728 289.21994148 -163.6640625 291.6328125 C-143.03687123 306.57846437 -132.54420028 327.61744483 -128.54003906 352.58496094 C-128.10408906 356.24115488 -127.75025611 359.89374939 -127.4375 363.5625 C-127.31326378 364.91359208 -127.18882882 366.2646659 -127.06420898 367.61572266 C-126.27334543 376.51141261 -125.89505885 385.38314539 -125.6875 394.3125 C-124.75142876 436.86609286 -124.75142876 436.86609286 -105.9375 473.75 C-98.11275936 480.94398813 -90.00993406 482.49395888 -79.60546875 482.40625 C-75.88696863 481.9054419 -73.41785248 480.66805021 -70.125 478.9375 C-69.465 479.2675 -68.805 479.5975 -68.125 479.9375 C-74.22184546 484.6978762 -79.32360832 488.24514194 -87.125 488.9375 C-88.11371094 489.0303125 -89.10242188 489.123125 -90.12109375 489.21875 C-103.61631294 489.86677973 -113.95556155 484.40384409 -124.125 475.9375 C-124.77082031 475.40511719 -125.41664063 474.87273437 -126.08203125 474.32421875 C-142.16873889 459.6900355 -148.08405106 434.57752276 -152.53100586 414.11279297 C-158.2341732 388.01053271 -166.46527954 361.79077855 -190 346.6875 C-199.00365666 341.10335057 -208.32940162 340.4744047 -218.68457031 340.60131836 C-220.75364908 340.62504184 -222.82144322 340.62184127 -224.890625 340.61523438 C-230.81512138 340.62855486 -236.30879535 340.75718056 -242 342.47241211 C-247.31709528 343.63613758 -252.8958004 343.35001266 -258.3125 343.375 C-259.55064453 343.40787109 -260.78878906 343.44074219 -262.06445312 343.47460938 C-275.60546801 343.55263513 -287.09748306 339.12026512 -297.125 329.9375 C-310.57088194 314.79077146 -313.23976021 298.43993645 -312.125 278.9375 C-310.0287332 260.29940504 -296.67593093 243.88187036 -282.8359375 232.0859375 C-272.3299272 223.75984864 -261.11352737 217.81873835 -249.125 211.9375 C-228.54935691 201.83663932 -209.02059875 191.80088925 -200.8125 168.9375 C-195.79921445 151.58381924 -199.584066 133.26184335 -207.87890625 117.6328125 C-211.08731279 111.91601539 -214.48291448 106.34477695 -218.00097656 100.81396484 C-226.12591676 88.02762001 -234.40467226 74.10209387 -231.69140625 58.43359375 C-229.85762535 50.97318075 -226.18424283 45.68929699 -219.80859375 41.3671875 C-211.28910732 36.45479829 -202.69563949 35.50375697 -192.9921875 37.62109375 C-178.07497725 42.31436747 -166.23952356 51.27786763 -155.625 62.5625 C-142.01086274 76.51614193 -121.10436889 87.47778883 -101.4375 88.375 C-89.23999864 87.6533921 -78.6225317 83.83571672 -70 75.0625 C-64.76574092 68.75213576 -61.54757704 61.31941326 -58.125 53.9375 C-36.09788267 6.50889842 -36.09788267 6.50889842 -18.125 -1.0625 C-11.86014147 -3.15078618 -5.97805877 -2.81809571 0 0 Z " fill="#CA6CE6" transform="translate(571.125,313.0625)"/>
<path d="M0 0 C11.48968009 4.10621549 21.85706462 9.94197236 31.34765625 17.61328125 C32.49621094 18.49886719 32.49621094 18.49886719 33.66796875 19.40234375 C44.25757099 28.07327241 52.35380767 40.21049818 55.34765625 53.61328125 C56.66643272 67.96958211 55.3521378 80.32255342 46.015625 91.8671875 C39.34547458 98.84975714 31.56736403 103.18409327 21.89453125 103.8515625 C14.19419895 104.0020834 8.07680467 103.71607427 1.34765625 99.61328125 C0.29578125 99.01515625 -0.75609375 98.41703125 -1.83984375 97.80078125 C-11.03512518 90.6488957 -14.94626427 80.94886703 -16.65234375 69.61328125 C-16.92831591 64.92750391 -16.96691507 60.24356917 -17.02734375 55.55078125 C-17.44265749 39.47663841 -20.306948 26.65583127 -27.01000977 12.07958984 C-30.51741779 4.31537724 -30.51741779 4.31537724 -29.65234375 -0.38671875 C-22.88504617 -7.97380773 -8.31330586 -2.75742518 0 0 Z " fill="#5DE0E6" transform="translate(605.65234375,718.38671875)"/>
<path d="M0 0 C5.62667784 4.57167575 9.20247014 11.2261401 9.9609375 18.44921875 C10.08027914 29.10642702 8.02196779 36.65407453 1.625 45.25 C0.72587891 46.46236328 0.72587891 46.46236328 -0.19140625 47.69921875 C-11.59754917 61.02338928 -32.13452323 64.13717909 -48.5546875 66.98828125 C-58.47214449 68.71206681 -68.54842488 70.80090873 -77.609375 75.37890625 C-80.3341783 76.72322292 -82.39096703 76.62300412 -85.375 76.25 C-88.22280619 74.01793569 -89.22497666 72.70007001 -90.375 69.25 C-92.03585502 50.52979133 -84.54745223 36.37890539 -72.8125 22.25 C-56.16970118 2.94161943 -24.69050446 -17.00598282 0 0 Z " fill="#5DE0E6" transform="translate(733.375,320.75)"/>
<path d="M0 0 C8.09242312 6.86421139 15.93093286 16.90220163 17.90625 27.51953125 C17.99822328 34.26807062 16.53666481 39.56557194 12.4375 45 C7.27006106 50.0764273 1.69115061 51.57819066 -5.4375 51.6875 C-13.01349559 51.52024005 -18.87922508 49.4199249 -25.5625 46 C-28.26197779 44.66887577 -30.97234038 43.36130945 -33.6875 42.0625 C-34.40107666 41.7207373 -35.11465332 41.37897461 -35.84985352 41.02685547 C-51.85566571 33.51751675 -67.47987675 29.81213894 -85.12817383 29.51635742 C-91.33695271 29.34017708 -95.98157714 28.58092286 -100.5625 24 C-100.34195932 19.03783478 -98.85596271 16.61358512 -95.5625 13 C-93.31421894 11.28795492 -91.11393406 9.71715826 -88.75 8.1875 C-88.09128906 7.75735596 -87.43257812 7.32721191 -86.75390625 6.8840332 C-75.2014603 -0.54626503 -63.78687683 -6.19298243 -50.5625 -10 C-49.76585937 -10.24621094 -48.96921875 -10.49242187 -48.1484375 -10.74609375 C-30.93015849 -15.42146914 -13.85386308 -10.52045792 0 0 Z " fill="#5EE0E6" transform="translate(807.5625,522)"/>
<path d="M0 0 C-1.38634534 2.83018888 -2.87674574 5.57510234 -4.4375 8.3125 C-10.77551284 19.72092311 -12.40006821 30.45988408 -13.5 43.25 C-16.94686537 82.91269055 -16.94686537 82.91269055 -30.9375 95.875 C-37.29962118 101.12010754 -44.46969508 103.49231707 -52.7578125 103.3359375 C-59.97717212 102.25429129 -66.079807 97.98600742 -70.52734375 92.33984375 C-76.27688447 83.20463184 -77.43126584 72.53814684 -76 62 C-71.06009307 41.03818255 -54.88620322 22.42497801 -37 11 C-25.07494075 4.06390459 -14.00513365 -0.71889469 0 0 Z " fill="#5EE0E6" transform="translate(363,683)"/>
<path d="M0 0 C2.26953125 1.296875 2.26953125 1.296875 4 3 C4.61312957 7.67511297 4.5124173 9.9546687 2.4375 14.1875 C-2.45916667 19.8375 -7.86030917 22.73114404 -15 24.6875 C-15.65355469 24.88666016 -16.30710937 25.08582031 -16.98046875 25.29101562 C-28.88252782 28.696389 -41.12155303 29.29200663 -53.421875 29.125 C-55.4188537 29.11342563 -57.41583255 29.10186306 -59.41281509 29.0909729 C-62.85862598 29.06939843 -66.30429628 29.03431272 -69.75 29 C-73.88712596 28.95895589 -78.02416505 28.92055918 -82.16143799 28.89794922 C-84.7203898 28.88307412 -87.27931143 28.85921981 -89.83807373 28.82470703 C-121.69852726 28.64511589 -152.18053591 43.32771005 -175 65 C-177.4146738 67.71291476 -179.75703235 70.44059588 -182 73.296875 C-184 75 -184 75 -186.6875 74.828125 C-189 74 -189 74 -190 73 C-190.47059919 69.63432226 -190.11179446 68.18685269 -188.34765625 65.23828125 C-187.59355469 64.27277344 -186.83945312 63.30726563 -186.0625 62.3125 C-185.65427002 61.78922119 -185.24604004 61.26594238 -184.82543945 60.72680664 C-163.97820747 34.32031279 -136.83533386 15.62222085 -103 11 C-95.7649965 10.18848143 -88.58891003 9.84733615 -81.3125 9.7890625 C-79.29296092 9.76097425 -77.27342978 9.73230968 -75.25390625 9.703125 C-72.13916427 9.66218644 -69.02456736 9.62520961 -65.90966797 9.59863281 C-55.35844537 9.50129371 -44.94428255 9.27210595 -34.5 7.66015625 C-33.75331055 7.54640656 -33.00662109 7.43265686 -32.23730469 7.31546021 C-27.18846353 6.44420446 -22.68273154 4.86895066 -18 2.8125 C-11.9992203 0.20459358 -6.53573823 -1.45113637 0 0 Z " fill="#FCFEFE" transform="translate(698,624)"/>
<path d="M0 0 C0.47308594 0.495 0.94617188 0.99 1.43359375 1.5 C2.98019473 3.16945424 2.98019473 3.16945424 5.44140625 3.96875 C13.08736594 7.05048032 18.77233238 15.70214858 22 23 C22.55520094 25.69173313 22.46104101 27.23375394 22 30 C20 32 20 32 16.93408203 32.1953125 C14.99057861 32.16050781 14.99057861 32.16050781 13.0078125 32.125 C12.306633 32.11742676 11.60545349 32.10985352 10.88302612 32.10205078 C7.88656423 32.06951257 4.89065121 32.0140794 1.89453125 31.95898438 C-6.36729168 31.82006877 -14.105969 31.95478061 -22.25634766 33.52832031 C-26.7506347 34.30096336 -31.1994092 34.3682182 -35.75 34.375 C-37.07064453 34.41173828 -37.07064453 34.41173828 -38.41796875 34.44921875 C-45.52032606 34.48087859 -50.5886755 32.80034101 -56.09375 28.28125 C-60.00268284 23.32993507 -60.86382805 19.18191988 -60.515625 12.8984375 C-59.33170658 6.24338091 -55.22148575 1.35508586 -49.98046875 -2.74609375 C-35.98823825 -11.60507992 -13.58866794 -7.84738361 0 0 Z " fill="#5FE0E6" transform="translate(316,439)"/>
<path d="M0 0 C0.87785156 -0.00257813 1.75570313 -0.00515625 2.66015625 -0.0078125 C4.9375 0.125 4.9375 0.125 6.9375 1.125 C5.83612403 3.35410065 4.70549659 5.55992562 3.53515625 7.75390625 C-4.8117348 23.70432656 -6.07112219 37.84784792 -0.74267578 55.07226562 C3.9484776 69.22991731 11.57157056 81.14089045 20.5625 92.9375 C22.9375 96.125 22.9375 96.125 22.9375 98.125 C23.5975 98.125 24.2575 98.125 24.9375 98.125 C25.31813221 100.4510857 25.65019945 102.78555264 25.9375 105.125 C25.6075 105.455 25.2775 105.785 24.9375 106.125 C23.41230724 106.03562197 21.89068071 105.87962854 20.375 105.6875 C19.54871094 105.58566406 18.72242188 105.48382813 17.87109375 105.37890625 C16.91396484 105.25322266 16.91396484 105.25322266 15.9375 105.125 C15.9375 104.465 15.9375 103.805 15.9375 103.125 C14.64972656 103.04378906 14.64972656 103.04378906 13.3359375 102.9609375 C9.06376388 101.910081 6.63868687 99.72998411 3.5625 96.75 C2.99378174 96.20907715 2.42506348 95.6681543 1.83911133 95.11083984 C-9.75856884 83.81476199 -17.86854413 69.22007332 -23.625 54.1875 C-23.96724609 53.30771484 -23.96724609 53.30771484 -24.31640625 52.41015625 C-27.69685715 42.0564192 -29.74108045 28.34907947 -25.5 17.9375 C-20.07922877 8.37031428 -11.49605199 -0.03386171 0 0 Z " fill="#C673E6" transform="translate(451.0625,258.875)"/>
<path d="M0 0 C0.02513672 0.804375 0.02513672 0.804375 0.05078125 1.625 C0.97364626 9.99965559 5.54220873 15.66514329 10.37109375 22.265625 C17.74695477 32.53535211 18.2807752 42.64228136 18.56640625 54.91601562 C18.85886623 64.05221104 20.00963672 75.18102293 26.93359375 81.8671875 C34.12912938 87.38596529 41.11481756 87.83086243 49.93164062 87.27832031 C57.28293089 86.28912403 64.45433275 81.74893211 69 76 C70.56768575 73.75352248 72.09156466 71.48964106 73.5703125 69.18359375 C74.96618138 67.05165194 76.45026722 65.02198863 78 63 C78.83061964 75.47775284 76.63598647 85.40142162 68.66796875 95.25390625 C61.99781833 102.23647589 54.21970778 106.57081202 44.546875 107.23828125 C36.8465427 107.38880215 30.72914842 107.10279302 24 103 C22.948125 102.401875 21.89625 101.80375 20.8125 101.1875 C11.61721857 94.03561445 7.70607948 84.33558578 6 73 C5.72402784 68.31422266 5.68542868 63.63028792 5.625 58.9375 C5.20968626 42.86335716 2.34539575 30.04255002 -4.35766602 15.46630859 C-6.29724466 11.17273885 -7.65410566 7.82127315 -7 3 C-4.54157496 0.45680168 -3.57478534 0 0 0 Z " fill="#C96FE6" transform="translate(583,715)"/>
<path d="M0 0 C-3.36084928 4.04352178 -6.73994022 7.89897804 -10.75 11.3125 C-26.85049939 25.09952957 -37.00168326 39.95480583 -41 61 C-41.185625 61.97324219 -41.37125 62.94648437 -41.5625 63.94921875 C-42.98556702 73.87257005 -42.11352471 83.20105082 -39.75390625 92.87890625 C-39.0222852 95.90774159 -38.47676228 98.92187458 -38 102 C-45.99111883 102.73991841 -51.85541802 100.41829333 -58.05078125 95.30859375 C-65.60683882 87.55837624 -67.65153263 77.61851031 -67.54101562 67.07543945 C-66.70482246 49.18047911 -54.57098483 32.79646525 -42.01171875 20.7734375 C-34.7037952 14.33111266 -10.72186989 -5.36093494 0 0 Z " fill="#C771E6" transform="translate(354,684)"/>
<path d="M0 0 C6.78648766 3.87799295 11.24543292 9.14292341 13.875 16.5625 C16.20788195 25.64407618 15.63012918 34.88952272 13.5 43.9375 C10.03099824 59.72228793 10.925703 75.73635161 16 91 C16.36087485 92.6609209 16.70497606 94.32612732 17 96 C1.01696877 76.0932066 -14.80977644 52.89808458 -12 26 C-10.16275765 16.49201135 -6.9900148 6.9900148 0 0 Z " fill="#5FE0E6" transform="translate(458,261)"/>
<path d="M0 0 C8.42553667 6.74264367 8.42553667 6.74264367 11.03515625 10.81640625 C11.03515625 11.47640625 11.03515625 12.13640625 11.03515625 12.81640625 C10.3803125 12.63464844 9.72546875 12.45289063 9.05078125 12.265625 C8.138125 12.01425781 7.22546875 11.76289062 6.28515625 11.50390625 C5.4034375 11.26027344 4.52171875 11.01664063 3.61328125 10.765625 C2.4325 10.45238281 1.25171875 10.13914062 0.03515625 9.81640625 C-0.81715576 9.56576416 -1.66946777 9.31512207 -2.54760742 9.05688477 C-10.37175531 6.88174441 -17.6757269 6.30950506 -25.77734375 6.37890625 C-27.00839844 6.38575439 -28.23945312 6.39260254 -29.5078125 6.3996582 C-38.60816193 6.56018894 -46.41469295 7.53866874 -54.96484375 10.81640625 C-55.97675781 11.16703125 -56.98867188 11.51765625 -58.03125 11.87890625 C-67.49662319 15.43304899 -76.54240721 20.94068255 -84.1875 27.5625 C-86.96484375 29.81640625 -86.96484375 29.81640625 -90.02734375 30.37890625 C-93.60206763 29.69438466 -95.34216793 28.28480702 -97.96484375 25.81640625 C-97.50265213 20.84784628 -96.32045303 18.47506727 -92.96484375 14.81640625 C-90.71656269 13.10436117 -88.51627781 11.53356451 -86.15234375 10.00390625 C-85.49363281 9.57376221 -84.83492187 9.14361816 -84.15625 8.70043945 C-72.60380405 1.27014122 -61.18922058 -4.37657618 -47.96484375 -8.18359375 C-47.16820312 -8.42980469 -46.3715625 -8.67601562 -45.55078125 -8.9296875 C-29.7802851 -13.21193833 -13.0080014 -9.58033305 0 0 Z " fill="#C970E6" transform="translate(804.96484375,520.18359375)"/>
<path d="M0 0 C5.13556526 4.04570254 6.68220775 8.70963549 8.8125 14.75 C13.24060466 26.4262845 18.12172326 33.13901162 29.4609375 38.87109375 C32.07520979 40.09404705 32.07520979 40.09404705 35.25 41 C39.2763025 42.46411 42.26356422 44.69973817 45 48 C46.02920318 51.51139909 46.32184636 53.71261454 45.4375 57.25 C42.79036572 60.47259825 39.80605138 61.745497 35.69921875 62.32421875 C29.23162216 62.6159144 24.61402354 61.08145374 19 58 C17.79537109 57.38125 17.79537109 57.38125 16.56640625 56.75 C3.45722404 49.55119791 -5.51252605 38.17097036 -10 24 C-11.56179036 17.46887666 -12.47544365 9.9907179 -9.125 3.9375 C-6.3490517 0.1001597 -4.67167911 -0.6518622 0 0 Z " fill="#FCFEFE" transform="translate(590,414)"/>
<path d="M0 0 C-0.81791016 0.804375 -0.81791016 0.804375 -1.65234375 1.625 C-18.03878297 18.65569238 -24.75145044 41.92555138 -31.29907227 64.08959961 C-31.60901123 65.10675049 -31.9189502 66.12390137 -32.23828125 67.171875 C-32.50680908 68.0803418 -32.77533691 68.98880859 -33.05200195 69.92480469 C-33.36484131 70.60961914 -33.67768066 71.29443359 -34 72 C-35.485 72.495 -35.485 72.495 -37 73 C-37 73.66 -37 74.32 -37 75 C-40.40424088 77.09491746 -43.03414842 77.49573145 -47 77 C-49.84780619 74.76793569 -50.84997666 73.45007001 -52 70 C-53.66103012 51.27781765 -46.17056609 37.13162257 -34.4375 23 C-28.04992772 15.56674647 -10.46486509 -3.48828836 0 0 Z " fill="#C96FE6" transform="translate(695,320)"/>
<path d="M0 0 C2.47421227 1.86482295 4.77084642 3.84969108 7 6 C5 7 5 7 1.5 6.0625 C-8.76862581 3.38453104 -18.31639133 5.18079505 -27.515625 10.4375 C-35.65898468 16.19878848 -40.52580714 24.80360715 -44 34 C-50.4118107 32.58940165 -54.70641179 30.22194534 -58.640625 24.6953125 C-61.03593763 19.94598572 -60.70775038 15.183429 -60 10 C-57.52280241 3.38313 -52.19187454 -1.90800988 -45.92578125 -5.03515625 C-31.59389465 -10.26665985 -12.98899288 -7.51081077 0 0 Z " fill="#C771E6" transform="translate(316,439)"/>
<path d="M0 0 C3.60854477 0.28302312 6.78920524 0.93117946 10.23046875 2.0546875 C15.0319919 3.25880004 19.31315771 3.04844074 24.21484375 2.74609375 C28.00477417 2.62290289 29.79951405 2.86547026 32.9921875 5.0078125 C33.65476562 5.66523437 34.31734375 6.32265625 35 7 C34.74220026 10.78106289 34.47578037 12.52421963 31.75 15.25 C25.90243071 18.97118046 20.88797693 19.95971812 14 19 C7.30950471 16.79930845 1.59644513 13.18758472 -2 7 C-2.5 4.1875 -2.5 4.1875 -2 2 C-1.34 1.34 -0.68 0.68 0 0 Z " fill="#F9FEFE" transform="translate(777,547)"/>
<path d="M0 0 C3.29995948 0.9822021 4.43597494 2.73600086 6.15234375 5.640625 C6.72984375 6.40375 7.30734375 7.166875 7.90234375 7.953125 C9.57546381 11.55033313 9.85320837 14.78210148 9.15234375 18.640625 C6.15234375 24.140625 6.15234375 24.140625 3.15234375 25.640625 C-4.1654827 26.1052489 -4.1654827 26.1052489 -6.5625 24.47265625 C-8.30319386 21.9912416 -8.32049267 20.08535781 -8.47265625 17.078125 C-8.60352363 13.21307168 -8.60352363 13.21307168 -9.84765625 9.640625 C-10.309972 3.2837835 -10.309972 3.2837835 -8.609375 0.91796875 C-5.73783378 -1.16405781 -3.36917002 -0.50237219 0 0 Z " fill="#FBFEFE" transform="translate(716.84765625,326.359375)"/>
<path d="M0 0 C3.02401452 0.45360218 3.69188641 0.94710809 5.5 3.375 C6.99647806 11.54182602 5.48250859 18.147978 1.14453125 25.1171875 C-0.8464891 27.85070238 -2.4830455 29.79109889 -5.5 31.375 C-8.75270549 31.83037877 -10.5818263 31.90813312 -13.4375 30.25 C-14.5 28.375 -14.5 28.375 -14.5625 25.6875 C-13.53252923 22.47641467 -12.66271808 21.19952555 -10.5625 18.6875 C-7.24453023 14.59533729 -6.56633627 10.96209884 -6.01953125 5.79296875 C-5.21654053 2.05574127 -3.77153415 0.56573012 0 0 Z " fill="#FAFEFE" transform="translate(338.5,728.625)"/>
<path d="M0 0 C7.92083396 0.79532964 12.62543517 3.11652718 18 9 C18.57492187 9.62648438 19.14984375 10.25296875 19.7421875 10.8984375 C21.37591851 13.62808745 21.13806068 15.1370353 20.6875 18.25 C20.56761719 19.14203125 20.44773437 20.0340625 20.32421875 20.953125 C20.21722656 21.62859375 20.11023438 22.3040625 20 23 C13.98411248 22.69207068 11.02743031 20.87840616 7.0625 16.5625 C6.56943359 16.05912109 6.07636719 15.55574219 5.56835938 15.03710938 C2 11.31037621 2 11.31037621 2 9 C1.01 8.67 0.02 8.34 -1 8 C-1.625 5.6875 -1.625 5.6875 -2 3 C-1.34 2.01 -0.68 1.02 0 0 Z " fill="#F9FDFE" transform="translate(617,740)"/>
<path d="M0 0 C3.875 0.4375 3.875 0.4375 5.875 2.4375 C5.875 3.4275 5.875 4.4175 5.875 5.4375 C5.215 5.4375 4.555 5.4375 3.875 5.4375 C3.99875 7.04625 3.99875 7.04625 4.125 8.6875 C3.875 12.4375 3.875 12.4375 2.25 14.9375 C-0.125 16.4375 -0.125 16.4375 -3.25 16.3125 C-6.125 15.4375 -6.125 15.4375 -8.125 13.4375 C-8.56857676 8.92780299 -8.65457752 6.49665505 -6.625 2.4375 C-3.96143189 0.30664551 -3.2581492 0.10070643 0 0 Z " fill="#FCFEFE" transform="translate(725.125,609.5625)"/>
<path d="M0 0 C2.375 1.625 2.375 1.625 4 4 C4.61195145 7.6717087 4.48706506 9.28813568 2.375 12.375 C0 14 0 14 -3 14.5625 C-6 14 -6 14 -8.375 11.8125 C-10.14232156 8.75367423 -10.70698088 7.44653179 -10 4 C-7.16979976 -0.02759265 -4.82432618 -0.80405436 0 0 Z " fill="#F9FDFE" transform="translate(666,456)"/>
<path d="M0 0 C1.65 0 3.3 0 5 0 C8.69099929 10.08433735 8.69099929 10.08433735 8 14 C6.8125 15.875 6.8125 15.875 5 17 C2.4375 16.875 2.4375 16.875 0 16 C-2.07324138 12.89013793 -2.27392186 12.10891613 -2.25 8.5625 C-2.25515625 7.80066406 -2.2603125 7.03882813 -2.265625 6.25390625 C-1.9747292 3.78556982 -1.22975656 2.142314 0 0 Z " fill="#F6FDFD" transform="translate(458,277)"/>
<path d="M0 0 C0.66 0.66 1.32 1.32 2 2 C1.625 4.625 1.625 4.625 1 7 C-2.56045177 8.18681726 -5.43808337 8.09689832 -9.1875 8.0625 C-10.45980469 8.05347656 -11.73210937 8.04445313 -13.04296875 8.03515625 C-14.50669922 8.01775391 -14.50669922 8.01775391 -16 8 C-16.66 6.68 -17.32 5.36 -18 4 C-13.54060573 -0.45939427 -6.0187772 -0.83355774 0 0 Z " fill="#F5FDFD" transform="translate(315,454)"/>
<path d="M0 0 C4.55555556 0.55555556 4.55555556 0.55555556 6 2 C6.1875 4.4375 6.1875 4.4375 6 7 C5.34 7.66 4.68 8.32 4 9 C-0.55555556 8.44444444 -0.55555556 8.44444444 -2 7 C-2.1875 4.5625 -2.1875 4.5625 -2 2 C-1.34 1.34 -0.68 0.68 0 0 Z " fill="#F1FCFC" transform="translate(638,768)"/>
<path d="M0 0 C0.66 0.33 1.32 0.66 2 1 C0.42825925 2.20280161 -1.15787558 3.38681275 -2.75 4.5625 C-3.63171875 5.22378906 -4.5134375 5.88507812 -5.421875 6.56640625 C-8 8 -8 8 -10.328125 7.71484375 C-11.15570313 7.36099609 -11.15570313 7.36099609 -12 7 C-11.34 7 -10.68 7 -10 7 C-10 6.34 -10 5.68 -10 5 C-12.64 5 -15.28 5 -18 5 C-18 4.67 -18 4.34 -18 4 C-17.20335937 3.96261719 -16.40671875 3.92523437 -15.5859375 3.88671875 C-9.64121143 3.51788538 -5.24570274 3.0369858 0 0 Z " fill="#AC9CE8" transform="translate(501,792)"/>
<path d="M0 0 C0.66 0.33 1.32 0.66 2 1 C-0.31 2.65 -2.62 4.3 -5 6 C-5.66 5.67 -6.32 5.34 -7 5 C-4.88437775 2.67281553 -2.94982021 1.14186589 0 0 Z " fill="#9AB1E8" transform="translate(501,792)"/>
</svg>
