<?xml version="1.0" encoding="UTF-8"?>
<svg version="1.1" xmlns="http://www.w3.org/2000/svg" width="1080" height="1080">
<!-- <path d="M0 0 C356.4 0 712.8 0 1080 0 C1080 356.4 1080 712.8 1080 1080 C723.6 1080 367.2 1080 0 1080 C0 723.6 0 367.2 0 0 Z " fill="" transform="translate(0,0)"/> -->
<path d="M0 0 C0.74949921 0.00093658 1.49899841 0.00187317 2.27120972 0.00283813 C62.93884728 0.16660631 118.56045353 20.38263957 161.9375 63.3125 C201.17867959 102.96674464 221.90248887 159.33490312 221.9375 214.6875 C221.82641008 226.27788141 221.16606574 237.70948117 219.5625 249.1875 C219.47661621 249.86893066 219.39073242 250.55036133 219.30224609 251.25244141 C212.81648627 301.70945425 184.06167778 349.88646472 144.3125 381.25 C127.48681073 394.11880048 108.919815 402.64189442 88.5625 408.1875 C87.88872314 408.38327637 87.21494629 408.57905273 86.52075195 408.78076172 C79.35793994 410.65222478 72.1109761 410.5854269 64.75 410.5625 C63.72163025 410.56118576 63.72163025 410.56118576 62.67248535 410.55984497 C50.93976307 410.51050621 39.85151183 409.53789742 28.5625 406.1875 C27.80179199 405.9620752 27.04108398 405.73665039 26.25732422 405.50439453 C-8.94456245 394.60874858 -35.88608651 373.74894103 -53.6875 341.69921875 C-56.50918395 336.03695564 -58.56643129 330.22205367 -60.4375 324.1875 C-60.73398437 323.25292969 -61.03046875 322.31835938 -61.3359375 321.35546875 C-65.51083103 307.23936834 -65.99377063 292.67701682 -66.40014648 278.06298828 C-66.46706212 275.88471243 -66.54991199 273.70687131 -66.64819336 271.52978516 C-66.79150271 268.34550388 -66.88727106 265.16286187 -66.97265625 261.9765625 C-67.05024925 260.52946396 -67.05024925 260.52946396 -67.12940979 259.0531311 C-67.21181638 253.70203176 -66.60743322 250.76442325 -63.05249023 246.65380859 C-61.87367352 245.47167446 -60.67115778 244.31228373 -59.4375 243.1875 C-58.65375 242.445 -57.87 241.7025 -57.0625 240.9375 C-52.1751373 237.6792582 -46.78768005 235.63832768 -41.25 233.75 C-34.83590601 231.33840167 -31.3107192 227.11076986 -27.125 221.875 C-16.75914333 209.00822949 -1.19908497 197.15344071 15.625 194.75 C19.65719547 195.35053975 20.89752004 197.18085595 23.5625 200.1875 C25.21114545 201.54305293 26.87253995 202.88381653 28.5625 204.1875 C28.89121094 203.53523437 29.21992187 202.88296875 29.55859375 202.2109375 C33.03837461 195.81719381 36.72595383 191.1123528 43.5625 188.1875 C46.1640625 187.8828125 46.1640625 187.8828125 48.5625 188.1875 C52.15837858 191.38383652 53.3543415 193.00099654 54.1875 197.75 C53.43697037 208.05990696 48.28238847 217.48055913 40.5625 224.1875 C36.83203596 226.43442042 33.91432116 226.58312011 29.5625 226.1875 C25.876686 224.02685041 25.63161711 220.0895519 24.5625 216.1875 C14.02732102 219.35153065 4.45113958 222.4634514 -4.4375 229.1875 C-5.28441406 229.80882812 -6.13132812 230.43015625 -7.00390625 231.0703125 C-16.48508978 239.31878999 -20.70750788 252.70614038 -21.64624023 264.89868164 C-21.73961118 267.66439336 -21.75968903 270.42031243 -21.75 273.1875 C-21.76611328 274.10789062 -21.78222656 275.02828125 -21.79882812 275.9765625 C-21.81104676 293.32702212 -12.624082 305.76031795 -0.93212891 317.65771484 C0.4686167 319.0914084 1.83904179 320.55454992 3.20703125 322.01953125 C11.06993445 330.27867525 19.34255961 336.47553666 31.03515625 337.48828125 C57.65853993 337.5751911 83.46092406 326.32708876 103.5625 309.1875 C104.29984375 308.59582031 105.0371875 308.00414062 105.796875 307.39453125 C119.90982209 295.65876497 131.71709356 277.92394126 136.5625 260.1875 C136.74151855 259.58244629 136.92053711 258.97739258 137.10498047 258.35400391 C140.55754339 246.28897178 140.96246307 234.27078477 141 221.8125 C141.00912415 220.66226852 141.00912415 220.66226852 141.01843262 219.48880005 C141.16499891 191.2237936 130.61959152 167.74465776 111.5625 147.1875 C111.05702637 146.63819824 110.55155273 146.08889648 110.03076172 145.52294922 C97.96682597 132.5561932 84.69645043 123.42823216 68.5625 116.1875 C67.6653125 115.77757812 66.768125 115.36765625 65.84375 114.9453125 C63.11130969 113.82985427 60.40641065 112.98082003 57.5625 112.1875 C56.93037598 112.00703125 56.29825195 111.8265625 55.64697266 111.640625 C17.7604764 101.3450979 -21.06876253 108.87001931 -54.82421875 127.48046875 C-62.41741819 131.83065581 -69.46045522 136.92198483 -76.4375 142.1875 C-77.36175781 142.86683594 -78.28601563 143.54617188 -79.23828125 144.24609375 C-93.85956289 155.54745763 -107.67611856 169.45878349 -117.4375 185.1875 C-117.89592285 185.92234619 -118.3543457 186.65719238 -118.82666016 187.41430664 C-127.5167578 201.57662058 -135.2753453 216.78043446 -138.4375 233.1875 C-138.5986026 233.93185806 -138.7597052 234.67621613 -138.9256897 235.44313049 C-140.48328953 243.09091404 -140.78421394 250.53577927 -140.89453125 258.32421875 C-140.93992103 260.34039753 -140.98533956 262.35657613 -141.03242779 264.37271595 C-141.14537877 269.29025558 -141.24147996 274.20794449 -141.31567383 279.1262207 C-141.3583754 281.90448736 -141.41394115 284.68194286 -141.48332214 287.45967102 C-141.54766729 290.06032303 -141.59327003 292.66152704 -141.61738586 295.26286316 C-141.84825667 303.50227297 -143.21474151 308.64667728 -148.84382629 314.69975281 C-154.55446392 319.99851683 -161.25607771 320.68271853 -168.7265625 320.48828125 C-173.99263448 319.90400525 -177.60491653 318.23249656 -181.15625 314.26953125 C-188.62319052 303.92928273 -189.00632401 292.62676823 -189.34570312 280.26367188 C-189.94603328 268.35824803 -194.88803561 259.4143431 -203.4375 251.1875 C-206.15175601 249.06905629 -207.83992342 248.30973157 -211.1875 247.625 C-218.10477707 248.82222103 -223.05509604 253.23232446 -227.25 258.6875 C-237.14485104 274.01077626 -239.44708309 299.66950222 -235.6328125 317.50390625 C-232.07581337 331.40540701 -225.54107734 344.64994319 -219.43359375 357.56640625 C-200.24486139 398.18190466 -200.24486139 398.18190466 -203.4375 411.1875 C-205.67219335 414.54662679 -206.70566386 415.93867571 -210.5625 417.25 C-219.56902898 417.1047334 -227.0915801 412.31870833 -233.4375 406.1875 C-247.48424022 390.21399452 -255.51635705 366.91187917 -264.39682007 347.83695984 C-265.80739199 344.80858423 -267.22184275 341.7820251 -268.63616943 338.75540161 C-269.65938013 336.56032507 -270.67580489 334.36219806 -271.69189453 332.16381836 C-278.80092119 315.10206315 -278.80092119 315.10206315 -291.8125 302.9375 C-296.02140944 301.73495445 -299.33212146 301.35412099 -303.5 303.00390625 C-312.04033952 307.86884965 -317.36220943 316.87332598 -322.57958984 324.95703125 C-325.25210674 329.09480337 -325.25210674 329.09480337 -327.4375 330.1875 C-332.55906215 330.6979825 -337.01839089 330.83011544 -341.75 328.6875 C-350.6705056 320.38935526 -354.3008124 311.28561929 -354.75 299.1875 C-355.10291337 278.91722384 -354.84897332 257.60445302 -348.4375 238.1875 C-348.00244141 236.86685547 -348.00244141 236.86685547 -347.55859375 235.51953125 C-344.1218538 227.25787797 -337.14973141 221.12531997 -331.00976562 214.81591797 C-328.01994389 211.71931688 -325.23420468 208.45722027 -322.4375 205.1875 C-321.45748089 204.06080666 -320.47696191 202.93454802 -319.49609375 201.80859375 C-318.41382025 200.56010579 -317.33179095 199.3114061 -316.25 198.0625 C-315.48212158 197.18259399 -315.48212158 197.18259399 -314.69873047 196.28491211 C-314.20646973 195.71393799 -313.71420898 195.14296387 -313.20703125 194.5546875 C-312.76979736 194.05050293 -312.33256348 193.54631836 -311.88208008 193.02685547 C-308.05266961 188.15094226 -305.84284108 184.00017695 -304.39453125 177.9453125 C-304.04550277 176.54251922 -303.69528016 175.14002262 -303.34399414 173.73779297 C-303.16611359 173.01412537 -302.98823303 172.29045776 -302.80496216 171.54486084 C-299.80526598 159.47844483 -296.7704381 148.24564167 -289.61865234 137.90136719 C-288.32781848 136.0283507 -287.1102838 134.11783359 -285.89453125 132.1953125 C-281.55767119 125.41046301 -277.05145241 118.98941956 -271.4375 113.1875 C-270.4784375 112.15302734 -270.4784375 112.15302734 -269.5 111.09765625 C-263.06599053 104.3679662 -255.86162132 98.76504277 -248.4375 93.1875 C-247.86338379 92.75260254 -247.28926758 92.31770508 -246.69775391 91.86962891 C-240.13022951 86.92288174 -233.40915187 82.42474193 -226.25 78.375 C-225.63334473 78.02614746 -225.01668945 77.67729492 -224.38134766 77.31787109 C-215.18874304 72.25747846 -206.25706946 68.62315966 -196 66.375 C-175.57501501 61.54606446 -155.69347238 54.2744987 -141.0703125 38.734375 C-131.6063867 29.57936072 -119.63168476 23.78748993 -107.4375 19.1875 C-106.68855469 18.90310059 -105.93960938 18.61870117 -105.16796875 18.32568359 C-71.78303198 5.9032206 -35.56140479 -0.05763439 0 0 Z " fill="#008FD6" transform="translate(564.4375,327.8125)"/>
<path d="M0 0 C0.74949921 0.00093658 1.49899841 0.00187317 2.27120972 0.00283813 C30.69735112 0.07957258 57.3734819 4.867832 84.5625 13.1875 C81.0455983 14.3653921 78.39865159 14.02151753 74.76953125 13.41015625 C60.60411703 11.18601199 46.8526306 9.78989546 32.5 9.875 C31.78486237 9.87791046 31.06972473 9.88082092 30.33291626 9.88381958 C21.39121037 9.90585708 21.39121037 9.90585708 12.5625 11.1875 C10.58455164 11.3126866 8.60505382 11.41433636 6.625 11.5 C-25.76686123 13.75832956 -59.0163418 24.69312216 -87.4375 40.1875 C-88.09121582 40.53780273 -88.74493164 40.88810547 -89.41845703 41.24902344 C-104.3507622 49.27202882 -118.22230511 58.58312198 -131.4375 69.1875 C-132.42621094 69.96996094 -133.41492188 70.75242187 -134.43359375 71.55859375 C-148.68454698 83.19535938 -162.38529416 96.45122555 -173.4375 111.1875 C-174.35957937 112.37064798 -175.28284896 113.55286892 -176.20703125 114.734375 C-200.81812539 146.4995313 -218.54609668 182.97709007 -227.4375 222.1875 C-227.66663086 223.16090332 -227.89576172 224.13430664 -228.13183594 225.13720703 C-232.29257244 242.81600906 -234.52919629 259.75748137 -235.09667969 277.90405273 C-235.2631305 283.08333279 -235.68316865 288.05567096 -236.4375 293.1875 C-238.25239735 317.1902725 -229.51523054 336.24517185 -219.43359375 357.56640625 C-200.24486139 398.18190466 -200.24486139 398.18190466 -203.4375 411.1875 C-205.67219335 414.54662679 -206.70566386 415.93867571 -210.5625 417.25 C-219.56902898 417.1047334 -227.0915801 412.31870833 -233.4375 406.1875 C-247.48424022 390.21399452 -255.51635705 366.91187917 -264.39682007 347.83695984 C-265.80739199 344.80858423 -267.22184275 341.7820251 -268.63616943 338.75540161 C-269.65938013 336.56032507 -270.67580489 334.36219806 -271.69189453 332.16381836 C-278.80092119 315.10206315 -278.80092119 315.10206315 -291.8125 302.9375 C-296.02140944 301.73495445 -299.33212146 301.35412099 -303.5 303.00390625 C-312.04033952 307.86884965 -317.36220943 316.87332598 -322.57958984 324.95703125 C-325.25210674 329.09480337 -325.25210674 329.09480337 -327.4375 330.1875 C-332.55906215 330.6979825 -337.01839089 330.83011544 -341.75 328.6875 C-350.6705056 320.38935526 -354.3008124 311.28561929 -354.75 299.1875 C-355.10291337 278.91722384 -354.84897332 257.60445302 -348.4375 238.1875 C-348.00244141 236.86685547 -348.00244141 236.86685547 -347.55859375 235.51953125 C-344.1218538 227.25787797 -337.14973141 221.12531997 -331.00976562 214.81591797 C-328.01994389 211.71931688 -325.23420468 208.45722027 -322.4375 205.1875 C-321.45748089 204.06080666 -320.47696191 202.93454802 -319.49609375 201.80859375 C-318.41382025 200.56010579 -317.33179095 199.3114061 -316.25 198.0625 C-315.48212158 197.18259399 -315.48212158 197.18259399 -314.69873047 196.28491211 C-314.20646973 195.71393799 -313.71420898 195.14296387 -313.20703125 194.5546875 C-312.76979736 194.05050293 -312.33256348 193.54631836 -311.88208008 193.02685547 C-308.05266961 188.15094226 -305.84284108 184.00017695 -304.39453125 177.9453125 C-304.04550277 176.54251922 -303.69528016 175.14002262 -303.34399414 173.73779297 C-303.16611359 173.01412537 -302.98823303 172.29045776 -302.80496216 171.54486084 C-299.80526598 159.47844483 -296.7704381 148.24564167 -289.61865234 137.90136719 C-288.32781848 136.0283507 -287.1102838 134.11783359 -285.89453125 132.1953125 C-281.55767119 125.41046301 -277.05145241 118.98941956 -271.4375 113.1875 C-270.4784375 112.15302734 -270.4784375 112.15302734 -269.5 111.09765625 C-263.06599053 104.3679662 -255.86162132 98.76504277 -248.4375 93.1875 C-247.86338379 92.75260254 -247.28926758 92.31770508 -246.69775391 91.86962891 C-240.13022951 86.92288174 -233.40915187 82.42474193 -226.25 78.375 C-225.63334473 78.02614746 -225.01668945 77.67729492 -224.38134766 77.31787109 C-215.18874304 72.25747846 -206.25706946 68.62315966 -196 66.375 C-175.57501501 61.54606446 -155.69347238 54.2744987 -141.0703125 38.734375 C-131.6063867 29.57936072 -119.63168476 23.78748993 -107.4375 19.1875 C-106.68855469 18.90310059 -105.93960938 18.61870117 -105.16796875 18.32568359 C-71.78303198 5.9032206 -35.56140479 -0.05763439 0 0 Z " fill="#00FEFE" transform="translate(564.4375,327.8125)"/>
<path d="M0 0 C1.57528708 -0.01146544 3.150537 -0.0318303 4.72558594 -0.06152344 C16.05894064 -0.27410549 25.97653688 0.97183405 36.8190918 4.29516602 C37.63563232 4.54145752 38.45217285 4.78774902 39.29345703 5.04150391 C60.8450746 11.97513483 79.84560635 24.41445448 95.8190918 40.29516602 C96.28943848 40.76148438 96.75978516 41.22780273 97.24438477 41.70825195 C125.41747315 70.04666395 138.25758888 109.26506623 138.18701172 148.61791992 C137.66082858 189.37092837 120.693097 227.85945933 92.8190918 257.29516602 C92.04952148 258.11758789 91.27995117 258.94000977 90.48706055 259.78735352 C63.15766792 288.13221631 23.69301871 303.79654 -15.44091797 304.66650391 C-19.36406129 304.67213252 -23.26565403 304.53688241 -27.1809082 304.29516602 C-28.34106445 304.22426758 -29.5012207 304.15336914 -30.6965332 304.08032227 C-42.99358632 302.67719697 -51.55725581 294.54710926 -60.1809082 286.29516602 C-60.78418945 285.75504883 -61.3874707 285.21493164 -62.0090332 284.65844727 C-75.29656917 272.33332629 -84.89437437 254.34524652 -90.1809082 237.29516602 C-90.62563477 235.89331055 -90.62563477 235.89331055 -91.0793457 234.46313477 C-95.25423924 220.34703436 -95.73717884 205.78468283 -96.14355469 191.1706543 C-96.21047033 188.99237845 -96.29332019 186.81453733 -96.39160156 184.63745117 C-96.53491091 181.4531699 -96.63067926 178.27052788 -96.71606445 175.08422852 C-96.76779312 174.11949615 -96.81952179 173.15476379 -96.87281799 172.16079712 C-96.95522458 166.80969778 -96.35084142 163.87208927 -92.79589844 159.76147461 C-91.61708172 158.57934048 -90.41456599 157.41994974 -89.1809082 156.29516602 C-88.3971582 155.55266602 -87.6134082 154.81016602 -86.8059082 154.04516602 C-81.9185455 150.78692421 -76.53108825 148.74599369 -70.9934082 146.85766602 C-64.57931421 144.44606768 -61.0541274 140.21843588 -56.8684082 134.98266602 C-46.50255153 122.11589551 -30.94249317 110.26110673 -14.1184082 107.85766602 C-10.08621273 108.45820577 -8.84588816 110.28852196 -6.1809082 113.29516602 C-4.53226275 114.65071894 -2.87086825 115.99148255 -1.1809082 117.29516602 C-0.6878418 116.31676758 -0.6878418 116.31676758 -0.18481445 115.31860352 C3.2949664 108.92485983 6.98254563 104.22001881 13.8190918 101.29516602 C16.4206543 100.99047852 16.4206543 100.99047852 18.8190918 101.29516602 C22.41497038 104.49150253 23.6109333 106.10866256 24.4440918 110.85766602 C23.69356217 121.16757297 18.53898026 130.58822514 10.8190918 137.29516602 C7.08862776 139.54208644 4.17091296 139.69078612 -0.1809082 139.29516602 C-3.86672221 137.13451643 -4.11179109 133.19721792 -5.1809082 129.29516602 C-15.71608719 132.45919667 -25.29226862 135.57111742 -34.1809082 142.29516602 C-35.02782227 142.91649414 -35.87473633 143.53782227 -36.74731445 144.17797852 C-46.22849799 152.426456 -50.45091608 165.8138064 -51.38964844 178.00634766 C-51.48301938 180.77205938 -51.50309724 183.52797844 -51.4934082 186.29516602 C-51.50952148 187.21555664 -51.52563477 188.13594727 -51.54223633 189.08422852 C-51.55445496 206.43468814 -42.36749021 218.86798397 -30.67553711 230.76538086 C-29.27479151 232.19907442 -27.90436641 233.66221594 -26.53637695 235.12719727 C-18.67347375 243.38634126 -10.40084859 249.58320267 1.29174805 250.59594727 C27.91513173 250.68285711 53.71751586 239.43475477 73.8190918 222.29516602 C74.55643555 221.70348633 75.2937793 221.11180664 76.0534668 220.50219727 C90.16641388 208.76643098 101.97368535 191.03160727 106.8190918 173.29516602 C106.99811035 172.6901123 107.17712891 172.08505859 107.36157227 171.46166992 C110.81413519 159.39663779 111.21905487 147.37845078 111.2565918 134.92016602 C111.26571594 133.76993454 111.26571594 133.76993454 111.27502441 132.59646606 C111.4215907 104.33145961 100.87618332 80.85232378 81.8190918 60.29516602 C81.31361816 59.74586426 80.80814453 59.1965625 80.28735352 58.63061523 C68.22341776 45.66385922 54.95304223 36.53589818 38.8190918 29.29516602 C37.9219043 28.88524414 37.0247168 28.47532227 36.1003418 28.05297852 C33.36790148 26.93752029 30.66300245 26.08848605 27.8190918 25.29516602 C27.18696777 25.11469727 26.55484375 24.93422852 25.90356445 24.74829102 C-11.98293181 14.45276392 -50.81217073 21.97768533 -84.56762695 40.58813477 C-92.1608264 44.93832183 -99.20386342 50.02965085 -106.1809082 55.29516602 C-107.10516602 55.97450195 -108.02942383 56.65383789 -108.98168945 57.35375977 C-122.94107789 68.14352035 -136.45784138 81.53050899 -146.1809082 96.29516602 C-147.1809082 93.29516602 -147.1809082 93.29516602 -146.44335938 91.24902344 C-146.04093018 90.47405518 -145.63850098 89.69908691 -145.22387695 88.90063477 C-144.7757666 88.03422363 -144.32765625 87.1678125 -143.8659668 86.27514648 C-143.37177246 85.35362793 -142.87757813 84.43210937 -142.3684082 83.48266602 C-141.86647949 82.53794434 -141.36455078 81.59322266 -140.84741211 80.61987305 C-136.54385012 72.67431518 -131.7355254 65.40833811 -126.1809082 58.29516602 C-125.44227539 57.33481445 -124.70364258 56.37446289 -123.94262695 55.38500977 C-114.38918078 43.32017809 -104.24812489 34.2268661 -91.1809082 26.29516602 C-90.54523926 25.90586914 -89.90957031 25.51657227 -89.25463867 25.11547852 C-73.55982209 15.60685266 -57.17218805 8.97279286 -39.31567383 4.79467773 C-37.34492648 4.33354449 -35.37978602 3.84862224 -33.4152832 3.36157227 C-22.25466048 0.6492814 -11.435342 0.05761766 0 0 Z " fill="#2D404F" transform="translate(594.180908203125,414.704833984375)"/>
<path d="M0 0 C3.59587858 3.19633652 4.7918415 4.81349654 5.625 9.5625 C4.87447037 19.87240696 -0.28011153 29.29305913 -8 36 C-11.73046404 38.24692042 -14.64817884 38.39562011 -19 38 C-21.12603186 36.41795282 -21.88823874 35.41404171 -22.58203125 32.84375 C-22.65808594 32.0703125 -22.73414063 31.296875 -22.8125 30.5 C-22.90144531 29.7265625 -22.99039063 28.953125 -23.08203125 28.15625 C-23 26 -23 26 -21 23 C-21.01933594 22.0615625 -21.03867187 21.123125 -21.05859375 20.15625 C-20.95270675 14.4524705 -17.49637069 10.31453421 -14 6 C-9.73014106 2.19567934 -5.92118208 -0.74135125 0 0 Z " fill="#0591D7" transform="translate(613,516)"/>
<path d="M0 0 C4.66625028 0.89735582 7.20705645 3.0368317 10.25 6.625 C13.75018188 12.19860341 14.91273852 17.10807117 14.25 23.625 C13.6875 26.0625 13.6875 26.0625 12.25 27.625 C9 28.6875 9 28.6875 5.25 28.625 C-0.62802479 25.21574562 -3.54804642 19.96737913 -5.75 13.625 C-6.45029177 9.38361021 -6.35939724 6.01307149 -4.625 2.0625 C-2.75 0.625 -2.75 0.625 0 0 Z " fill="#0993D8" transform="translate(402.75,657.375)"/>
<path d="M0 0 C4.9517709 0.77674838 7.59964847 3.33385687 10.453125 7.2265625 C13.60181889 12.61482036 14.2445138 18.36741543 13.1875 24.5 C11.66015625 26.828125 11.66015625 26.828125 10.1875 28.5 C6.83834281 28.43301686 4.18725973 28.29243628 1.4921875 26.15625 C-4.09525132 19.97918196 -6.12347584 13.7164422 -6.2109375 5.48046875 C-5.46591742 1.77728068 -3.58427531 0.6372045 0 0 Z " fill="#0691D7" transform="translate(360.8125,752.5)"/>
<path d="M0 0 C5.55150704 1.53145022 7.60113196 4.61639454 10.9375 9.125 C13.42192407 13.72017461 13.48762978 18.92525005 12.625 24 C11.09765625 26.33203125 11.09765625 26.33203125 9.625 28 C5.8005179 28 3.65005125 27.85899295 0.671875 25.36328125 C-5.10880298 18.98753347 -6.56897262 13.74798628 -6.73828125 5.26953125 C-6.375 3 -6.375 3 -5.06640625 1.19921875 C-3.375 0 -3.375 0 0 0 Z " fill="#0491D7" transform="translate(267.375,655)"/>
<path d="M0 0 C5.20064084 1.85737173 8.18741961 5.06233922 10.625 9.9375 C12.06056804 13.72217938 12.07473081 17.94716117 11.625 21.9375 C10.4375 24.4375 10.4375 24.4375 8.625 25.9375 C6.2421875 26.265625 6.2421875 26.265625 3.625 25.9375 C1.67578125 24.328125 1.67578125 24.328125 -0.0625 22.1875 C-0.93455078 21.14335938 -0.93455078 21.14335938 -1.82421875 20.078125 C-4.71932324 16.08185987 -5.66718279 13.35271698 -5.6875 8.375 C-5.70425781 7.42496094 -5.72101563 6.47492187 -5.73828125 5.49609375 C-5.375 2.9375 -5.375 2.9375 -4.00390625 1.09375 C-2.375 -0.0625 -2.375 -0.0625 0 0 Z " fill="#0491D7" transform="translate(349.375,600.0625)"/>
<path d="M0 0 C0.33 0.99 0.66 1.98 1 3 C-0.65 4.65 -2.3 6.3 -4 8 C-3.50168276 4.31245243 -2.89932357 2.39509338 0 0 Z " fill="#2D4D62" transform="translate(451,503)"/>
</svg>
