<?xml version="1.0" encoding="UTF-8"?>
<svg version="1.1" xmlns="http://www.w3.org/2000/svg" width="1080" height="1080">
<path d="M0 0 C1.143479 0.47131348 1.143479 0.47131348 2.31005859 0.95214844 C16.32220683 6.82705886 29.10773359 15.03541845 42 23 C43.05832031 23.6501709 44.11664062 24.3003418 45.20703125 24.97021484 C56.94567063 32.18745167 68.54663364 39.53717079 79.81494141 47.47021484 C82.32901822 49.23034952 84.85724736 50.96909512 87.38671875 52.70703125 C99.32385012 60.92632007 111.01080877 69.40891803 122.56054688 78.16210938 C126.68191229 81.2671573 130.84095579 84.32070836 135 87.375 C140.12488221 91.14007112 145.23720563 94.9183208 150.3125 98.75 C151.2509375 99.44996094 152.189375 100.14992188 153.15625 100.87109375 C155.12718921 102.34659082 157.08472246 103.84010077 159.03125 105.34765625 C199.46313125 136.06729652 246.83667021 139.823416 295.75683594 140.55224609 C299.1764935 140.60446558 302.59604881 140.66148242 306.015625 140.71875 C307.55358734 140.73911316 307.55358734 140.73911316 309.12261963 140.7598877 C329.09769641 141.09769641 329.09769641 141.09769641 332 144 C331.34 144 330.68 144 330 144 C329.67 144.99 329.34 145.98 329 147 C327.96552734 146.9690625 327.96552734 146.9690625 326.91015625 146.9375 C325.50056641 146.9684375 325.50056641 146.9684375 324.0625 147 C323.14597656 147 322.22945312 147 321.28515625 147 C316.94658711 148.32065838 314.67120241 150.81573806 311.40307617 153.88330078 C307.65197694 157.18737783 303.48775235 159.53271002 299.125 161.9375 C297.75698242 162.70054443 297.75698242 162.70054443 296.36132812 163.47900391 C259.29351613 183.91760543 219.58839193 192.39172272 178 181 C153.65541985 173.75702112 129.86704149 160.73336649 108 148 C107.13342773 147.49597656 106.26685547 146.99195313 105.37402344 146.47265625 C82.57392322 133.10792535 60.96178549 117.88806501 39.37548828 102.66943359 C36.92126666 100.94466818 34.45975079 99.23078829 31.99609375 97.51953125 C22.92363948 91.21145669 13.95763539 84.79092578 5.09375 78.19287109 C-1.31986363 73.4427885 -7.88649792 68.94582016 -14.49926758 64.47900391 C-19.35610178 61.18011809 -23.95822796 57.70761919 -28.484375 53.96484375 C-34.06074326 49.60938842 -40.05629602 45.82997531 -46 42 C-46.88816406 41.41992188 -47.77632812 40.83984375 -48.69140625 40.2421875 C-58.11338973 34.31270202 -68.44802366 30.40978938 -79 27 C-78.2265625 27.969375 -77.453125 28.93875 -76.65625 29.9375 C-69.44390958 39.15249479 -63.76362988 48.31931897 -59 59 C-58.58105469 59.92554688 -58.16210938 60.85109375 -57.73046875 61.8046875 C-48.41580397 83.64356448 -48.21983493 109.59682911 -56.3125 131.8125 C-60.53892706 142.00120809 -65.73348182 150.68927744 -73 159 C-73.53109375 159.61488281 -74.0621875 160.22976563 -74.609375 160.86328125 C-82.87723678 169.76555816 -94.00139733 176.1217082 -105 181 C-105.83402344 181.37898437 -106.66804687 181.75796875 -107.52734375 182.1484375 C-130.76084197 191.67094987 -158.13559844 189.4341231 -182 184 C-183.2271875 183.74605469 -184.454375 183.49210938 -185.71875 183.23046875 C-211.08818591 177.32451062 -236.24076194 165.21497669 -258 151 C-257.34 150.67 -256.68 150.34 -256 150 C-253.25359338 151.34694408 -250.60577094 152.76042337 -247.9375 154.25 C-231.70319287 163.04332034 -214.72922445 170.76466431 -197 176 C-195.88367188 176.35449219 -194.76734375 176.70898438 -193.6171875 177.07421875 C-161.6053881 186.88193406 -127.23426197 187.66269461 -97.0625 172.125 C-96.28165039 171.72667969 -95.50080078 171.32835937 -94.69628906 170.91796875 C-76.80338669 161.3485908 -64.91973488 143.24406759 -58.8828125 124.25390625 C-54.27158356 107.2576509 -55.13405962 89.99651319 -59 73 C-59.22042969 72.02289062 -59.44085938 71.04578125 -59.66796875 70.0390625 C-63.86248653 55.17726854 -72.78623294 39.61796919 -84 29 C-84.60714844 28.32582031 -85.21429688 27.65164063 -85.83984375 26.95703125 C-92.72548403 19.43086629 -101.8499076 13.49875865 -111.3125 9.75 C-114.85010206 8.30729078 -114.85010206 8.30729078 -116.25 5.4375 C-115.94017679 2.41672375 -115.26350332 1.94086587 -113 0 C-111.59083154 -0.88039477 -110.15023043 -1.71179293 -108.6875 -2.5 C-107.94886719 -2.9021875 -107.21023438 -3.304375 -106.44921875 -3.71875 C-105.64097656 -4.1415625 -104.83273437 -4.564375 -104 -5 C-103.06542969 -5.50273437 -102.13085938 -6.00546875 -101.16796875 -6.5234375 C-97.69664328 -8.14139191 -94.32859099 -9.1551937 -90.625 -10.125 C-89.37976563 -10.45757812 -88.13453125 -10.79015625 -86.8515625 -11.1328125 C-57.07980987 -17.83598601 -27.54399255 -11.49360481 0 0 Z M-93 -5 C-93.63760254 -4.75378906 -94.27520508 -4.50757813 -94.93212891 -4.25390625 C-102.56615078 -1.91824561 -102.56615078 -1.91824561 -108 3 C-106.71706055 2.97643433 -106.71706055 2.97643433 -105.40820312 2.95239258 C-74.36924342 2.45722339 -74.36924342 2.45722339 -61 6 C-60.14905762 6.19916016 -59.29811523 6.39832031 -58.42138672 6.60351562 C-50.26503909 8.53731347 -42.40923369 11.11133282 -34.5 13.875 C-33.27152344 14.29652344 -32.04304688 14.71804688 -30.77734375 15.15234375 C-19.26388432 19.1448159 -8.30294737 23.55956858 2.3125 29.5625 C3.15361328 30.03107422 3.99472656 30.49964844 4.86132812 30.98242188 C6.49925364 31.8966426 8.13477699 32.81518365 9.76757812 33.73852539 C11.14764344 34.51835889 12.53111694 35.29223589 13.91992188 36.05639648 C18.14611567 38.40278022 21.99618616 41.07348894 25.875 43.9375 C31.8839049 48.30273855 37.89592287 52.63197429 45 55 C45 55.66 45 56.32 45 57 C46.65267561 58.24380394 46.65267561 58.24380394 48.8125 59.5 C52.74586898 62.01933209 56.09116042 64.80751836 59.5 68 C63.39094625 71.63118906 67.25442192 74.6065081 71.7421875 77.4375 C76.19041092 80.51585531 80.03202618 84.33830203 84 88 C94.38128719 97.91387089 94.38128719 97.91387089 107 103 C107 103.66 107 104.32 107 105 C109.2311892 106.63673206 109.2311892 106.63673206 112.1171875 108.30078125 C113.2 108.94853516 114.2828125 109.59628906 115.3984375 110.26367188 C116.25646973 110.76918579 116.25646973 110.76918579 117.13183594 111.28491211 C118.83756318 112.29043115 120.53606588 113.30817379 122.234375 114.32617188 C128.70051919 118.17162586 135.22523331 121.7328261 142 125 C143.30060789 125.64747722 144.60017678 126.29704797 145.8984375 126.94921875 C147.04570313 127.52285156 148.19296875 128.09648438 149.375 128.6875 C156 132 156 132 158.2265625 133.20703125 C160.13267395 134.20409484 160.13267395 134.20409484 163 134 C163 134.66 163 135.32 163 136 C168.60384125 138.85884452 174.24830893 141.62735489 179.9375 144.3125 C181.01902344 144.82425781 182.10054687 145.33601562 183.21484375 145.86328125 C185.96156297 147.18893714 185.96156297 147.18893714 189 147 C189 147.99 189 148.98 189 150 C182.94844638 148.4498075 177.35329637 146.16294236 171.625 143.6875 C170.73039062 143.30916016 169.83578125 142.93082031 168.9140625 142.54101562 C163.77030583 140.33174223 158.86250807 137.90615111 154.00097656 135.1315918 C151.40653858 133.66438584 148.74496154 132.36046526 146.0625 131.0625 C141.56844049 128.83236521 137.2677318 126.44172956 133 123.80859375 C130.60156368 122.36266144 128.19059573 120.96969272 125.75 119.59765625 C117.44331546 114.91130602 109.35793417 110.06665976 101.5625 104.5625 C100.85923584 104.06669434 100.15597168 103.57088867 99.43139648 103.06005859 C96.68830659 101.08729538 94.20016206 99.20595337 91.83984375 96.77734375 C90.081837 94.85271616 90.081837 94.85271616 87.55859375 94.03515625 C84.33085726 92.72927813 82.53920011 90.87603832 80.0625 88.4375 C75.78532342 84.43382995 71.44183264 81.08054927 66.5 77.9375 C65.9006665 77.55585693 65.30133301 77.17421387 64.68383789 76.78100586 C62.14155552 75.20062905 59.85110699 73.950369 57 73 C56.67 72.01 56.34 71.02 56 70 C51.64917667 65.12180415 46.43155194 61.03079366 40.80859375 57.703125 C36.77862172 55.25935893 32.9388884 52.55372975 29.0625 49.875 C16.63551578 41.35387626 4.42992803 33.32786418 -9.20458984 26.85498047 C-10.77511878 26.10708921 -12.33573034 25.33844395 -13.89453125 24.56640625 C-21.65361555 20.83227423 -29.76368971 18.41633078 -38 16 C-39.25176025 15.62609131 -39.25176025 15.62609131 -40.52880859 15.24462891 C-59.04640249 9.71847184 -76.70730184 5.77692107 -96.125 5.9375 C-97.176875 5.94201172 -98.22875 5.94652344 -99.3125 5.95117188 C-101.87506221 5.96281989 -104.43749877 5.97917447 -107 6 C-103.71599163 8.71698534 -100.39859772 11.05230664 -96.75 13.25 C-92.94451617 15.60312498 -89.88088505 18.00324759 -86.75 21.1875 C-82.02716488 25.56639864 -77.21577698 26.54377495 -71.04296875 27.94921875 C-52.76940998 32.33860851 -36.98880962 43.86011806 -22.16015625 54.84375 C-20.87792828 55.79210504 -19.59537753 56.74002382 -18.3125 57.6875 C-17.36793945 58.38552734 -17.36793945 58.38552734 -16.40429688 59.09765625 C-11.9125595 62.39253571 -7.29838421 65.41434126 -2.56640625 68.35546875 C-0.02778956 69.98219269 2.38925797 71.70657048 4.8125 73.5 C10.35382644 77.59438037 16.04490451 81.45049286 21.75 85.3125 C28.91470596 90.16694156 35.98297843 95.11010079 42.92504883 100.27734375 C47.54799779 103.70683495 52.28902909 106.92084126 57.12109375 110.05078125 C59.4141318 111.60332668 61.60768686 113.20279771 63.80859375 114.87890625 C67.94983265 118.01089865 72.24692622 120.83752137 76.625 123.625 C78.07576081 124.55431297 79.52628601 125.48399388 80.9765625 126.4140625 C81.66145752 126.85234375 82.34635254 127.290625 83.05200195 127.7421875 C84.82424073 128.88651313 86.58105696 130.05005484 88.33203125 131.2265625 C90.7858791 132.85767073 93.29185156 134.3180142 95.86083984 135.75805664 C98.54437904 137.31605298 101.16023908 138.97243586 103.7890625 140.62109375 C111.12901642 145.17040241 118.67945461 149.27957268 126.3125 153.3125 C127.00532074 153.67928864 127.69814148 154.04607727 128.41195679 154.42398071 C169.93011337 176.35544335 210.40071432 190.27102622 257.21875 176.53515625 C277.11161765 170.32272493 296.03762285 161.1208204 313 149 C309.36853725 147.78951242 308.40497007 148.32768758 304.87890625 149.6171875 C303.85990234 149.97683594 302.84089844 150.33648438 301.79101562 150.70703125 C299.6722543 151.47352809 297.55500681 152.24422515 295.43945312 153.01953125 C288.24545232 155.54800433 281.62223907 156.74260134 274 157 C276.6609046 155.56369731 278.99749163 154.68275468 281.96484375 154.1328125 C287.99157209 152.87039882 293.74202144 150.86076906 299.5625 148.875 C300.66658203 148.50246094 301.77066406 148.12992188 302.90820312 147.74609375 C305.60689373 146.83484757 308.30408033 145.91940476 311 145 C311 144.67 311 144.34 311 144 C310.38264481 143.99191315 309.76528961 143.98382629 309.12922668 143.97549438 C302.58914697 143.88812082 296.04932555 143.78859528 289.50952148 143.68261719 C287.08248297 143.64479238 284.65539717 143.60986726 282.22827148 143.578125 C235.53704671 142.96033745 193.0399478 135.94133433 155 107 C152.831014 105.3984998 150.6561246 103.80518507 148.48144531 102.21142578 C140.92758811 96.67182885 133.42138248 91.07113981 125.9375 85.4375 C26.6221821 5.47893922 26.6221821 5.47893922 -93 -5 Z " fill="#ECAD54" transform="translate(487,500)"/>
<path d="M0 0 C0.76231934 0.31420898 1.52463867 0.62841797 2.31005859 0.95214844 C16.32220683 6.82705886 29.10773359 15.03541845 42 23 C43.58748047 23.97525635 43.58748047 23.97525635 45.20703125 24.97021484 C56.94567063 32.18745167 68.54663364 39.53717079 79.81494141 47.47021484 C82.32901822 49.23034952 84.85724736 50.96909512 87.38671875 52.70703125 C99.32385012 60.92632007 111.01080877 69.40891803 122.56054688 78.16210938 C126.68191229 81.2671573 130.84095579 84.32070836 135 87.375 C140.12488221 91.14007112 145.23720563 94.9183208 150.3125 98.75 C151.2509375 99.44996094 152.189375 100.14992188 153.15625 100.87109375 C155.12718921 102.34659082 157.08472246 103.84010077 159.03125 105.34765625 C199.46313125 136.06729652 246.83667021 139.823416 295.75683594 140.55224609 C299.1764935 140.60446558 302.59604881 140.66148242 306.015625 140.71875 C307.55358734 140.73911316 307.55358734 140.73911316 309.12261963 140.7598877 C329.09769641 141.09769641 329.09769641 141.09769641 332 144 C322.71430039 144.04683981 313.42864293 144.08212642 304.14284992 144.10362434 C299.82866992 144.11395477 295.51457215 144.12791103 291.20043945 144.15087891 C254.12440196 144.34298736 254.12440196 144.34298736 237 142 C236.20650146 141.89500687 235.41300293 141.79001373 234.59545898 141.68183899 C205.58305044 137.79653551 178.2363248 125.67852701 155 108 C152.831014 106.3984998 150.6561246 104.80518507 148.48144531 103.21142578 C140.92758811 97.67182885 133.42138248 92.07113981 125.9375 86.4375 C32.38579705 13.18938781 32.38579705 13.18938781 -80.6796875 -7.69970703 C-88.76200207 -6.28853778 -96.36349303 -2.77582344 -103.78125 0.6328125 C-107.16849645 2.07157009 -110.44787068 3.05814753 -114 4 C-114.33 5.32 -114.66 6.64 -115 8 C-115.6875 5.6875 -115.6875 5.6875 -116 3 C-113.95787961 0.45064325 -111.53715849 -0.96443273 -108.6875 -2.5 C-107.57955078 -3.10328125 -107.57955078 -3.10328125 -106.44921875 -3.71875 C-105.23685547 -4.35296875 -105.23685547 -4.35296875 -104 -5 C-103.06542969 -5.50273437 -102.13085938 -6.00546875 -101.16796875 -6.5234375 C-97.69664328 -8.14139191 -94.32859099 -9.1551937 -90.625 -10.125 C-89.37976563 -10.45757812 -88.13453125 -10.79015625 -86.8515625 -11.1328125 C-57.07980987 -17.83598601 -27.54399255 -11.49360481 0 0 Z " fill="#ECAD53" transform="translate(487,500)"/>
<path d="M0 0 C1.32 0 2.64 0 4 0 C3.67 6.6 3.34 13.2 3 20 C4.629375 20.268125 6.25875 20.53625 7.9375 20.8125 C15.76643072 22.25149369 22.64444113 24.07444188 29 29 C29.495 29.99 29.495 29.99 30 31 C25.01876811 30.02008553 20.60591197 28.86968511 15.9375 26.875 C4.07674543 22.44587906 -10.5085508 24.37049908 -21.93359375 29.25390625 C-35.25128097 36.03281223 -44.0078446 46.1996487 -49.08203125 60.20703125 C-52.5432329 74.50842189 -50.21847397 88.27783838 -42.6875 100.8125 C-34.66416033 112.67680015 -24.50179812 119.10550776 -10.640625 122.59375 C4.03940662 124.8522164 18.69758599 122.55585162 31 114 C40.7223033 105.85352589 48.85477236 95.24779686 50.30200195 82.29760742 C50.43718574 79.39955804 50.46785064 76.52599527 50.4375 73.625 C50.42505249 72.09709839 50.42505249 72.09709839 50.41235352 70.53833008 C50.07594098 55.6200503 43.56716308 46.01673325 34 35 C35.1446875 34.8453125 35.1446875 34.8453125 36.3125 34.6875 C38.97953229 34.2551856 38.97953229 34.2551856 40.296875 32.66015625 C42.59052322 30.4243753 45.08818456 29.20107288 47.9375 27.75 C48.97777344 27.20859375 50.01804687 26.6671875 51.08984375 26.109375 C54.06011094 24.97708522 55.12310936 24.80765015 58 26 C57 29 57 29 54.41796875 30.5 C53.35191406 30.995 52.28585937 31.49 51.1875 32 C47.47953819 33.73429639 44.18171963 35.41148233 41 38 C42.34326386 40.89121554 43.89009623 43.26115693 45.875 45.75 C54.585449 57.20105369 56.03469655 68.82236263 54.72265625 82.99609375 C53.49122284 91.0766425 51.04903692 100.25076957 45 106 C45 109.28503738 46.24398399 110.24993482 48.5625 112.625 C49.366875 113.40875 50.17125 114.1925 51 115 C51 115.66 51 116.32 51 117 C51.9590625 117.37125 51.9590625 117.37125 52.9375 117.75 C55 119 55 119 55.75 121.125 C55.8325 121.74375 55.915 122.3625 56 123 C54.68 123 53.36 123 52 123 C52 122.34 52 121.68 52 121 C51.12601563 120.61714844 51.12601563 120.61714844 50.234375 120.2265625 C47.78611777 118.88258913 46.18256752 117.38189704 44.25 115.375 C43.63640625 114.74335937 43.0228125 114.11171875 42.390625 113.4609375 C41.93171875 112.97882813 41.4728125 112.49671875 41 112 C40.175 112.825 39.35 113.65 38.5 114.5 C25.66150094 125.50442776 10.50910563 128.9911963 -6 128 C-17.32593291 126.83748046 -24.8277394 123.33626916 -34 117 C-35.65904024 115.98739778 -37.32312415 114.98278438 -39 114 C-40.48113281 114.97453125 -40.48113281 114.97453125 -41.9921875 115.96875 C-43.28630293 116.81273833 -44.58058229 117.65647535 -45.875 118.5 C-46.85146484 119.14388672 -46.85146484 119.14388672 -47.84765625 119.80078125 C-52.7734375 123 -52.7734375 123 -55 123 C-55 122.01 -55 121.02 -55 120 C-54.34 120 -53.68 120 -53 120 C-52.76539063 119.39671875 -52.53078125 118.7934375 -52.2890625 118.171875 C-50.6846427 115.46867073 -49.14941313 114.67684104 -46.375 113.25 C-45.55773437 112.82203125 -44.74046875 112.3940625 -43.8984375 111.953125 C-43.27195312 111.63859375 -42.64546875 111.3240625 -42 111 C-42.47050781 110.26394531 -42.94101562 109.52789063 -43.42578125 108.76953125 C-44.04839844 107.79371094 -44.67101562 106.81789063 -45.3125 105.8125 C-45.92738281 104.84957031 -46.54226563 103.88664063 -47.17578125 102.89453125 C-47.77777344 101.93933594 -48.37976563 100.98414063 -49 100 C-49.53625 99.15308594 -50.0725 98.30617188 -50.625 97.43359375 C-56.69571048 86.68912606 -56.71765993 71.2035462 -53.80859375 59.38671875 C-48.91040088 44.9287678 -38.68610085 32.85372714 -25.26171875 25.5 C-17.15723067 21.8151448 -8.73152278 20.36291536 0 19 C-0.33 18.67 -0.66 18.34 -1 18 C-1.10002455 15.34346557 -1.13877463 12.71870728 -1.125 10.0625 C-1.13080078 8.9497168 -1.13080078 8.9497168 -1.13671875 7.81445312 C-1.12663501 2.25327002 -1.12663501 2.25327002 0 0 Z " fill="#ECAD54" transform="translate(333,533)"/>
<path d="M0 0 C1.28076416 0.29874023 1.28076416 0.29874023 2.58740234 0.60351562 C10.74046902 2.53717768 18.59384574 5.11240885 26.5 7.875 C27.72847656 8.29652344 28.95695312 8.71804688 30.22265625 9.15234375 C41.73611568 13.1448159 52.69705263 17.55956858 63.3125 23.5625 C64.15361328 24.03107422 64.99472656 24.49964844 65.86132812 24.98242188 C67.49925364 25.8966426 69.13477699 26.81518365 70.76757812 27.73852539 C72.14764344 28.51835889 73.53111694 29.29223589 74.91992188 30.05639648 C79.14604136 32.40273896 82.99648245 35.07316275 86.875 37.9375 C91.51080875 41.31079325 96.13289585 44.41137222 101.23046875 47.0625 C103 48 103 48 106 50 C106 50.66 106 51.32 106 52 C106.68707031 52.21269531 107.37414062 52.42539062 108.08203125 52.64453125 C111.88756888 54.41229773 114.58818809 56.89752359 117.6875 59.6875 C121.74238074 63.25963161 125.75609631 66.66782462 130.25 69.6875 C135.62418995 73.30270343 140.2467425 77.61938464 145 82 C152.15910367 88.27670252 159.56187048 93.58560817 168 98 C168 98.66 168 99.32 168 100 C168.7319458 100.27545654 169.4638916 100.55091309 170.21801758 100.8347168 C172.82987641 101.92874068 175.10401335 103.16256718 177.51171875 104.64453125 C178.35283203 105.15693359 179.19394531 105.66933594 180.06054688 106.19726562 C181.79244731 107.26215905 183.5242211 108.32725846 185.25585938 109.39257812 C191.03706822 112.91405971 196.91175901 116.04545968 203 119 C204.26564608 119.63539201 205.53010105 120.27316609 206.79296875 120.9140625 C207.91316406 121.47867188 209.03335937 122.04328125 210.1875 122.625 C211.87939453 123.47964844 211.87939453 123.47964844 213.60546875 124.3515625 C217.03406364 126.01654184 220.48594716 127.52650897 224 129 C224 129.66 224 130.32 224 131 C224.64839844 131.2578125 225.29679687 131.515625 225.96484375 131.78125 C229.83804527 133.33651239 233.70111246 134.91567104 237.5625 136.5 C238.31724609 136.80808594 239.07199219 137.11617187 239.84960938 137.43359375 C240.58115234 137.73394531 241.31269531 138.03429687 242.06640625 138.34375 C242.72584229 138.61380859 243.38527832 138.88386719 244.06469727 139.16210938 C246.08377343 140.03626976 248.04116816 140.99891016 250 142 C250 142.99 250 143.98 250 145 C244.72497572 145.69408214 241.56025936 143.97140568 237.05859375 141.56640625 C232.67484354 139.32134388 228.1550022 137.4203788 223.62158203 135.49975586 C219.89160192 133.89994766 216.45041037 132.12813139 213 130 C211.11206823 129.04668792 209.21572929 128.10989283 207.3125 127.1875 C202.73415052 124.91495365 198.3477282 122.49108631 194 119.80859375 C191.60156368 118.36266144 189.19059573 116.96969272 186.75 115.59765625 C178.44331546 110.91130602 170.35793417 106.06665976 162.5625 100.5625 C161.85923584 100.06669434 161.15597168 99.57088867 160.43139648 99.06005859 C157.68830659 97.08729538 155.20016206 95.20595337 152.83984375 92.77734375 C151.081837 90.85271616 151.081837 90.85271616 148.55859375 90.03515625 C145.33085726 88.72927813 143.53920011 86.87603832 141.0625 84.4375 C136.32459719 79.99451401 131.44119663 76.53679695 125.93212891 73.1237793 C119.44107361 69.08604334 114.38115849 64.38115849 109 59 C106.70804785 57.05184067 104.49503163 55.29130353 101.90234375 53.765625 C97.84340262 51.29639029 93.97016618 48.57534388 90.0625 45.875 C77.63551578 37.35387626 65.42992803 29.32786418 51.79541016 22.85498047 C50.22488122 22.10708921 48.66426966 21.33844395 47.10546875 20.56640625 C39.34638445 16.83227423 31.23631029 14.41633078 23 12 C22.16549316 11.75072754 21.33098633 11.50145508 20.47119141 11.24462891 C1.94545278 5.71604123 -15.77057744 2.18853039 -35.125 1.4375 C-36.7028125 1.37272461 -36.7028125 1.37272461 -38.3125 1.30664062 C-40.87490627 1.20181491 -43.43738799 1.09964645 -46 1 C-46 1.66 -46 2.32 -46 3 C-48.31 3 -50.62 3 -53 3 C-53.5625 1.0625 -53.5625 1.0625 -54 -1 C-45.24965048 -9.75034952 -11.25929233 -2.9262118 0 0 Z " fill="#FE6FC7" transform="translate(426,505)"/>
<path d="M0 0 C1.43545774 1.37650144 2.85300231 2.77198151 4.25 4.1875 C8.96424737 8.55843628 13.76024291 9.54338642 19.92578125 10.93359375 C24.41784886 12.01033173 28.54102479 13.74510958 32.75 15.625 C33.76912476 16.07758179 33.76912476 16.07758179 34.80883789 16.53930664 C37.71312768 17.85870189 40.33976317 19.22650878 43 21 C42.67 21.99 42.34 22.98 42 24 C40.51113281 23.22076172 40.51113281 23.22076172 38.9921875 22.42578125 C30.17381079 17.87689584 21.44237774 14.06877277 12 11 C12.7734375 11.969375 13.546875 12.93875 14.34375 13.9375 C21.55609042 23.15249479 27.23637012 32.31931897 32 43 C32.41894531 43.92554688 32.83789062 44.85109375 33.26953125 45.8046875 C42.58419603 67.64356448 42.78016507 93.59682911 34.6875 115.8125 C30.46107294 126.00120809 25.26651818 134.68927744 18 143 C17.46890625 143.61488281 16.9378125 144.22976563 16.390625 144.86328125 C8.12276322 153.76555816 -3.00139733 160.1217082 -14 165 C-14.83402344 165.37898437 -15.66804687 165.75796875 -16.52734375 166.1484375 C-39.76084197 175.67094987 -67.13559844 173.4341231 -91 168 C-92.2271875 167.74605469 -93.454375 167.49210938 -94.71875 167.23046875 C-120.08818591 161.32451062 -145.24076194 149.21497669 -167 135 C-166.34 134.67 -165.68 134.34 -165 134 C-162.25359338 135.34694408 -159.60577094 136.76042337 -156.9375 138.25 C-140.70319287 147.04332034 -123.72922445 154.76466431 -106 160 C-104.88367188 160.35449219 -103.76734375 160.70898438 -102.6171875 161.07421875 C-70.6053881 170.88193406 -36.23426197 171.66269461 -6.0625 156.125 C-5.28165039 155.72667969 -4.50080078 155.32835937 -3.69628906 154.91796875 C14.19661331 145.3485908 26.08026512 127.24406759 32.1171875 108.25390625 C36.72841644 91.2576509 35.86594038 73.99651319 32 57 C31.77957031 56.02289062 31.55914062 55.04578125 31.33203125 54.0390625 C27.13751347 39.17726854 18.21376706 23.61796919 7 13 C6.39285156 12.32582031 5.78570312 11.65164063 5.16015625 10.95703125 C-2.28022749 2.82451879 -12.43646677 -3.83094003 -23 -7 C-23 -7.33 -23 -7.66 -23 -8 C-13.48826202 -9.86504666 -7.58969462 -5.40765742 0 0 Z " fill="#ECAE55" transform="translate(396,516)"/>
<path d="M0 0 C5.85987836 -0.20845417 10.44206516 -0.00085654 16 2 C34.44669108 6.21453399 54.16596709 6.31633878 73 7 C73 7.99 73 8.98 73 10 C50.49757768 13.64352693 20.56239274 11.17297325 0 1 C0 0.67 0 0.34 0 0 Z " fill="#FF71C8" transform="translate(681,650)"/>
<path d="M0 0 C1.58941406 0.01353516 1.58941406 0.01353516 3.2109375 0.02734375 C4.00757813 0.03894531 4.80421875 0.05054688 5.625 0.0625 C5.625 1.3825 5.625 2.7025 5.625 4.0625 C4.531875 4.1140625 3.43875 4.165625 2.3125 4.21875 C-8.78445163 4.96057695 -18.37964356 7.48473307 -28.8359375 11.23046875 C-36.1247194 13.79293114 -42.58295428 15.30600143 -50.375 15.0625 C-48.16322388 12.54880165 -46.44512263 11.53338806 -43.234375 10.6328125 C-42.00968506 10.27932739 -42.00968506 10.27932739 -40.76025391 9.91870117 C-39.45580322 9.55675659 -39.45580322 9.55675659 -38.125 9.1875 C-36.31452049 8.66739207 -34.50462843 8.14523512 -32.6953125 7.62109375 C-31.34808105 7.23219971 -31.34808105 7.23219971 -29.97363281 6.83544922 C-25.11075275 5.38901195 -20.32863516 3.71337276 -15.5390625 2.04296875 C-10.29837513 0.41900266 -5.4718938 -0.06079882 0 0 Z " fill="#FE70C5" transform="translate(810.375,642.9375)"/>
<path d="M0 0 C4 2 4 2 5.23828125 4.859375 C6.50439471 10.23583041 6.25016902 15.76151354 6.1875 21.25 C6.18685547 22.33796875 6.18621094 23.4259375 6.18554688 24.546875 C6.14082166 32.57753501 6.14082166 32.57753501 5 36 C3.35 36 1.7 36 0 36 C0 24.12 0 12.24 0 0 Z " fill="#ECAE55" transform="translate(508,291)"/>
<path d="M0 0 C1.65 0 3.3 0 5 0 C5 0.66 5 1.32 5 2 C6.423125 1.9690625 6.423125 1.9690625 7.875 1.9375 C11 2 11 2 13 3 C13 3.66 13 4.32 13 5 C13.85980469 5.09667969 14.71960938 5.19335938 15.60546875 5.29296875 C19.36621509 6.07627725 21.99877203 7.38533815 25.3125 9.3125 C26.88451172 10.20388672 26.88451172 10.20388672 28.48828125 11.11328125 C31 13 31 13 31.85546875 15.23046875 C31.90316406 15.81441406 31.95085937 16.39835938 32 17 C27.86467525 18.19576209 25.92046586 17.87781595 22.1640625 15.83203125 C21.26429688 15.35056641 20.36453125 14.86910156 19.4375 14.37304688 C18.509375 13.85806641 17.58125 13.34308594 16.625 12.8125 C15.70460937 12.31685547 14.78421875 11.82121094 13.8359375 11.31054688 C8.84841281 8.61372103 3.91062176 5.83409162 -1 3 C-0.67 2.01 -0.34 1.02 0 0 Z " fill="#ECAC51" transform="translate(153,506)"/>
<path d="M0 0 C-0.99355196 3.20144519 -1.95899878 3.97731848 -4.9375 5.625 C-15.05152282 9.41775856 -25.37529484 9.2399557 -36 9 C-36 7.68 -36 6.36 -36 5 C-10.00824538 -0.39248021 -10.00824538 -0.39248021 0 0 Z " fill="#ECAC52" transform="translate(921,630)"/>
<path d="M0 0 C1.65 0 3.3 0 5 0 C5.33 0.99 5.66 1.98 6 3 C6.804375 3.309375 7.60875 3.61875 8.4375 3.9375 C11 5 11 5 12.3125 7.125 C12.6528125 8.053125 12.6528125 8.053125 13 9 C13.66 9 14.32 9 15 9 C19.60601898 13.46679422 23.3764264 18.7293475 27 24 C26.34 24.99 25.68 25.98 25 27 C19.98343041 25.5666944 17.98547118 23.09436048 15 19 C15 18.34 15 17.68 15 17 C14.01 16.67 13.02 16.34 12 16 C12 15.34 12 14.68 12 14 C11.01 13.67 10.02 13.34 9 13 C7.37090909 11.24710944 5.81595653 9.42426823 4.3125 7.5625 C3.10013672 6.07943359 3.10013672 6.07943359 1.86328125 4.56640625 C0 2 0 2 0 0 Z " fill="#ECAC51" transform="translate(241,394)"/>
<path d="M0 0 C0 1.65 0 3.3 0 5 C-0.99 5.33 -1.98 5.66 -3 6 C-3.06960938 7.03640625 -3.06960938 7.03640625 -3.140625 8.09375 C-4.35307863 12.19404772 -6.80901698 14.48199123 -9.75 17.5 C-10.2759375 18.05558594 -10.801875 18.61117188 -11.34375 19.18359375 C-14.50703771 22.51130978 -17.74156288 25.76569945 -21 29 C-21.99 28.67 -22.98 28.34 -24 28 C-23.50228441 23.53636019 -22.02276894 21.51419419 -18.9375 18.3125 C-14.96203192 14.07707308 -11.29846461 9.70770258 -7.7265625 5.12890625 C-3.56697248 0 -3.56697248 0 0 0 Z " fill="#ECAC52" transform="translate(781,386)"/>
<path d="M0 0 C-0.50603992 2.16874252 -0.99983813 3.99967627 -2 6 C-2.99 6 -3.98 6 -5 6 C-5.26296875 6.62261719 -5.5259375 7.24523437 -5.796875 7.88671875 C-7.39536957 10.69446409 -9.50220678 11.47096645 -12.37109375 12.78125 C-14.45259828 13.74622684 -16.50089875 14.78278918 -18.53515625 15.84375 C-19.15680664 16.16754639 -19.77845703 16.49134277 -20.41894531 16.82495117 C-21.67033813 17.47759222 -22.91847748 18.13651408 -24.16308594 18.80200195 C-25.73853054 19.6108902 -27.36754051 20.31341285 -29 21 C-29.99 20.67 -30.98 20.34 -32 20 C-32 18.68 -32 17.36 -32 16 C-31.03320312 15.49210937 -30.06640625 14.98421875 -29.0703125 14.4609375 C-22.31114271 10.892583 -15.62543045 7.2945686 -9.1484375 3.2265625 C-6.2300556 1.56043174 -3.40727976 0 0 0 Z " fill="#EBAC51" transform="translate(874,495)"/>
<path d="M0 0 C0.66 0.33 1.32 0.66 2 1 C1.35343547 13.97588131 -1.92088301 23.55001265 -8 35 C-9.32 34.67 -10.64 34.34 -12 34 C-11.43221237 29.04763008 -10.35827243 24.73183087 -8.625 20.0625 C-8.17640625 18.84820312 -7.7278125 17.63390625 -7.265625 16.3828125 C-6.84796875 15.26648438 -6.4303125 14.15015625 -6 13 C-5.70609375 12.17242187 -5.4121875 11.34484375 -5.109375 10.4921875 C-3.76007788 6.71702642 -2.20145685 3.35460091 0 0 Z " fill="#EBAC51" transform="translate(653,314)"/>
<path d="M0 0 C1.875 0.25 1.875 0.25 4 1 C5.0625 2.875 5.0625 2.875 6 5 C6.46277344 5.41378906 6.92554688 5.82757813 7.40234375 6.25390625 C12.6627147 12.00301582 15.48345945 23.37087253 17 31 C16.67 31.66 16.34 32.32 16 33 C14.68 33 13.36 33 12 33 C10.37213321 28.95948215 8.74821568 24.91738836 7.125 20.875 C6.66480469 19.73289062 6.20460938 18.59078125 5.73046875 17.4140625 C5.28574219 16.30546875 4.84101563 15.196875 4.3828125 14.0546875 C3.77010498 12.53077393 3.77010498 12.53077393 3.14501953 10.97607422 C0 2.80170576 0 2.80170576 0 0 Z " fill="#EBAB50" transform="translate(365,319)"/>
<path d="M0 0 C0 1.65 0 3.3 0 5 C-7.70328198 4.47446191 -15.38264864 3.79322408 -23.0625 3 C-23.88339111 2.9170166 -24.70428223 2.8340332 -25.55004883 2.74853516 C-26.718302 2.62551025 -26.718302 2.62551025 -27.91015625 2.5 C-28.94861694 2.39171875 -28.94861694 2.39171875 -30.00805664 2.28125 C-32.0553943 1.99217867 -34.00441231 1.53625309 -36 1 C-35.67 0.01 -35.34 -0.98 -35 -2 C-26.57085929 -6.21457035 -8.83514864 -2.3505456 0 0 Z " fill="#EBAB4E" transform="translate(145,644)"/>
<path d="M0 0 C3.06967595 0.95927374 4.85204655 1.54170577 7 3.9375 C7.48992451 7.22699317 7.28924102 9.25055259 6 12.3125 C3.28967961 14.51463531 1.29116834 14.45095108 -2.125 14.25 C-4 13.9375 -4 13.9375 -6 12.875 C-7.60856522 9.75840489 -7.42213381 7.37487531 -7 3.9375 C-4.85906954 0.64376084 -3.96107745 -0.08252245 0 0 Z " fill="#FF70C8" transform="translate(455,353.0625)"/>
<path d="M0 0 C2.375 1.625 2.375 1.625 4 4 C4.61195145 7.6717087 4.48706506 9.28813568 2.375 12.375 C-0.71186432 14.48706506 -2.3282913 14.61195145 -6 14 C-8.4375 12.4375 -8.4375 12.4375 -10 10 C-9.93866496 6.5039028 -9.65265114 4.06485186 -7.8125 1.0625 C-5.04411529 -0.56034621 -3.14454533 -0.44922076 0 0 Z " fill="#FF73C9" transform="translate(847,567)"/>
<path d="M0 0 C3.18873549 -0.35430394 4.61589191 -0.25953249 7.3125 1.5625 C9.64689849 4.93440894 9.65604326 6.99084677 9 11 C6.875 13 6.875 13 4 14 C0.8125 13.875 0.8125 13.875 -2 13 C-4.1519437 9.77208445 -4.20086443 8.71599191 -4 5 C-2.68 4.34 -1.36 3.68 0 3 C0 2.01 0 1.02 0 0 Z " fill="#FF71C8" transform="translate(185,585)"/>
<path d="M0 0 C0.66 0.33 1.32 0.66 2 1 C3.48571429 8.08571429 3.48571429 8.08571429 1.9375 11 C-0.87379426 12.45099058 -2.88553312 12.38930836 -6 12 C-8.08477638 10.56222319 -8.81239178 9.40201761 -9.875 7.125 C-10.05721664 4.02731712 -8.79186662 2.45552093 -7 0 C-4.30919898 -1.34540051 -2.86443593 -0.71610898 0 0 Z " fill="#FF73C9" transform="translate(691,392)"/>
<path d="M0 0 C3.65316671 1.24976756 4.78065836 1.67098753 7 5 C7.32727273 10.34545455 7.32727273 10.34545455 6 13 C2.39427296 14.20190901 -0.2102435 14.32670315 -4 14 C-6.9375 12.4375 -6.9375 12.4375 -9 10 C-9.3125 6.25 -9.3125 6.25 -9 3 C-6.35261084 1.5393715 -5.10551666 1 -2 1 C-2 1.66 -2 2.32 -2 3 C-2.99 3.66 -3.98 4.32 -5 5 C-4.34 6.32 -3.68 7.64 -3 9 C-1.35 9 0.3 9 2 9 C1.41196203 5.97580475 0.77321882 2.98241547 0 0 Z " fill="#FF73C9" transform="translate(578,353)"/>
<path d="M0 0 C0 0.66 0 1.32 0 2 C-1.423125 2.61875 -1.423125 2.61875 -2.875 3.25 C-6.00716624 5.0040131 -6.86500606 5.70851757 -8 9 C-5.05272465 8.89830839 -5.05272465 8.89830839 -2 8 C-0.54708727 5.53744315 -0.54708727 5.53744315 0 3 C1.32 3 2.64 3 4 3 C3.74624791 6.72169726 3.39626084 8.55712024 0.875 11.375 C-2.7236802 13.40903664 -4.92477304 13.52827016 -9 13 C-11 11.875 -11 11.875 -12 10 C-11.9253642 6.49211723 -11.35833701 4.52372332 -9.375 1.625 C-6.16391273 -0.57205971 -3.80341249 -0.29257019 0 0 Z " fill="#FF73C9" transform="translate(258,477)"/>
<path d="M0 0 C0.86625 0.3403125 0.86625 0.3403125 1.75 0.6875 C0.375 2.1875 0.375 2.1875 -1.25 3.6875 C-1.91 3.6875 -2.57 3.6875 -3.25 3.6875 C-2.59 5.3375 -1.93 6.9875 -1.25 8.6875 C0.73 8.6875 2.71 8.6875 4.75 8.6875 C4.42 6.3775 4.09 4.0675 3.75 1.6875 C4.74 1.6875 5.73 1.6875 6.75 1.6875 C8.90502531 4.92003796 9.21856135 5.93900923 8.75 9.6875 C7.10286983 12.24970249 5.78904294 12.6747686 2.875 13.625 C-0.25 13.6875 -0.25 13.6875 -3.0625 12.1875 C-5.81009401 9.04739257 -6.0133636 6.78919759 -6.25 2.6875 C-2.80384615 -0.38942308 -2.80384615 -0.38942308 0 0 Z " fill="#FF75C9" transform="translate(775.25,466.3125)"/>
<path d="M0 0 C4 1 4 1 5.3125 2.75 C6.20847536 5.682283 6.07872272 7.12340607 5 10 C2.47967488 12.59033415 0.90085956 13.85334844 -2.6875 14.4375 C-3.8321875 14.2209375 -3.8321875 14.2209375 -5 14 C-7.45811625 10.31282562 -7.31118164 8.35654296 -7 4 C-6.34 3.01 -5.68 2.02 -5 1 C-4.01 1.33 -3.02 1.66 -2 2 C-2.33 4.31 -2.66 6.62 -3 9 C-1.35 8.67 0.3 8.34 2 8 C1.34 5.36 0.68 2.72 0 0 Z " fill="#FF76CA" transform="translate(338,399)"/>
<path d="M0 0 C1.65 0 3.3 0 5 0 C5 6.6 5 13.2 5 20 C1 19 1 19 -0.23828125 17.3515625 C-1.23360567 14.27881738 -1.22754579 11.60050653 -1.1875 8.375 C-1.18105469 7.22773438 -1.17460937 6.08046875 -1.16796875 4.8984375 C-1 2 -1 2 0 0 Z " fill="#ECAF58" transform="translate(509,336)"/>
<path d="M0 0 C2.77132017 0.30859025 5.54199986 0.6217033 8.3125 0.9375 C9.49102539 1.06801758 9.49102539 1.06801758 10.69335938 1.20117188 C11.45068359 1.28818359 12.20800781 1.37519531 12.98828125 1.46484375 C14.03302612 1.58267212 14.03302612 1.58267212 15.09887695 1.70288086 C17 2 17 2 20 3 C19.34 4.32 18.68 5.64 18 7 C15.75026553 7.054138 13.50015617 7.09285491 11.25 7.125 C9.99703125 7.14820313 8.7440625 7.17140625 7.453125 7.1953125 C4.27179508 7.01537302 2.63478104 6.68998582 0 5 C0 3.35 0 1.7 0 0 Z " fill="#ECAF57" transform="translate(155,645)"/>
<path d="M0 0 C4.08641257 0.73266488 7.59474154 2.68657975 11.25 4.5625 C11.8996875 4.89185547 12.549375 5.22121094 13.21875 5.56054688 C14.81434294 6.37007565 16.40742483 7.18455042 18 8 C17.67 8.99 17.34 9.98 17 11 C14.49704656 12.13973773 13.22007445 12.06066155 10.5625 11.328125 C9.716875 10.97234375 8.87125 10.6165625 8 10.25 C7.154375 9.90453125 6.30875 9.5590625 5.4375 9.203125 C3.04115206 8.02031223 1.07661109 6.6728256 -1 5 C-0.67 3.35 -0.34 1.7 0 0 Z " fill="#ECAF57" transform="translate(194,525)"/>
<path d="M0 0 C3.28754511 0.57889381 4.93672495 1.54828411 7.25 3.9375 C7.77078125 4.46214844 8.2915625 4.98679687 8.828125 5.52734375 C10 7 10 7 10 9 C11.32 9.66 12.64 10.32 14 11 C14 12.32 14 13.64 14 15 C7.57596232 14.54114017 4.40846389 11.48615627 0.0625 7 C-1.35794385 4.32622334 -0.86448215 2.82921431 0 0 Z " fill="#ECAE55" transform="translate(273,426)"/>
<path d="M0 0 C0 0.99 0 1.98 0 3 C-1.89791695 3.94895848 -3.79604568 4.89749607 -5.6953125 5.84375 C-7.21514971 6.6062446 -8.730915 7.37691784 -10.2421875 8.15625 C-10.94601562 8.5171875 -11.64984375 8.878125 -12.375 9.25 C-13.02210938 9.58515625 -13.66921875 9.9203125 -14.3359375 10.265625 C-16 11 -16 11 -18 11 C-18 9.35 -18 7.7 -18 6 C-17.34 6 -16.68 6 -16 6 C-16 5.34 -16 4.68 -16 4 C-14.58671871 3.18162558 -13.16921654 2.37053781 -11.75 1.5625 C-10.56664062 0.88380859 -10.56664062 0.88380859 -9.359375 0.19140625 C-3.87046632 -2.58031088 -3.87046632 -2.58031088 0 0 Z " fill="#ECAE55" transform="translate(835,519)"/>
<path d="M0 0 C0.33 1.65 0.66 3.3 1 5 C-1.20751848 5.33868777 -3.41605911 5.67071689 -5.625 6 C-6.85476563 6.185625 -8.08453125 6.37125 -9.3515625 6.5625 C-12.6166027 6.95402516 -15.71712451 7.08080924 -19 7 C-18.9375 5.1875 -18.9375 5.1875 -18 3 C-12.1679039 -0.54997154 -6.68372526 -0.32633017 0 0 Z " fill="#ECAD53" transform="translate(875,637)"/>
<path d="M0 0 C1.83203125 0.140625 1.83203125 0.140625 4 1 C5.44921875 3.546875 5.44921875 3.546875 6.6875 6.75 C7.10386719 7.79671875 7.52023437 8.8434375 7.94921875 9.921875 C8.87120819 12.6227214 9.52661413 15.19089705 10 18 C8.35 18 6.7 18 5 18 C5 17.01 5 16.02 5 15 C4.01 14.67 3.02 14.34 2 14 C-0.01018861 10.13916156 -1.12945267 6.26863621 -0.6875 1.9375 C-0.460625 1.298125 -0.23375 0.65875 0 0 Z " fill="#ECAD53" transform="translate(383,360)"/>
<path d="M0 0 C2.125 0.375 2.125 0.375 4 1 C3.27275406 6.52706913 1.66554027 11.69960141 0 17 C-0.66 17 -1.32 17 -2 17 C-2 17.66 -2 18.32 -2 19 C-2.99 18.67 -3.98 18.34 -5 18 C-5.37164821 12.17751144 -4.37617945 7.35185372 -2 2 C-1.34 1.34 -0.68 0.68 0 0 Z " fill="#EBAB50" transform="translate(637,357)"/>
<path d="M0 0 C2.125 0.9375 2.125 0.9375 4 2 C2.20143053 5.19745684 0.2031986 8.21219992 -1.9375 11.1875 C-2.42089844 11.86167969 -2.90429688 12.53585937 -3.40234375 13.23046875 C-5.12704413 15.14071147 -6.64525003 16.00825865 -9 17 C-9.89436059 14.58522641 -10.05146076 13.21156091 -9.4375 10.6875 C-7.2468984 6.59202744 -4.23596776 2.11798388 0 0 Z " fill="#EBAB4F" transform="translate(749,420)"/>
<path d="M0 0 C1.32 0 2.64 0 4 0 C3.67 6.6 3.34 13.2 3 20 C3.99 20.33 4.98 20.66 6 21 C2.37 21 -1.26 21 -5 21 C-5 20.67 -5 20.34 -5 20 C-3.35 19.67 -1.7 19.34 0 19 C-0.33 18.67 -0.66 18.34 -1 18 C-1.10002455 15.34346557 -1.13877463 12.71870728 -1.125 10.0625 C-1.12886719 9.32064453 -1.13273437 8.57878906 -1.13671875 7.81445312 C-1.12663501 2.25327002 -1.12663501 2.25327002 0 0 Z " fill="#EDB35F" transform="translate(333,533)"/>
<path d="M0 0 C0.66 0 1.32 0 2 0 C2 0.66 2 1.32 2 2 C2.66 1.67 3.32 1.34 4 1 C5.35157981 0.90534655 6.70761148 0.86927838 8.0625 0.8671875 C8.85914063 0.86589844 9.65578125 0.86460937 10.4765625 0.86328125 C11.30929687 0.86714844 12.14203125 0.87101563 13 0.875 C14.24910156 0.86919922 14.24910156 0.86919922 15.5234375 0.86328125 C16.71839844 0.86521484 16.71839844 0.86521484 17.9375 0.8671875 C18.66839844 0.86831543 19.39929688 0.86944336 20.15234375 0.87060547 C22 1 22 1 24 2 C24 2.99 24 3.98 24 5 C20.37501666 5.02893932 16.75006287 5.04677792 13.125 5.0625 C11.57619141 5.07506836 11.57619141 5.07506836 9.99609375 5.08789062 C9.00996094 5.09111328 8.02382813 5.09433594 7.0078125 5.09765625 C5.64100342 5.10551147 5.64100342 5.10551147 4.24658203 5.11352539 C2 5 2 5 0 4 C0 2.68 0 1.36 0 0 Z " fill="#ECAF57" transform="translate(252,598)"/>
<path d="M0 0 C0.99 0 1.98 0 3 0 C3 0.66 3 1.32 3 2 C3.88751953 2.37318359 3.88751953 2.37318359 4.79296875 2.75390625 C7.31714262 4.17905928 8.57911995 5.62776033 10.3125 7.9375 C10.84488281 8.62714844 11.37726563 9.31679688 11.92578125 10.02734375 C12.28027344 10.67832031 12.63476562 11.32929687 13 12 C12.67 12.99 12.34 13.98 12 15 C7.96369732 13.47275034 6.21014954 10.96243269 3.75 7.5 C3.04359375 6.5203125 2.3371875 5.540625 1.609375 4.53125 C0 2 0 2 0 0 Z " fill="#ECAC52" transform="translate(286,550)"/>
<path d="M0 0 C1.27617187 0.02320313 2.55234375 0.04640625 3.8671875 0.0703125 C5.78917969 0.09738281 5.78917969 0.09738281 7.75 0.125 C9.23113281 0.15980469 9.23113281 0.15980469 10.7421875 0.1953125 C11.0721875 1.5153125 11.4021875 2.8353125 11.7421875 4.1953125 C9.28356349 4.24915098 6.826112 4.28890288 4.3671875 4.3203125 C3.31917969 4.34544922 3.31917969 4.34544922 2.25 4.37109375 C0.41321264 4.38875517 -1.42383213 4.29834511 -3.2578125 4.1953125 C-3.9178125 3.5353125 -4.5778125 2.8753125 -5.2578125 2.1953125 C-3.2578125 0.1953125 -3.2578125 0.1953125 0 0 Z " fill="#ECAE55" transform="translate(395.2578125,603.8046875)"/>
<path d="M0 0 C1.32 0 2.64 0 4 0 C4 3.3 4 6.6 4 10 C2.68 10.33 1.36 10.66 0 11 C-1.125 3.375 -1.125 3.375 0 0 Z " fill="#EDB360" transform="translate(333,664)"/>
<path d="M0 0 C0.99 0.66 1.98 1.32 3 2 C2.01 2 1.02 2 0 2 C-0.144375 2.804375 -0.28875 3.60875 -0.4375 4.4375 C-1 7 -1 7 -2 8 C-3.99958364 8.04080783 -6.00045254 8.04254356 -8 8 C-6.9802693 4.22699642 -6.34127338 3.19793856 -2.875 1.1875 C-1.92625 0.795625 -0.9775 0.40375 0 0 Z " fill="" transform="translate(258,478)"/>
<path d="M0 0 C2.1875 0.3125 2.1875 0.3125 4 1 C4 2.65 4 4.3 4 6 C2.35 6.33 0.7 6.66 -1 7 C-1.66 5.68 -2.32 4.36 -3 3 C-1.75 1.4375 -1.75 1.4375 0 0 Z " fill="" transform="translate(454,356)"/>
<path d="M0 0 C0.66 0 1.32 0 2 0 C2.33 1.98 2.66 3.96 3 6 C-0.75 7.125 -0.75 7.125 -3 6 C-2.42655063 3.13275314 -2.1385485 2.1385485 0 0 Z " fill="" transform="translate(844,570)"/>
<path d="M0 0 C0.99 0.33 1.98 0.66 3 1 C2.67 2.65 2.34 4.3 2 6 C0.68 5.67 -0.64 5.34 -2 5 C-1.125 1.125 -1.125 1.125 0 0 Z " fill="" transform="translate(187,589)"/>
<path d="M0 0 C1.32 0 2.64 0 4 0 C4 1.65 4 3.3 4 5 C2.35 4.67 0.7 4.34 -1 4 C-0.67 2.68 -0.34 1.36 0 0 Z " fill="" transform="translate(686,395)"/>
</svg>
